<svg width="76" height="76" viewBox="0 0 76 76" fill="none" xmlns="http://www.w3.org/2000/svg">
<path d="M73.7696 0.0799499L1.05803 24.323C0.760317 24.422 0.499777 24.6093 0.311028 24.8599C0.122279 25.1105 0.0142578 25.4126 0.00131612 25.7261C-0.0116256 26.0396 0.0711254 26.3496 0.238574 26.6149C0.406023 26.8802 0.650241 27.0883 0.938781 27.2115L27.6596 38.6639C27.7996 38.7246 27.953 38.7479 28.1047 38.7316C28.2564 38.7154 28.4013 38.6601 28.5253 38.5712L54.7205 19.8534C55.5332 19.2792 56.5314 20.2774 55.9572 21.09L37.2394 47.2853C37.152 47.4092 37.0979 47.5535 37.0824 47.7043C37.067 47.8552 37.0906 48.0075 37.151 48.1465L48.599 74.8674C48.7218 75.156 48.9295 75.4005 49.1946 75.5683C49.4596 75.7361 49.7695 75.8193 50.0829 75.8069C50.3964 75.7944 50.6986 75.6869 50.9495 75.4985C51.2004 75.3102 51.388 75.05 51.4875 74.7525L75.7306 2.03653C75.8218 1.76398 75.8353 1.4714 75.7694 1.19163C75.7036 0.911864 75.561 0.655997 75.3578 0.452765C75.1546 0.249533 74.8987 0.106984 74.6189 0.0411273C74.3392 -0.024729 74.0422 -0.011285 73.7696 0.0799499Z" fill="black"/>
</svg>
