<svg width="21" height="20" viewBox="0 0 21 20" fill="none" xmlns="http://www.w3.org/2000/svg">
<path d="M13.9272 14.6578L9.4185 12.5M6.99932 8.6578L11.508 6.5M19.8658 16C19.8658 17.6569 18.4626 19 16.7316 19C15.0006 19 13.5974 17.6569 13.5974 16C13.5974 14.3431 15.0006 13 16.7316 13C18.4626 13 19.8658 14.3431 19.8658 16ZM19.8658 4C19.8658 5.65685 18.4626 7 16.7316 7C15.0006 7 13.5974 5.65685 13.5974 4C13.5974 2.34315 15.0006 1 16.7316 1C18.4626 1 19.8658 2.34315 19.8658 4ZM7.32904 10C7.32904 11.6569 5.92582 13 4.19485 13C2.46389 13 1.06067 11.6569 1.06067 10C1.06067 8.34315 2.46389 7 4.19485 7C5.92582 7 7.32904 8.34315 7.32904 10Z" stroke="#6B4020" stroke-linecap="round" stroke-linejoin="round"/>
</svg>
