<svg width="17" height="17" viewBox="0 0 17 17" fill="none" xmlns="http://www.w3.org/2000/svg">
<path d="M14.7673 6.2376L10.8002 5.66104L9.02671 2.06573C8.97828 1.96729 8.89859 1.8876 8.80015 1.83917C8.55328 1.71729 8.25328 1.81885 8.12984 2.06573L6.3564 5.66104L2.38921 6.2376C2.27984 6.25323 2.17984 6.30479 2.10328 6.38292C2.01072 6.47805 1.95971 6.60604 1.96147 6.73876C1.96323 6.87148 2.0176 6.99808 2.11265 7.09073L4.98296 9.88917L4.30484 13.8407C4.28894 13.9327 4.29911 14.0272 4.3342 14.1136C4.36929 14.2001 4.4279 14.2749 4.50338 14.3298C4.57886 14.3846 4.66819 14.4171 4.76124 14.4238C4.8543 14.4304 4.94734 14.4108 5.02984 14.3673L8.57828 12.5017L12.1267 14.3673C12.2236 14.4189 12.3361 14.436 12.4439 14.4173C12.7158 14.3704 12.8986 14.1126 12.8517 13.8407L12.1736 9.88917L15.0439 7.09073C15.122 7.01417 15.1736 6.91417 15.1892 6.80479C15.2314 6.53135 15.0408 6.27823 14.7673 6.2376Z" fill="#C2854E"/>
</svg>
