<svg width="13" height="15" viewBox="0 0 13 15" fill="none" xmlns="http://www.w3.org/2000/svg">
<path d="M9.86158 3.6534H11.9993C12.1286 3.65353 12.2533 3.70164 12.3491 3.78843C12.445 3.87521 12.5052 3.99448 12.5181 4.12312L12.8365 7.3068H11.7864L11.5254 4.69723H9.86158V6.26297C9.86158 6.40139 9.80659 6.53414 9.70871 6.63202C9.61084 6.7299 9.47808 6.78489 9.33966 6.78489C9.20124 6.78489 9.06849 6.7299 8.97061 6.63202C8.87274 6.53414 8.81775 6.40139 8.81775 6.26297V4.69723H4.64243V6.26297C4.64243 6.40139 4.58745 6.53414 4.48957 6.63202C4.39169 6.7299 4.25894 6.78489 4.12052 6.78489C3.9821 6.78489 3.84935 6.7299 3.75147 6.63202C3.65359 6.53414 3.59861 6.40139 3.59861 6.26297V4.69723H1.9337L1.09864 13.0479H6.73009V14.0917H0.521399C0.448502 14.0916 0.376429 14.0763 0.309822 14.0467C0.243216 14.017 0.183554 13.9738 0.13468 13.9197C0.0858055 13.8656 0.0488036 13.8019 0.0260577 13.7326C0.00331184 13.6634 -0.00467354 13.5901 0.00261619 13.5176L0.942062 4.12312C0.954991 3.99448 1.01521 3.87521 1.11106 3.78843C1.2069 3.70164 1.33155 3.65353 1.46084 3.6534H3.59861V3.2891C3.59861 1.47911 4.99316 0 6.73009 0C8.46702 0 9.86158 1.47911 9.86158 3.2891V3.65444V3.6534ZM8.81775 3.6534V3.2891C8.81775 2.04277 7.87622 1.04383 6.73009 1.04383C5.58397 1.04383 4.64243 2.04277 4.64243 3.2891V3.65444H8.81775V3.6534ZM12.1027 11.5447L10.9054 10.3485V14.0917C10.9054 14.2301 10.8504 14.3629 10.7525 14.4607C10.6547 14.5586 10.5219 14.6136 10.3835 14.6136C10.2451 14.6136 10.1123 14.5586 10.0144 14.4607C9.91656 14.3629 9.86158 14.2301 9.86158 14.0917V10.3485L8.66535 11.5447C8.61721 11.5946 8.55961 11.6344 8.49594 11.6617C8.43226 11.6891 8.36378 11.7035 8.29448 11.7041C8.22518 11.7047 8.15645 11.6915 8.09231 11.6652C8.02817 11.639 7.9699 11.6002 7.92089 11.5512C7.87189 11.5022 7.83314 11.4439 7.8069 11.3798C7.78065 11.3157 7.76745 11.2469 7.76805 11.1776C7.76865 11.1083 7.78305 11.0398 7.8104 10.9762C7.83776 10.9125 7.87752 10.8549 7.92736 10.8068L10.015 8.7191C10.1129 8.62126 10.2456 8.56629 10.384 8.56629C10.5224 8.56629 10.6551 8.62126 10.753 8.7191L12.8407 10.8068C12.8905 10.8549 12.9303 10.9125 12.9576 10.9762C12.985 11.0398 12.9994 11.1083 13 11.1776C13.0006 11.2469 12.9874 11.3157 12.9611 11.3798C12.9349 11.4439 12.8961 11.5022 12.8471 11.5512C12.7981 11.6002 12.7399 11.639 12.6757 11.6652C12.6116 11.6915 12.5428 11.7047 12.4735 11.7041C12.4043 11.7035 12.3358 11.6891 12.2721 11.6617C12.2084 11.6344 12.1508 11.5946 12.1027 11.5447Z" fill="#696CFF"/>
</svg>
