<svg width="21" height="15" viewBox="0 0 21 15" fill="none" xmlns="http://www.w3.org/2000/svg">
<path d="M10.7273 0.48053C17.1478 0.48053 21 7.54303 21 7.54303C21 7.54303 17.1478 14.6055 10.7273 14.6055C4.30686 14.6055 0.45459 7.54303 0.45459 7.54303C0.45459 7.54303 4.30686 0.48053 10.7273 0.48053ZM10.7273 1.76462C6.20732 1.76462 3.0202 5.9392 1.9634 7.54303C3.01892 9.14558 6.20603 13.3214 10.7273 13.3214C15.2473 13.3214 18.4344 9.14686 19.4912 7.54303C18.4357 5.94048 15.2486 1.76462 10.7273 1.76462ZM10.7273 3.04871C11.9193 3.04871 13.0624 3.52222 13.9053 4.36507C14.7481 5.20792 15.2216 6.35106 15.2216 7.54303C15.2216 8.735 14.7481 9.87814 13.9053 10.721C13.0624 11.5638 11.9193 12.0373 10.7273 12.0373C9.53535 12.0373 8.3922 11.5638 7.54935 10.721C6.70651 9.87814 6.233 8.735 6.233 7.54303C6.233 6.35106 6.70651 5.20792 7.54935 4.36507C8.3922 3.52222 9.53535 3.04871 10.7273 3.04871ZM10.7273 4.3328C9.87622 4.33381 9.06027 4.67235 8.45846 5.27417C7.85664 5.87599 7.5181 6.69193 7.51709 7.54303C7.51709 9.31251 8.95656 10.7533 10.7273 10.7533C12.4981 10.7533 13.9375 9.31251 13.9375 7.54303C13.9375 5.77355 12.4981 4.3328 10.7273 4.3328Z" fill="#696CFF"/>
</svg>
