<svg width="30" height="30" viewBox="0 0 30 30" fill="none" xmlns="http://www.w3.org/2000/svg">
<path d="M5.24397 24.3832C6.76753 23.3422 8.30753 22.5235 9.86397 21.927C11.4204 21.3305 13.1324 21.0322 14.9999 21.0322C16.8675 21.0322 18.5782 21.3305 20.1321 21.927C21.6861 22.5235 23.2394 23.3422 24.7921 24.3832C25.9613 23.13 26.8767 21.7169 27.5384 20.1439C28.2001 18.5709 28.5309 16.8588 28.5309 15.0076C28.5309 11.2359 27.2174 8.03658 24.5905 5.40964C21.9635 2.78266 18.7667 1.46917 14.9999 1.46917C11.2332 1.46917 8.03633 2.78266 5.40939 5.40964C2.78242 8.03658 1.46893 11.2359 1.46893 15.0076C1.46893 16.8588 1.80085 18.5709 2.46468 20.1439C3.12849 21.7169 4.05492 23.13 5.24397 24.3832ZM14.9964 15.6818C13.5963 15.6818 12.4243 15.2086 11.4802 14.2622C10.5361 13.3158 10.064 12.1425 10.064 10.7424C10.064 9.34232 10.5372 8.17022 11.4836 7.22613C12.4301 6.28205 13.6033 5.81001 15.0034 5.81001C16.4035 5.81001 17.5756 6.28322 18.5197 7.22963C19.4638 8.17605 19.9358 9.3493 19.9358 10.7494C19.9358 12.1495 19.4626 13.3216 18.5162 14.2657C17.5698 15.2098 16.3965 15.6818 14.9964 15.6818ZM15.006 29.8827C12.9433 29.8827 11.0045 29.4935 9.18976 28.7152C7.37499 27.9369 5.79822 26.8754 4.45947 25.5309C3.1207 24.1863 2.06233 22.6117 1.28439 20.8071C0.506418 19.0025 0.117432 17.0653 0.117432 14.9955C0.117432 12.9342 0.506598 10.9992 1.28493 9.1903C2.06324 7.38138 3.12467 5.80604 4.46922 4.46426C5.81378 3.12245 7.38836 2.06258 9.19297 1.28463C10.9976 0.506663 12.9348 0.117676 15.0046 0.117676C17.0659 0.117676 19.0009 0.506843 20.8098 1.28518C22.6187 2.06348 24.1941 3.12491 25.5358 4.46947C26.8777 5.81402 27.9375 7.38958 28.7155 9.19613C29.4934 11.0027 29.8824 12.9354 29.8824 14.9941C29.8824 17.0568 29.4933 18.9956 28.7149 20.8103C27.9366 22.6251 26.8752 24.2019 25.5306 25.5406C24.1861 26.8794 22.6105 27.9378 20.804 28.7157C18.9974 29.4937 17.0647 29.8827 15.006 29.8827ZM14.9981 28.5312C16.5506 28.5312 18.0855 28.2634 19.6028 27.7278C21.12 27.1921 22.4853 26.4055 23.6986 25.3677C22.4853 24.4443 21.148 23.7161 19.6866 23.1831C18.2251 22.6502 16.6641 22.3837 15.0034 22.3837C13.3427 22.3837 11.769 22.6387 10.2823 23.1487C8.79561 23.6586 7.4757 24.3983 6.32256 25.3677C7.52164 26.4055 8.87922 27.1921 10.3953 27.7278C11.9114 28.2634 13.4457 28.5312 14.9981 28.5312ZM15.0029 14.3303C16.0277 14.3303 16.8807 13.9886 17.5622 13.3051C18.2436 12.6217 18.5843 11.7676 18.5843 10.7429C18.5843 9.7182 18.2426 8.86512 17.5592 8.18368C16.8757 7.50223 16.0217 7.16151 14.9969 7.16151C13.9722 7.16151 13.1191 7.50322 12.4377 8.18663C11.7562 8.87008 11.4155 9.72416 11.4155 10.7489C11.4155 11.7736 11.7572 12.6267 12.4407 13.3081C13.1241 13.9896 13.9782 14.3303 15.0029 14.3303Z" fill="#6B4024"/>
</svg>
