<?xml version="1.0" encoding="UTF-8"?>
<svg id="Camada_2" data-name="Camada 2" xmlns="http://www.w3.org/2000/svg" viewBox="0 0 365.6 226.24">
  <defs>
    <style>
      .cls-1 {
        fill: #e12d59;
      }

      .cls-1, .cls-2, .cls-3 {
        stroke-width: 0px;
      }

      .cls-4 {
        stroke: #1d1d1b;
        stroke-miterlimit: 10;
        stroke-width: .5px;
      }

      .cls-4, .cls-3 {
        fill: #fff;
      }

      .cls-2 {
        fill: #1d1d1b;
      }
    </style>
  </defs>
  <g id="Camada_1-2" data-name="Camada 1">
    <g>
      <g>
        <path class="cls-4" d="M365.08,157.35c-14.01,0-27.55-.04-41.21-.04,0,3.14-.15,5.75.03,8.71.31,5,.87,9.98,2.87,14.66,1.91,4.46,5.13,7.07,10.19,7.89,8.41,1.37,14.5.03,20.07-6.63,1.95-2.33,3.82-4.86,5.3-7.56.76-1.39,1.04-1.58,2.96-1.16-.89,3.28-2.47,6.19-4.5,8.87-6.18,8.21-14.73,10.77-24.54,10.21-6.03-.35-11.63-2.1-16.51-5.75-6.68-5-10.29-11.82-11.36-19.99-.87-6.7-.45-13.34,2.25-19.62,4.14-9.66,11.58-15.17,21.93-16.72,4.94-.74,9.91-.67,14.74.72,9.05,2.61,14.3,8.87,16.49,17.83.62,2.56.84,5.63,1.29,8.57ZM348.99,155.09c0-1.4.05-2.72,0-4.03-.19-4.53-.59-9.03-2.47-13.24-1.24-2.77-2.98-5.16-6.15-5.78-4.61-.91-8.62.28-11.39,4.26-3.93,5.64-4.56,12.18-4.99,18.8h25Z"/>
        <path class="cls-4" d="M236.69,132.75c-3.41,0-6.29,0-9.45,0-1.48,0-1.57-.12-1.28-1.71h21.73v1.71c-2.41,0-2.93,0-5.26-.07-.98-.03-1.39.76-1.8,1.7-11.73,27.47-37.64,85.66-38.44,87.19-1.18,2.26-3.9,3.78-6.41,4.24-1.72.32-3.53.19-5.16-.2-2.97-.71-5.18-2.43-5.95-5.57-1.12-4.53,1.39-8.92,5.74-10.06,4.64-1.21,9.02,1.28,10.33,5.86.06.21,0,.02.12.43,1.52-3.54,3.08-6.5,4.53-9.87,1.82-4.25,3.26-8.44,5.04-12.72.19-.45.56-1.22.35-1.65-9.49-19.44-19.03-38.86-28.53-58.3-.38-.77-.83-1.04-1.67-1-1.42.07-2.84,0-4.25.03-.73.01-1.26-.05-1.26-1,0-.94.51-1.01,1.25-1.01,8.39.01,16.77,0,25.16,0,1.99,0,3.97.03,5.96-.01.81-.02,1.06.28,1.05,1.06,0,.76-.33.96-1.03.96-3.16-.02-6.32,0-9.75,0,6.98,14.29,13.8,28.27,20.83,42.66,6.16-14.37,12.03-28.33,18.17-42.66Z"/>
        <path class="cls-4" d="M146.96,178.49c-.35.97-.77,2.77-1.19,3.71-2.52,5.62-6.49,8.4-12.7,9.64-1.23.25-2.5.38-3.76.42-2.84.09-5.67-.09-8.41-.95-5.59-1.77-9.5-5.27-10.83-11.11-1.21-5.33-.39-10.34,3.23-14.65,2.18-2.6,5.03-4.27,8.15-5.49,3.34-1.31,6.83-2.03,10.4-2.3,1.9-.14,3.81-.21,5.71-.24,2.87-.04,5.74-.01,8.62-.02.8,0,.81,0,.8-.8-.01-2.67.06-5.35-.05-8.01-.15-3.51-.49-7.01-1.8-10.31-.87-2.18-2.18-3.86-4.31-5.05-1.3-.73-2.83-1-4.31-1.08-5.08-.29-9.58.53-14.08,2.87-.17.09-.41.21-.67.33.85.08,1.55-.01,2.27.15,3.32.72,5.87,2.48,6.63,5.93.56,2.56-.07,6.08-2.77,7.97-3.11,2.18-8.17,2.49-11.28-.21-1.53-1.33-2.29-3.01-2.43-4.99-.32-4.58,1.95-7.75,5.68-9.98,2.6-1.55,5.38-2.77,8.36-3.44,4.42-.98,8.88-1.28,13.39-.97,2.45.17,4.89.45,7.19,1.29,5.25,1.91,8.92,5.41,10.61,10.84.92,2.95,1.34,5.97,1.34,9.06,0,10.73,0,21.45,0,32.18,0,1.43.09,2.85.83,4.14.39.68.94,1.15,1.7,1.33,1.68.4,3.24.13,4.72-.8,1.87-1.18,3.43-2.63,4.4-4.67.29-.6.46-.59.87-.04.74.98.73.98.05,2.05-2.64,4.19-6.51,6.34-11.35,6.89-.8.09-1.63,0-2.44,0-.84,0-1.68.1-2.5-.02-2.4-.33-4.75-.86-6.62-2.57-2.1-1.92-3.27-4.28-3.37-7.14-.04-1.22-.06-2.45-.09-3.67,0-.19-.02-.38-.02-.57-.03,0,.04.31.01.31ZM147.09,164.99s-.06,0-.09,0c0-1.71,0-3.41,0-5.12,0-.41-.08-.62-.56-.61-2.91.05-5.82,0-8.73.13-4.17.2-7.45,2.19-9.77,5.58-2.5,3.65-3.48,7.75-2.98,12.17.24,2.14.68,4.23,1.6,6.2,1.83,3.87,4.8,5.41,8.98,4.55,3.31-.68,5.76-2.69,7.62-5.39,2.1-3.05,3.21-6.5,3.54-10.17.21-2.44.26-4.89.39-7.33Z"/>
        <path class="cls-4" d="M12.8,104.26c0,29.18.13,57.24.13,86.32h7.1c.36,1.66.29,1.76-1.24,1.76-5.72,0-11.43,0-17.15,0-1.49,0-1.6-.15-1.19-1.75h7.65c0-29.6.73-59.07.73-88.67-3.08,0-5.21.01-8.31.01v-1.8c.3-.02,7.14-.02,7.39-.02,7.57.02,7.74.04,15.31.04.71,0,.88.37,1.08.9,5.46,14.73,10.92,29.46,16.38,44.19,3.32,8.96,5.68,16.37,9.01,25.32.11.31.2.57.41,1.08.6-1.69,16.27-48.67,24.1-71.13.24-.69.6-.6,1.52-.59,7.04.07,16.04.21,23.08.24.49,0,.97,0,1.54,0v1.64h-8.47v88.76h8.48v1.69h-32.3v-1.65h9.69c0-29.28.44-58.36.44-87.78-.56,1.56-1.08,3.03-1.57,4.43-9.87,28.39-19.01,56.64-28.89,85.02-.23.66-1.42,1.36-2.54,1.38-1.07.02-1.33-.52-1.62-1.31-5.14-14.08-10.29-28.16-15.44-42.24-5.55-15.18-9.64-30.27-15.19-45.45-.12-.34.07.14-.15-.4Z"/>
        <path class="cls-4" d="M287.56,134.35c1.35-1.42,2.64-2.68,4.04-4.13.22-.23.48-.47.76-.56.42-.13.79-.04.79.55,0,5.43,0,10.86-.01,16.29,0,.09-.04.19-.07.32h-1.05c-.34-1.25-.63-2.5-1.02-3.72-1.18-3.66-3.07-6.85-6.21-9.18-2.47-1.83-5.29-2.77-8.34-2.87-1.7-.05-3.45.04-5.11.4-4.79,1.07-7.47,4.88-7.26,9.79.14,3.31,1.85,5.69,4.45,7.36,2.6,1.67,5.39,3.08,8.18,4.45,3.59,1.77,7.3,3.3,10.61,5.6,3.33,2.3,6.16,5.09,7.48,8.97,2.14,6.31,1.76,12.42-2.32,17.94-2.31,3.12-5.51,5.01-9.23,5.96-4.76,1.21-9.52,1.18-14.19-.44-2.67-.93-5.06-2.38-7.04-4.54-.85.97-1.6,1.83-2.43,2.77-.66.75-1.27,1.54-1.98,2.23-.26.25-.72.29-1.1.42-.08-.29-.24-.57-.24-.86-.01-5.23-.01-10.46,0-15.7,0-.25.02-.49.04-.72,1.04-.23,1.05-.22,1.31.73,1.01,3.71,2.3,6.22,4.92,9.11,2.85,3.14,6.61,5.07,10.81,5.56,2.87.33,5.81.42,8.59-.48,4.88-1.58,7.69-4.99,7.91-10.12.18-4.2-1.57-7.3-4.85-9.68-2.82-2.05-5.99-3.44-9.15-4.85-3.47-1.55-6.98-3.05-10.16-5.18-2.78-1.86-5.22-4.07-6.64-7.13-4.07-8.79-1.4-19.79,10.19-22.79,5.2-1.34,9.66-1.5,14.33,1.37,1.01.62,2.97,2.34,3.98,3.11Z"/>
        <path class="cls-2" d="M190.01,184.28c.32,0,.32-.5,0-.5s-.32.5,0,.5h0Z"/>
      </g>
      <g>
        <path class="cls-3" d="M197.49,105.61c4.89-10.67,8.27-23.47,2.05-34.2-2.12-4.37-6.15-7.82-7.64-12.61-2-7.84-.31-16.89,5.33-22.94,1.27-1.26,2.65-2.68,3.94-3.9,3.49-3.38,7.26-6.4,9.24-10.94,2.3-4.22,2.25-9.17,1.23-13.77-.53-2.35-1.24-4.65-1.76-7.08,0,0,.37-.16.37-.16,2.71,4.26,3.87,9.37,3.77,14.42-.21,5.13-2.8,10.01-6.31,13.66-3.4,3.46-7.3,6.64-10.61,10.15-4.5,5.29-6.75,13.53-4.29,20.25,1.91,4.59,6.3,7.39,8.95,11.61,1.42,2.13,2.54,4.51,3.16,7.06,2.44,10.03-1.74,20.26-6.64,28.86,0,0-.78-.4-.78-.4h0Z"/>
        <g>
          <path class="cls-3" d="M179.02,112.64c-3.74-12,1.64-26.06,14.02-30.21,0,0,.16.33.16.33-11.01,6.39-15.51,17.42-13.97,29.83,0,0-.21.05-.21.05h0Z"/>
          <path class="cls-3" d="M170.65,83.2c5.42,4.6,12.7,5.02,18.7,1.3,0,0,.13.19.13.19-4.14,3.28-10.04,4.14-14.82,1.75-1.58-.76-3.03-1.73-4.26-2.98l.25-.25h0Z"/>
        </g>
        <path class="cls-3" d="M168.9,101.17c-4.72-5.61-8.61-12.58-8.35-20.12.57-4.86,2.3-9.71,5.24-13.66,1.45-1.86,3.39-3.41,4.64-5.45,3.31-4.36,3.33-8.21.98-13.1,0,0,.25-.12.25-.12,2.84,4.87,2.98,9.09-.4,13.77-1.18,2.05-3.1,3.72-4.5,5.62-2.67,3.77-4.04,8.5-4.54,13.04-.28,5.81,2.52,11.4,5.75,16.1.67.94,1.41,1.93,2.13,2.7l-1.2,1.21h0Z"/>
        <path class="cls-3" d="M166.78,46.37c2.98,2.7,7.63,3.03,11.04,1,3.49-2.09,4.25-6.63,5.04-10.36,0,0,.21.03.21.03-.39,6-2.3,12.12-9.38,12.22-2.6.23-5.25-.87-7.18-2.58,0,0,.27-.31.27-.31h0Z"/>
        <path class="cls-3" d="M168.77,16.9c-11.74,4.15-9.43,7.07-12.85,17.25-1.37,3.65-3.69,6.92-4.02,10.85-.25,2.73-.08,5.8,1.54,8.07,3.11,3.85,8.61-2.99,10.38-5.63,2.1-3.18,3.76-6.74,4.02-10.53.11-1.96.65-4.17,1.74-5.86,1.03-1.77,2.43-3.29,3.76-4.68,2.67-2.73,4.25-6.35,4.81-10.16l.7.07c-.24,4-1.85,7.98-4.55,10.94-1.31,1.5-2.59,2.87-3.51,4.52-1.01,1.66-1.37,3.35-1.49,5.31-.31,4.03-2.09,7.85-4.32,11.17-2.33,3.39-8.49,10.43-12.44,5.55-1.8-2.58-1.94-5.89-1.61-8.88.41-4.02,2.84-7.39,4.28-11.01,2.28-5.58,1.55-12.34,7.89-15.31,1.75-.96,3.62-1.66,5.55-2.09l.13.42h0Z"/>
        <path class="cls-3" d="M155.48,43.55c2.3-13.21,13.07-8.41,13.71-22.97,0,0,.75.03.75.03-.77,14.86-11.59,10.19-13.76,23.05,0,0-.69-.12-.69-.12h0Z"/>
      </g>
    </g>
    <path class="cls-1" d="M5.25,148.92c.64,0,.64-1,0-1s-.64,1,0,1h0Z"/>
  </g>
</svg>