<svg width="497" height="361" viewBox="0 0 497 361" fill="none" xmlns="http://www.w3.org/2000/svg">
<path d="M91.856 346.046V313.972H95.5457L108.503 333.612L121.548 313.972H125.179V346.046H121.228V321.003L108.503 339.974L95.7781 321.003V346.046H91.856ZM138.195 336.459H147.899L143.076 326.959L138.195 336.459ZM129.218 346.046L141.827 321.235H144.267L156.992 346.046H152.838L149.613 339.742H136.51L133.314 346.046H129.218ZM160.74 346.046V321.293H164.633V332.304L177.765 321.293H182.878L172.477 330.096L184.447 346.046H180.089L169.746 332.363L164.633 336.691V346.046H160.74ZM188.979 346.046V321.235H212.25V324.867H192.872V331.055H205.597V334.629H192.872V342.473H213.325V346.046H188.979ZM243.25 326.639H258.59C260.275 326.639 261.563 326.261 262.454 325.506C263.345 324.731 263.79 323.627 263.79 322.194C263.79 320.683 263.354 319.55 262.483 318.795C261.63 318.04 260.333 317.662 258.59 317.662H243.25V326.639ZM243.25 342.357H260.042C261.863 342.357 263.296 341.824 264.342 340.759C265.388 339.674 265.911 338.202 265.911 336.343C265.911 334.503 265.388 333.04 264.342 331.956C263.296 330.871 261.863 330.329 260.042 330.329H243.25V342.357ZM239.27 346.046V313.972H258.241C261.398 313.972 263.78 314.65 265.388 316.006C267.015 317.342 267.828 319.328 267.828 321.962C267.828 323.24 267.577 324.383 267.073 325.39C266.569 326.397 265.853 327.211 264.923 327.83C266.628 328.818 267.916 330.029 268.787 331.462C269.659 332.895 270.094 334.542 270.094 336.401C270.094 339.364 269.116 341.718 267.16 343.461C265.223 345.184 262.589 346.046 259.258 346.046H239.27ZM277.532 346.046V321.235H300.803V324.867H281.425V331.055H294.15V334.629H281.425V342.473H301.878V346.046H277.532ZM311.64 336.459H321.344L316.521 326.959L311.64 336.459ZM302.663 346.046L315.271 321.235H317.712L330.437 346.046H326.282L323.058 339.742H309.955L306.759 346.046H302.663ZM333.139 321.293H337.032V337.185C337.032 339.568 337.594 341.175 338.717 342.008C339.84 342.841 342.068 343.257 345.399 343.257C348.75 343.257 350.987 342.841 352.11 342.008C353.234 341.175 353.795 339.568 353.795 337.185V321.293H357.659V338.202C357.659 341.243 356.691 343.441 354.754 344.797C352.837 346.153 349.699 346.831 345.341 346.831C341.003 346.831 337.884 346.163 335.986 344.826C334.088 343.49 333.139 341.282 333.139 338.202V321.293ZM372.099 346.046V324.693H361.64V321.235H386.451V324.693H375.963V346.046H372.099ZM397.462 346.046V333.379L386.16 321.235H391.157L399.379 330.038L407.456 321.235H412.627L401.268 333.321V346.046H397.462Z" fill="#9D4112"/>
<path fill-rule="evenodd" clip-rule="evenodd" d="M311.339 35.3827L307.087 30.8537C308.834 28.2491 313.289 22.7421 317.501 17.4014C320.009 18.0711 322.476 18.7896 324.889 19.5612C319.087 26.6205 312.946 33.8345 311.339 35.3827ZM297.972 13.3869C297.166 14.7647 296.512 15.8778 296.087 16.5658C297.259 18.5216 297.881 19.152 299.978 19.648C301.24 18.7524 302.681 16.7703 304.187 14.417C306.68 14.8742 309.145 15.377 311.572 15.9307C307.977 21.0257 304.045 26.1768 302.842 27.3983C301.474 26.625 289.031 17.9201 288.201 17.1319C288.634 16.3283 289.564 14.6614 290.798 12.478C293.21 12.7353 295.603 13.0388 297.972 13.3869Z" fill="#C49359"/>
<path fill-rule="evenodd" clip-rule="evenodd" d="M363.839 40.2335L349.296 51.3056C344.135 54.752 338.281 60.1216 333.194 62.9861C332.136 61.6654 330.828 59.6814 330.007 58.0987C331.766 55.059 352.454 40.8712 355.858 36.938C355.556 35.5927 354.687 34.1015 353.692 32.6902C357.403 35.0481 360.794 37.5709 363.839 40.2335ZM339.779 25.2486C338.856 26.2806 337.793 27.4774 336.513 28.7312C335.529 29.6951 334.737 30.0546 333.724 31.0553C332.527 32.2377 332.592 32.6579 331.352 33.7804C330.202 34.8221 323.81 40.1289 323.632 41.2749C324.056 43.365 324.648 43.9803 326.008 44.9925C328.503 44.5041 332.975 39.699 335.037 37.7255C336.221 36.5919 342.904 30.0826 344.154 30.1995C345.783 31.0153 347.1 32.7723 347.771 34.5868C347.281 36.9006 345.012 38.316 343.373 39.6239C341.295 41.2817 339.978 42.5687 337.869 44.3114L326.585 53.3552L318.935 43.4203C317.574 42.2384 316.912 41.7455 315.97 39.877C317.618 37.3186 319.8 35.7698 321.946 33.6895C324.367 31.3415 325.381 29.9932 327.957 27.2195C329.761 25.2778 331.199 23.9723 332.714 22.3101C335.135 23.2382 337.492 24.2177 339.779 25.2486Z" fill="#BFA761"/>
<path fill-rule="evenodd" clip-rule="evenodd" d="M334.496 251.441L336.3 251.442C335.215 249.353 335.263 249.836 333.369 248.353C330.84 246.371 320.975 233.536 314.568 227.68C315.449 225.514 316.621 224.764 318.398 222.933C321.799 224.407 326.995 231.436 330.067 234.845C333.437 238.584 337.922 242.838 341.962 246.123C344.117 245.244 347.367 241.351 348.803 239.44C350.127 237.681 350.133 237.598 351.843 235.634C352.75 234.591 353.704 233.218 354.102 231.5C352.94 229.809 350.568 228.081 348.771 226.555C345.497 223.774 334.797 213.393 331.321 213.147C330.58 214.47 330.038 215.03 329.556 216.848C332.301 220.308 335.062 221.906 337.787 224.79C339.702 226.817 344.802 230.182 346.123 233.264C345.391 235.093 343.857 236.344 342.51 237.627C340.96 237.139 340.178 236.506 339.179 235.649L322.182 218.569L332.098 204.433C333.396 205.079 332.209 204.392 333.498 205.329L348.001 216.776C350.845 219.026 353.074 221.003 355.843 223.07C365.487 230.27 364.256 229.644 361.604 233.219C359.587 235.937 351.55 247.383 349.5 248.952C348.896 249.415 348.86 249.339 348.217 249.973C346.935 251.234 347.806 250.297 347.01 251.466C349.099 251.437 351.32 251.38 353.537 251.353L334.941 255.147L334.094 254.63C334.496 253.253 334.496 251.441 334.496 251.441Z" fill="#C49359"/>
<path fill-rule="evenodd" clip-rule="evenodd" d="M314.658 75.1046C317.868 74.1942 320.52 73.519 321.686 73.4277C325.244 77.3374 334.541 101.352 334.332 108.083C329.328 110.45 308.001 124.863 304.698 125.972L303.697 122.569C303.321 119.918 302.904 117.501 302.401 115.173L304.734 102.727L309.783 93.1466L309.204 86.0139L314.474 78.5674L314.658 75.1046Z" fill="#C49359"/>
<path fill-rule="evenodd" clip-rule="evenodd" d="M295.054 188.289C292.371 187.443 289.32 187.097 287.736 185.652C291.889 178.579 294.826 175.94 298.4 166.513C301.193 159.145 303.549 151.235 304.045 142.511C306.134 142.903 330.895 158.253 333.69 160.376C334.09 167.792 323.428 190.39 320.042 195.207L295.054 188.289Z" fill="#C49359"/>
<path fill-rule="evenodd" clip-rule="evenodd" d="M347.535 167.403L348.582 162.028C355.739 162.517 376.62 169.006 381.456 168.121C382.209 164.501 384.315 152.521 383.751 148.973C382.024 147.836 357 145.361 356.028 146.064C355.954 146.117 353.395 150.268 356.973 151.223C360.251 152.098 376.287 152.815 377.582 154.602C378.273 156.752 377.524 159.079 376.906 160.749C373.546 161.417 354.311 157.653 349.837 156.63L351.756 138.955C354.705 138.454 387.561 140.804 390.686 141.581C391.884 147.124 388.496 164.979 387.345 171.983C386.527 176.962 386.836 177.882 382.144 176.707C370.145 173.702 359.043 170.863 347.535 167.403Z" fill="#C49359"/>
<path fill-rule="evenodd" clip-rule="evenodd" d="M346.629 96.7419L345.397 90.6527C351.26 87.9953 373.256 80.9448 375.737 78.6361C375.349 75.4111 370.597 63.1771 369.122 60.7961C365.812 60.5469 347.736 70.6317 343.564 72.7141C343.532 74.9945 343.729 75.8577 345.25 77.3829C350.054 77.0816 361.844 68.7546 366.465 68.9151C367.524 70.3453 368.431 72.171 368.512 74.5571C366.689 76.6996 346.846 84.6922 343.606 85.4804C342.85 84.1026 336.852 70.1518 336.562 69.0451C340.751 66.6333 369.516 50.9792 371.554 50.7744C374.074 53.7768 383.872 78.51 384.008 83.8845C381.688 85.4803 350.92 95.8153 346.629 96.7419Z" fill="#C49359"/>
<path fill-rule="evenodd" clip-rule="evenodd" d="M391.034 130.643L351.584 132.408L351.432 125.803C356.751 125.866 381.148 124.687 384.329 122.757C384.748 119.294 383.604 106.099 381.904 103.976C380.384 102.619 355.625 108.016 354.511 108.65C353.808 112.491 354.208 113.721 357.742 113.303C361.42 112.869 376.313 109.725 377.582 110.984C378.523 113.003 378.722 114.551 378.258 117.012C375.256 118.577 355.884 120.26 351.063 120.75C350.895 114.397 349.207 108.654 348.628 102.701C360.337 100.553 371.877 97.4851 383.592 95.0041C388.718 93.9182 388.087 96.3598 389.723 109.741C390.171 113.404 391.835 128.216 391.034 130.643Z" fill="#BFA761"/>
<path fill-rule="evenodd" clip-rule="evenodd" d="M369.362 219.03C365.631 218.567 341.508 202.44 334.763 199.843C335.37 198.219 336.669 195.777 337.578 194.325C344.312 196.256 362.03 208.555 367.17 209.081C368.991 207.248 374.232 194.069 374.408 190.749C370.525 189.044 350.993 180.802 348.107 180.621C347.022 182.176 346.767 182.57 346.597 184.841C351.252 188.283 363.598 191.737 367.048 195.057C367.049 197.452 366.028 199.444 364.887 200.703C360.009 200.703 345.728 190.738 339.875 189.764C340.997 184.791 344.266 178.781 345.685 173.216C350.553 173.854 379.72 184.137 382.652 186.24C382.91 190.948 371.853 216.875 369.362 219.03Z" fill="#BFA761"/>
<path fill-rule="evenodd" clip-rule="evenodd" d="M307.506 53.0549C309.493 55.2804 311.391 57.5307 313.038 59.6245L307.506 53.0549ZM313.049 59.6379C315.815 63.1561 317.866 66.2298 318.412 67.9868L314.983 68.9956L313.049 59.6379Z" fill="#6B4020"/>
<path fill-rule="evenodd" clip-rule="evenodd" d="M335.442 153.964C332.975 153.553 322.326 146.395 319.382 144.637C305.697 136.463 300.064 135.402 308.295 130.732C314.051 127.466 332.691 115.255 335.881 114.464C337.845 129.49 337.283 139.064 335.442 153.964Z" fill="#6B4020"/>
<path fill-rule="evenodd" clip-rule="evenodd" d="M290.998 227.591C289.403 225.469 284.281 203.398 283.462 200.177C282.828 197.685 280.708 193.017 282.754 191.526C284.248 190.437 314.309 199.922 316.161 200.935C313.986 206.756 296.885 224.671 290.998 227.591Z" fill="#6B4020"/>
<path fill-rule="evenodd" clip-rule="evenodd" d="M205.143 209.844C197.69 209.657 191.671 209.767 184.299 210.258C180.241 210.528 178.323 209.89 176.589 213.293C175.269 215.885 176.903 219.205 178.238 220.82C181.268 224.486 191.227 222.736 194.626 220.484C197.082 218.857 198.185 217.015 200.167 215.174L205.143 209.844ZM161.917 205.998C162.188 201.507 162.333 196.996 162.507 192.51C162.587 192.596 162.682 192.716 162.731 192.782L164.806 197.113C169.441 207.655 173.495 221.397 177.944 228.62C181.123 233.781 184.4 240.855 188.847 243.583C196.48 248.268 201.926 244.68 210.04 244.479C210.291 246.636 210.762 249.245 211.302 251.924H213.659C212.92 249.135 212.014 246.256 211.825 243.955C213.856 242.788 223.232 239.514 228.935 236.429C239.849 230.526 257.329 219.767 262.813 207.733C263.585 206.041 266.004 199.766 264.829 198.091C261.924 200.366 263.889 208.772 248.63 220.25C234.836 230.625 227.821 235.09 211.979 241.603C205.143 244.414 195.295 246.811 188.504 241.411C186.692 239.97 185.592 237.831 184.478 235.859C182.743 232.785 178.34 225.89 177.441 222.931C185.868 226.76 196.551 222.532 202.626 215.136C205.252 211.938 208.014 210.2 208.595 208.761C205.318 206.344 191.916 195.178 184.413 198.202C180.59 199.743 183.135 200.297 177.98 198.975C167.96 196.407 170.591 205.267 172.189 207.253C173.723 209.161 176.734 208.689 179.692 208.995C176.386 211.355 176.981 209.015 174.058 214.613C169.559 203.569 161.18 187.599 161.4 177.215C161.509 172.04 164.224 168.885 164.152 163.266C165.595 163.678 166.122 164.166 167.547 163.534C164.04 162.197 163.526 162.113 162.223 158.519C164.043 159.262 163.548 161.599 168.846 161.895C170.616 161.994 177.143 161.606 178.362 161.235C179.278 152.256 169.266 152.987 165.777 152.747C162.014 152.488 167.029 153.153 163.866 153.185C162.866 153.195 162.583 152.728 161.229 152.844L163.139 154.21C159.77 153.732 159.767 153.017 158.993 149.945C158.364 147.451 158.052 144.771 157.978 142.147C160.54 142.944 162.544 144.304 164.757 145.418C176.415 151.283 178.979 138.224 158.852 136.273C160.452 123.42 158.155 122.212 166.842 110.918C167.692 109.814 168.348 109.33 169.194 108.267L176.124 101.016C177.042 100.1 177.882 99.658 178.862 98.7404C182.132 95.676 185.864 92.9679 190.563 90.665C196.988 93.6106 199.077 96.8587 207.669 93.6386L219.273 100.508C223.786 103.078 226.495 104.896 230.3 107.838L255.665 132.949C256.49 133.829 256.934 134.589 257.736 135.489L266.057 145.535C269.197 150.117 263.895 163.234 264.376 169.698C264.66 173.521 264.125 175.004 268.393 175.289C268.398 180.592 272.829 185.018 275.328 179.35C278.846 182.503 281.419 181.306 281.118 176.416C284.679 177.594 284.134 177.437 285.98 175.243C286.032 175.181 286.124 175.058 286.211 174.98C287.613 180.281 287.663 177.954 281.121 183.939C278.045 186.754 280.363 183.781 278.224 184.709C275.614 193 279.062 210.371 283.592 223.779C285.737 229.302 288.476 235.147 291.952 241.258C286.199 225.461 278.089 202.007 279.169 186.415C280.455 185.4 282.401 184.559 283.77 183.628C288.503 180.409 291.54 177.347 295.29 173.028C298.966 168.794 304.182 161.543 305.201 153.709C305.839 148.803 304.753 144.453 304.969 139.647C305.416 129.667 312.152 124.848 304.729 102.686C298.442 83.9134 295.489 82.7563 284.126 71.9455C277.777 65.9042 272.999 57.1857 265.744 54.0419C258.245 50.7923 249.302 53.4684 242.211 56.616C237.997 48.4732 231.956 46.1824 220.654 49.1891C216.55 50.2808 212.723 51.7955 209.417 53.7708C205.7 55.9915 204.37 57.3804 202.493 61.0364C202.436 61.1473 202.228 61.5267 202.183 61.6076L201.828 62.1653C193.917 60.2578 188.104 61.0741 182.629 67.4628C181.715 68.5285 181.744 68.7675 180.967 69.6828C177.077 69.0156 173.45 68.4917 169.317 68.8001C158.058 69.6406 158.693 85.2736 157.345 93.9224C156.329 100.442 154.102 109.613 155.959 115.839C157.026 119.417 158.259 122.288 157.794 126.043C156.748 134.488 159.02 135.342 155.804 136.309C156.094 134.899 154.421 111.655 154.658 104.595C155.213 88.0741 160.505 66.5101 170.999 54.9827C203.686 -4.14803 363.356 -29.4811 373.004 50.5839H373.317C343.654 8.4656 231.385 -9.53383 170.086 47.4119C166.916 50.2225 165.177 52.2133 162.519 55.6986C158.044 61.5659 154.617 69.3022 152.09 77.3915C142.099 109.372 169.404 213.463 139.518 234.848L139.512 234.884C153.306 228.785 160.04 217.587 161.917 205.998ZM204.717 208.026C203.605 207.093 198.852 204.836 197.259 203.888C194.988 202.535 192.721 201.13 189.901 199.98C183.373 197.317 183.369 200.423 181.742 201.354C179.542 202.615 175.722 200.244 172.21 200.536C171.967 203.883 173.102 206.251 176.04 206.654C188.5 208.365 187.605 206.874 195.167 207.592C198.804 207.938 200.874 208.287 204.717 208.026ZM272.736 180.439C274.68 177.665 273.326 174.965 272.864 171.647C269.707 173.118 268.499 179.926 272.736 180.439ZM276.094 170.612C274.802 173.05 276.139 181.115 278.79 179.539C280.234 178.68 279.099 175.732 278.511 174.381C276.883 170.645 277.304 171.042 276.094 170.612ZM284.433 172.61C283.144 170.56 281.815 169.98 278.453 169.944C279.962 172.624 281.131 174.619 283.593 175.124L284.433 172.61ZM266.626 173.351C269.232 173.926 270.466 170.342 270.551 169.883C268.738 170.208 266.372 170.701 266.626 173.351ZM160.629 171.28C161.346 169.616 162.2 166.245 162.166 164.275C162.046 157.238 160.426 158.729 158.891 158.667L160.629 171.28ZM169.215 160.392C168.076 158.009 168.005 159.624 167.513 156.125C167.004 156.394 166.203 156.777 165.514 157.141C165.343 157.232 164.571 157.653 164.429 157.754C163.731 158.251 164.142 157.951 163.739 158.424C165.169 160.334 166.193 160.435 169.215 160.392ZM177.197 159.584C175.885 156.87 173.433 154.13 169.371 155.552C168.62 157.458 169.468 159.128 171.305 159.733C172.654 160.177 175.434 159.541 177.197 159.584ZM282.549 168.23C281.388 166.336 270.461 150.819 268.626 149.228C269.194 152.959 270.014 156.572 268.673 160.184C267.22 164.097 266.108 164.086 265.644 169.413C270.7 166.009 268.807 169.568 274.325 168.363C279.239 167.289 278.121 167.808 282.549 168.23ZM157.208 137.132C156.301 141.576 159.609 141.867 162.954 143.484C175.916 149.748 175.423 142.176 166.868 139.552C164.422 138.801 159.748 137.386 157.208 137.132ZM178.654 94.781C183.405 91.0518 183.734 91.4245 187.671 88.7474C187.397 88.3769 187.487 88.4957 187.071 88.0717C185.461 86.4287 185.618 86.9153 184.036 84.4304C182.664 82.2749 182.599 80.8665 181.643 78.9332C173.314 77.9887 168.3 79.1716 166.93 78.9496C166.86 78.9381 166.674 78.9683 166.624 78.8505C166.574 78.7325 166.415 78.7898 166.322 78.7356C172.999 75.8778 173.745 74.1542 182.169 77.004L180.699 71.9084C178.259 71.7183 174.773 72.2344 172.21 72.3809C163.576 72.8737 162.625 70.6304 160.96 89.1961C162.922 87.1849 165.93 84.0779 170.417 84.9674C169.875 86.6684 162.656 91.2815 160.505 91.528L159.864 95.7338C163.082 92.1759 164.786 91.1315 170.532 89.5697C175.002 88.3545 179.229 86.6874 184.343 86.6928C180.639 88.3732 174.681 87.7443 167.947 92.8326C159.343 99.3347 158.782 97.2834 158.593 105.382C162.295 100.403 171.714 93.8414 178.144 92.5406L171.303 97.8554C168.221 100.405 161.701 106.214 160.259 110.165C159.284 112.836 157.905 116.55 158.273 119.395C160.955 111.23 171.716 100.227 178.654 94.781ZM184.305 76.2613C181.856 83.6061 187.142 84.9952 192.013 87.7144C205.464 95.2247 204.687 94.6376 220.643 85.025C225.031 82.3814 229.041 79.5658 232.663 76.6099C235.769 74.0747 240.934 70.316 241.667 64.8665C242.46 58.9772 238.754 52.8721 234.343 51.6705C229.422 50.3296 221.668 53.2364 217.653 54.9344C215.196 55.9734 212.944 57.237 210.903 58.6009C208.511 60.2001 207.408 61.4995 205.571 63.2168C206.444 64.2151 207.154 64.3194 208.473 64.9931L216.431 70.1283C219.487 69.6926 222.861 66.7942 227.465 66.0414C231.321 65.411 237.795 65.7836 238.799 69.1377C237.073 71.0807 231.714 69.9777 228.469 70.0901C228.972 72.3697 230.289 73.9309 228.531 76.6686C226.978 76.0559 227.357 75.1658 226.571 73.597C225.986 72.4302 225.356 71.7642 224.683 70.502L215.529 70.9008C215.516 70.8434 215.495 70.7017 215.476 70.6402C214.999 69.1383 210.629 67.5062 209.117 66.8275C203.508 64.3109 195.103 64.1522 189.64 66.9553C187.315 68.148 184.358 70.5103 183.444 72.4157C188.53 71.3932 194.358 75.1438 194.134 78.5811C191.381 78.7727 188.359 76.2176 184.305 76.2613ZM216.061 89.95L210.228 92.5024C211.497 93.4119 215.522 94.9293 217.272 95.8373C229.701 102.286 234.071 106.81 242.948 115.631L252.563 126.037C253.464 126.924 254.022 127.804 254.84 128.785L264.454 139.607C267.521 143.426 270.421 146.746 273.328 150.761C277.994 157.205 286.255 166.28 288.94 175.628C289.027 175.558 289.14 175.46 289.194 175.408L291.818 171.62C292.085 170.414 290.772 168.073 290.284 166.765C284.661 151.703 277.408 148.984 274.473 143.653C276.945 144.707 282.697 152.465 285.17 155.184C288.258 158.58 292.958 161.44 293.841 168.13C293.938 168.056 294.059 167.958 294.124 167.899L295.575 166.204C300.263 159.236 301.082 161.048 296.665 150.786C293.93 144.431 288.888 140.325 284.615 136.556L255.768 113.526C259.429 115.443 265.575 119.898 268.718 122.407L293.101 141.836C299.228 145.864 299.553 146.855 302.005 154.589C304.277 150.748 301.078 146.677 299.265 143.595C297.413 140.447 295.461 137.337 293.492 133.933C286.778 122.33 288.199 125.281 279.674 116.872C268.117 105.472 249.6 99.1445 243.112 92.0618L267.173 105.182C274.592 109.564 291.726 127.683 298.472 134.524C296.446 128.197 291.427 121.321 288.097 116.386C285.789 112.966 284.409 111.03 280.6 109.216C277.485 107.733 273.932 106.662 270.801 105.177C276.019 105.549 288.822 113.449 291.76 116.062C301.072 124.346 301.283 132.425 303.565 136.276C304.428 131.011 304.65 130.426 302.588 126.086C301.287 123.346 299.675 121.276 298.357 118.223C294.891 110.191 294.448 108.766 288.37 104.429C283.848 101.202 277.601 98.8311 271.19 97.4087C266.988 96.4763 256.064 93.2383 254.173 90.2319C257.667 90.432 266.987 93.0952 270.592 94.2415C282.451 98.0119 286.995 101.36 294.784 110.112C296.084 111.573 298.348 113.615 299.883 115.024C303.654 118.486 302.824 118.85 304.587 120.682C304.181 109.995 299.354 92.6009 293.188 84.1691C290.356 80.2954 288.494 78.8982 285.713 75.7986C279.185 68.5232 268.816 57.7395 257.337 56.5343C253.319 56.1123 246.143 56.1981 243.253 58.2898C244.381 61.6381 245.904 64.9803 244.573 69.0464C245.992 68.7738 247.301 67.3893 249.134 66.7619C250.968 66.1347 253.013 65.8243 255.223 65.6931C257.624 65.5506 259.962 65.7437 262.343 65.6851C268.832 65.5239 270.401 63.3582 278.566 70.0146C283.796 74.2781 282.539 74.022 285.436 76.8912C281.361 73.7436 275.29 68.4997 267.993 67.3377C263.653 66.6464 248.397 70.094 245.489 72.082C252.277 71.915 259.122 72.7017 264.761 74.8747C261.507 74.8657 258.899 74.1292 255.227 74.321C252.136 74.4824 240.261 75.8374 238.489 77.4324C237.573 78.2566 234.057 80.9658 232.879 81.4657C235.242 81.4338 238.677 80.5089 241.38 80.2521C248.273 79.597 263.352 78.9402 268.243 82.4927C258.625 81.9058 257.54 80.3429 247.655 83.7097C242.167 85.5788 236.451 86.8256 230.989 84.2089C230.029 83.7492 230.902 84.1504 230.151 83.7672C229.692 83.5334 230.038 83.5958 229.254 83.3306L226.998 85.2203C232.024 86.5763 241.678 95.9204 246.197 99.4508C251.34 103.469 261.848 110.264 264.025 114.74C261.99 113.505 260.86 112.204 259.11 110.74C249.316 102.54 244.259 100.332 233.649 93.6469L223.491 86.5276L216.061 89.95Z" fill="#441700"/>
<path fill-rule="evenodd" clip-rule="evenodd" d="M280.543 143.338C274.647 135.403 263.086 125.833 254.852 120.002C253.011 118.698 246.86 113.81 244.948 113.907C245.181 115.447 246.583 116.178 248.767 118.152C255.548 124.284 264.035 131.537 271.751 136.066C275.645 138.352 277.455 140.856 280.543 143.338ZM216.061 89.95C215.971 91.8713 216.456 91.5726 218.058 92.5482C224.978 96.7639 225.549 96.4888 231.96 99.9216C233.711 100.859 235.643 102.141 237.287 102.807L227.668 95.4437C224.612 93.3765 220.686 90.5087 216.061 89.95ZM301.128 107.488C303.102 104.886 297.455 98.7756 296.352 97.6991C293.812 95.2219 291.235 93.4247 287.33 91.717C282.189 89.4692 270.894 83.5947 263.697 85.1351C265.869 86.6244 272.275 87.4829 275.544 87.9971C285.413 89.5484 295.172 96.6084 299.585 105.304C300.363 106.837 299.881 106.785 301.128 107.488ZM269.858 63.2965C269.34 61.9609 269.764 62.5276 267.606 62.1202C266.586 61.9277 265.93 61.8105 264.934 61.5603C260.333 60.4048 252.287 57.6007 248.1 59.5415C249.021 60.1599 266.505 65.0779 269.858 63.2965ZM216.061 89.95L223.491 86.5271L233.649 93.6464C244.259 100.331 249.316 102.54 259.11 110.739C260.86 112.204 261.99 113.504 264.025 114.74C261.848 110.263 251.34 103.468 246.197 99.4503C241.678 95.9199 232.024 86.5758 226.998 85.2198L229.254 83.3301C230.038 83.5953 229.692 83.5329 230.151 83.7667C230.902 84.1499 230.029 83.7487 230.989 84.2084C236.451 86.8251 242.167 85.5783 247.655 83.7092C257.54 80.3424 258.625 81.9053 268.243 82.4922C263.352 78.9397 248.273 79.5965 241.38 80.2516C238.677 80.5084 235.242 81.4333 232.879 81.4652C234.057 80.9653 237.573 78.2561 238.489 77.4319C240.261 75.8369 252.136 74.4819 255.227 74.3205C258.899 74.1287 261.507 74.8651 264.761 74.8742C259.122 72.7012 252.277 71.9145 245.489 72.0815C248.397 70.0935 263.653 66.6459 267.993 67.3372C275.29 68.4992 281.361 73.7431 285.436 76.8907C282.539 74.0215 283.796 74.2776 278.566 70.0141C270.401 63.3577 268.832 65.5234 262.343 65.6846C259.962 65.7437 257.624 65.5506 255.223 65.6926C253.013 65.8238 250.968 66.1342 249.134 66.7614C247.301 67.3888 245.992 68.7733 244.573 69.0459C245.904 64.9798 244.381 61.6376 243.253 58.2893C246.143 56.1976 253.319 56.1118 257.337 56.5338C268.816 57.739 279.185 68.5227 285.713 75.7981C288.494 78.8977 290.356 80.2949 293.188 84.1686C299.354 92.6004 304.181 109.995 304.587 120.682C302.824 118.849 303.654 118.486 299.883 115.023C298.348 113.614 296.084 111.573 294.784 110.112C286.995 101.36 282.451 98.0114 270.592 94.241C266.987 93.0947 257.667 90.4315 254.173 90.2314C256.064 93.2378 266.988 96.4758 271.19 97.4082C277.601 98.8306 283.848 101.202 288.37 104.428C294.448 108.766 294.891 110.19 298.357 118.222C299.675 121.276 301.287 123.346 302.588 126.085C304.65 130.425 304.428 131.01 303.565 136.276C301.283 132.424 301.072 124.345 291.76 116.062C288.822 113.448 276.019 105.549 270.801 105.176C273.932 106.662 277.485 107.732 280.6 109.216C284.409 111.029 285.789 112.965 288.097 116.386C291.427 121.321 296.446 128.196 298.472 134.524C291.726 127.683 274.592 109.564 267.173 105.181L243.112 92.0613C249.6 99.144 268.117 105.471 279.674 116.871C288.199 125.281 286.778 122.33 293.492 133.933C295.461 137.336 297.413 140.446 299.265 143.595C301.078 146.676 304.277 150.748 302.005 154.589C299.553 146.855 299.228 145.863 293.101 141.835L268.718 122.407C265.575 119.897 259.429 115.442 255.768 113.526L284.615 136.556C288.888 140.325 293.93 144.431 296.665 150.786C301.082 161.047 300.263 159.235 295.575 166.203L294.124 167.899C294.059 167.957 293.938 168.056 293.841 168.129C292.958 161.44 288.258 158.579 285.17 155.184C282.697 152.464 276.945 144.707 274.473 143.653C277.408 148.983 284.661 151.702 290.284 166.765C290.772 168.072 292.085 170.413 291.818 171.62L289.194 175.408C289.14 175.46 289.027 175.558 288.94 175.628C286.255 166.28 277.994 157.204 273.328 150.76C270.421 146.746 267.521 143.426 264.454 139.607L254.84 128.784C254.022 127.803 253.464 126.924 252.563 126.036L242.948 115.631C234.071 106.81 229.701 102.286 217.272 95.8368C215.522 94.9288 211.497 93.4114 210.228 92.5019L216.061 89.95Z" fill="#FDFDFD"/>
<path fill-rule="evenodd" clip-rule="evenodd" d="M154.493 240.012C161.63 225.23 161.877 208.709 162.507 192.51C162.587 192.596 162.682 192.716 162.731 192.782L164.806 197.113C169.441 207.655 173.495 221.397 177.944 228.62C181.123 233.781 184.4 240.855 188.847 243.583C196.48 248.268 201.926 244.68 210.04 244.479C210.291 246.636 210.762 249.245 211.302 251.924H154.493V240.012Z" fill="#FDFDFD"/>
<path fill-rule="evenodd" clip-rule="evenodd" d="M184.305 76.2613C188.359 76.2176 191.381 78.7727 194.134 78.5811C194.359 75.1438 188.53 71.3932 183.444 72.4157C184.358 70.5103 187.315 68.148 189.64 66.9553C195.103 64.1522 203.508 64.3109 209.117 66.8275C210.629 67.5062 214.999 69.1383 215.476 70.6402C215.496 70.7017 215.516 70.8434 215.529 70.9008L224.683 70.502C225.356 71.7642 225.986 72.4302 226.571 73.597C227.357 75.1658 226.978 76.0559 228.531 76.6686C230.289 73.9309 228.972 72.3697 228.469 70.0901C231.714 69.9777 237.073 71.0806 238.799 69.1376C237.795 65.7835 231.321 65.411 227.465 66.0414C222.861 66.7942 219.487 69.6925 216.431 70.1282L208.473 64.9931C207.154 64.3194 206.445 64.215 205.572 63.2167C207.408 61.4994 208.511 60.2001 210.904 58.6009C212.944 57.237 215.196 55.9734 217.653 54.9344C221.668 53.2364 229.422 50.3296 234.343 51.6705C238.754 52.8721 242.46 58.9772 241.667 64.8665C240.934 70.316 235.769 74.0747 232.663 76.6099C229.041 79.5658 225.031 82.3814 220.643 85.025C204.687 94.6376 205.464 95.2247 192.013 87.7144C187.142 84.9952 181.856 83.6061 184.305 76.2613Z" fill="#FDFDFD"/>
<path fill-rule="evenodd" clip-rule="evenodd" d="M182.169 77.004C173.745 74.1542 172.999 75.8778 166.322 78.7356C166.415 78.7898 166.573 78.7327 166.624 78.8506C166.674 78.9684 166.859 78.9382 166.93 78.9497C168.3 79.1717 173.314 77.9887 181.643 78.9332C182.599 80.8665 182.664 82.275 184.036 84.4305C185.618 86.9154 185.46 86.4288 187.071 88.0718C187.487 88.4958 187.397 88.3769 187.67 88.7474C183.734 91.4245 183.405 91.0518 178.654 94.781C171.716 100.227 160.955 111.231 158.273 119.395C157.905 116.55 159.284 112.836 160.259 110.165C161.701 106.215 168.221 100.405 171.303 97.8554L178.144 92.5407C171.714 93.8415 162.295 100.403 158.593 105.382C158.782 97.2835 159.343 99.3348 167.947 92.8327C174.681 87.7444 180.639 88.3733 184.343 86.6929C179.229 86.6879 175.002 88.3545 170.532 89.5697C164.786 91.1315 163.081 92.1759 159.864 95.7338L160.505 91.5281C162.656 91.2816 169.875 86.6684 170.417 84.9674C165.93 84.0779 162.922 87.1849 160.96 89.1961C162.624 70.6304 163.576 72.8738 172.21 72.381C174.773 72.2345 178.259 71.7184 180.699 71.9085L182.169 77.004Z" fill="#FDFDFD"/>
<path fill-rule="evenodd" clip-rule="evenodd" d="M205.143 209.844L200.167 215.174C198.185 217.015 197.082 218.857 194.626 220.484C191.227 222.736 181.268 224.486 178.238 220.82C176.903 219.205 175.269 215.885 176.59 213.293C178.323 209.89 180.241 210.528 184.299 210.258C191.671 209.767 197.69 209.657 205.143 209.844Z" fill="#FDFDFD"/>
<path fill-rule="evenodd" clip-rule="evenodd" d="M214.41 154.807C212.956 152.656 212.56 151.846 212.555 148.194C210.048 149.164 206.954 152.135 205.406 154.253L214.41 154.807ZM224.958 150.079C224.662 149.82 224.624 149.766 224.165 149.47C223.897 149.297 223.567 149.122 223.318 149.006C222.04 148.407 211.171 144.938 214.199 151.451C216.695 156.818 223.332 153.509 224.958 150.079ZM228.253 148.621C230.19 148.263 231.049 147.398 231.645 145.815C229.924 145.891 230.645 145.14 228.877 147.551C228.186 148.493 229.091 146.894 228.253 148.621ZM226.191 147.663C227.848 147.145 228.874 146.49 229.54 144.996C228.216 144.086 226.974 146.382 226.191 147.663ZM210.803 143.525L208.742 144.179C209.387 145.728 208.396 144.38 209.67 145.568C210.117 145.984 210.271 145.986 210.68 146.282L210.803 143.525ZM223.419 146.444C224.863 146.306 224.581 146.501 225.759 145.654C226.952 144.797 226.73 144.729 227.063 144.078L224.751 143.479L223.419 146.444ZM221.19 145.735C222.108 145.384 223.412 143.944 224.002 143.026L222.12 142.731L221.19 145.735ZM218.1 145.233C219.559 145.133 220.534 143.256 220.78 142.393C217.21 142.13 214.79 142.052 211.524 143.119C211.573 143.291 211.932 144.527 211.936 144.534C213.464 147.468 214.345 143.455 214.345 143.455C214.696 143.937 214.748 144.249 214.927 144.453C215.561 145.172 214.993 144.819 216.014 145.123C216.086 145.043 216.176 144.927 216.217 144.87C216.256 144.815 216.365 144.689 216.412 144.62C216.473 144.53 216.678 144.192 216.739 144.093C217.055 143.585 216.946 143.623 217.483 143.083L218.1 145.233ZM232.454 146.146C231.837 146.691 231.516 147.436 231.149 148.457C232.555 147.916 231.813 148.331 233.352 146.907C233.805 146.487 233.6 146.627 234.091 146.251C233.65 149.691 230.72 152.095 226.862 151.014C224.311 152.978 223.411 155.713 217.281 156.409C214.78 156.693 212.257 156.478 209.755 156.313C207.288 156.15 203.981 156.701 202.465 156.516C202.079 154.332 205.539 151.052 206.78 149.58C207.873 148.283 207.7 148.514 207.149 146.722C208.491 147.272 207.925 147.416 209.144 147.387L208.276 144.983C206.927 145.525 206.544 145.918 205.17 147.594C204.62 148.264 204.63 148.272 204.207 149.146C204.145 149.274 203.832 149.992 203.817 150.017L203.08 150.942C201.668 148.095 206.908 141.737 214.753 140.84C222.125 139.998 228.032 142.791 232.454 146.146Z" fill="#441700"/>
<path fill-rule="evenodd" clip-rule="evenodd" d="M204.717 208.026C200.874 208.287 198.804 207.938 195.167 207.592C187.606 206.874 188.5 208.365 176.04 206.654C173.102 206.251 171.967 203.883 172.21 200.536C175.723 200.244 179.542 202.615 181.743 201.354C183.369 200.423 183.373 197.317 189.901 199.98C192.722 201.13 194.988 202.535 197.26 203.888C198.852 204.836 203.605 207.093 204.717 208.026Z" fill="#FDFDFD"/>
<path fill-rule="evenodd" clip-rule="evenodd" d="M231.346 132.392C223.486 129.317 218.433 127.917 210.447 132.428C205.595 135.167 198.534 140.935 194.301 139.732C192.747 139.29 192.778 139.445 193.215 137.835C193.824 135.589 197.867 132.556 200.206 131.344C203.112 129.838 206.881 128.937 210.406 128.199C220.706 126.043 224.308 128.353 231.346 132.392Z" fill="#FDFDFD"/>
<path fill-rule="evenodd" clip-rule="evenodd" d="M231.346 132.392C224.308 128.353 220.706 126.043 210.406 128.199C206.881 128.937 203.112 129.838 200.206 131.344C197.867 132.556 193.824 135.589 193.215 137.835C192.778 139.445 192.747 139.29 194.301 139.732C198.534 140.935 205.595 135.167 210.447 132.428C218.433 127.917 223.486 129.317 231.346 132.392ZM238.094 137.87C236.628 137.699 224.252 127.577 213.703 131.894C210.686 133.129 205.766 136.503 203.667 138.137C199.36 141.49 197.495 142.281 192.259 139.694C191.372 134.299 196.456 131.38 200.074 129.559C204.288 127.438 209.476 126.544 214.671 126.1C226.949 125.051 237.634 134.148 238.094 137.87Z" fill="#441700"/>
<path fill-rule="evenodd" clip-rule="evenodd" d="M269.836 165.677C271.4 165.299 270.392 165.892 271.219 164.825C272.048 163.756 273.43 159.015 272.428 156.236C271.952 154.918 271.71 154.66 270.67 154.205C270.156 155.316 270.041 158.341 269.457 160.129C268.718 162.397 268.422 163.93 269.836 165.677ZM282.549 168.23C278.121 167.808 279.239 167.289 274.325 168.363C268.807 169.568 270.7 166.009 265.644 169.413C266.108 164.086 267.22 164.097 268.673 160.184C270.014 156.572 269.194 152.959 268.626 149.229C270.461 150.819 281.388 166.336 282.549 168.23Z" fill="#FDFDFD"/>
<path fill-rule="evenodd" clip-rule="evenodd" d="M280.543 143.338C277.455 140.856 275.645 138.352 271.751 136.067C264.035 131.537 255.548 124.284 248.767 118.152C246.584 116.178 245.181 115.447 244.948 113.907C246.86 113.81 253.011 118.698 254.852 120.002C263.086 125.833 274.647 135.403 280.543 143.338Z" fill="#441700"/>
<path fill-rule="evenodd" clip-rule="evenodd" d="M157.208 137.132C159.748 137.387 164.422 138.801 166.868 139.552C175.423 142.176 175.916 149.748 162.954 143.484C159.609 141.867 156.301 141.576 157.208 137.132Z" fill="#FDFDFD"/>
<path fill-rule="evenodd" clip-rule="evenodd" d="M301.128 107.488C299.881 106.785 300.363 106.837 299.585 105.304C295.172 96.6083 285.413 89.5482 275.544 87.9969C272.275 87.4827 265.869 86.6242 263.697 85.1349C270.894 83.5945 282.189 89.4691 287.33 91.7169C291.235 93.4246 293.812 95.2217 296.352 97.6989C297.455 98.7754 303.102 104.885 301.128 107.488Z" fill="#441700"/>
<path fill-rule="evenodd" clip-rule="evenodd" d="M224.958 150.079C223.332 153.509 216.695 156.818 214.199 151.451C211.171 144.938 222.039 148.407 223.318 149.006C223.567 149.122 223.897 149.297 224.165 149.47C224.624 149.766 224.662 149.82 224.958 150.079Z" fill="#FDFDFD"/>
<path fill-rule="evenodd" clip-rule="evenodd" d="M269.858 63.2966C266.506 65.078 249.021 60.16 248.1 59.5416C252.288 57.6008 260.333 60.4049 264.934 61.5604C265.93 61.8106 266.586 61.9278 267.606 62.1203C269.764 62.5277 269.34 61.961 269.858 63.2966Z" fill="#441700"/>
<path fill-rule="evenodd" clip-rule="evenodd" d="M216.061 89.95C220.686 90.5087 224.612 93.3765 227.668 95.4437L237.287 102.807C235.643 102.141 233.711 100.859 231.96 99.9215C225.549 96.4887 224.978 96.7639 218.058 92.5482C216.456 91.5726 215.971 91.8713 216.061 89.95Z" fill="#441700"/>
<path fill-rule="evenodd" clip-rule="evenodd" d="M173.322 188.484C171.967 187.593 170.402 185.154 170.022 183.034C169.421 179.685 170.739 178.04 171.877 175.616L176.419 166.377C176.955 165.092 176.84 164.06 177.983 163.532C178.743 167.084 175.233 173.646 173.673 176.151C170.597 181.091 169.673 183.087 173.322 188.484Z" fill="#441700"/>
<path fill-rule="evenodd" clip-rule="evenodd" d="M205.406 154.254C206.954 152.135 210.048 149.164 212.555 148.194C212.56 151.847 212.956 152.656 214.41 154.807L205.406 154.254Z" fill="#FDFDFD"/>
<path fill-rule="evenodd" clip-rule="evenodd" d="M269.836 165.677C268.422 163.93 268.718 162.397 269.457 160.129C270.041 158.341 270.156 155.316 270.67 154.205C271.71 154.66 271.952 154.918 272.428 156.236C273.43 159.015 272.048 163.756 271.219 164.825C270.392 165.892 271.4 165.299 269.836 165.677Z" fill="#441700"/>
<path fill-rule="evenodd" clip-rule="evenodd" d="M177.197 159.584C175.434 159.541 172.654 160.177 171.305 159.733C169.468 159.128 168.62 157.458 169.371 155.551C173.433 154.13 175.885 156.87 177.197 159.584Z" fill="#FDFDFD"/>
<path fill-rule="evenodd" clip-rule="evenodd" d="M160.629 171.28L158.891 158.667C160.426 158.729 162.046 157.238 162.167 164.275C162.201 166.245 161.346 169.616 160.629 171.28Z" fill="#FDFDFD"/>
<path fill-rule="evenodd" clip-rule="evenodd" d="M272.736 180.439C268.499 179.926 269.707 173.118 272.864 171.647C273.326 174.965 274.679 177.665 272.736 180.439Z" fill="#FDFDFD"/>
<path fill-rule="evenodd" clip-rule="evenodd" d="M276.094 170.612C277.304 171.042 276.883 170.645 278.511 174.381C279.099 175.732 280.234 178.68 278.79 179.539C276.139 181.115 274.802 173.05 276.094 170.612Z" fill="#FDFDFD"/>
<path fill-rule="evenodd" clip-rule="evenodd" d="M175.99 153.722C174.149 152.706 172.516 150.951 169.641 150.642C166.174 150.271 164.546 151.884 161.929 151.996C163.97 146.841 173.938 148.175 175.99 153.722Z" fill="#441700"/>
<path fill-rule="evenodd" clip-rule="evenodd" d="M196.038 188.795C197.019 187.115 198.681 185.542 198.775 182.993C198.916 179.21 196.72 178.407 196.442 176.348C201.162 176.399 203.054 185.479 196.038 188.795Z" fill="#441700"/>
<path fill-rule="evenodd" clip-rule="evenodd" d="M190.98 186.811L190.997 183.998C187.26 181.98 184.555 183.668 180.52 183.953C180.894 183.528 180.623 183.667 181.214 183.287C183.257 181.973 187.252 181.475 189.615 181.909C194.457 182.799 194.281 186.888 190.98 186.811Z" fill="#441700"/>
<path fill-rule="evenodd" clip-rule="evenodd" d="M218.1 145.233L217.483 143.083C216.946 143.623 217.055 143.585 216.739 144.093C216.678 144.192 216.473 144.53 216.412 144.62C216.365 144.689 216.256 144.815 216.217 144.87C216.176 144.927 216.086 145.043 216.014 145.123C214.993 144.819 215.561 145.172 214.927 144.453C214.748 144.249 214.696 143.938 214.345 143.455C214.345 143.455 213.464 147.468 211.936 144.534C211.932 144.527 211.573 143.291 211.524 143.12C214.79 142.052 217.21 142.13 220.78 142.393C220.534 143.256 219.559 145.133 218.1 145.233Z" fill="#FDFDFD"/>
<path fill-rule="evenodd" clip-rule="evenodd" d="M284.433 172.61L283.593 175.124C281.131 174.619 279.962 172.624 278.453 169.944C281.815 169.98 283.144 170.56 284.433 172.61Z" fill="#FDFDFD"/>
<path fill-rule="evenodd" clip-rule="evenodd" d="M169.215 160.392C166.193 160.435 165.169 160.334 163.739 158.424C164.142 157.951 163.73 158.251 164.429 157.754C164.571 157.653 165.343 157.232 165.514 157.142C166.203 156.777 167.004 156.394 167.513 156.125C168.005 159.624 168.076 158.009 169.215 160.392Z" fill="#FDFDFD"/>
<path fill-rule="evenodd" clip-rule="evenodd" d="M266.626 173.351C266.372 170.701 268.738 170.208 270.551 169.883C270.466 170.342 269.232 173.925 266.626 173.351Z" fill="#FDFDFD"/>
<path fill-rule="evenodd" clip-rule="evenodd" d="M227.063 144.078C226.73 144.729 226.952 144.797 225.759 145.654C224.58 146.501 224.862 146.306 223.419 146.444L224.751 143.479L227.063 144.078Z" fill="#FDFDFD"/>
<path fill-rule="evenodd" clip-rule="evenodd" d="M221.19 145.735L222.12 142.731L224.002 143.026C223.412 143.944 222.108 145.384 221.19 145.735Z" fill="#FDFDFD"/>
<path fill-rule="evenodd" clip-rule="evenodd" d="M210.68 146.282C210.271 145.986 210.117 145.984 209.67 145.568C208.396 144.38 209.387 145.728 208.742 144.178L210.803 143.525L210.68 146.282Z" fill="#FDFDFD"/>
<path fill-rule="evenodd" clip-rule="evenodd" d="M178.632 43.3514C178.178 43.8376 177.725 44.3125 177.254 44.7875C177.062 45.0248 176.836 45.2511 176.539 45.5563C175.754 46.3705 175.039 47.1733 174.359 47.9873C174.882 47.863 175.406 47.7612 175.876 47.6821C176.365 49.0276 176.923 50.3619 177.568 51.7075C174.882 51.5944 172.877 51.6058 171.237 51.7866C170.505 52.7704 169.79 53.7767 169.179 54.7605C171.394 54.3195 174.063 53.8785 177.202 53.4828C178.632 54.9188 178.981 56.1174 181.091 57.6325C183.532 59.3965 183.219 59.012 185.486 60.0411C186.061 60.2898 185.939 60.2107 186.375 60.482C183.219 63.8064 182.73 63.5575 179.661 67.877C179.278 68.4513 178.895 69.0736 178.529 69.7255L180.967 69.6827L182.932 69.5317C184.551 66.762 186.836 66.91 190.142 64.2279C191.051 64.3334 192.439 62.9768 193.244 63.1088L202.906 63.6475L204.847 59.7453C201.866 59.878 196.538 59.4704 190.665 58.3676C184.649 57.3159 178.492 57.4629 179.905 50.4864C184.457 49.3103 188.015 50.6446 191.101 49.6269C191.241 46.5061 184.788 45.0475 178.963 47.422C180.149 45.511 183.881 42.5938 186.846 40.7959C193.927 36.4539 203.728 33.514 209.605 33.8759C211.21 34.0002 215.953 34.1925 216.197 35.4928C216.215 35.538 216.197 35.685 216.197 35.7302C219.808 34.7804 223.418 33.8985 226.975 33.1408C227.499 34.249 228.091 34.7917 228.615 35.8546C229.277 37.2794 228.737 38.2292 230.463 38.5797C232.835 35.6398 231.579 34.2602 231.457 32.1005C235.224 31.524 241.171 31.9988 243.595 29.8505C243.299 26.6279 235.957 27.0123 231.318 28.2221C225.755 29.8391 221.098 33.514 217.436 34.7352C214.68 33.8759 212.029 33.0731 209.361 32.372C208.001 32.191 207.198 32.3494 206.483 31.7388C209.187 29.4434 210.896 27.8264 214.227 25.418C216.982 23.4165 219.982 21.4038 223.051 19.6173C228.004 16.7792 237.038 12.1657 242.392 12.8329C247.188 13.534 250.345 19.2441 247.973 25.2484C245.776 30.7889 239.113 35.1197 235.207 38.003C230.899 41.35 226.417 44.7309 221.813 48.1005C221.305 48.5371 220.816 48.9584 220.343 49.367L220.654 49.189L230.703 47.9995L234.393 48.9809C232.309 48.0497 230.421 47.3936 228.946 47.2185C229.678 46.4948 230.446 45.7485 231.231 45.0475C232.12 45.2058 231.719 45.1945 232.26 45.3528C233.149 45.6468 232.12 45.3528 233.254 45.692C239.706 47.6256 245.898 45.7599 251.984 43.3627C263.198 39.3373 264.314 40.8524 274.987 41.3386C269.843 37.7203 252.786 39.2242 244.921 40.5811C241.817 41.1464 237.928 42.4582 235.259 42.7634C236.585 42.1302 240.701 39.0433 241.782 38.1387C244.014 36.3408 257.809 33.7854 261.332 33.4009C265.535 32.9826 268.378 33.5932 272.023 33.4914C266.058 31.524 258.419 31.2186 250.624 32.044C254.391 29.76 272.476 25.0787 277.185 25.5423C285.085 26.4243 290.788 31.9084 294.764 35.2893C292.044 32.1798 293.404 32.4285 288.416 27.9169C280.673 21.2456 278.51 23.5975 271.238 24.1628C268.535 24.3889 265.953 24.3664 263.198 24.7055C260.652 25.0449 258.28 25.5423 256.03 26.3565C253.78 27.1706 251.949 28.6971 250.24 29.1154C252.786 24.8979 251.897 21.7092 251.356 18.4639C254.966 16.0668 262.901 15.2527 267.261 15.2753C279.731 15.524 289.393 26.2773 295.252 34.0794C297.816 37.4828 299.682 39.0433 302.333 43.408C305.437 48.2136 309.248 55.5224 310.879 63.5915C312.452 71.3767 310.966 79.7384 309.204 86.0139C308.071 83.9221 309.082 83.4811 306.397 79.4444C305.246 77.7596 303.484 75.2947 302.508 73.5307C295.776 62.9243 291.084 58.7859 278.161 53.822C274.168 52.4086 263.669 49.5138 259.832 49.3895C262.378 52.3972 274.482 55.993 279.033 57.2594C285.905 59.3286 292.445 62.4947 296.892 66.5428C302.49 71.9251 302.595 73.6324 303.798 83.1871C304.007 86.7828 304.862 89.2139 305.106 92.4252C305.371 96.212 305.173 97.5149 303.871 100.626L304.729 102.686L304.734 102.727C306.443 99.2155 308.504 95.8718 310.46 91.7581C313.394 85.5864 315.814 77.6466 314.75 64.7562C311.245 53.8107 308.682 48.077 305.804 43.5097C302.996 39.0533 299.525 35.719 294.206 29.8391C288.346 23.5184 284.3 14.6081 276.557 12.0075C268.36 9.45191 258.716 13.0025 250.537 16.9036C246.368 9.24851 239.689 7.65411 227.324 13.0704C222.633 15.4336 218.046 18.2604 213.86 21.3812C208.942 24.9204 206.972 26.7296 203.571 30.8568C203.484 30.9699 203.1 31.4221 203.03 31.5126C202.838 31.7274 202.629 31.9423 202.42 32.1458C193.822 33.367 186.759 36.1261 178.632 43.3514ZM240.174 55.7431C240.808 56.017 242.653 58.0317 243.253 58.2897L246.516 55.6442C243.089 53.5636 239.093 51.2048 235.528 49.5053L238.455 53.1882L240.174 55.7431ZM302.219 96.6629C302.222 92.0377 301.655 86.2672 297.816 80.2699C295.566 76.9794 283.864 66.5993 278.475 65.6155C281.597 67.5831 285.12 69.1999 288.12 71.2353C291.66 73.7342 292.636 76.1201 294.101 80.2925C294.505 81.6652 294.946 83.16 295.381 84.7374L298.377 87.4467L302.219 96.6629ZM258.603 55.0619C255.345 53.544 252.582 56.1313 249.199 54.7859C251.031 56.2375 252.854 54.1817 255.691 55.6112L261.515 54.5127L258.603 55.0619ZM162.058 66.6612C161.657 67.5996 162.169 62.1818 161.855 63.0977C162.901 61.9895 163.651 60.8927 163.669 60.316C163.372 60.3048 162.302 66.6498 162.058 66.6612ZM164.125 71.7579C165.398 72.0632 167.023 71.0321 168.279 71.3375C168.349 71.2357 168.436 71.1226 168.506 71.0209C172.883 65.5821 174.342 60.1095 177.638 57.7802C167.025 64.698 170.127 66.6586 164.125 71.7579ZM172.65 69.4827C173.14 69.5908 173.631 69.6989 174.118 69.8028L175.419 69.78C176.242 68.5438 177.122 67.3128 177.987 66.0226C176.138 66.7801 174.307 68.0014 172.65 69.4827Z" fill="#441700"/>
<path fill-rule="evenodd" clip-rule="evenodd" d="M205.776 165.383C207.207 165.383 208.367 166.543 208.367 167.973C208.367 169.404 207.207 170.564 205.776 170.564C204.346 170.564 203.186 169.404 203.186 167.973C203.186 166.543 204.346 165.383 205.776 165.383Z" fill="#D3BF64"/>
<path fill-rule="evenodd" clip-rule="evenodd" d="M174.49 138.069C175.737 138.281 176.92 137.442 177.132 136.195C177.344 134.948 176.505 133.765 175.258 133.553C174.011 133.341 172.828 134.18 172.616 135.427C172.404 136.674 173.243 137.857 174.49 138.069Z" fill="#D3BF64"/>
<path fill-rule="evenodd" clip-rule="evenodd" d="M216.472 166.066C218.015 166.066 219.266 167.316 219.266 168.859C219.266 170.402 218.015 171.653 216.472 171.653C214.929 171.653 213.678 170.402 213.678 168.859C213.678 167.316 214.929 166.066 216.472 166.066Z" fill="#D3BF64"/>
<path fill-rule="evenodd" clip-rule="evenodd" d="M228.257 162.999C229.8 162.999 231.051 164.25 231.051 165.793C231.051 167.336 229.8 168.587 228.257 168.587C226.714 168.587 225.463 167.336 225.463 165.793C225.463 164.25 226.714 162.999 228.257 162.999Z" fill="#D3BF64"/>
<path fill-rule="evenodd" clip-rule="evenodd" d="M239.394 154.894C241.068 154.894 242.426 156.252 242.426 157.926C242.426 159.6 241.068 160.958 239.394 160.958C237.72 160.958 236.362 159.6 236.362 157.926C236.362 156.252 237.72 154.894 239.394 154.894Z" fill="#D3BF64"/>
<path fill-rule="evenodd" clip-rule="evenodd" d="M249.748 142.36C251.422 142.36 252.78 143.718 252.78 145.392C252.78 147.066 251.422 148.424 249.748 148.424C248.074 148.424 246.716 147.066 246.716 145.392C246.716 143.718 248.074 142.36 249.748 142.36Z" fill="#D3BF64"/>
<path fill-rule="evenodd" clip-rule="evenodd" d="M168.373 135.32C169.419 135.498 170.41 134.795 170.587 133.75C170.765 132.705 170.062 131.713 169.017 131.536C167.972 131.358 166.98 132.061 166.803 133.106C166.625 134.152 167.328 135.143 168.373 135.32Z" fill="#D3BF64"/>
<path fill-rule="evenodd" clip-rule="evenodd" d="M162.939 134.304C163.833 134.456 164.682 133.855 164.834 132.96C164.986 132.066 164.384 131.217 163.489 131.066C162.595 130.913 161.747 131.515 161.595 132.41C161.443 133.304 162.044 134.152 162.939 134.304Z" fill="#D3BF64"/>
<path fill-rule="evenodd" clip-rule="evenodd" d="M179.982 140.99C184.941 150.758 183.774 164.294 177.606 172.949C181.328 163.024 182.938 149.246 179.982 140.99Z" fill="#D3BF64"/>
<path fill-rule="evenodd" clip-rule="evenodd" d="M70.7396 195.784L73.9576 196.198L75.5239 198.713L75.2493 201.791C75.3903 202.374 75.531 202.886 75.6249 203.329C75.7422 203.749 75.9545 205.17 76.2151 207.525L76.7773 209.156L76.7813 211.697L78.3459 213.256L78.3479 214.212L80.6395 231.973L81.3156 231.972L82.2736 233.206L80.0821 233.21C80.949 235.703 81.6993 238.267 82.2868 240.923L84.5495 241.735L86.6681 239.96L88.9079 240.912L89.8638 240.91L90.1439 241.166L90.5632 240.909C90.7266 241.095 91.6596 241.257 93.3617 241.44L96.8312 238.917L102.311 239.234L102.565 238.231L106.064 239.227L112.123 237.655L113.356 236.417C113.822 235.927 114.404 235.553 115.127 235.319L117.876 234.428L119.092 236.408L121.353 236.404L122.314 239.2C121.454 240.996 120.617 242.28 119.802 243.097L119.103 242.702L113.657 248.447L110.862 250.363L104.171 250.375L100.42 251.407L97.131 250.666L90.5845 253.475L90.1644 253.196L86.134 254.905L87.1151 269.731L87.3949 269.73L87.3959 270.406L86.4417 271.434L87.3991 272.248L87.6842 275.465L88.3615 276.14L87.6876 277.447L88.9729 279.216L89.6816 284.694L90.6396 285.975L91.5949 285.647L91.9228 286.532L91.7846 287.488L90.8986 287.49L91.1921 295.486C90.3784 296.84 89.541 298.007 88.68 298.964L86.2093 299.248L85.4665 301.231L83.6942 300.954L83.9538 302.726L82.8837 304.103C82.5578 304.5 81.3237 305.365 79.1811 306.697L76.7997 304.72C76.5196 304.534 76.1925 304.044 75.8414 303.229L75.0219 301.249L75.0159 297.425L73.7 291.413L73.1621 290.458L73.6917 286.563L73.1498 283.207L74.4276 280.547L72.8562 274.954C73.251 274.091 73.5287 272.925 73.6661 271.456L73.1282 270.431L73.6593 267.493C73.6583 266.677 73.3755 264.998 72.8349 262.458L74.0657 259.705L73.6385 255.206L71.5848 253.974L70.1636 254.536L70.1626 253.977L67.0857 254.261L67.3687 256.173L65.8527 255.779L64.1515 256.178L63.7322 256.459C61.6358 257.511 59.6083 258.028 57.6033 258.031L55.6212 257.755L51.59 258.997L47.3482 259.75L47.0715 261.546L44.1318 260.315L44.1339 261.551L43.5977 261.552L41.6194 263.537L38.8216 263.542L39.8522 266.338L37.1935 265.783L33.0945 268.261L32.1404 269.289L29.8778 268.593L27.363 270.509L24.8918 270.513L24.895 272.355L22.3778 272.779L21.3558 275.042L20.1223 276.256L18.4278 280.642L18.8948 281.061C18.7788 281.458 18.0108 282.298 16.6609 283.583L16.3876 287.337L14.4083 288.832L14.6894 289.601L13.7335 289.603L13.7361 291.095L11.4775 292.801L11.4785 293.361C11.1526 293.688 10.6411 294.528 9.9209 295.881L9.3613 295.882L7.7374 300.664L7.1297 299.779L7.1307 300.339L5.4775 301.624L5.0834 302.93C4.991 303.397 4.5025 304.027 3.6412 304.844L1.1218 303.893C0.840699 303.124 0.606701 302.681 0.420101 302.589L0.698299 301.632L0.6973 301.096L1.1148 299.79C0.600299 298.928 0.294301 297.203 0.150101 294.616L1.1068 295.08L0.406002 294.335L0.4044 293.38L0.683701 293.099L0.144699 291.398L0.678799 290.162L0 288.601L0.395401 288.041C0.323701 287.038 0.228201 285.663 0.131901 283.891L1.4124 282.863L5.1943 285.794L7.4324 285.79L15.3422 275.868L14.1051 275.055L14.3826 273.609L11.8663 274.639L11.4478 275.315L10.9111 275.06L9.3273 275.879C8.8847 276.159 7.9059 276.371 6.3909 276.56L4.1477 273.626C5.2154 270.85 6.192 269.286 7.0772 268.912C7.0764 268.422 7.8207 267.395 9.3103 265.83L10.8947 265.361L10.6145 265.082L13.1264 261.604L13.4063 261.604L19.419 260.358L20.0973 261.592L21.3325 261.31L21.6127 261.59L22.3587 261.589L22.8928 260.352L24.875 260.629L24.8741 260.069L26.3872 258.761L25.4286 257.131L26.6377 255.287L29.8531 254.046L29.5719 253.3L29.9899 252.273C30.0825 251.947 30.7808 251.223 32.1077 250.078C32.9645 246.627 33.8936 244.62 34.8951 244.082L34.3356 244.083L37.5461 240.044L37.8263 240.3L42.5927 232.715L42.313 232.716L44.0803 230.055L44.5001 230.054L48.3116 223.077L48.8479 223.076L52.0561 217.755L53.0115 217.473L54.5918 214.533C54.7547 214.346 55.1728 213.32 55.799 211.453L58.0574 209.748L58.057 209.468L59.2872 206.249L60.0328 205.991L60.3082 203.449L61.2642 203.448L61.5189 202.492L61.7988 202.491L62.5422 200.928L67.9454 197.701L70.7396 195.784ZM60.0499 216.225L57.7895 216.788L57.7905 217.744L55.5562 219.986L54.8568 219.987L51.7869 224.445L51.5305 224.446L49.2764 228.809L49.2776 229.508L48.4637 230.722C48.1848 231.236 47.8123 231.609 47.3 231.89L45.3901 232.989L44.5081 235.252C44.2294 235.882 44.0223 237.468 43.84 240.032L42.6039 239.755L42.3273 241.527L39.8126 243.513L40.0929 243.792L40.0956 245.354L37.8358 246.314L36.0724 251.306C35.7476 252.263 35.3992 253.009 35.0504 253.569L33.3989 255.834L33.6794 256.23L33.6799 256.509L34.3565 256.835L38.3898 256.827L40.1167 257.78L45.4267 254.577L49.8792 254.29L50.1374 255.245L50.5541 253.543L53.0721 253.539L57.5928 252.296L58.8059 252.713L61.6019 251.752L61.6014 251.473L65.842 250.02L65.8417 249.763L71.1086 248.519L71.1056 246.957L69.3076 245.305L69.2986 239.989L70.8081 236.49L69.2909 235.466L67.3343 236.495L64.787 232.956L68.3303 232.67L68.3283 231.714L64.1068 230.766L64.5015 229.739L63.2865 228.249L64.1004 226.942L61.8331 223.472L62.2515 222.772L62.8572 222.515L61.8296 221.491L61.0056 216.783L60.0499 216.225Z" fill="#441700"/>
<path fill-rule="evenodd" clip-rule="evenodd" d="M142.392 198.548L144.146 199.086L144.372 200.074L144.373 200.895L144.86 202.088L144.376 202.648L144.602 204.121L143.616 205.485L143.618 206.902L142.629 207.128L142.857 209.254L141.386 210.954L138.6 218.121L136.822 225.269L136.061 227.527L135.836 226.968L135.245 230.308L135.021 230.084L135.514 234.896L134.49 236.371L134.492 237.472L135.035 238.721L134.495 238.945L134.046 238.498L134.273 239.934L134.05 240.755L133.511 241.838C133.362 242.137 133.085 243.368 132.697 245.552L132.473 245.776L134.061 247.359L133.858 248.571C133.094 248.852 132.367 249.451 131.716 250.366L132.705 250.364L132.705 250.7L133.862 250.698L135.877 251.347C137.368 250.542 138.618 250.13 139.643 250.128L141.882 250.348L143.467 250.122L143.692 250.681L145.501 250.342L145.707 250.883L147.739 250.114L149.269 250.672L149.046 250.877L149.867 250.876L152.326 249.342L153.315 249.676L153.314 249.079L156.467 249.074L161.281 250.316L162.272 251.676L162.496 251.303C163.988 251.617 165.519 252.156 167.087 252.88L167.312 253.421L168.881 254.687L167.321 259.054L166.875 259.708L166.11 259.709L165.887 260.474L165.891 262.824L165.517 262.284L165.295 263.31L163.767 264.078L163.286 266.336L161.759 267.644L162.076 268.128L161.536 268.129L161.76 268.353L160.94 268.895L160.718 269.884C159.692 270.259 158.632 271.716 157.498 274.254L156.957 273.938L157.181 274.479L156.137 274.704L155.915 275.731L155.374 275.526L155.152 276.515L153.68 277.768L153.681 278.309L153.142 279.298L152.377 279.076L152.695 279.523L151.11 279.899L151.111 280.551L149.099 282.14L149.324 282.699L148.765 283.353L148.112 283.354L147.794 282.907L147.348 283.673L146.751 283.674L147.088 284.382L146.324 284.719L145.767 286.138L145.338 286.474L145.339 286.959L144.295 286.961L143.755 287.951L143.307 287.728C142.806 288.997 142.21 289.856 141.521 290.305L141.522 290.734L140.962 290.735L141.187 291.555L140.534 291.071L140.199 291.781L139.397 291.782L138.952 293.536L138.187 293.313L137.704 294.359C136.343 295.089 135.561 295.593 135.356 295.892L135.619 296.601L135.134 296.601L135.135 297.142L134.37 297.143C133.643 297.723 133.122 298.06 132.786 298.135L132.562 297.911L131.594 298.957C130.643 299.575 129.898 300.173 129.339 300.752L127.977 300.493L124.55 303.223L124.551 303.763L123.73 303.764C122.315 305.278 121.197 306.194 120.396 306.568L120.173 307.11L119.632 307.334L119.15 308.585L118.589 308.157L117.397 309.147L117.173 308.812L116.579 310.622L115.588 309.15L113.573 308.818L112.585 309.156L111.762 308.392L112.804 306.581L113.997 306.038L115.154 306.353L116.792 304.336L116.789 302.75L117.608 301.984L118.146 299.95L119.394 298.698C119.915 298.194 120.25 297.745 120.436 297.391L121.142 295.58L122.185 294.926L121.363 294.386L122.388 293.34L122.18 291.81C122.177 290.243 122.492 288.825 123.142 287.537L122.936 286.996L124.724 285.184L124.721 283.394L124.178 281.921L124.716 280.39L125.471 274.756C124.891 273.88 124.573 273.228 124.498 272.78L125.466 271.529L125.146 270.168L125.461 268.955L125.143 267.929L124.912 264.367L125.125 257.968C125.703 257.315 126.056 256.568 126.148 255.728L126.912 255.727L126.91 254.534L127.469 253.936L126.909 253.713L127.468 253.171L127.243 252.724L127.24 251.138L126.904 250.71C127.387 249.646 127.982 248.6 128.708 247.592L127.885 246.548L128.22 245.783L128.928 245.353L129.245 245.557L129.691 244.531L128.477 243.768L128.697 241.305L129.46 240.315L128.916 238.731C129.454 236.809 129.9 235.595 130.216 235.128L129.896 233.376L131.029 230.315L130.653 228.786L130.651 227.536L131.023 226.976L130.2 225.951L130.421 223.75C130.848 222.984 131.276 221.864 131.665 220.371L131.234 219.384L129.871 218.677L129.645 217.148L127.407 217.375L126.42 218.683C125.881 219.672 125.304 220.476 124.708 221.092C124.112 221.709 123.554 222.4 123.033 223.165L122.604 223.166L120.796 223.99L118.016 223.51L117.028 223.996L115.945 223.289C115.609 223.066 114.917 222.209 113.851 220.719L115.213 220.94L115.434 218.702L122.046 213.337C122.979 213.111 123.594 212.924 123.836 212.793L127.171 210.53L128.159 210.323C128.923 209.595 129.332 208.978 129.406 208.512L130.99 207.521L132.963 204.906L136.556 201.132L138.253 200.905L138.569 199.86L139.557 199.858C140.732 199.24 141.552 198.903 142.018 198.865L142.392 198.548ZM148.52 259.515L148.073 259.739L146.711 259.518L145.947 259.743L146.283 260.078L145.518 260.285L145.295 260.733L144.958 260.08L144.698 260.51L143.485 260.083L141.471 260.739C141.135 260.441 140.612 260.218 139.885 260.089C138.562 260.856 137.723 261.268 137.313 261.343C137.202 262.033 136.811 262.538 136.122 262.875L135.897 262.558L135.302 263.361L135.077 262.876L134.854 263.101L133.882 262.114L133.322 262.115L133.06 261.574L132.072 261.576C131.738 262.92 131.218 264.17 130.493 265.347L131.746 267.695L130.505 272.771L131.329 274.355C131.609 274.951 131.76 275.94 131.763 277.357L131.561 279.559L131.769 280.92L130.409 281.911L130.421 288.943L129.992 288.944L130.539 292.562L130.316 293.327L130.542 294.371L131.791 293.809L133.596 291.568L135.944 289.978L139.704 285.495L140.188 284.73L141.176 284.392C141.939 283.309 142.404 282.562 142.534 282.151L143.298 281.665L145.755 278.863L145.977 277.781L148.104 277.777L147.784 276.304L148.976 275.425L149.57 273.727L151.546 272.735L153.889 268.701L154.373 268.141L154.373 267.656L155.133 265.305L154.139 262.079C151.806 261.356 150.387 260.575 149.882 259.736L148.52 259.515Z" fill="#441700"/>
<path fill-rule="evenodd" clip-rule="evenodd" d="M214.115 243.399C214.376 243.324 215.085 243.36 216.241 243.507C217.417 243.654 218.163 243.895 218.481 244.268L220.346 243.817L221.39 243.927L222.158 245.399L222.048 246.5C221.321 247.08 220.819 247.715 220.577 248.424L220.018 248.425L219.422 249.079C219.236 249.247 218.472 249.565 217.129 249.997L217.035 260.163L217.92 265.421L218.041 270.831L218.873 277.433L222.34 286.828C222.957 287.517 223.368 288.057 223.593 288.467C225.419 287.438 226.556 286.933 227.022 286.932C228.53 285.213 229.48 284.316 229.928 284.241L229.927 283.644L236.092 278.392L236.202 277.403C236.594 277.328 237.376 276.618 238.549 275.273L240.564 275.698L241.669 278.159L241.225 280.286L240.142 279.859L239.585 281.053L238.559 281.055C238.15 282.157 237.555 283.053 236.754 283.745L236.755 284.341L233.757 287.145L233.199 288.563C232.51 289.031 231.355 289.667 229.714 290.472L229.287 291.293L229.174 291.032L228.524 292.171L227.032 292.621L226.828 293.387L226.063 293.388L226.382 294.208L225.508 295.888L224.688 296.113C224.763 296.691 224.168 297.774 222.902 299.343L220.329 299.46L219.79 301.046L218.206 301.478C216.992 301.163 216.04 300.418 215.31 299.244L211.626 293.3L208.124 285.49L208.436 282.599L207.667 280.026L208.227 279.913C207.16 277.807 206.635 276.204 206.633 275.103L206.891 273.088L205.191 272.046L204.055 272.757L204.054 272.496L203.514 272.758L202.047 276.529L201.281 276.213L201.059 276.978L200.517 276.755L200.518 277.24L200.294 277.24C200.258 277.464 199.737 278.398 198.714 280.041L198.266 279.818L197.953 282.169L196.797 282.768C196.033 283.179 195.549 283.646 195.326 284.188L194.899 285.289L195.385 285.941L194.136 286.391L193.58 288.63L192.667 289.117L192.929 289.564C192.053 290.218 191.345 290.649 190.805 290.873L190.321 291.695L189.872 291.099L189.111 293.003L188.458 293.004L187.531 296.176L186.561 296.514L186.452 298.155L184.867 298.158L183.287 301.761L182.523 302.303L181.87 302.304L181.648 303.349L178.144 304.661L174.488 304.779L172.885 294.392L173.535 293.029L173.701 291.947C173.738 291.649 174.165 290.547 175.001 288.662L174.795 287.897C175.445 286.404 175.873 285.508 176.096 285.209L175.667 285.005L176.688 282.317L176.742 281.272C176.779 280.992 177.058 280.32 177.56 279.256C177.258 277.503 176.977 276.497 176.678 276.255L177.124 275.489L178.542 275.692C179.38 274.571 179.901 273.973 180.125 273.898L180.44 272.909L180.664 272.909L179.897 271.772L180.545 268.861L180.993 269.084C181.42 267.946 181.699 267.386 181.811 267.386L181.585 265.968L183.11 263.131L183.109 262.366L182.772 261.695L185.002 256.897L187.57 253.386C188.445 252.62 189.19 251.76 189.804 250.808L191.724 250.04L194.294 247.368L196.735 245.89L198.208 245.887L199.42 245.55L201.118 245.547L201.88 244.296L203.466 244.405L205.052 244.402L205.051 243.954C205.48 243.991 205.946 244.176 206.469 244.511L208.166 243.837L209.416 244.17L209.751 243.741L211.057 244.168L214.115 243.399ZM200.028 252.059L198.666 252.285L196.969 252.176L196.43 253.147L196.431 253.968C195.834 254.267 195.201 254.529 194.511 254.736L193.526 257.2C193.026 259.383 192.73 260.503 192.618 260.54L192.058 260.541L191.297 262.352L190.926 263.882C190.815 264.348 190.443 264.741 189.827 265.022L189.29 266.944L188.416 268.587C188.1 269.203 187.933 269.856 187.934 270.546L187.935 270.994L187.375 270.547L187.376 271.424L187.059 271.424L187.171 271.965L186.725 272.899L186.077 275.791L184.944 278.143L184.725 281.482L184.391 281.968L184.185 281.968L183.963 282.957L184.393 283.404L183.855 285.42L183.632 285.42L183.857 286.073L183.036 286.074L183.155 290.121L183.643 292.023L183.867 292.023L185.059 290.883L188.222 286.401L193.898 278.892L195.593 277.099L199.35 270.974L203.277 265.707L203.611 264.569L202.845 263.581L204.258 261.117L204.572 259.27C204.609 259.083 204.925 258.598 205.502 257.832L205.607 253.467L204.133 253.357L202.921 253.359L201.333 252.28L201.017 252.822L200.028 252.059Z" fill="#441700"/>
<path fill-rule="evenodd" clip-rule="evenodd" d="M279.995 323.585L280.375 322.301L282.937 315.47L283.586 313.118L284.349 312.352C285.149 310.747 285.67 309.925 285.931 309.887L286.149 306.287L286.689 306.062L286.687 304.701L287.134 304.271L287.133 303.711C287.932 301.919 288.453 300.855 288.713 300.481L288.151 299.009C288.708 297.273 289.135 296.134 289.47 295.63L289.955 295.63L289.728 293.876L289.949 292.514L289.461 290.818L291.137 289.062L291.125 281.899L290.914 278.616L291.116 276.825L289.09 269.89L288.868 270.711L288.102 270.488L285.868 272.73L285.103 272.731L284.508 273.721L284.06 273.721L284.061 274.263L283.092 274.488L282.274 276.504C281.101 277.569 280.449 278.186 280.282 278.373C280.114 278.56 279.929 279.213 279.707 280.332L278.29 280.894L277.583 281.753C277.359 282.015 276.819 282.408 275.943 282.913L275.721 283.902L274.472 284.501L273.933 285.696L272.349 286.258L271.307 288.218C271.196 288.405 270.618 288.835 269.556 289.527L268.906 290.852C267.806 291.507 266.875 292.255 266.074 293.096L265.514 292.873L265.087 294.142L264.546 294.143L264.1 294.908L262.515 294.911L262.292 295.938C261.286 296.499 260.69 296.892 260.504 297.153L260.168 296.93L259.516 297.696C258.789 297.809 258.192 298.071 257.708 298.52L257.166 297.924L256.347 298.746L255.153 298.953L253.566 297.93L252.577 297.932L251.867 297.168L252.081 290.882L251.841 281.966L251.839 280.716C252.79 280.024 253.348 279.352 253.533 278.68L253.307 277.375C253.306 276.796 253.567 276.199 254.069 275.564L253.84 272.3L254.881 270.545L254.653 267.71C254.652 267.039 254.874 266.385 255.302 265.732L254.867 261.908L255.295 261.572L255.087 259.894L253.275 258.572C252.623 259.096 251.954 260.085 251.266 261.579L249.067 262.515C248.824 262.628 248.359 263.113 247.707 263.935C246.98 264.048 246.384 264.31 245.918 264.703L243.88 261.927L244.101 260.117L244.419 260.938L245.239 260.116L244.642 260.117L245.685 259.35C246.075 258.585 246.522 258.005 246.988 257.613C247.472 257.202 248.479 256.864 250.045 256.563L250.267 255.742L250.27 257.551L250.807 254.976L256.601 250.919L261.407 247.143L263.644 246.318L267.017 244.298L268.23 244.296L269.107 244.723C269.35 244.835 269.948 245.468 270.845 246.642L268.835 249.145L269.06 249.909L268.502 250.899L268.247 254.518L267.266 259.108L267.49 259.313L267.044 260.302L266.504 260.527L266.841 261.552L266.288 265.116L265.041 266.704L264.723 277.579L265.063 279.705L264.523 280.695L265.501 285.282L266.322 285.281L268.556 282.703L268.89 281.937L269.879 281.674L271.126 280.143L271.89 279.918L273.1 278.647L274.46 277.563L275.933 277.113L278.706 273.508L281.501 271.489L284.274 267.921L284.871 267.92L290.123 262.838L291.09 261.512L291.427 262.071L291.42 258.023L291.641 256.269L292.237 255.671L291.901 255.672L292.067 254.571C292.178 254.142 292.346 253.787 292.55 253.544L293.425 252.442L294.246 252.441L295.624 251.021C295.866 250.76 296.201 250.554 296.63 250.385C297.04 250.217 297.506 250.048 298.01 249.861L299.502 249.859L300.266 249.428L300.809 250.845C301.871 250.265 302.617 249.928 303.046 249.853L303.641 248.826L304.629 248.283L304.628 247.612L305.617 248.281L306.104 249.418C305.156 251.379 304.674 252.722 304.638 253.413C305.142 253.729 305.758 254.008 306.448 254.23L306.449 254.883L305.406 255.426C304.867 256.789 304.421 257.629 304.104 258.002L304.314 260.464L303.886 261.491L304.112 262.591L303.668 264.83L302.848 265.055L302.31 266.866L302.854 268.45C301.142 271.288 300.306 273.043 300.307 273.696L300.308 274.461L299.861 275.059C299.436 276.999 299.102 277.988 298.878 278.063L298.879 278.828L299.103 279.052L297.743 280.099L297.526 283.867L298.069 285.34L297.533 288.008L296.77 289.483L296.772 290.471L295.528 293.533L294.968 293.272L294.541 294.299L294.374 295.232C294.337 295.493 294.059 296.035 293.5 296.875L293.95 297.863L293.504 299.113L292.963 299.002L293.729 299.878L293.507 300.923L293.509 301.911L292.316 302.23L292.541 302.678C291.815 303.798 291.276 305.18 290.962 306.821L290.515 307.27L290.202 309.285C289.215 310.275 288.731 311.059 288.732 311.638L288.941 313.876L288.401 314.474L287.748 314.475L287.976 316.936L286.71 317.927L286.935 318.915C285.911 320.335 285.41 321.455 285.411 322.294L285.412 322.854L285.094 323.587L279.995 323.585Z" fill="#441700"/>
<path fill-rule="evenodd" clip-rule="evenodd" d="M346.278 246.401L349.057 246.396L350.868 247.214C351.3 249.134 352.011 250.103 353 250.101C353.373 250.101 353.54 249.727 353.539 249C354.675 248.177 355.719 247.746 356.652 247.745C357.248 247.744 357.734 247.948 358.145 248.339C358.537 248.749 358.762 249.14 358.8 249.551L359.239 255.78L358.924 257.03C358.664 257.87 358.48 258.766 358.369 259.717C358.259 260.65 358.092 261.396 357.851 261.956C357.628 262.498 357.442 262.852 357.349 262.983L352.917 267.691L353.483 270.918L352.329 272.841L351.791 274.577L348.347 278.518L346.657 282.793C345.652 283.932 344.198 284.811 342.297 285.486L341.537 288.584L338.37 290.622L335.596 294.022L330.566 297.798L329.093 298.174L323.412 302.772L321.824 301.301C320.591 300.352 319.732 299.552 319.227 298.881C318.741 298.21 318.497 297.595 318.496 297.054C318.496 296.756 318.607 296.495 318.812 296.289L319.364 291.587L317.007 287.767C316.782 287.432 316.67 287.134 316.67 286.891C316.669 286.444 316.892 285.958 317.32 285.417L317.319 285.193L318.251 284.314L317.201 281.593L317.528 275.903L317.526 274.429L318.346 273.98C317.934 273.254 317.746 272.396 317.744 271.426C317.743 270.866 317.966 270.306 318.45 269.727L319.42 269.725L318.561 268.962L319.212 267.749L320.344 264.799L321.983 262.782L322.483 261.252L324.103 259.01C324.251 258.488 324.399 258.04 324.548 257.629L324.548 257.741C324.547 257.163 324.677 256.696 324.956 256.323C325.217 255.968 325.644 255.277 326.24 254.306L328.905 252.921L329.127 252.156C330.953 250.698 332.742 249.8 334.532 249.48L338.187 248.764L340.647 247.343L342.456 247.433L346.278 246.401ZM342.9 256.181L342.677 256.629C342.024 256.63 341.557 256.631 341.259 256.65C340.979 256.669 340.551 256.913 340.011 257.398L338.424 256.748L332.423 260.079C330.932 260.921 329.648 262.303 328.606 264.208C327.546 266.131 327.027 267.698 327.029 268.948C327.03 269.713 327.181 270.384 327.517 270.962L327.741 270.962C327.742 271.801 327.95 273.33 328.402 275.549L327.044 277.696L328.072 279.224L327.535 281.128C327.535 281.389 327.685 281.836 327.966 282.47C328.266 283.104 328.397 283.589 328.379 283.887C328.36 284.204 328.679 284.838 329.296 285.825L329.186 286.982C329.19 288.978 329.676 289.985 330.665 289.983C331.467 289.982 332.548 289.42 333.889 288.28C334.204 287.328 334.856 286.823 335.789 286.747L336.346 285.049C336.961 284.973 337.259 284.693 337.258 284.17L337.257 283.797C337.444 283.685 337.649 283.573 337.872 283.461C338.077 283.348 338.208 283.274 338.245 283.236C338.69 281.818 339.546 280.212 340.811 278.438L341.185 278.642L341.035 278.214L342.71 276.29L344.843 269.235L345.159 268.582L345.868 268.375L345.921 267.107L345.919 266.118C345.956 265.913 346.235 265.241 346.737 264.102L343.356 261.422L345.966 260.392L345.587 257.389L346.07 256.288L345.362 256.625L342.9 256.181Z" fill="#441700"/>
<path fill-rule="evenodd" clip-rule="evenodd" d="M456.228 283.968L455.091 284.623L454.755 284.195L454.757 285.183L454.532 284.96C454.18 286.024 453.901 286.621 453.696 286.771C453.491 286.902 453.249 286.977 452.95 286.977L452.521 286.978L452.522 287.202C452.522 287.575 452.261 287.743 451.758 287.744L451.982 287.967L451.759 288.192L451.534 287.968L451.535 288.397C451.255 288.398 450.994 288.529 450.808 288.771C450.603 288.996 450.51 289.164 450.51 289.22L450.512 290.003L449.746 289.78L449.952 290.209L448.703 290.808L445.371 294.6L445.147 294.377C445.148 294.955 444.906 295.291 444.384 295.367C443.922 298.054 443.178 299.398 442.152 299.4L439.484 298.919C438.794 298.809 438.29 298.735 438.01 298.698C437.711 298.661 436.89 298.159 435.545 297.173C435.135 297.248 434.576 297.529 433.849 297.996C433.345 297.68 432.766 297.14 432.149 296.414L432.373 296.413L432.372 295.648L432.968 295.386L432.37 294.399L434.065 293.183L431.824 291.602L431.598 290.576C432.176 290.239 432.474 289.996 432.474 289.81C432.474 289.773 431.856 288.766 430.603 286.81C429.445 285.749 428.697 284.892 428.361 284.24L428.585 284.239L428.359 283.195L429.121 281.664L429.119 280.638L429.231 280.638C429.306 280.638 429.343 280.601 429.343 280.526C429.342 280.451 429.08 279.743 428.574 278.382L428.779 278.382L428.125 277.618C428.572 277.039 428.776 276.404 428.775 275.714C428.773 274.614 428.024 272.974 426.528 270.794L425.872 269.004C425.718 265.964 425.267 264.193 424.501 263.634C423.16 264.662 422.49 265.559 422.491 266.324L422.585 266.753C422.586 267.387 422.121 267.686 421.169 267.688L420.684 267.689C420.145 268.753 419.475 269.761 418.712 270.695L418.938 271.683L417.895 272.506C417.877 273.047 417.729 273.569 417.468 274.073C417.208 274.559 416.929 274.97 416.594 275.287C416.277 275.624 415.849 276.296 415.347 277.323L415.123 277.099L415.124 277.752L414.584 278.089L414.138 279.078C413.448 279.434 413.113 279.826 413.114 280.218C413.114 280.367 413.189 280.591 413.32 280.87L413.115 280.871L413.116 281.318L412.78 281.319L412.13 283.111L410.974 283.672L411.312 284.921C410.848 286.191 409.918 287.666 408.54 289.291L408.542 290.503C408.285 292.91 407.915 294.44 407.45 295.094L407.226 295.094C407.264 295.598 406.911 296.233 406.166 296.98C405.421 297.728 404.825 298.251 404.396 298.569C403.949 298.887 403.334 299.037 402.532 299.038L402.047 299.039C401.972 298.964 401.823 298.927 401.599 298.928C401.431 298.928 400.798 299.377 399.699 300.293L399.308 301.002C399.215 301.226 399.104 301.338 399.01 301.357C398.917 301.376 398.787 301.395 398.6 301.395C398.208 301.396 397.984 301.359 397.947 301.284L396.694 299.477L395.108 299.275L394.565 297.951C394.806 296.981 395.271 295.954 395.922 294.89L395.697 294.125C395.995 294.013 396.125 293.882 396.125 293.696C396.124 293.546 396.068 293.434 395.919 293.36L396.345 291.662L396.345 291.345L396.027 290.898L396.231 290.3L396.567 290.636C396.678 289.796 397.087 289.273 397.814 289.104L398.372 288.058L398.801 287.834C399.21 286.863 399.526 286.247 399.786 286.042L399.559 284.065C399.558 283.412 399.762 282.628 400.152 281.713L400.488 281.713L400.487 281.452L400.151 281.228L401.467 276.302L402.23 274.883L402.227 272.868L400.901 272.05L400.47 270.726C400.058 270.223 399.871 269.813 399.871 269.477L400.128 267.462C400.125 265.933 399.789 265.075 399.098 264.89C398.651 265.208 398.26 265.414 397.887 265.489L397.887 265.713L397.068 266.703L395.874 266.705L395.652 267.47L395.055 267.471C394.552 268.087 394.013 269.021 393.474 270.272C392.935 271.541 392.526 272.4 392.266 272.885C391.186 273.764 390.329 274.567 389.715 275.333L389.716 275.893C388.69 275.895 388.019 276.492 387.685 277.687L387.48 277.37L387.481 277.911L386.716 277.912C386.531 278.752 386.196 279.48 385.694 280.096C385.21 280.731 384.689 281.348 384.149 281.964C384.149 282.356 383.907 282.617 383.441 282.73C383.293 283.458 382.791 284.13 381.915 284.747L381.375 285.457C381.189 285.644 381.022 286.204 380.874 287.099L380.11 287.548L380.111 287.865C379.608 287.978 379.347 288.202 379.347 288.52L378.862 288.52C378.863 289.36 378.678 289.826 378.305 289.902C377.448 290.407 376.759 291.042 376.275 291.789C375.773 292.536 375.531 292.984 375.531 293.133L375.532 293.73C374.695 294.814 374.287 296.251 374.29 297.985L374.066 297.986L374.291 298.545L373.53 300.785C374.574 300.298 375.245 300.073 375.543 300.072C376.047 300.072 376.308 300.407 376.309 301.097L375.769 301.546L375.77 301.769L375.119 303.132C373.871 304.086 373.014 304.889 372.549 305.599L372.55 305.916L371.953 306.141C371.359 307.597 370.82 308.791 370.318 309.744L367.97 310.96L367.258 309.432C367.034 308.947 366.417 308.109 365.389 306.917C365.836 306.617 366.078 306.375 366.152 306.151C365.965 305.853 365.554 305.536 364.901 305.164L364.136 305.165C363.296 305.166 362.737 305.074 362.438 304.87C362.139 304.665 361.97 304.161 361.895 303.359L362.099 303.154C361.894 302.931 361.781 302.688 361.781 302.446C361.781 302.296 361.818 302.184 361.892 302.11L361.89 301.121L362.096 301.345L362.095 300.58C362.934 300.28 363.362 299.757 363.361 298.992C363.603 298.805 363.863 298.394 364.123 297.741L363.674 296.977C364.811 296.527 365.37 295.78 365.368 294.736C366.393 294.1 366.894 292.961 366.892 291.282L366.891 290.685L367.71 290.143L367.112 289.361L367.708 288.539L367.111 288.335L367.109 287.57L368.132 285.535L367.703 285.536L367.702 285.107L366.657 284.568L366.655 283.523L367.915 278.932L367.465 277.721C367.503 277.702 367.651 277.235 367.911 276.358L368.023 276.358C368.414 276.357 368.657 276.189 368.749 275.872C368.842 275.536 368.916 274.864 368.932 273.838C368.968 272.831 369.023 271.991 369.096 271.338L368.442 270.78L369.093 269.529L369.09 267.999L369.424 266.954C368.696 266.676 368.322 266.117 368.321 265.315L368.431 264.494L367.067 263.19L363.84 262.972L363.613 260.958L365.085 260.358L364.825 260.956L365.31 260.731C365.309 260.041 365.644 259.593 366.296 259.368C366.555 258.379 367.207 257.818 368.289 257.648C369.352 257.479 369.892 256.769 369.89 255.538L370.225 255.537L371.209 252.756L371.638 252.755L371.637 251.991L371.861 251.99C372.176 250.74 372.958 249.675 374.206 248.759C375.435 247.843 376.572 247.244 377.579 246.944C378.996 246.755 380.152 246.007 381.026 244.7L382.614 245.891L382.278 246.115C383.92 246.542 385.786 246.818 387.857 246.927L387.857 247.151C387.429 247.263 387 247.395 386.571 247.563C386.161 247.732 385.732 247.938 385.322 248.181C384.894 248.443 384.633 248.742 384.522 249.059L384.095 250.272L382.845 250.479L382.847 251.972L383.052 251.971C382.941 252.4 382.811 252.662 382.625 252.737L382.068 254.323C381.249 255.257 380.821 256.116 380.822 256.881L381.048 257.981C381.048 258.223 380.974 258.354 380.825 258.355L380.284 258.355L380.285 258.691L380.061 258.692L380.286 259.68C379.839 259.774 379.634 260.129 379.635 260.707L379.748 261.042C379.748 261.509 379.321 262.218 378.483 263.171C378.484 263.824 378.167 264.16 377.496 264.161L376.248 265.301L376.847 266.513L376.477 268.528L376.48 270.113C376.257 270.263 375.921 270.413 375.492 270.563L375.271 271.869C375.272 272.447 375.03 272.951 374.509 273.344L374.735 274.929L374.029 276.683L373.053 283.997C373.166 284.724 373.502 285.097 374.043 285.096C374.379 284.872 374.695 284.61 375.031 284.274C375.347 283.937 375.701 283.564 376.055 283.134C376.427 282.686 376.725 282.312 376.967 281.976C377.19 281.64 377.712 281.229 378.513 280.724L379.331 279.137L380.319 279.135C380.543 278.687 380.635 278.295 380.635 277.922C381.082 277.492 381.304 276.951 381.303 276.335C382.758 276.015 383.708 275.193 384.134 273.868L384.452 273.868C384.822 272.561 385.567 271.627 386.704 271.084C387.17 271.084 387.524 270.915 387.729 270.56C387.952 270.224 388.455 269.608 389.255 268.73L389.254 267.965L389.478 267.965L389.477 267.256C391.154 265.91 392.085 265.237 392.253 265.274L392.252 264.677L392.475 263.912L393.072 263.911C392.903 263.65 392.81 263.482 392.81 263.37C392.809 262.922 393.144 262.437 393.833 261.895L395.269 261.893C395.36 260.438 396.496 259.074 398.639 257.839L398.863 258.063L398.862 257.503L399.085 256.85L399.402 257.073C399.661 255.972 399.922 255.375 400.201 255.244C400.462 255.113 400.704 255.057 400.872 255.056C400.984 255.056 401.171 255.112 401.432 255.26C401.505 254.309 401.803 253.842 402.344 253.841C402.642 253.841 403.072 254.064 403.669 254.492L404.098 254.491C405.404 254.489 406.189 255.159 406.452 256.52C408.057 256.592 409.102 257.057 409.57 257.933C410.056 258.809 410.281 259.442 410.282 259.834C410.283 260.431 410.041 260.916 409.52 261.309L409.26 262.093C409.261 262.671 409.485 263.268 409.971 263.883L410.067 265.244L409.862 265.244C409.714 266.047 409.268 266.868 408.504 267.709L409.047 268.473L408.826 270.506L409.276 271.475C409.278 272.688 409.614 273.284 410.305 273.283C410.864 273.282 411.181 272.946 411.292 272.293L411.887 271.266C413.265 269.865 414.195 268.762 414.679 267.922L415.872 267.696L416.69 265.904L417.677 265.231C418.404 264.875 418.814 264.315 418.924 263.55C419.764 263.362 420.583 262.671 421.383 261.457C422.183 260.262 422.891 259.645 423.507 259.606L423.842 259.27C424.157 258.468 424.38 258.057 424.492 258.019L424.828 258.131C424.959 258.13 425.033 258.018 425.033 257.794L426.077 257.252C427.103 257.25 427.773 256.633 428.088 255.439C428.965 255.326 429.542 255.063 429.84 254.671L430.437 254.446L431.09 254.669C432.377 254.667 433.236 255.262 433.667 256.474L434.879 256.248L436.469 258.596L436.471 259.79C437.277 262.157 437.802 264.04 438.047 265.42L438.495 265.42C438.422 266.632 438.088 267.696 437.512 268.648L438.278 269.635L437.517 271.427C437.892 272.789 438.062 273.945 438.063 274.933C438.065 276.09 437.899 276.874 437.526 277.285L437.756 280.623L438.073 280.622L437.646 281.985L437.05 282.21L437.051 282.863C437.054 284.392 437.391 285.66 438.083 286.685C438.313 290.396 439.025 292.261 440.238 292.258C440.629 292.258 441.672 291.249 443.348 289.231L444.709 289.024L445.136 287.755L446.123 286.988L445.899 286.672L448.693 284.205L450.275 282.187L450.704 282.187L451.969 280.039C452.174 280.263 452.398 280.374 452.622 280.374C453.2 280.373 453.759 279.775 454.316 278.562L454.522 278.561C454.671 278.561 454.745 278.524 454.745 278.449L454.745 278.337L456.987 280.684L456.228 283.968Z" fill="#441700"/>
<path fill-rule="evenodd" clip-rule="evenodd" d="M492.905 221.007L492.569 221.008L490.562 225.339L490.338 225.115C490.339 225.507 490.153 225.862 489.799 226.161L489.799 226.366C488.999 227.655 487.994 228.57 486.782 229.169L486.353 228.946L486.353 229.375C484.935 229.21 483.834 228.894 483.05 228.486C482.266 228.076 481.687 227.387 481.293 226.418C480.919 225.449 480.525 224.442 480.169 223.379C480.709 222.614 481.174 222.165 481.528 222.015L481.973 220.541L483.763 219.549L484.747 217.421L486.555 216.43L486.556 216.765L487.526 217.193C487.787 217.043 487.955 216.931 488.048 216.837C488.141 216.744 488.272 216.632 488.439 216.501C488.607 216.389 489.036 216.239 489.726 216.07C490.416 215.901 490.937 215.713 491.31 215.489L491.906 215.171L492.336 215.17L493.159 216.418L493.161 218.172L493.388 219.757L492.905 221.007ZM485.032 252.992L484.808 252.993L484.384 255.829L484.813 256.164L484.052 258.18L483.828 257.807L483.828 258.628C483.831 260.232 483.162 261.763 481.822 263.22L482.251 263.219L482.253 264.208L482.048 264.208L482.264 270.587L481.836 271.353L482.061 272.397L481.248 276.39L481.509 276.39C481.51 277.117 481.344 278.162 480.973 279.505L480.491 280.98L479.831 288.256C479.702 288.983 479.628 289.394 479.628 289.506C479.629 290.159 479.91 290.494 480.507 290.493C481.197 290.492 481.961 290.211 482.8 289.669L486.34 287.256C487.326 286.042 488.034 285.444 488.463 285.443L488.799 285.443C489.414 285.162 489.991 284.657 490.55 283.966C491.09 283.275 491.499 282.882 491.798 282.77C492.337 281.781 492.839 281.295 493.269 281.294C493.306 281.294 493.455 281.331 493.716 281.387C493.959 281.461 494.631 281.59 495.732 281.775L496.163 283.304C496.164 284.143 495.886 285.095 495.31 286.178C494.715 287.242 494.25 288.138 493.916 288.848C493.562 289.557 492.799 290.136 491.587 290.586L491.587 290.959L490.823 290.737L490.823 291.501L490.338 291.502C490.228 292.491 489.725 293.052 488.812 293.202L488.812 293.538L487.339 293.54L487.339 293.764L486.798 293.765L485.307 294.737L484.878 294.738L484.115 295.784L481.878 296.124C481.655 296.553 481.319 296.777 480.834 296.778L478.058 298.797L478.059 299.245L476.697 299.023L477.071 299.564L475.263 300.015L475.263 300.276L474.498 300.277L474.499 301.042L473.679 301.603L473.474 301.603L473.474 301.808C472.992 303.152 472.321 303.843 471.445 303.845L470.68 303.622C470.248 302.28 469.5 300.919 468.434 299.578C468.731 298.421 468.879 297.563 468.878 297.003L468.426 294.766L468.424 293.572C468.422 292.434 468.532 291.278 468.754 290.065L469.069 288.646L469.068 288.367L468.975 288.367C468.9 288.367 468.863 288.348 468.863 288.274C468.863 288.199 469.03 287.602 469.363 286.52C469.716 285.418 469.882 284 469.879 282.247C469.878 281.818 469.728 281.557 469.392 281.483L470.099 280.008L470.087 273.405L470.961 271.482C471.258 270.903 471.536 269.747 471.832 268.049C472.297 267.749 472.577 267.469 472.651 267.226L472.202 266.574L472.648 265.473C472.068 264.336 471.377 263.778 470.612 263.779L468.056 263.783C467.759 264.082 467.61 264.399 467.61 264.772L467.237 264.773C467.053 265.762 466.587 266.36 465.804 266.585C465.638 267.518 465.098 268.097 464.24 268.266L463.254 269.853L463.03 269.854C462.771 270.656 462.324 271.068 461.671 271.069C460.943 271.07 460.345 270.53 459.896 269.486C459.428 268.424 459.203 267.846 459.203 267.734C459.203 267.584 459.277 267.435 459.426 267.249C459.778 265.644 460.913 264.318 462.795 263.251L462.795 262.803C463.595 262 464.415 261.402 465.254 261.008L464.769 261.009C466.335 260.671 467.248 259.867 467.525 258.561C467.784 257.274 468.753 256.619 470.395 256.616L471.048 256.839L472.409 256.184L471.588 256.186L472.836 255.363L473.172 255.586L474.159 254.372L474.42 254.595C474.866 253.531 475.873 253.007 477.44 253.005C477.794 253.004 477.98 252.854 477.979 252.575L477.979 252.015L478.408 252.014L478.202 251.81L479.991 250.538C480.567 249.511 481.499 249.006 482.786 249.004C483.588 249.003 484.279 249.225 484.876 249.653C485.493 250.1 485.792 250.528 485.793 250.976C485.793 251.442 485.534 252.115 485.032 252.992Z" fill="#441700"/>
</svg>
