<svg width="667" height="240" viewBox="0 0 667 240" fill="none" xmlns="http://www.w3.org/2000/svg">
<path d="M664.485 111.193C639.183 111.193 614.735 111.12 590.068 111.12C590.068 116.953 589.792 121.807 590.12 127.307C590.677 136.599 591.693 145.859 595.302 154.557C598.756 162.844 604.568 167.698 613.704 169.219C628.891 171.766 639.886 169.276 649.943 156.896C653.464 152.568 656.839 147.865 659.516 142.849C660.891 140.266 661.396 139.911 664.86 140.693C663.256 146.786 660.401 152.198 656.735 157.177C645.573 172.438 630.136 177.193 612.422 176.156C601.532 175.505 591.422 172.25 582.61 165.469C570.547 156.172 564.032 143.495 562.094 128.313C560.526 115.859 561.287 103.516 566.157 91.8438C573.636 73.8907 587.068 63.6459 605.761 60.7657C614.677 59.3907 623.651 59.5209 632.375 62.1042C648.719 66.9584 658.198 78.5938 662.151 95.2448C663.271 100.005 663.667 105.708 664.485 111.172V111.193ZM635.427 107.01C635.427 104.406 635.516 101.953 635.427 99.5209C635.084 91.099 634.365 82.7344 630.969 74.9115C628.73 69.7605 625.589 65.323 619.86 64.1667C611.537 62.474 604.297 64.6875 599.297 72.0886C592.198 82.5677 591.063 94.724 590.282 107.031H635.427V107.01Z" fill="#1D1D1B"/>
<mask id="mask0_49_62" style="mask-type:luminance" maskUnits="userSpaceOnUse" x="527" y="26" width="141" height="185">
<path d="M527.151 26.5677H667V210.568H527.151V26.5677Z" fill="white"/>
</mask>
<g mask="url(#mask0_49_62)">
<path d="M664.485 111.193C639.183 111.193 614.735 111.12 590.068 111.12C590.068 116.953 589.792 121.807 590.12 127.307C590.677 136.599 591.693 145.859 595.302 154.557C598.756 162.844 604.568 167.698 613.704 169.219C628.891 171.766 639.886 169.276 649.943 156.896C653.464 152.568 656.839 147.865 659.516 142.849C660.891 140.266 661.396 139.912 664.86 140.693C663.256 146.787 660.401 152.198 656.735 157.177C645.573 172.438 630.136 177.193 612.422 176.156C601.532 175.505 591.422 172.25 582.61 165.469C570.547 156.172 564.032 143.495 562.094 128.313C560.526 115.859 561.287 103.516 566.157 91.8438C573.636 73.8907 587.068 63.6459 605.761 60.7657C614.678 59.3907 623.651 59.5209 632.375 62.1042C648.719 66.9584 658.198 78.5938 662.151 95.2449C663.271 100.005 663.667 105.708 664.485 111.172V111.193ZM635.428 107.01C635.428 104.406 635.516 101.953 635.428 99.5209C635.084 91.099 634.365 82.7344 630.969 74.9115C628.73 69.7605 625.589 65.323 619.86 64.1667C611.537 62.474 604.297 64.6876 599.297 72.0886C592.198 82.5678 591.063 94.724 590.282 107.031H635.428V107.01Z" stroke="#1D1D1B" stroke-width="2.35355" stroke-miterlimit="10"/>
</g>
<path d="M432.646 65.4688C426.484 65.4688 421.286 65.4688 415.578 65.4688C412.906 65.4688 412.745 65.2448 413.271 62.2917H452.505V65.4688C448.156 65.4688 447.214 65.4688 443.01 65.3386C441.24 65.2813 440.5 66.75 439.76 68.5C418.578 119.557 371.792 227.714 370.344 230.557C368.214 234.76 363.302 237.583 358.771 238.438C355.667 239.036 352.396 238.792 349.453 238.068C344.089 236.75 340.099 233.552 338.708 227.714C336.688 219.297 341.219 211.135 349.073 209.016C357.453 206.766 365.365 211.396 367.729 219.906C367.839 220.297 367.729 219.948 367.943 220.708C370.688 214.13 373.505 208.625 376.125 202.365C379.411 194.464 382.01 186.677 385.224 178.719C385.568 177.885 386.234 176.453 385.859 175.651C368.719 139.521 351.495 103.422 334.339 67.2917C333.656 65.8594 332.844 65.3594 331.323 65.4323C328.76 65.5625 326.198 65.4323 323.651 65.4896C322.333 65.5052 321.375 65.3959 321.375 63.6302C321.375 61.8802 322.297 61.75 323.63 61.75C338.781 61.7709 353.911 61.75 369.063 61.75C372.656 61.75 376.234 61.8073 379.828 61.7344C381.286 61.6979 381.74 62.2552 381.724 63.7031C381.724 65.1146 381.125 65.4896 379.865 65.4896C374.156 65.4531 368.448 65.4896 362.255 65.4896C374.859 92.0469 387.177 118.031 399.87 144.781C410.995 118.073 421.594 92.125 432.682 65.4896L432.646 65.4688Z" fill="#1D1D1B"/>
<mask id="mask1_49_62" style="mask-type:luminance" maskUnits="userSpaceOnUse" x="287" y="27" width="199" height="213">
<path d="M287.151 27.9011H485.818V240H287.151V27.9011Z" fill="white"/>
</mask>
<g mask="url(#mask1_49_62)">
<path d="M432.646 65.4688C426.485 65.4688 421.287 65.4688 415.579 65.4688C412.907 65.4688 412.745 65.2448 413.271 62.2917H452.506V65.4688C448.157 65.4688 447.214 65.4688 443.011 65.3386C441.24 65.2813 440.5 66.75 439.761 68.5C418.579 119.557 371.792 227.714 370.344 230.557C368.214 234.76 363.303 237.583 358.771 238.438C355.667 239.037 352.396 238.792 349.454 238.068C344.089 236.75 340.099 233.552 338.709 227.714C336.688 219.297 341.219 211.135 349.073 209.016C357.454 206.766 365.365 211.396 367.73 219.906C367.839 220.297 367.73 219.948 367.943 220.708C370.688 214.13 373.506 208.625 376.126 202.365C379.412 194.464 382.011 186.677 385.224 178.719C385.568 177.885 386.235 176.453 385.86 175.651C368.719 139.521 351.495 103.422 334.339 67.2917C333.657 65.8594 332.844 65.3594 331.323 65.4323C328.761 65.5625 326.198 65.4323 323.652 65.4896C322.334 65.5052 321.375 65.3959 321.375 63.6302C321.375 61.8802 322.297 61.75 323.631 61.75C338.782 61.7709 353.912 61.75 369.063 61.75C372.657 61.75 376.235 61.8073 379.829 61.7344C381.287 61.6979 381.74 62.2552 381.724 63.7031C381.724 65.1146 381.125 65.4896 379.865 65.4896C374.157 65.4531 368.448 65.4896 362.256 65.4896C374.86 92.0469 387.178 118.031 399.87 144.781C410.995 118.073 421.594 92.125 432.683 65.4896L432.646 65.4688Z" stroke="#1D1D1B" stroke-width="2.35355" stroke-miterlimit="10"/>
</g>
<path d="M270.636 150.484C270 152.292 269.245 155.635 268.485 157.38C263.938 167.828 256.766 172.995 245.552 175.302C243.334 175.766 241.037 176.005 238.766 176.083C233.636 176.25 228.526 175.912 223.578 174.318C213.485 171.026 206.422 164.521 204.021 153.667C201.839 143.76 203.318 134.448 209.854 126.438C213.792 121.604 218.938 118.5 224.573 116.229C230.599 113.797 236.901 112.458 243.349 111.958C246.781 111.698 250.229 111.568 253.662 111.51C258.844 111.438 264.026 111.49 269.224 111.474C270.672 111.474 270.688 111.474 270.672 109.984C270.651 105.021 270.781 100.042 270.578 95.099C270.307 88.5729 269.698 82.0677 267.328 75.9323C265.761 71.8802 263.396 68.7604 259.547 66.5469C257.198 65.1927 254.438 64.6875 251.766 64.5417C242.594 64 234.464 65.5261 226.339 69.875C226.031 70.0417 225.599 70.2656 225.13 70.4896C226.667 70.6354 227.927 70.4688 229.229 70.7656C235.224 72.1042 239.828 75.375 241.203 81.7917C242.214 86.5469 241.073 93.0886 236.198 96.6042C230.583 100.656 221.448 101.229 215.834 96.2136C213.068 93.7396 211.698 90.6198 211.443 86.9375C210.865 78.4271 214.964 72.5313 221.698 68.3906C226.396 65.5052 231.417 63.2396 236.797 61.9948C244.776 60.1719 252.828 59.6146 260.974 60.1927C265.396 60.5052 269.802 61.0261 273.959 62.5886C283.438 66.1407 290.063 72.6459 293.115 82.7396C294.776 88.2188 295.537 93.8334 295.537 99.5781C295.537 119.521 295.537 139.448 295.537 159.391C295.537 162.047 295.698 164.688 297.037 167.083C297.74 168.349 298.729 169.224 300.104 169.557C303.136 170.302 305.953 169.797 308.625 168.068C312.005 165.875 314.823 163.182 316.573 159.391C317.094 158.276 317.401 158.292 318.141 159.318C319.479 161.135 319.464 161.135 318.235 163.125C313.469 170.912 306.479 174.912 297.74 175.932C296.292 176.099 294.797 175.932 293.334 175.932C291.818 175.932 290.297 176.12 288.818 175.896C284.485 175.281 280.24 174.297 276.865 171.12C273.073 167.552 270.959 163.162 270.781 157.849C270.709 155.578 270.672 153.292 270.615 151.026C270.615 150.672 270.578 150.318 270.578 149.969C270.526 149.969 270.651 150.542 270.599 150.542L270.636 150.484ZM270.87 125.396C270.87 125.396 270.761 125.396 270.709 125.396C270.709 122.214 270.709 119.057 270.709 115.88C270.709 115.115 270.563 114.724 269.698 114.745C264.443 114.839 259.188 114.745 253.932 114.984C246.401 115.359 240.479 119.057 236.292 125.359C231.776 132.141 230.005 139.76 230.906 147.979C231.344 151.953 232.136 155.839 233.797 159.5C237.104 166.693 242.464 169.557 250.016 167.958C255.99 166.693 260.412 162.958 263.771 157.943C267.563 152.271 269.568 145.859 270.167 139.036C270.547 134.5 270.636 129.948 270.87 125.411V125.396Z" fill="#1D1D1B" stroke="#1D1D1B" stroke-width="2.35355" stroke-miterlimit="10"/>
<path d="M28.3596 12.5157C28.3596 66.75 28.5939 118.906 28.5939 172.958H41.4169C42.0679 176.042 41.9377 176.229 39.1773 176.229C28.8491 176.229 18.5366 176.229 8.20852 176.229C5.51581 176.229 5.3179 175.953 6.06269 172.974H19.8752C19.8752 117.958 21.1929 63.1823 21.1929 8.16671C15.6304 8.16671 11.7866 8.18233 6.18769 8.18233V4.83858C6.72936 4.80212 19.0783 4.80212 19.5314 4.80212C33.1981 4.83858 33.5054 4.87504 47.1773 4.87504C48.4585 4.87504 48.7658 5.56254 49.1252 6.54691C58.9846 33.9271 68.8439 61.3073 78.7033 88.6823C84.6981 105.339 88.9585 119.109 94.9742 135.745C95.1721 136.323 95.3335 136.807 95.7137 137.755C96.7971 134.615 125.094 47.2917 139.235 5.54691C139.667 4.26045 140.318 4.43233 141.974 4.44795C154.688 4.57816 170.943 4.83858 183.651 4.89587C184.537 4.89587 185.406 4.89587 186.432 4.89587V7.94275H171.141V172.922H186.453V176.063H128.125V172.995H145.625C145.625 118.573 146.417 64.5209 146.417 9.83858C145.406 12.7396 144.469 15.4688 143.584 18.073C125.761 70.8386 109.255 123.349 91.4169 176.099C91.0002 177.328 88.8544 178.625 86.8283 178.662C84.896 178.703 84.4273 177.698 83.9064 176.229C74.6252 150.057 65.3231 123.891 56.0262 97.7188C46.0002 69.5053 38.6148 41.4532 28.5939 13.2396C28.3804 12.6094 28.7241 13.5 28.3231 12.4948L28.3596 12.5157Z" fill="#1D1D1B"/>
<mask id="mask2_49_62" style="mask-type:luminance" maskUnits="userSpaceOnUse" x="0" y="0" width="221" height="214">
<path d="M0 0H220.484V213.234H0V0Z" fill="white"/>
</mask>
<g mask="url(#mask2_49_62)">
<path d="M28.3596 12.5156C28.3596 66.75 28.5939 118.906 28.5939 172.958H41.4169C42.0679 176.042 41.9377 176.229 39.1773 176.229C28.8491 176.229 18.5366 176.229 8.20852 176.229C5.51581 176.229 5.3179 175.953 6.06269 172.974H19.8752C19.8752 117.958 21.1929 63.1823 21.1929 8.16667C15.6304 8.16667 11.7867 8.1823 6.18769 8.1823V4.83855C6.72936 4.80209 19.0783 4.80209 19.5314 4.80209C33.1981 4.83855 33.5054 4.87501 47.1773 4.87501C48.4585 4.87501 48.7658 5.56251 49.1252 6.54689C58.9846 33.9271 68.8439 61.3073 78.7033 88.6823C84.6981 105.339 88.9585 119.109 94.9742 135.745C95.1721 136.323 95.3335 136.807 95.7137 137.755C96.7971 134.615 125.094 47.2917 139.235 5.54688C139.667 4.26042 140.318 4.4323 141.974 4.44792C154.688 4.57813 170.943 4.83855 183.651 4.89584C184.537 4.89584 185.406 4.89584 186.433 4.89584V7.94272H171.141V172.922H186.453V176.063H128.125V172.995H145.625C145.625 118.573 146.417 64.5208 146.417 9.83855C145.406 12.7396 144.469 15.4688 143.584 18.0729C125.761 70.8386 109.255 123.349 91.4169 176.099C91.0002 177.328 88.8544 178.625 86.8283 178.662C84.896 178.703 84.4273 177.698 83.9065 176.229C74.6252 150.057 65.3231 123.891 56.0262 97.7188C46.0002 69.5052 38.6148 41.4531 28.5939 13.2396C28.3804 12.6094 28.7241 13.5 28.3231 12.4948L28.3596 12.5156Z" stroke="#1D1D1B" stroke-width="2.35355" stroke-miterlimit="10"/>
</g>
<path d="M524.5 68.4427C526.938 65.8021 529.271 63.4635 531.797 60.7656C532.193 60.3385 532.662 59.8958 533.167 59.724C533.928 59.4844 534.594 59.651 534.594 60.75C534.594 70.8385 534.594 80.9323 534.573 91.026C534.573 91.1927 534.506 91.3802 534.454 91.6198H532.558C531.938 89.2969 531.417 86.974 530.714 84.7083C528.584 77.9063 525.167 71.974 519.5 67.6458C515.042 64.2448 509.948 62.4948 504.443 62.3073C501.37 62.2187 498.209 62.3854 495.214 63.0521C486.563 65.0417 481.724 72.125 482.099 81.25C482.355 87.4011 485.443 91.8281 490.141 94.9323C494.834 98.0365 499.87 100.656 504.907 103.203C511.391 106.49 518.094 109.333 524.068 113.609C530.079 117.885 535.193 123.073 537.573 130.281C541.438 142.01 540.75 153.365 533.386 163.625C529.214 169.427 523.438 172.938 516.719 174.703C508.125 176.953 499.527 176.896 491.094 173.885C486.271 172.156 481.959 169.464 478.381 165.448C476.849 167.25 475.495 168.849 473.995 170.599C472.803 171.99 471.704 173.458 470.422 174.74C469.948 175.208 469.12 175.281 468.433 175.521C468.292 174.984 468 174.464 468 173.922C467.985 164.203 467.985 154.484 468 144.745C468 144.276 468.037 143.833 468.073 143.406C469.948 142.979 469.969 142.995 470.438 144.76C472.261 151.656 474.594 156.323 479.323 161.693C484.469 167.531 491.261 171.12 498.844 172.031C504.021 172.641 509.334 172.807 514.355 171.135C523.167 168.198 528.24 161.859 528.636 152.328C528.964 144.521 525.803 138.76 519.881 134.333C514.787 130.526 509.063 127.943 503.355 125.318C497.094 122.438 490.75 119.651 485.011 115.693C479.99 112.234 475.584 108.125 473.021 102.438C465.672 86.099 470.49 65.6563 491.417 60.0781C500.813 57.5885 508.865 57.2917 517.297 62.625C519.125 63.776 522.657 66.974 524.485 68.4062L524.5 68.4427Z" fill="#1D1D1B" stroke="#1D1D1B" stroke-width="2.35355" stroke-miterlimit="10"/>
<path d="M348.37 161.245C348.948 161.245 348.948 160.318 348.37 160.318C347.792 160.318 347.792 161.245 348.37 161.245Z" fill="#1D1D1B"/>
</svg>
