<svg width="60" height="44" viewBox="0 0 60 44" fill="none" xmlns="http://www.w3.org/2000/svg">
<path d="M8.625 43V38.6875H9.12109L10.8633 41.3281L12.6172 38.6875H13.1055V43H12.5742V39.6328L10.8633 42.1836L9.15234 39.6328V43H8.625ZM14.8555 41.7109H16.1602L15.5117 40.4336L14.8555 41.7109ZM13.6484 43L15.3438 39.6641H15.6719L17.3828 43H16.8242L16.3906 42.1523H14.6289L14.1992 43H13.6484ZM17.8867 43V39.6719H18.4102V41.1523L20.1758 39.6719H20.8633L19.4648 40.8555L21.0742 43H20.4883L19.0977 41.1602L18.4102 41.7422V43H17.8867ZM21.6836 43V39.6641H24.8125V40.1523H22.207V40.9844H23.918V41.4648H22.207V42.5195H24.957V43H21.6836ZM28.9805 40.3906H31.043C31.2695 40.3906 31.4427 40.3398 31.5625 40.2383C31.6823 40.1341 31.7422 39.9857 31.7422 39.793C31.7422 39.5898 31.6836 39.4375 31.5664 39.3359C31.4518 39.2344 31.2773 39.1836 31.043 39.1836H28.9805V40.3906ZM28.9805 42.5039H31.2383C31.4831 42.5039 31.6758 42.4323 31.8164 42.2891C31.957 42.1432 32.0273 41.9453 32.0273 41.6953C32.0273 41.4479 31.957 41.2513 31.8164 41.1055C31.6758 40.9596 31.4831 40.8867 31.2383 40.8867H28.9805V42.5039ZM28.4453 43V38.6875H30.9961C31.4206 38.6875 31.7409 38.7786 31.957 38.9609C32.1758 39.1406 32.2852 39.4076 32.2852 39.7617C32.2852 39.9336 32.2513 40.0872 32.1836 40.2227C32.1159 40.3581 32.0195 40.4674 31.8945 40.5508C32.1237 40.6836 32.2969 40.8464 32.4141 41.0391C32.5312 41.2318 32.5898 41.4531 32.5898 41.7031C32.5898 42.1016 32.4583 42.418 32.1953 42.6523C31.9349 42.8841 31.5807 43 31.1328 43H28.4453ZM33.5898 43V39.6641H36.7188V40.1523H34.1133V40.9844H35.8242V41.4648H34.1133V42.5195H36.8633V43H33.5898ZM38.1758 41.7109H39.4805L38.832 40.4336L38.1758 41.7109ZM36.9688 43L38.6641 39.6641H38.9922L40.7031 43H40.1445L39.7109 42.1523H37.9492L37.5195 43H36.9688ZM41.0664 39.6719H41.5898V41.8086C41.5898 42.1289 41.6654 42.3451 41.8164 42.457C41.9674 42.569 42.2669 42.625 42.7148 42.625C43.1654 42.625 43.4661 42.569 43.6172 42.457C43.7682 42.3451 43.8438 42.1289 43.8438 41.8086V39.6719H44.3633V41.9453C44.3633 42.3542 44.2331 42.6497 43.9727 42.832C43.7148 43.0143 43.293 43.1055 42.707 43.1055C42.1237 43.1055 41.7044 43.0156 41.4492 42.8359C41.194 42.6562 41.0664 42.3594 41.0664 41.9453V39.6719ZM46.3047 43V40.1289H44.8984V39.6641H48.2344V40.1289H46.8242V43H46.3047ZM49.7148 43V41.2969L48.1953 39.6641H48.8672L49.9727 40.8477L51.0586 39.6641H51.7539L50.2266 41.2891V43H49.7148Z" fill="#9D4112"/>
<path fill-rule="evenodd" clip-rule="evenodd" d="M37.7988 4.59439L37.2884 4.05081C37.4982 3.7382 38.0328 3.07724 38.5384 2.43625C38.8394 2.51663 39.1354 2.60286 39.425 2.69547C38.7287 3.54274 37.9916 4.40857 37.7988 4.59439ZM36.1945 1.95442C36.0977 2.11979 36.0192 2.25338 35.9681 2.33596C36.1089 2.57069 36.1835 2.64636 36.4351 2.70589C36.5867 2.5984 36.7596 2.36051 36.9404 2.07806C37.2396 2.13293 37.5354 2.19328 37.8267 2.25974C37.3953 2.87124 36.9233 3.48948 36.7789 3.63609C36.6147 3.54328 35.1213 2.4985 35.0217 2.4039C35.0737 2.30745 35.1853 2.10739 35.3334 1.84534C35.6229 1.87622 35.9101 1.91264 36.1945 1.95442Z" fill="#C49359"/>
<path fill-rule="evenodd" clip-rule="evenodd" d="M44.0998 5.1767L42.3544 6.50559C41.7349 6.91923 41.0323 7.56369 40.4218 7.90749C40.2948 7.74898 40.1379 7.51086 40.0393 7.3209C40.2504 6.95607 42.7335 5.25324 43.142 4.78117C43.1057 4.61971 43.0014 4.44073 42.882 4.27134C43.3273 4.55434 43.7344 4.85713 44.0998 5.1767ZM41.2122 3.3782C41.1014 3.50206 40.9738 3.6457 40.8201 3.79618C40.702 3.91187 40.607 3.95502 40.4854 4.07512C40.3418 4.21704 40.3496 4.26747 40.2008 4.40219C40.0627 4.52722 39.2955 5.16415 39.2742 5.30169C39.3251 5.55255 39.3961 5.6264 39.5593 5.74788C39.8587 5.68926 40.3955 5.11255 40.643 4.87569C40.7851 4.73963 41.5872 3.95838 41.7373 3.97241C41.9328 4.07032 42.0908 4.2812 42.1713 4.49898C42.1125 4.77668 41.8402 4.94656 41.6435 5.10354C41.3941 5.30251 41.236 5.45698 40.9829 5.66614L39.6286 6.75158L38.7104 5.55919C38.547 5.41734 38.4676 5.35818 38.3546 5.13392C38.5524 4.82686 38.8143 4.64096 39.0718 4.39128C39.3623 4.10947 39.484 3.94765 39.7933 3.61474C40.0098 3.3817 40.1824 3.22501 40.3642 3.02551C40.6547 3.1369 40.9377 3.25447 41.2122 3.3782Z" fill="#BFA761"/>
<path fill-rule="evenodd" clip-rule="evenodd" d="M40.578 30.5261L40.7947 30.5261C40.6644 30.2755 40.6701 30.3334 40.4428 30.1553C40.1393 29.9175 38.9553 28.3771 38.1863 27.6742C38.292 27.4143 38.4327 27.3243 38.646 27.1044C39.0542 27.2814 39.6778 28.1251 40.0465 28.5341C40.451 28.9829 40.9893 29.4935 41.4742 29.8878C41.7328 29.7822 42.1229 29.315 42.2953 29.0857C42.4541 28.8746 42.4549 28.8646 42.66 28.6288C42.7689 28.5037 42.8834 28.3389 42.9312 28.1327C42.7917 27.9297 42.5071 27.7224 42.2914 27.5392C41.8984 27.2054 40.6142 25.9595 40.197 25.93C40.108 26.0888 40.043 26.1559 39.9851 26.3741C40.3146 26.7895 40.646 26.9812 40.9731 27.3274C41.2029 27.5706 41.815 27.9745 41.9736 28.3444C41.8857 28.5639 41.7016 28.714 41.5399 28.8681C41.3539 28.8095 41.26 28.7335 41.1401 28.6307L39.1002 26.5807L40.2903 24.884C40.4461 24.9616 40.3036 24.8791 40.4583 24.9916L42.199 26.3655C42.5403 26.6355 42.8078 26.8729 43.1401 27.1209C44.2977 27.9851 44.1499 27.9099 43.8316 28.339C43.5896 28.6652 42.6249 30.0389 42.3789 30.2273C42.3064 30.2828 42.3021 30.2738 42.2248 30.3498C42.0711 30.5012 42.1755 30.3887 42.0801 30.529C42.3308 30.5255 42.5973 30.5188 42.8634 30.5155L40.6315 30.9709L40.5299 30.9088C40.578 30.7435 40.578 30.5261 40.578 30.5261Z" fill="#C49359"/>
<path fill-rule="evenodd" clip-rule="evenodd" d="M38.1972 9.36203C38.5825 9.25276 38.9007 9.17172 39.0407 9.16077C39.4677 9.63001 40.5836 12.5123 40.5585 13.3201C39.9578 13.6042 37.3982 15.3341 37.0018 15.4671L36.8817 15.0587C36.8365 14.7406 36.7865 14.4505 36.7261 14.1711L37.0061 12.6773L37.6121 11.5275L37.5427 10.6714L38.1751 9.77764L38.1972 9.36203Z" fill="#C49359"/>
<path fill-rule="evenodd" clip-rule="evenodd" d="M35.8444 22.9464C35.5224 22.8449 35.1562 22.8033 34.9661 22.6299C35.4646 21.781 35.8171 21.4642 36.246 20.3329C36.5812 19.4485 36.8639 18.4991 36.9235 17.452C37.1743 17.4991 40.1461 19.3415 40.4816 19.5963C40.5296 20.4863 39.2499 23.1986 38.8435 23.7767L35.8444 22.9464Z" fill="#C49359"/>
<path fill-rule="evenodd" clip-rule="evenodd" d="M42.1432 20.4399L42.2689 19.7948C43.1279 19.8534 45.6341 20.6323 46.2145 20.5261C46.3049 20.0915 46.5577 18.6537 46.4899 18.2279C46.2826 18.0914 43.2792 17.7944 43.1626 17.8787C43.1537 17.8851 42.8466 18.3833 43.2759 18.4979C43.6695 18.6029 45.5941 18.6889 45.7495 18.9035C45.8324 19.1615 45.7426 19.4408 45.6684 19.6413C45.265 19.7215 42.9565 19.2697 42.4195 19.1469L42.6499 17.0255C43.0038 16.9654 46.9472 17.2475 47.3223 17.3406C47.466 18.0059 47.0594 20.1489 46.9212 20.9895C46.8231 21.5872 46.8602 21.6976 46.297 21.5565C44.8569 21.1959 43.5245 20.8551 42.1432 20.4399Z" fill="#C49359"/>
<path fill-rule="evenodd" clip-rule="evenodd" d="M42.0344 11.9588L41.8866 11.228C42.5904 10.9091 45.2303 10.0629 45.528 9.78577C45.4815 9.3987 44.9112 7.93036 44.7341 7.64459C44.3369 7.61468 42.1674 8.82507 41.6666 9.075C41.6628 9.3487 41.6864 9.4523 41.869 9.63535C42.4455 9.59919 43.8607 8.59978 44.4152 8.61904C44.5423 8.79069 44.6511 9.00982 44.6609 9.2962C44.4421 9.55334 42.0605 10.5126 41.6717 10.6072C41.5809 10.4419 40.8611 8.76747 40.8262 8.63464C41.329 8.34518 44.7814 6.46635 45.026 6.44177C45.3285 6.80212 46.5045 9.77063 46.5207 10.4157C46.2423 10.6072 42.5495 11.8476 42.0344 11.9588Z" fill="#C49359"/>
<path fill-rule="evenodd" clip-rule="evenodd" d="M47.3639 16.0277L42.629 16.2395L42.6108 15.4468C43.2492 15.4543 46.1774 15.3128 46.5591 15.0812C46.6094 14.6655 46.4721 13.0818 46.268 12.8271C46.0856 12.6641 43.1141 13.3119 42.9803 13.388C42.896 13.849 42.944 13.9966 43.3681 13.9465C43.8096 13.8944 45.5971 13.517 45.7493 13.6682C45.8623 13.9105 45.8861 14.0962 45.8305 14.3916C45.4702 14.5795 43.1451 14.7815 42.5666 14.8403C42.5464 14.0778 42.3438 13.3886 42.2743 12.6741C43.6795 12.4162 45.0647 12.048 46.4707 11.7502C47.086 11.6199 47.0102 11.9129 47.2066 13.519C47.2603 13.9586 47.46 15.7364 47.3639 16.0277Z" fill="#BFA761"/>
<path fill-rule="evenodd" clip-rule="evenodd" d="M44.7628 26.636C44.3151 26.5803 41.4197 24.6449 40.6102 24.3331C40.6831 24.1382 40.839 23.8451 40.9481 23.6709C41.7563 23.9026 43.8828 25.3787 44.4997 25.4419C44.7183 25.2219 45.3474 23.6401 45.3685 23.2416C44.9024 23.0371 42.5582 22.0478 42.2118 22.026C42.0815 22.2128 42.051 22.26 42.0306 22.5325C42.5892 22.9457 44.071 23.3602 44.4851 23.7587C44.4852 24.0462 44.3626 24.2852 44.2257 24.4363C43.6403 24.4364 41.9263 23.2403 41.2237 23.1234C41.3584 22.5266 41.7508 21.8053 41.9211 21.1373C42.5053 21.2138 46.006 22.4481 46.3579 22.7004C46.3889 23.2655 45.0618 26.3774 44.7628 26.636Z" fill="#BFA761"/>
<path fill-rule="evenodd" clip-rule="evenodd" d="M37.3387 6.71533C37.5772 6.98244 37.8051 7.25251 38.0028 7.50381L37.3387 6.71533ZM38.004 7.50543C38.336 7.92769 38.5822 8.29659 38.6477 8.50747L38.2362 8.62855L38.004 7.50543Z" fill="#6B4020"/>
<path fill-rule="evenodd" clip-rule="evenodd" d="M40.6917 18.8266C40.3957 18.7773 39.1175 17.9182 38.7641 17.7072C37.1216 16.7262 36.4455 16.5987 37.4335 16.0382C38.1243 15.6463 40.3616 14.1807 40.7444 14.0858C40.9801 15.8892 40.9127 17.0383 40.6917 18.8266Z" fill="#6B4020"/>
<path fill-rule="evenodd" clip-rule="evenodd" d="M35.3576 27.6633C35.1661 27.4086 34.5513 24.7596 34.453 24.3731C34.3769 24.074 34.1226 23.5137 34.3681 23.3348C34.5474 23.2041 38.1554 24.3424 38.3777 24.464C38.1166 25.1627 36.0642 27.3128 35.3576 27.6633Z" fill="#6B4020"/>
<path fill-rule="evenodd" clip-rule="evenodd" d="M25.053 25.5335C24.1585 25.5111 23.4361 25.5243 22.5514 25.5832C22.0643 25.6156 21.8341 25.5391 21.626 25.9474C21.4676 26.2585 21.6637 26.6571 21.8239 26.8509C22.1876 27.2909 23.3828 27.0808 23.7908 26.8106C24.0856 26.6153 24.2179 26.3941 24.4558 26.1732L25.053 25.5335ZM19.8651 25.072C19.8975 24.5329 19.915 23.9915 19.9359 23.4531C19.9455 23.4634 19.9569 23.4778 19.9627 23.4858L20.2118 24.0056C20.7681 25.2708 21.2546 26.9201 21.7886 27.787C22.1702 28.4065 22.5635 29.2554 23.0972 29.5829C24.0133 30.1452 24.667 29.7145 25.6408 29.6904C25.6709 29.9493 25.7275 30.2625 25.7923 30.584H26.0752C25.9864 30.2492 25.8777 29.9037 25.855 29.6276C26.0988 29.4874 27.2241 29.0945 27.9087 28.7243C29.2186 28.0157 31.3166 26.7244 31.9748 25.2802C32.0673 25.077 32.3577 24.3239 32.2167 24.1229C31.868 24.3959 32.1038 25.4049 30.2724 26.7825C28.6169 28.0277 27.7749 28.5635 25.8736 29.3452C25.0531 29.6826 23.8712 29.9704 23.0561 29.3223C22.8386 29.1493 22.7066 28.8925 22.5729 28.6558C22.3646 28.287 21.8361 27.4593 21.7283 27.1043C22.7396 27.5638 24.0219 27.0563 24.7509 26.1687C25.0662 25.7848 25.3977 25.5762 25.4674 25.4035C25.0741 25.1134 23.4655 23.7732 22.565 24.1362C22.1062 24.3211 22.4116 24.3876 21.7929 24.229C20.5903 23.9208 20.9061 24.9841 21.0979 25.2226C21.282 25.4515 21.6434 25.3948 21.9984 25.4316C21.6016 25.7148 21.673 25.434 21.3222 26.1059C20.7823 24.7803 19.7765 22.8636 19.803 21.6174C19.8161 20.9962 20.1419 20.6176 20.1332 19.9432C20.3065 19.9927 20.3698 20.0511 20.5408 19.9753C20.1198 19.8149 20.0582 19.8048 19.9018 19.3734C20.1202 19.4626 20.0608 19.7431 20.6967 19.7786C20.9091 19.7905 21.6925 19.7439 21.8388 19.6994C21.9487 18.6217 20.7471 18.7094 20.3283 18.6806C19.8767 18.6496 20.4786 18.7294 20.099 18.7332C19.9789 18.7344 19.945 18.6783 19.7825 18.6922L20.0117 18.8562C19.6074 18.7989 19.6069 18.7131 19.514 18.3444C19.4386 18.0451 19.4012 17.7234 19.3923 17.4085C19.6998 17.5041 19.9403 17.6673 20.206 17.801C21.6051 18.5049 21.9129 16.9375 19.4972 16.7034C19.6893 15.1608 19.4135 15.0157 20.4561 13.6603C20.5581 13.5277 20.6369 13.4697 20.7385 13.3422L21.5702 12.4719C21.6804 12.3619 21.7812 12.3088 21.8987 12.1987C22.2913 11.8309 22.7392 11.5059 23.3032 11.2295C24.0743 11.583 24.3251 11.9729 25.3563 11.5864L26.749 12.4109C27.2906 12.7193 27.6158 12.9375 28.0724 13.2906L31.1168 16.3045C31.2158 16.41 31.2691 16.5013 31.3654 16.6094L32.3641 17.815C32.7409 18.365 32.1046 19.9393 32.1622 20.7151C32.1963 21.174 32.1322 21.352 32.6444 21.3862C32.645 22.0227 33.1768 22.5539 33.4767 21.8736C33.899 22.252 34.2078 22.1083 34.1716 21.5215C34.5991 21.6629 34.5336 21.644 34.7552 21.3806C34.7615 21.3732 34.7725 21.3585 34.7829 21.3491C34.9512 21.9853 34.9572 21.706 34.172 22.4244C33.8029 22.7622 34.081 22.4054 33.8243 22.5168C33.5111 23.5119 33.9249 25.5967 34.4686 27.206C34.726 27.8688 35.0549 28.5703 35.472 29.3039C34.7815 27.4078 33.8081 24.5928 33.9378 22.7215C34.0921 22.5997 34.3257 22.4988 34.49 22.3871C35.058 22.0007 35.4226 21.6331 35.8726 21.1148C36.3139 20.6066 36.9398 19.7364 37.0621 18.7961C37.1387 18.2072 37.0084 17.6852 37.0343 17.1084C37.088 15.9106 37.8965 15.3322 37.0055 12.6722C36.2509 10.4192 35.8965 10.2803 34.5328 8.98276C33.7707 8.25767 33.1972 7.21127 32.3264 6.83395C31.4264 6.44393 30.3531 6.76511 29.502 7.14289C28.9963 6.16559 28.2712 5.89064 26.9147 6.25151C26.4221 6.38254 25.9628 6.56433 25.566 6.80141C25.1199 7.06794 24.9604 7.23464 24.735 7.67344C24.7282 7.68675 24.7032 7.73228 24.6979 7.74199L24.6552 7.80893C23.7057 7.57999 23.0081 7.67796 22.3509 8.44474C22.2413 8.57265 22.2447 8.60133 22.1514 8.71119C21.6845 8.63111 21.2493 8.56823 20.7533 8.60525C19.4019 8.70612 19.4781 10.5824 19.3163 11.6205C19.1943 12.403 18.9271 13.5037 19.15 14.2509C19.278 14.6804 19.426 15.025 19.3701 15.4756C19.2446 16.4891 19.5173 16.5917 19.1314 16.7078C19.1661 16.5385 18.9654 13.7488 18.9939 12.9014C19.0605 10.9185 19.6956 8.33039 20.9551 6.94686C24.8782 -0.150073 44.0419 -3.19058 45.2 6.41892H45.2375C41.6773 1.36383 28.2027 -0.796483 20.8455 6.03821C20.465 6.37554 20.2564 6.61448 19.9373 7.03279C19.4002 7.73699 18.9889 8.66551 18.6856 9.6364C17.4865 13.4748 20.7637 25.9679 17.1767 28.5346L17.176 28.5388C18.8315 27.8068 19.6398 26.4628 19.8651 25.072ZM25.002 25.3153C24.8685 25.2034 24.298 24.9324 24.1069 24.8186C23.8342 24.6563 23.5622 24.4876 23.2237 24.3496C22.4402 24.03 22.4397 24.4027 22.2445 24.5146C21.9804 24.6659 21.522 24.3813 21.1004 24.4163C21.0712 24.8181 21.2074 25.1022 21.5601 25.1507C23.0556 25.356 22.9482 25.1771 23.8557 25.2632C24.2923 25.3047 24.5407 25.3466 25.002 25.3153ZM33.1657 22.0043C33.3989 21.6714 33.2365 21.3472 33.1811 20.9491C32.8021 21.1256 32.6572 21.9427 33.1657 22.0043ZM33.5687 20.8248C33.4136 21.1174 33.5741 22.0854 33.8923 21.8962C34.0656 21.7932 33.9293 21.4393 33.8587 21.2772C33.6634 20.8288 33.7139 20.8764 33.5687 20.8248ZM34.5695 21.0646C34.4149 20.8186 34.2554 20.749 33.8518 20.7446C34.033 21.0663 34.1732 21.3058 34.4688 21.3664L34.5695 21.0646ZM32.4323 21.1536C32.7451 21.2225 32.8932 20.7924 32.9034 20.7374C32.6859 20.7763 32.4018 20.8355 32.4323 21.1536ZM19.7105 20.905C19.7965 20.7053 19.8991 20.3007 19.895 20.0643C19.8805 19.2197 19.6861 19.3986 19.5019 19.3911L19.7105 20.905ZM20.7409 19.5982C20.6042 19.3122 20.5958 19.506 20.5366 19.0861C20.4755 19.1184 20.3795 19.1644 20.2968 19.2081C20.2763 19.2189 20.1835 19.2695 20.1665 19.2816C20.0827 19.3413 20.1321 19.3053 20.0838 19.362C20.2554 19.5913 20.3783 19.6034 20.7409 19.5982ZM21.6989 19.5013C21.5415 19.1755 21.2472 18.8466 20.7597 19.0173C20.6695 19.2461 20.7713 19.4465 20.9918 19.5191C21.1538 19.5724 21.4874 19.4961 21.6989 19.5013ZM34.3434 20.5389C34.204 20.3116 32.8926 18.4492 32.6723 18.2584C32.7405 18.7061 32.839 19.1397 32.678 19.5732C32.5036 20.0429 32.3702 20.0416 32.3144 20.6809C32.9213 20.2724 32.6941 20.6995 33.3564 20.5549C33.9462 20.426 33.8119 20.4883 34.3434 20.5389ZM19.2999 16.8066C19.191 17.3398 19.588 17.3749 19.9895 17.5689C21.5453 18.3208 21.4861 17.4119 20.4592 17.0969C20.1657 17.0069 19.6047 16.8371 19.2999 16.8066ZM21.8738 11.7235C22.444 11.2759 22.4836 11.3207 22.956 10.9993C22.9232 10.9549 22.934 10.9691 22.8841 10.9182C22.6908 10.7211 22.7096 10.7795 22.5198 10.4812C22.3551 10.2225 22.3473 10.0535 22.2326 9.82143C21.2329 9.70807 20.6311 9.85005 20.4667 9.8234C20.4583 9.82202 20.436 9.82565 20.4299 9.81151C20.4239 9.79735 20.4049 9.80422 20.3938 9.79771C21.1952 9.45472 21.2847 9.24785 22.2957 9.58989L22.1193 8.97831C21.8264 8.95549 21.408 9.01744 21.1004 9.03502C20.0642 9.09416 19.95 8.82492 19.7502 11.0532C19.9857 10.8118 20.3467 10.4389 20.8852 10.5457C20.8202 10.7498 19.9537 11.3035 19.6956 11.3331L19.6187 11.8379C20.0048 11.4108 20.2094 11.2855 20.899 11.098C21.4355 10.9522 21.9428 10.7521 22.5566 10.7527C22.1121 10.9544 21.397 10.879 20.5888 11.4897C19.5561 12.27 19.4887 12.0238 19.4661 12.9958C19.9104 12.3983 21.0409 11.6107 21.8126 11.4546L20.9915 12.0925C20.6217 12.3985 19.8391 13.0958 19.666 13.5699C19.549 13.8905 19.3836 14.3362 19.4277 14.6777C19.7496 13.6978 21.0411 12.3771 21.8738 11.7235ZM22.552 9.50075C22.2581 10.3823 22.8926 10.549 23.4771 10.8754C25.0916 11.7768 24.9983 11.7063 26.9134 10.5526C27.4401 10.2353 27.9213 9.89736 28.356 9.54259C28.7289 9.23831 29.3487 8.78719 29.4368 8.13313C29.5319 7.42629 29.0871 6.69355 28.5577 6.54933C27.967 6.38839 27.0365 6.73727 26.5545 6.94107C26.2596 7.06577 25.9893 7.21743 25.7445 7.38113C25.4573 7.57306 25.3249 7.72902 25.1045 7.93513C25.2093 8.05495 25.2945 8.06747 25.4528 8.14832L26.4079 8.76466C26.7747 8.71236 27.1796 8.3645 27.7321 8.27414C28.195 8.19848 28.972 8.2432 29.0925 8.64576C28.8854 8.87896 28.2421 8.74658 27.8527 8.76007C27.9131 9.03367 28.0711 9.22105 27.8601 9.54963C27.6738 9.4761 27.7192 9.36926 27.6248 9.18098C27.5547 9.04093 27.479 8.961 27.3983 8.80951L26.2997 8.85738C26.298 8.85049 26.2956 8.83348 26.2932 8.82609C26.236 8.64583 25.7115 8.44995 25.53 8.36849C24.8568 8.06645 23.8481 8.0474 23.1923 8.38383C22.9133 8.52698 22.5584 8.81051 22.4487 9.03919C23.0592 8.91647 23.7587 9.36662 23.7317 9.77917C23.4013 9.80217 23.0387 9.4955 22.552 9.50075ZM26.3635 11.1437L25.6634 11.45C25.8157 11.5592 26.2988 11.7413 26.5089 11.8503C28.0005 12.6243 28.5251 13.1673 29.5905 14.226L30.7444 15.4749C30.8526 15.5814 30.9196 15.6869 31.0178 15.8047L32.1716 17.1036C32.5398 17.562 32.8878 17.9604 33.2367 18.4423C33.7967 19.2157 34.7882 20.305 35.1105 21.4269C35.121 21.4185 35.1345 21.4067 35.1409 21.4005L35.4559 20.9458C35.4879 20.801 35.3304 20.5201 35.2718 20.3632C34.5969 18.5553 33.7265 18.229 33.3742 17.5892C33.6708 17.7157 34.3612 18.6468 34.658 18.9732C35.0286 19.3807 35.5928 19.724 35.6987 20.5269C35.7103 20.5181 35.7249 20.5063 35.7326 20.4993L35.9068 20.2958C36.4695 19.4594 36.5677 19.6769 36.0377 18.4453C35.7094 17.6826 35.1043 17.1898 34.5914 16.7374L31.1292 13.9733C31.5686 14.2034 32.3062 14.7381 32.6834 15.0393L35.6098 17.3711C36.3453 17.8545 36.3843 17.9735 36.6786 18.9018C36.9512 18.4408 36.5673 17.9521 36.3497 17.5822C36.1274 17.2044 35.8932 16.8311 35.6568 16.4226C34.851 15.03 35.0216 15.3842 33.9984 14.3749C32.6113 13.0066 30.3888 12.2472 29.6101 11.3971L32.498 12.9718C33.3884 13.4978 35.4449 15.6725 36.2545 16.4935C36.0114 15.7341 35.409 14.9089 35.0093 14.3166C34.7323 13.9061 34.5666 13.6737 34.1096 13.456C33.7357 13.278 33.3092 13.1495 32.9335 12.9712C33.5598 13.0159 35.0963 13.964 35.4489 14.2777C36.5666 15.2719 36.592 16.2415 36.8658 16.7038C36.9694 16.0719 36.996 16.0016 36.7485 15.4807C36.5924 15.152 36.3989 14.9035 36.2407 14.537C35.8248 13.573 35.7716 13.402 35.042 12.8815C34.4993 12.4942 33.7496 12.2096 32.9801 12.0389C32.4758 11.927 31.1647 11.5383 30.9377 11.1775C31.3571 11.2015 32.4756 11.5212 32.9084 11.6588C34.3317 12.1113 34.8771 12.5132 35.8119 13.5636C35.968 13.7389 36.2397 13.9839 36.4239 14.1531C36.8765 14.5687 36.7769 14.6123 36.9884 14.8322C36.9397 13.5495 36.3604 11.4618 35.6203 10.4498C35.2804 9.98492 35.057 9.81723 34.7232 9.44521C33.9396 8.57201 32.6951 7.27774 31.3175 7.13309C30.8352 7.08244 29.9739 7.09274 29.6271 7.34379C29.7625 7.74566 29.9453 8.14679 29.7855 8.63481C29.9558 8.60209 30.1129 8.43592 30.333 8.36062C30.553 8.28534 30.7985 8.24809 31.0638 8.23234C31.3519 8.21524 31.6325 8.23841 31.9183 8.23138C32.6971 8.21203 32.8854 7.9521 33.8654 8.75101C34.4931 9.26272 34.3422 9.23198 34.69 9.57635C34.2008 9.19857 33.4722 8.56919 32.5964 8.42973C32.0755 8.34676 30.2445 8.76054 29.8954 8.99914C30.7102 8.9791 31.5316 9.07352 32.2085 9.33433C31.8179 9.33325 31.505 9.24485 31.0642 9.26787C30.6933 9.28724 29.268 9.44987 29.0553 9.6413C28.9453 9.74022 28.5234 10.0654 28.382 10.1254C28.6657 10.1216 29.0779 10.0105 29.4023 9.97973C30.2296 9.9011 32.0394 9.82227 32.6264 10.2486C31.4721 10.1782 31.3419 9.99063 30.1554 10.3947C29.4968 10.619 28.8107 10.7687 28.1552 10.4546C28.04 10.3995 28.1447 10.4476 28.0545 10.4016C27.9995 10.3736 28.041 10.381 27.9469 10.3492L27.6762 10.576C28.2793 10.7388 29.4381 11.8603 29.9805 12.284C30.5977 12.7662 31.8589 13.5817 32.1201 14.1191C31.8759 13.9707 31.7403 13.8147 31.5303 13.6389C30.3548 12.6548 29.7479 12.3897 28.4744 11.5874L27.2553 10.7329L26.3635 11.1437Z" fill="#441700"/>
<path fill-rule="evenodd" clip-rule="evenodd" d="M34.1027 17.5512C33.395 16.5989 32.0075 15.4503 31.0192 14.7504C30.7983 14.594 30.06 14.0073 29.8306 14.019C29.8586 14.2038 30.0268 14.2915 30.2889 14.5285C31.1028 15.2644 32.1213 16.1349 33.0475 16.6786C33.5149 16.9529 33.7321 17.2534 34.1027 17.5512ZM26.3635 11.1436C26.3527 11.3742 26.4109 11.3383 26.6032 11.4554C27.4338 11.9614 27.5022 11.9284 28.2717 12.3404C28.4819 12.453 28.7138 12.6068 28.9111 12.6867L27.7566 11.803C27.3898 11.5549 26.9186 11.2107 26.3635 11.1436ZM36.5733 13.2486C36.8103 12.9362 36.1325 12.2029 36.0001 12.0737C35.6953 11.7763 35.3859 11.5606 34.9173 11.3557C34.3003 11.0859 32.9446 10.3808 32.0808 10.5657C32.3416 10.7445 33.1103 10.8475 33.5028 10.9092C34.6872 11.0954 35.8585 11.9427 36.3882 12.9865C36.4815 13.1704 36.4236 13.1642 36.5733 13.2486ZM32.8203 7.94461C32.7581 7.78431 32.809 7.85233 32.55 7.80343C32.4276 7.78033 32.3489 7.76626 32.2293 7.73623C31.6771 7.59755 30.7114 7.26099 30.2089 7.49393C30.3194 7.56815 32.4179 8.15842 32.8203 7.94461ZM26.3635 11.1436L27.2553 10.7328L28.4744 11.5872C29.7479 12.3895 30.3548 12.6546 31.5303 13.6387C31.7403 13.8145 31.8759 13.9706 32.1201 14.1189C31.8589 13.5816 30.5978 12.7661 29.9805 12.2838C29.4381 11.8601 28.2794 10.7386 27.6762 10.5759L27.9469 10.3491C28.0411 10.3809 27.9995 10.3734 28.0545 10.4015C28.1447 10.4475 28.04 10.3993 28.1552 10.4545C28.8108 10.7685 29.4968 10.6189 30.1555 10.3946C31.3419 9.99048 31.4721 10.1781 32.6265 10.2485C32.0394 9.82213 30.2296 9.90096 29.4023 9.97958C29.0779 10.0104 28.6657 10.1214 28.382 10.1252C28.5234 10.0652 28.9454 9.74008 29.0553 9.64116C29.268 9.44973 30.6933 9.2871 31.0642 9.26772C31.505 9.2447 31.818 9.33309 32.2085 9.33418C31.5317 9.07337 30.7102 8.97895 29.8955 8.999C30.2445 8.7604 32.0755 8.34661 32.5964 8.42958C33.4722 8.56905 34.2009 9.19843 34.69 9.5762C34.3422 9.23184 34.4931 9.26258 33.8654 8.75086C32.8854 7.95196 32.6971 8.21189 31.9183 8.23123C31.6326 8.23833 31.3519 8.21515 31.0638 8.23219C30.7985 8.24794 30.5531 8.2852 30.333 8.36047C30.1129 8.43578 29.9558 8.60194 29.7855 8.63466C29.9453 8.14664 29.7625 7.74551 29.6271 7.34364C29.9739 7.09259 30.8352 7.0823 31.3175 7.13295C32.6952 7.27759 33.9397 8.57186 34.7232 9.44507C35.0571 9.81708 35.2804 9.98478 35.6204 10.4497C36.3604 11.4617 36.9397 13.5494 36.9885 14.8321C36.777 14.6121 36.8766 14.5685 36.4239 14.1529C36.2397 13.9838 35.968 13.7388 35.812 13.5635C34.8771 12.513 34.3317 12.1111 32.9084 11.6586C32.4757 11.521 31.3571 11.2014 30.9377 11.1774C31.1648 11.5382 32.4758 11.9268 32.9802 12.0387C33.7496 12.2095 34.4993 12.494 35.0421 12.8813C35.7716 13.4019 35.8248 13.5728 36.2408 14.5369C36.3989 14.9034 36.5924 15.1518 36.7486 15.4806C36.996 16.0015 36.9695 16.0717 36.8658 16.7037C36.592 16.2414 36.5666 15.2717 35.449 14.2776C35.0964 13.9639 33.5598 13.0158 32.9335 12.9711C33.3092 13.1494 33.7357 13.2778 34.1096 13.4559C34.5667 13.6735 34.7323 13.9059 35.0093 14.3165C35.409 14.9088 36.0114 15.734 36.2545 16.4934C35.4449 15.6723 33.3884 13.4977 32.4981 12.9717L29.6102 11.397C30.3889 12.2471 32.6114 13.0065 33.9985 14.3747C35.0216 15.384 34.851 15.0299 35.6568 16.4225C35.8932 16.831 36.1275 17.2042 36.3497 17.5821C36.5673 17.9519 36.9512 18.4406 36.6786 18.9016C36.3843 17.9734 36.3453 17.8544 35.6099 17.3709L32.6834 15.0391C32.3062 14.7379 31.5686 14.2032 31.1292 13.9732L34.5915 16.7373C35.1043 17.1896 35.7095 17.6824 36.0377 18.4452C36.5678 19.6768 36.4695 19.4593 35.9069 20.2956L35.7327 20.4991C35.7249 20.5061 35.7104 20.518 35.6987 20.5268C35.5928 19.7239 35.0287 19.3806 34.658 18.973C34.3612 18.6466 33.6709 17.7156 33.3742 17.5891C33.7265 18.2289 34.5969 18.5552 35.2718 20.363C35.3304 20.5199 35.488 20.8009 35.4559 20.9457L35.141 21.4004C35.1345 21.4066 35.121 21.4184 35.1106 21.4267C34.7882 20.3048 33.7967 19.2155 33.2367 18.4421C32.8878 17.9603 32.5398 17.5618 32.1716 17.1035L31.0179 15.8045C30.9196 15.6868 30.8526 15.5812 30.7445 15.4747L29.5905 14.2258C28.5251 13.1671 28.0006 12.6241 26.5089 11.8501C26.2989 11.7412 25.8158 11.559 25.6635 11.4499L26.3635 11.1436Z" fill="#FDFDFD"/>
<path fill-rule="evenodd" clip-rule="evenodd" d="M22.5521 9.50077C23.0387 9.49553 23.4014 9.80219 23.7318 9.7792C23.7587 9.36665 23.0592 8.9165 22.4487 9.03922C22.5585 8.81053 22.9134 8.527 23.1924 8.38386C23.8481 8.04742 24.8568 8.06647 25.53 8.36852C25.7116 8.44997 26.236 8.64586 26.2933 8.82612C26.2956 8.8335 26.2981 8.85051 26.2997 8.8574L27.3984 8.80953C27.4791 8.96102 27.5547 9.04096 27.6249 9.181C27.7192 9.36929 27.6738 9.47612 27.8601 9.54966C28.0711 9.22107 27.9131 9.0337 27.8527 8.7601C28.2422 8.74661 28.8854 8.87899 29.0926 8.64579C28.9721 8.24322 28.195 8.19851 27.7322 8.27417C27.1796 8.36452 26.7747 8.71239 26.4079 8.76468L25.4528 8.14835C25.2945 8.06749 25.2093 8.05497 25.1045 7.93515C25.3249 7.72904 25.4574 7.57309 25.7445 7.38115C25.9894 7.21745 26.2597 7.06579 26.5546 6.94109C27.0365 6.7373 27.9671 6.38842 28.5577 6.54935C29.0871 6.69357 29.5319 7.42631 29.4368 8.13315C29.3488 8.78721 28.7289 9.23833 28.3561 9.54261C27.9213 9.89738 27.4401 10.2353 26.9135 10.5526C24.9984 11.7063 25.0917 11.7768 23.4772 10.8754C22.8927 10.549 22.2581 10.3823 22.5521 9.50077Z" fill="#FDFDFD"/>
<path fill-rule="evenodd" clip-rule="evenodd" d="M22.2959 9.58995C21.2849 9.24791 21.1954 9.45478 20.394 9.79778C20.4051 9.80428 20.4242 9.79742 20.4302 9.81157C20.4362 9.82571 20.4585 9.82208 20.4669 9.82346C20.6314 9.85011 21.2331 9.70813 22.2329 9.82149C22.3475 10.0535 22.3554 10.2226 22.52 10.4813C22.7099 10.7795 22.691 10.7211 22.8843 10.9183C22.9342 10.9692 22.9235 10.9549 22.9562 10.9994C22.4838 11.3207 22.4443 11.276 21.874 11.7236C21.0413 12.3772 19.7498 13.6979 19.428 14.6777C19.3838 14.3363 19.5493 13.8905 19.6663 13.57C19.8393 13.0958 20.6219 12.3986 20.9917 12.0926L21.8129 11.4547C21.0412 11.6108 19.9107 12.3983 19.4663 12.9959C19.489 12.0239 19.5563 12.2701 20.589 11.4897C21.3972 10.879 22.1123 10.9545 22.5568 10.7528C21.943 10.7522 21.4357 10.9522 20.8992 11.0981C20.2097 11.2855 20.005 11.4109 19.6189 11.8379L19.6958 11.3331C19.9539 11.3036 20.8205 10.7499 20.8854 10.5457C20.347 10.439 19.9859 10.8119 19.7504 11.0533C19.9502 8.82498 20.0644 9.09423 21.1006 9.03508C21.4083 9.0175 21.8266 8.95556 22.1196 8.97837L22.2959 9.58995Z" fill="#FDFDFD"/>
<path fill-rule="evenodd" clip-rule="evenodd" d="M25.0529 25.5336L24.4557 26.1733C24.2178 26.3942 24.0855 26.6154 23.7907 26.8107C23.3827 27.0809 22.1875 27.2909 21.8238 26.851C21.6636 26.6571 21.4675 26.2586 21.6259 25.9475C21.834 25.5391 22.0642 25.6157 22.5513 25.5833C23.436 25.5244 24.1584 25.5112 25.0529 25.5336Z" fill="#FDFDFD"/>
<path fill-rule="evenodd" clip-rule="evenodd" d="M26.1652 18.9279C25.9906 18.6697 25.9431 18.5726 25.9425 18.1342C25.6416 18.2506 25.2703 18.6072 25.0845 18.8615L26.1652 18.9279ZM27.4312 18.3605C27.3957 18.3293 27.3911 18.3229 27.336 18.2874C27.3039 18.2666 27.2642 18.2456 27.2343 18.2316C27.0809 18.1598 25.7764 17.7434 26.1399 18.5252C26.4395 19.1693 27.236 18.7721 27.4312 18.3605ZM27.8266 18.1854C28.0591 18.1424 28.1622 18.0387 28.2337 17.8487C28.0272 17.8578 28.1137 17.7677 27.9015 18.057C27.8186 18.1701 27.9272 17.9782 27.8266 18.1854ZM27.5791 18.0704C27.778 18.0083 27.9012 17.9297 27.9811 17.7503C27.8221 17.6412 27.6731 17.9167 27.5791 18.0704ZM25.7323 17.5738L25.4849 17.6523C25.5623 17.8382 25.4434 17.6765 25.5963 17.819C25.6499 17.8689 25.6684 17.8691 25.7175 17.9047L25.7323 17.5738ZM27.2465 17.9242C27.4197 17.9076 27.3859 17.931 27.5273 17.8293C27.6705 17.7265 27.6439 17.7183 27.6839 17.6402L27.4063 17.5683L27.2465 17.9242ZM26.9789 17.839C27.0891 17.797 27.2456 17.6241 27.3164 17.5139L27.0906 17.4785L26.9789 17.839ZM26.6081 17.7788C26.7831 17.7668 26.9002 17.5415 26.9297 17.4379C26.5013 17.4064 26.2108 17.397 25.8188 17.5251C25.8247 17.5457 25.8678 17.694 25.8682 17.6949C26.0517 18.0471 26.1574 17.5654 26.1574 17.5654C26.1995 17.6233 26.2057 17.6607 26.2273 17.6852C26.3033 17.7715 26.2351 17.7292 26.3577 17.7657C26.3663 17.756 26.3771 17.7421 26.382 17.7353C26.3868 17.7286 26.3998 17.7135 26.4054 17.7053C26.4128 17.6945 26.4374 17.6538 26.4448 17.642C26.4826 17.581 26.4695 17.5856 26.534 17.5207L26.6081 17.7788ZM28.3308 17.8884C28.2568 17.9538 28.2182 18.0432 28.1742 18.1658C28.3429 18.1008 28.2539 18.1507 28.4386 17.9797C28.493 17.9294 28.4683 17.9461 28.5273 17.901C28.4744 18.3139 28.1227 18.6023 27.6596 18.4727C27.3535 18.7084 27.2454 19.0367 26.5097 19.1202C26.2096 19.1542 25.9068 19.1285 25.6065 19.1087C25.3104 19.0891 24.9135 19.1552 24.7315 19.133C24.6852 18.8709 25.1004 18.4772 25.2494 18.3005C25.3806 18.1449 25.3598 18.1726 25.2937 17.9575C25.4548 18.0236 25.3868 18.0408 25.5331 18.0373L25.429 17.7488C25.2671 17.8139 25.2211 17.861 25.0562 18.0622C24.9902 18.1427 24.9913 18.1435 24.9406 18.2485C24.9332 18.2638 24.8956 18.35 24.8939 18.353L24.8053 18.464C24.6358 18.1223 25.2648 17.3592 26.2063 17.2516C27.0912 17.1504 27.8001 17.4857 28.3308 17.8884Z" fill="#441700"/>
<path fill-rule="evenodd" clip-rule="evenodd" d="M25.0019 25.3151C24.5406 25.3464 24.2923 25.3046 23.8557 25.2631C22.9482 25.1769 23.0556 25.3559 21.56 25.1505C21.2074 25.1021 21.0712 24.8179 21.1004 24.4161C21.5219 24.3811 21.9803 24.6658 22.2445 24.5144C22.4397 24.4026 22.4401 24.0298 23.2237 24.3494C23.5622 24.4875 23.8342 24.6561 24.1069 24.8185C24.298 24.9322 24.8685 25.2032 25.0019 25.3151Z" fill="#FDFDFD"/>
<path fill-rule="evenodd" clip-rule="evenodd" d="M28.1981 16.2376C27.2547 15.8686 26.6483 15.7006 25.6898 16.2419C25.1075 16.5708 24.2599 17.263 23.7519 17.1186C23.5654 17.0656 23.5691 17.0842 23.6215 16.8909C23.6946 16.6213 24.18 16.2574 24.4607 16.1119C24.8095 15.9311 25.2617 15.823 25.6849 15.7344C26.921 15.4756 27.3533 15.7529 28.1981 16.2376Z" fill="#FDFDFD"/>
<path fill-rule="evenodd" clip-rule="evenodd" d="M28.198 16.2376C27.3532 15.7529 26.9209 15.4756 25.6848 15.7344C25.2616 15.823 24.8093 15.9311 24.4605 16.1119C24.1798 16.2573 23.6945 16.6213 23.6214 16.8909C23.569 17.0841 23.5652 17.0655 23.7518 17.1185C24.2598 17.2629 25.1073 16.5707 25.6896 16.2419C26.6482 15.7006 27.2546 15.8685 28.198 16.2376ZM29.0078 16.8951C28.8319 16.8745 27.3465 15.6597 26.0804 16.1779C25.7183 16.3261 25.1278 16.7311 24.8759 16.9271C24.3589 17.3296 24.1352 17.4246 23.5066 17.114C23.4002 16.4665 24.0105 16.1162 24.4447 15.8977C24.9504 15.6431 25.5731 15.5357 26.1965 15.4825C27.6702 15.3565 28.9526 16.4484 29.0078 16.8951Z" fill="#441700"/>
<path fill-rule="evenodd" clip-rule="evenodd" d="M32.8176 20.2325C33.0053 20.1871 32.8844 20.2583 32.9836 20.1302C33.0831 20.0019 33.249 19.4329 33.1287 19.0993C33.0716 18.9411 33.0425 18.9102 32.9177 18.8556C32.856 18.989 32.8422 19.352 32.7721 19.5666C32.6834 19.8388 32.6479 20.0228 32.8176 20.2325ZM34.3434 20.5389C33.8119 20.4883 33.9462 20.426 33.3564 20.5548C32.6941 20.6995 32.9213 20.2723 32.3145 20.6809C32.3702 20.0415 32.5036 20.0428 32.678 19.5732C32.839 19.1397 32.7405 18.706 32.6724 18.2583C32.8926 18.4492 34.2041 20.3115 34.3434 20.5389Z" fill="#FDFDFD"/>
<path fill-rule="evenodd" clip-rule="evenodd" d="M34.1026 17.5512C33.7321 17.2534 33.5148 16.9529 33.0475 16.6786C32.1213 16.1349 31.1028 15.2644 30.2889 14.5285C30.0268 14.2915 29.8585 14.2038 29.8306 14.019C30.06 14.0073 30.7983 14.594 31.0192 14.7505C32.0075 15.4503 33.395 16.5989 34.1026 17.5512Z" fill="#441700"/>
<path fill-rule="evenodd" clip-rule="evenodd" d="M19.3 16.8066C19.6049 16.8372 20.1658 17.0069 20.4594 17.097C21.4862 17.412 21.5454 18.3208 19.9897 17.569C19.5881 17.375 19.1911 17.3399 19.3 16.8066Z" fill="#FDFDFD"/>
<path fill-rule="evenodd" clip-rule="evenodd" d="M36.5733 13.2487C36.4236 13.1643 36.4815 13.1705 36.3882 12.9865C35.8585 11.9428 34.6872 11.0955 33.5028 10.9093C33.1103 10.8476 32.3415 10.7445 32.0808 10.5658C32.9446 10.3809 34.3003 11.086 34.9172 11.3557C35.3859 11.5607 35.6953 11.7764 36.0001 12.0737C36.1325 12.2029 36.8102 12.9363 36.5733 13.2487Z" fill="#441700"/>
<path fill-rule="evenodd" clip-rule="evenodd" d="M27.4314 18.3606C27.2362 18.7722 26.4397 19.1694 26.1401 18.5252C25.7766 17.7435 27.0811 18.1599 27.2345 18.2317C27.2644 18.2457 27.3041 18.2667 27.3362 18.2874C27.3913 18.3229 27.3959 18.3294 27.4314 18.3606Z" fill="#FDFDFD"/>
<path fill-rule="evenodd" clip-rule="evenodd" d="M32.8203 7.94469C32.4179 8.15849 30.3194 7.56823 30.2089 7.49401C30.7114 7.26107 31.6771 7.59762 32.2293 7.7363C32.3488 7.76633 32.4276 7.7804 32.55 7.8035C32.809 7.8524 32.758 7.78439 32.8203 7.94469Z" fill="#441700"/>
<path fill-rule="evenodd" clip-rule="evenodd" d="M26.3635 11.1437C26.9187 11.2107 27.3898 11.5549 27.7566 11.803L28.9111 12.6868C28.7138 12.6069 28.4819 12.453 28.2718 12.3405C27.5023 11.9285 27.4338 11.9615 26.6032 11.4555C26.411 11.3384 26.3528 11.3743 26.3635 11.1437Z" fill="#441700"/>
<path fill-rule="evenodd" clip-rule="evenodd" d="M21.234 22.9699C21.0713 22.8629 20.8835 22.5702 20.8379 22.3158C20.7658 21.9138 20.924 21.7163 21.0605 21.4254L21.6056 20.3165C21.67 20.1624 21.6561 20.0384 21.7934 19.9751C21.8846 20.4014 21.4633 21.189 21.2761 21.4897C20.9069 22.0825 20.7959 22.3221 21.234 22.9699Z" fill="#441700"/>
<path fill-rule="evenodd" clip-rule="evenodd" d="M25.0847 18.8614C25.2706 18.6072 25.6419 18.2505 25.9428 18.1342C25.9434 18.5725 25.9909 18.6697 26.1654 18.9278L25.0847 18.8614Z" fill="#FDFDFD"/>
<path fill-rule="evenodd" clip-rule="evenodd" d="M32.8176 20.2326C32.6479 20.0229 32.6833 19.8389 32.7721 19.5667C32.8421 19.3521 32.8559 18.989 32.9177 18.8557C33.0425 18.9103 33.0716 18.9412 33.1286 19.0994C33.249 19.433 33.083 20.002 32.9836 20.1303C32.8844 20.2584 33.0053 20.1872 32.8176 20.2326Z" fill="#441700"/>
<path fill-rule="evenodd" clip-rule="evenodd" d="M21.6989 19.5012C21.4873 19.496 21.1537 19.5724 20.9917 19.519C20.7713 19.4464 20.6694 19.246 20.7596 19.0172C21.2471 18.8466 21.5414 19.1755 21.6989 19.5012Z" fill="#FDFDFD"/>
<path fill-rule="evenodd" clip-rule="evenodd" d="M19.7106 20.905L19.502 19.3911C19.6861 19.3986 19.8806 19.2197 19.8951 20.0643C19.8992 20.3007 19.7966 20.7053 19.7106 20.905Z" fill="#FDFDFD"/>
<path fill-rule="evenodd" clip-rule="evenodd" d="M33.1657 22.0042C32.6572 21.9426 32.8021 21.1255 33.1811 20.949C33.2365 21.3471 33.3989 21.6712 33.1657 22.0042Z" fill="#FDFDFD"/>
<path fill-rule="evenodd" clip-rule="evenodd" d="M33.5689 20.8246C33.7141 20.8763 33.6636 20.8286 33.8589 21.2771C33.9295 21.4391 34.0658 21.793 33.8925 21.896C33.5743 22.0853 33.4138 21.1172 33.5689 20.8246Z" fill="#FDFDFD"/>
<path fill-rule="evenodd" clip-rule="evenodd" d="M21.554 18.7978C21.333 18.6759 21.137 18.4653 20.7919 18.4283C20.3758 18.3836 20.1804 18.5773 19.8663 18.5907C20.1113 17.972 21.3077 18.1322 21.554 18.7978Z" fill="#441700"/>
<path fill-rule="evenodd" clip-rule="evenodd" d="M23.9603 23.0071C24.078 22.8055 24.2775 22.6166 24.2888 22.3107C24.3057 21.8567 24.0422 21.7602 24.0088 21.5132C24.5753 21.5193 24.8023 22.609 23.9603 23.0071Z" fill="#441700"/>
<path fill-rule="evenodd" clip-rule="evenodd" d="M23.3531 22.7691L23.3552 22.4314C22.9066 22.1892 22.5819 22.3919 22.0977 22.426C22.1426 22.375 22.11 22.3917 22.1809 22.3461C22.4262 22.1884 22.9056 22.1286 23.1893 22.1808C23.7704 22.2875 23.7493 22.7783 23.3531 22.7691Z" fill="#441700"/>
<path fill-rule="evenodd" clip-rule="evenodd" d="M26.6081 17.7788L26.534 17.5207C26.4696 17.5856 26.4827 17.581 26.4448 17.642C26.4375 17.6538 26.4129 17.6945 26.4055 17.7053C26.3999 17.7135 26.3868 17.7286 26.3821 17.7353C26.3772 17.7421 26.3664 17.756 26.3577 17.7657C26.2352 17.7291 26.3033 17.7715 26.2273 17.6852C26.2058 17.6607 26.1996 17.6233 26.1574 17.5654C26.1574 17.5654 26.0517 18.0471 25.8683 17.6949C25.8678 17.694 25.8247 17.5457 25.8188 17.5251C26.2108 17.397 26.5013 17.4064 26.9297 17.4379C26.9003 17.5415 26.7832 17.7668 26.6081 17.7788Z" fill="#FDFDFD"/>
<path fill-rule="evenodd" clip-rule="evenodd" d="M34.5696 21.0644L34.4689 21.3661C34.1733 21.3055 34.0331 21.0661 33.8519 20.7444C34.2555 20.7487 34.415 20.8183 34.5696 21.0644Z" fill="#FDFDFD"/>
<path fill-rule="evenodd" clip-rule="evenodd" d="M20.7409 19.5983C20.3783 19.6035 20.2554 19.5914 20.0837 19.3621C20.1321 19.3054 20.0827 19.3414 20.1665 19.2817C20.1835 19.2696 20.2763 19.219 20.2968 19.2082C20.3795 19.1645 20.4755 19.1185 20.5366 19.0862C20.5957 19.5061 20.6042 19.3123 20.7409 19.5983Z" fill="#FDFDFD"/>
<path fill-rule="evenodd" clip-rule="evenodd" d="M32.4323 21.1535C32.4018 20.8354 32.6859 20.7762 32.9034 20.7373C32.8932 20.7923 32.7451 21.2225 32.4323 21.1535Z" fill="#FDFDFD"/>
<path fill-rule="evenodd" clip-rule="evenodd" d="M27.684 17.6401C27.644 17.7182 27.6706 17.7263 27.5274 17.8292C27.386 17.9308 27.4198 17.9075 27.2466 17.924L27.4064 17.5681L27.684 17.6401Z" fill="#FDFDFD"/>
<path fill-rule="evenodd" clip-rule="evenodd" d="M26.9791 17.8389L27.0908 17.4784L27.3166 17.5138C27.2458 17.624 27.0893 17.7969 26.9791 17.8389Z" fill="#FDFDFD"/>
<path fill-rule="evenodd" clip-rule="evenodd" d="M25.7176 17.9047C25.6685 17.8691 25.65 17.8689 25.5965 17.8189C25.4435 17.6764 25.5624 17.8381 25.485 17.6522L25.7324 17.5737L25.7176 17.9047Z" fill="#FDFDFD"/>
<path fill-rule="evenodd" clip-rule="evenodd" d="M21.8713 5.55096C21.8169 5.60931 21.7624 5.66631 21.7059 5.72332C21.6829 5.7518 21.6557 5.77896 21.6201 5.81559C21.5259 5.91331 21.4401 6.00967 21.3584 6.10736C21.4212 6.09244 21.484 6.08023 21.5406 6.07073C21.5992 6.23222 21.6661 6.39237 21.7436 6.55387C21.4212 6.54029 21.1805 6.54166 20.9838 6.56336C20.8959 6.68144 20.81 6.80222 20.7368 6.92029C21.0026 6.86736 21.3229 6.81443 21.6996 6.76694C21.8713 6.93929 21.9131 7.08315 22.1664 7.26499C22.4594 7.47671 22.4218 7.43056 22.6939 7.55407C22.763 7.58392 22.7483 7.57443 22.8006 7.60699C22.4218 8.00599 22.3632 7.97612 21.9948 8.49455C21.9488 8.56348 21.9028 8.63817 21.8589 8.71641L22.1515 8.71127L22.3874 8.69315C22.5817 8.36072 22.8559 8.37849 23.2528 8.05658C23.3618 8.06924 23.5285 7.90642 23.6251 7.92227L24.7847 7.98692L25.0177 7.51857C24.6598 7.5345 24.0203 7.48558 23.3155 7.35322C22.5934 7.22699 21.8545 7.24464 22.0241 6.40731C22.5704 6.26615 22.9974 6.4263 23.3679 6.30415C23.3846 5.92959 22.6102 5.75453 21.911 6.03952C22.0534 5.81016 22.5013 5.46003 22.8572 5.24425C23.707 4.72311 24.8833 4.37026 25.5887 4.4137C25.7813 4.42862 26.3506 4.4517 26.3799 4.60776C26.382 4.61319 26.3799 4.63083 26.3799 4.63625C26.8132 4.52226 27.2465 4.41641 27.6735 4.32547C27.7363 4.45848 27.8075 4.52361 27.8703 4.65118C27.9498 4.82219 27.8849 4.93618 28.0921 4.97825C28.3768 4.6254 28.2261 4.45982 28.2115 4.20061C28.6636 4.13142 29.3773 4.18841 29.6683 3.93057C29.6327 3.54379 28.7515 3.58992 28.1947 3.73512C27.527 3.92919 26.9681 4.37026 26.5286 4.51683C26.1978 4.4137 25.8797 4.31734 25.5594 4.2332C25.3962 4.21147 25.2999 4.23049 25.2141 4.1572C25.5385 3.88171 25.7436 3.68763 26.1434 3.39857C26.4741 3.15835 26.8342 2.91678 27.2025 2.70236C27.797 2.36173 28.8813 1.80801 29.5239 1.88809C30.0995 1.97224 30.4783 2.65757 30.1937 3.37821C29.9299 4.04319 29.1303 4.56298 28.6615 4.90904C28.1445 5.31075 27.6065 5.71653 27.0539 6.12095C26.9929 6.17335 26.9343 6.22392 26.8775 6.27296L26.9148 6.25159L28.121 6.10883L28.5638 6.22662C28.3137 6.11485 28.087 6.03611 27.91 6.01509C27.9979 5.92823 28.09 5.83866 28.1842 5.75453C28.291 5.77352 28.2428 5.77217 28.3077 5.79117C28.4145 5.82645 28.291 5.79117 28.4271 5.83188C29.2015 6.06395 29.9446 5.84003 30.6751 5.55232C32.021 5.06918 32.155 5.25103 33.436 5.30938C32.8185 4.87511 30.7714 5.05561 29.8274 5.21846C29.4548 5.28631 28.988 5.44376 28.6677 5.48039C28.8268 5.40439 29.3208 5.0339 29.4506 4.92533C29.7185 4.70954 31.3742 4.40283 31.797 4.35669C32.3015 4.30648 32.6427 4.37977 33.0801 4.36755C32.3643 4.13142 31.4475 4.09476 30.5118 4.19383C30.964 3.9197 33.1346 3.35785 33.6997 3.41349C34.6479 3.51935 35.3324 4.17755 35.8096 4.58333C35.4831 4.21013 35.6464 4.23998 35.0477 3.69849C34.1183 2.8978 33.8588 3.18007 32.9859 3.24792C32.6615 3.27506 32.3517 3.27235 32.021 3.31305C31.7154 3.35379 31.4307 3.41349 31.1607 3.51121C30.8907 3.60892 30.6709 3.79213 30.4658 3.84234C30.7714 3.33615 30.6646 2.95344 30.5997 2.56393C31.033 2.27623 31.9854 2.17852 32.5087 2.18123C34.0053 2.21108 35.1649 3.5017 35.8682 4.43812C36.1759 4.8466 36.3999 5.0339 36.718 5.55775C37.0906 6.13452 37.548 7.01174 37.7437 7.9802C37.9325 8.91459 37.7542 9.91817 37.5427 10.6714C37.4067 10.4203 37.5281 10.3674 37.2057 9.88288C37.0676 9.68067 36.8562 9.38483 36.739 9.17311C35.931 7.90012 35.368 7.40343 33.8169 6.80765C33.3376 6.63801 32.0775 6.29058 31.617 6.27566C31.9226 6.63665 33.3753 7.06822 33.9216 7.22021C34.7463 7.46856 35.5312 7.84856 36.065 8.33442C36.7369 8.98041 36.7494 9.18532 36.8939 10.3321C36.919 10.7636 37.0216 11.0554 37.0509 11.4409C37.0826 11.8954 37.0589 12.0517 36.9026 12.4251L37.0056 12.6723L37.0062 12.6773C37.2113 12.2558 37.4587 11.8545 37.6935 11.3608C38.0456 10.6201 38.3361 9.66711 38.2084 8.11999C37.7876 6.8063 37.48 6.11813 37.1346 5.56996C36.7976 5.03509 36.381 4.63491 35.7426 3.9292C35.0393 3.17058 34.5537 2.10115 33.6243 1.78903C32.6406 1.4823 31.4831 1.90845 30.5014 2.37666C30.0011 1.45789 29.1994 1.26653 27.7154 1.9166C27.1523 2.20023 26.6018 2.53951 26.0995 2.91407C25.5092 3.33885 25.2726 3.55599 24.8645 4.05134C24.854 4.06492 24.808 4.11919 24.7996 4.13005C24.7766 4.15583 24.7515 4.18162 24.7263 4.20605C23.6944 4.35262 22.8467 4.68377 21.8713 5.55096ZM29.2576 7.03823C29.3337 7.0711 29.5551 7.31291 29.6272 7.34387L30.0188 7.02636C29.6075 6.77664 29.1279 6.49353 28.7 6.28956L29.0513 6.73158L29.2576 7.03823ZM36.7043 11.9495C36.7047 11.3943 36.6366 10.7018 36.1759 9.98196C35.9059 9.58703 34.5014 8.3412 33.8546 8.22312C34.2293 8.45927 34.6521 8.65333 35.0121 8.89762C35.437 9.19754 35.5542 9.48389 35.7301 9.98467C35.7785 10.1494 35.8314 10.3288 35.8837 10.5182L36.2433 10.8433L36.7043 11.9495ZM31.4695 6.95647C31.0784 6.77429 30.7469 7.08482 30.3409 6.92334C30.5607 7.09756 30.7795 6.85082 31.12 7.02239L31.819 6.89055L31.4695 6.95647ZM19.882 8.34863C19.8339 8.46126 19.8953 7.811 19.8577 7.92093C19.9832 7.78792 20.0733 7.65628 20.0754 7.58707C20.0398 7.58572 19.9113 8.34726 19.882 8.34863ZM20.1302 8.96034C20.2829 8.99698 20.478 8.87323 20.6287 8.90988C20.6371 8.89767 20.6475 8.88409 20.6559 8.87188C21.1813 8.21911 21.3564 7.56228 21.752 7.28272C20.4782 8.113 20.8505 8.34831 20.1302 8.96034ZM21.1533 8.68727C21.2122 8.70024 21.271 8.71322 21.3295 8.72569L21.4856 8.72295C21.5845 8.57458 21.6901 8.42683 21.7938 8.27198C21.572 8.3629 21.3522 8.50948 21.1533 8.68727Z" fill="#441700"/>
<path fill-rule="evenodd" clip-rule="evenodd" d="M25.1291 20.1971C25.3008 20.1971 25.44 20.3363 25.44 20.508C25.44 20.6797 25.3008 20.8189 25.1291 20.8189C24.9574 20.8189 24.8182 20.6797 24.8182 20.508C24.8182 20.3363 24.9574 20.1971 25.1291 20.1971Z" fill="#D3BF64"/>
<path fill-rule="evenodd" clip-rule="evenodd" d="M21.3743 16.919C21.5239 16.9444 21.6659 16.8437 21.6913 16.694C21.7168 16.5444 21.6161 16.4024 21.4664 16.377C21.3167 16.3515 21.1747 16.4522 21.1493 16.6019C21.1239 16.7516 21.2246 16.8935 21.3743 16.919Z" fill="#D3BF64"/>
<path fill-rule="evenodd" clip-rule="evenodd" d="M26.4127 20.2792C26.5979 20.2792 26.748 20.4293 26.748 20.6145C26.748 20.7997 26.5979 20.9498 26.4127 20.9498C26.2275 20.9498 26.0774 20.7997 26.0774 20.6145C26.0774 20.4293 26.2275 20.2792 26.4127 20.2792Z" fill="#D3BF64"/>
<path fill-rule="evenodd" clip-rule="evenodd" d="M27.8271 19.9111C28.0123 19.9111 28.1625 20.0613 28.1625 20.2465C28.1625 20.4316 28.0123 20.5818 27.8271 20.5818C27.6419 20.5818 27.4918 20.4316 27.4918 20.2465C27.4918 20.0613 27.6419 19.9111 27.8271 19.9111Z" fill="#D3BF64"/>
<path fill-rule="evenodd" clip-rule="evenodd" d="M29.1639 18.9385C29.3649 18.9385 29.5278 19.1014 29.5278 19.3024C29.5278 19.5033 29.3649 19.6662 29.1639 19.6662C28.963 19.6662 28.8 19.5033 28.8 19.3024C28.8 19.1014 28.963 18.9385 29.1639 18.9385Z" fill="#D3BF64"/>
<path fill-rule="evenodd" clip-rule="evenodd" d="M30.4068 17.4341C30.6078 17.4341 30.7707 17.597 30.7707 17.798C30.7707 17.9989 30.6078 18.1618 30.4068 18.1618C30.2059 18.1618 30.043 17.9989 30.043 17.798C30.043 17.597 30.2059 17.4341 30.4068 17.4341Z" fill="#D3BF64"/>
<path fill-rule="evenodd" clip-rule="evenodd" d="M20.6399 16.5891C20.7654 16.6104 20.8843 16.5261 20.9056 16.4006C20.927 16.2752 20.8426 16.1562 20.7171 16.1349C20.5917 16.1136 20.4727 16.198 20.4514 16.3234C20.4301 16.4488 20.5145 16.5678 20.6399 16.5891Z" fill="#D3BF64"/>
<path fill-rule="evenodd" clip-rule="evenodd" d="M19.9875 16.4673C20.0949 16.4855 20.1967 16.4133 20.2149 16.3059C20.2332 16.1986 20.161 16.0967 20.0536 16.0785C19.9462 16.0603 19.8444 16.1325 19.8262 16.2398C19.8079 16.3472 19.8802 16.449 19.9875 16.4673Z" fill="#D3BF64"/>
<path fill-rule="evenodd" clip-rule="evenodd" d="M22.0333 17.2694C22.6285 18.4418 22.4884 20.0664 21.7482 21.1053C22.1948 19.914 22.3881 18.2603 22.0333 17.2694Z" fill="#D3BF64"/>
<path fill-rule="evenodd" clip-rule="evenodd" d="M8.49025 23.8458L8.87648 23.8955L9.06447 24.1974L9.03151 24.5668C9.04843 24.6368 9.06532 24.6983 9.07659 24.7514C9.09067 24.8018 9.11615 24.9724 9.14742 25.255L9.2149 25.4507L9.21538 25.7557L9.40317 25.9429L9.40341 26.0576L9.67845 28.1893L9.75959 28.1892L9.87457 28.3373L9.61155 28.3378C9.71559 28.637 9.80564 28.9447 9.87616 29.2635L10.1477 29.361L10.402 29.1479L10.6708 29.2622L10.7856 29.262L10.8192 29.2927L10.8695 29.2618C10.8891 29.2842 11.0011 29.3036 11.2054 29.3256L11.6218 29.0227L12.2794 29.0607L12.31 28.9404L12.7299 29.06L13.4571 28.8713L13.6052 28.7227C13.661 28.6639 13.7309 28.619 13.8176 28.5909L14.1476 28.484L14.2935 28.7216L14.565 28.7211L14.6802 29.0567C14.5771 29.2723 14.4766 29.4264 14.3788 29.5245L14.2948 29.477L13.6412 30.1665L13.3058 30.3965L12.5028 30.3979L12.0525 30.5218L11.6578 30.4329L10.8721 30.77L10.8216 30.7365L10.3379 30.9416L10.4557 32.7211L10.4892 32.721L10.4894 32.8021L10.3748 32.9255L10.4897 33.0232L10.524 33.4093L10.6053 33.4903L10.5244 33.6471L10.6786 33.8595L10.7637 34.5169L10.8787 34.6706L10.9933 34.6313L11.0327 34.7375L11.0161 34.8523L10.9098 34.8525L10.945 35.8122C10.8473 35.9747 10.7468 36.1148 10.6435 36.2297L10.3469 36.2638L10.2578 36.5017L10.0451 36.4685L10.0762 36.6811L9.9478 36.8465C9.90868 36.8941 9.76056 36.9979 9.50341 37.1578L9.21759 36.9204C9.18397 36.8981 9.14471 36.8394 9.10257 36.7416L9.00422 36.5039L9.0035 36.045L8.84556 35.3233L8.781 35.2087L8.84456 34.7413L8.77952 34.3385L8.93289 34.0192L8.74429 33.348C8.79167 33.2444 8.825 33.1044 8.84149 32.9281L8.77693 32.8051L8.84067 32.4524C8.84055 32.3545 8.80661 32.1531 8.74173 31.8482L8.88945 31.5177L8.83818 30.9778L8.59169 30.8299L8.42112 30.8973L8.421 30.8302L8.0517 30.8644L8.08567 31.0938L7.90372 31.0465L7.69954 31.0945L7.64921 31.1281C7.3976 31.2545 7.15426 31.3164 6.91361 31.3168L6.67572 31.2837L6.19189 31.4328L5.68279 31.5232L5.64958 31.7387L5.29675 31.591L5.297 31.7393L5.23265 31.7394L4.99521 31.9777L4.65941 31.9783L4.78311 32.3138L4.46401 32.2472L3.97204 32.5447L3.85753 32.668L3.58597 32.5845L3.28414 32.8145L2.98754 32.8149L2.98793 33.036L2.68581 33.0869L2.56315 33.3585L2.4151 33.5043L2.21173 34.0307L2.26778 34.0809C2.25385 34.1285 2.16168 34.2294 1.99966 34.3836L1.96686 34.8341L1.7293 35.0136L1.76304 35.1059L1.64831 35.1062L1.64862 35.2853L1.37754 35.49L1.37766 35.5571C1.33855 35.5964 1.27716 35.6972 1.19072 35.8597L1.12355 35.8598L0.928652 36.4337L0.855715 36.3275L0.855835 36.3947L0.657416 36.5489L0.610116 36.7057C0.599026 36.7617 0.540395 36.8373 0.437021 36.9354L0.13464 36.8212C0.100902 36.7289 0.072817 36.6758 0.050421 36.6647L0.0838107 36.5499L0.0836907 36.4855L0.1338 36.3287C0.0720486 36.2253 0.0353223 36.0183 0.0180153 35.7078L0.132839 35.7635L0.0487288 35.6741L0.0485365 35.5594L0.0820585 35.5257L0.017367 35.3216L0.0814702 35.1732L0 34.9859L0.0474565 34.9186C0.038851 34.7983 0.0273889 34.6332 0.0158309 34.4206L0.169518 34.2972L0.623426 34.649L0.892045 34.6485L1.84139 33.4577L1.69291 33.36L1.72622 33.1865L1.42421 33.3101L1.37398 33.3913L1.30956 33.3607L1.11947 33.4589C1.06635 33.4926 0.948875 33.518 0.767043 33.5407L0.497812 33.1886C0.625959 32.8554 0.743171 32.6677 0.849414 32.6227C0.849318 32.564 0.938649 32.4407 1.11743 32.2529L1.30759 32.1966L1.27396 32.1631L1.57545 31.7457L1.60904 31.7456L2.33069 31.5961L2.4121 31.7442L2.56035 31.7104L2.59398 31.7439L2.68352 31.7438L2.74762 31.5954L2.98553 31.6286L2.98542 31.5614L3.16702 31.4044L3.05197 31.2088L3.19709 30.9875L3.583 30.8385L3.54925 30.749L3.59942 30.6258C3.61054 30.5866 3.69435 30.4997 3.8536 30.3623C3.95644 29.948 4.06795 29.7072 4.18815 29.6426L4.121 29.6428L4.50633 29.158L4.53996 29.1887L5.11202 28.2784L5.07846 28.2784L5.29057 27.9591L5.34095 27.959L5.79841 27.1216L5.86278 27.1214L6.24783 26.4828L6.3625 26.449L6.55217 26.0961C6.57172 26.0737 6.6219 25.9505 6.69706 25.7265L6.96812 25.5218L6.96807 25.4883L7.11572 25.1018L7.20521 25.0709L7.23826 24.7658L7.353 24.7657L7.38357 24.651L7.41716 24.6509L7.50639 24.4633L8.15489 24.076L8.49025 23.8458ZM7.20726 26.2992L6.93596 26.3668L6.93608 26.4816L6.66792 26.7506L6.58398 26.7507L6.21552 27.2858L6.18475 27.2859L5.91421 27.8096L5.91435 27.8935L5.81667 28.0392C5.7832 28.1008 5.73849 28.1457 5.677 28.1793L5.44777 28.3112L5.34191 28.5828C5.30846 28.6585 5.28361 28.8488 5.26173 29.1566L5.11337 29.1233L5.08017 29.336L4.77835 29.5744L4.812 29.6079L4.81232 29.7953L4.5411 29.9105L4.32945 30.5097C4.29047 30.6245 4.24865 30.7141 4.20679 30.7813L4.00857 31.0531L4.04224 31.1006L4.0423 31.1342L4.12351 31.1732L4.60759 31.1724L4.81485 31.2867L5.45216 30.9023L5.98656 30.8678L6.01755 30.9825L6.06756 30.7781L6.36977 30.7777L6.91235 30.6284L7.05795 30.6785L7.39353 30.5633L7.39347 30.5297L7.90243 30.3553L7.9024 30.3245L8.53454 30.1752L8.53418 29.9877L8.31838 29.7894L8.3173 29.1514L8.49847 28.7314L8.31637 28.6086L8.08154 28.7321L7.77581 28.3073L8.20108 28.273L8.20084 28.1583L7.69417 28.0444L7.74155 27.9212L7.59572 27.7424L7.6934 27.5855L7.42128 27.169L7.4715 27.085L7.54419 27.0541L7.42086 26.9312L7.32196 26.3661L7.20726 26.2992Z" fill="#441700"/>
<path fill-rule="evenodd" clip-rule="evenodd" d="M17.0901 24.1777L17.3006 24.2423L17.3277 24.3609L17.3278 24.4594L17.3863 24.6026L17.3282 24.6699L17.3554 24.8467L17.237 25.0103L17.2372 25.1805L17.1186 25.2075L17.1459 25.4627L16.9694 25.6667L16.635 26.527L16.4216 27.3848L16.3303 27.6559L16.3033 27.5887L16.2323 27.9896L16.2054 27.9628L16.2646 28.5403L16.1418 28.7174L16.142 28.8495L16.2072 28.9993L16.1423 29.0263L16.0885 28.9727L16.1156 29.145L16.0889 29.2436L16.0242 29.3735C16.0064 29.4094 15.9731 29.5572 15.9265 29.8192L15.8997 29.8461L16.0903 30.0361L16.0659 30.1816C15.9742 30.2154 15.887 30.2872 15.8088 30.397L15.9275 30.3968L15.9275 30.4371L16.0663 30.4368L16.3082 30.5148C16.4872 30.4182 16.6371 30.3687 16.7602 30.3685L17.029 30.3949L17.2192 30.3677L17.2462 30.4348L17.4633 30.3942L17.488 30.459L17.7319 30.3668L17.9156 30.4337L17.8887 30.4584L17.9873 30.4582L18.2825 30.2742L18.4012 30.3143L18.4011 30.2426L18.7794 30.242L19.3573 30.3911L19.4762 30.5543L19.503 30.5095C19.6822 30.5472 19.8658 30.6118 20.0541 30.6988L20.081 30.7637L20.2694 30.9156L20.0822 31.4398L20.0286 31.5183L19.9368 31.5184L19.9101 31.6102L19.9106 31.8923L19.8657 31.8274L19.839 31.9506L19.6556 32.0427L19.5978 32.3137L19.4145 32.4707L19.4527 32.5289L19.3878 32.529L19.4147 32.5558L19.3163 32.6209L19.2896 32.7396C19.1666 32.7846 19.0392 32.9594 18.9032 33.2642L18.8382 33.2262L18.8652 33.2911L18.7399 33.3181L18.7132 33.4413L18.6482 33.4168L18.6216 33.5355L18.445 33.6858L18.4451 33.7507L18.3804 33.8695L18.2885 33.8428L18.3267 33.8965L18.1364 33.9416L18.1366 34.0199L17.8951 34.2106L17.9221 34.2777L17.8551 34.3562L17.7767 34.3563L17.7385 34.3027L17.685 34.3945L17.6133 34.3947L17.6538 34.4797L17.5621 34.5201L17.4952 34.6904L17.4437 34.7308L17.4439 34.789L17.3185 34.7892L17.2538 34.908L17.2 34.8812C17.1398 35.0336 17.0683 35.1367 16.9856 35.1905L16.9857 35.242L16.9185 35.2421L16.9455 35.3406L16.8671 35.2825L16.8269 35.3677L16.7307 35.3678L16.6773 35.5783L16.5855 35.5516L16.5275 35.6771C16.3642 35.7647 16.2703 35.8253 16.2457 35.8612L16.2772 35.9462L16.219 35.9463L16.2191 36.0112L16.1273 36.0113C16.0401 36.0809 15.9775 36.1213 15.9372 36.1303L15.9103 36.1035L15.7941 36.229C15.68 36.3031 15.5906 36.3749 15.5236 36.4444L15.3601 36.4134L14.9487 36.7409L14.9488 36.8058L14.8503 36.806C14.6805 36.9876 14.5463 37.0975 14.4501 37.1425L14.4234 37.2075L14.3585 37.2344L14.3005 37.3845L14.2333 37.3331L14.0902 37.452L14.0633 37.4118L13.992 37.6291L13.8731 37.4524L13.6312 37.4125L13.5126 37.453L13.4139 37.3614L13.539 37.144L13.6821 37.0788L13.821 37.1167L14.0176 36.8746L14.0172 36.6843L14.1156 36.5923L14.1801 36.3482L14.3298 36.1979C14.3924 36.1374 14.4326 36.0836 14.4549 36.041L14.5397 35.8237L14.6649 35.7451L14.5663 35.6804L14.6892 35.5548L14.6642 35.3712C14.6639 35.1832 14.7017 35.013 14.7798 34.8584L14.7551 34.7935L14.9696 34.576L14.9692 34.361L14.904 34.1843L14.9686 34.0006L15.0593 33.3243C14.9897 33.2192 14.9515 33.1409 14.9424 33.0872L15.0586 32.937L15.0203 32.7737L15.0581 32.6281L15.0198 32.505L14.9922 32.0774L15.0178 31.3095C15.0871 31.231 15.1294 31.1414 15.1405 31.0406L15.2323 31.0405L15.232 30.8972L15.2991 30.8255L15.2318 30.7987L15.2989 30.7337L15.2719 30.68L15.2716 30.4897L15.2312 30.4383C15.2892 30.3106 15.3606 30.1851 15.4477 30.064L15.349 29.9388L15.3891 29.847L15.4741 29.7953L15.5122 29.8199L15.5657 29.6967L15.4201 29.6051L15.4464 29.3096L15.538 29.1907L15.4728 29.0006C15.5373 28.7699 15.5908 28.6242 15.6288 28.5682L15.5903 28.3578L15.7263 27.9904L15.6812 27.8069L15.6809 27.6569L15.7256 27.5897L15.6269 27.4667L15.6533 27.2025C15.7047 27.1106 15.7559 26.9762 15.8026 26.797L15.7509 26.6785L15.5874 26.5937L15.5602 26.4102L15.2916 26.4375L15.1732 26.5944C15.1085 26.7131 15.0392 26.8095 14.9677 26.8835C14.8962 26.9575 14.8292 27.0405 14.7666 27.1324L14.7151 27.1325L14.4982 27.2314L14.1645 27.1737L14.0459 27.2321L13.9159 27.1473C13.8756 27.1205 13.7926 27.0176 13.6647 26.8387L13.8281 26.8653L13.8545 26.5966L14.6482 25.9528C14.7601 25.9257 14.8339 25.9032 14.863 25.8875L15.2633 25.6159L15.3819 25.5911C15.4736 25.5036 15.5227 25.4296 15.5316 25.3736L15.7217 25.2547L15.9584 24.9408L16.3897 24.4879L16.5934 24.4606L16.6313 24.3352L16.7499 24.335C16.8908 24.2609 16.9893 24.2204 17.0452 24.2158L17.0901 24.1777ZM17.8257 31.4951L17.772 31.522L17.6085 31.4954L17.5168 31.5225L17.5571 31.5627L17.4654 31.5875L17.4386 31.6412L17.3982 31.563L17.3669 31.6145L17.2213 31.5633L16.9796 31.642C16.9393 31.6063 16.8766 31.5795 16.7892 31.564C16.6304 31.6561 16.5298 31.7055 16.4805 31.7145C16.4672 31.7974 16.4203 31.8579 16.3375 31.8983L16.3106 31.8603L16.2391 31.9567L16.2122 31.8986L16.1854 31.9254L16.0687 31.807L16.0016 31.8071L15.9701 31.7422L15.8515 31.7425C15.8114 31.9037 15.749 32.0538 15.6619 32.195L15.8124 32.4769L15.6635 33.0861L15.7623 33.2762C15.796 33.3478 15.8141 33.4664 15.8144 33.6366L15.7902 33.9008L15.8151 34.0642L15.6519 34.1831L15.6533 35.0271L15.6018 35.0272L15.6675 35.4614L15.6408 35.5533L15.6679 35.6786L15.8177 35.6111L16.0344 35.3421L16.3162 35.1514L16.7675 34.6133L16.8256 34.5214L16.9442 34.4809C17.0357 34.3509 17.0916 34.2612 17.1071 34.212L17.1988 34.1536L17.4938 33.8173L17.5204 33.6874L17.7756 33.6869L17.7373 33.5101L17.8804 33.4046L17.9517 33.2008L18.1888 33.0817L18.4701 32.5977L18.5282 32.5304L18.5281 32.4722L18.6194 32.19L18.5001 31.8028C18.22 31.716 18.0497 31.6223 17.9891 31.5216L17.8257 31.4951Z" fill="#441700"/>
<path fill-rule="evenodd" clip-rule="evenodd" d="M25.6981 29.5606C25.7294 29.5516 25.8145 29.5559 25.9534 29.5736C26.0944 29.5913 26.184 29.6202 26.2222 29.6649L26.446 29.6108L26.5713 29.624L26.6634 29.8007L26.6502 29.9329C26.563 30.0024 26.5027 30.0786 26.4738 30.1638L26.4066 30.1639L26.3351 30.2423C26.3127 30.2625 26.221 30.3007 26.0599 30.3525L26.0485 31.5727L26.1548 32.2038L26.1694 32.853L26.2692 33.6454L26.6853 34.773C26.7593 34.8557 26.8087 34.9206 26.8357 34.9698C27.0548 34.8463 27.1913 34.7856 27.2473 34.7855C27.4283 34.5792 27.5423 34.4716 27.596 34.4625L27.5959 34.3909L28.3358 33.7605L28.3491 33.6419C28.3961 33.6328 28.4899 33.5476 28.6307 33.3862L28.8726 33.4372L29.0052 33.7325L28.9519 33.9879L28.8219 33.9366L28.755 34.08L28.6319 34.0802C28.5829 34.2124 28.5114 34.32 28.4153 34.403L28.4154 34.4746L28.0555 34.811L27.9886 34.9813C27.9059 35.0374 27.7672 35.1138 27.5704 35.2104L27.5191 35.309L27.5056 35.2776L27.4275 35.4143L27.2485 35.4684L27.224 35.5602L27.1322 35.5603L27.1704 35.6588L27.0655 35.8604L26.9671 35.8874C26.9762 35.9568 26.9047 36.0868 26.7528 36.2751L26.4439 36.2891L26.3793 36.4795L26.1891 36.5313C26.0435 36.4935 25.9292 36.4042 25.8416 36.2632L25.3994 35.5498L24.9791 34.6125L25.0166 34.2654L24.9243 33.9566L24.9914 33.9431C24.8634 33.6903 24.8004 33.4979 24.8001 33.3658L24.8311 33.124L24.6271 32.9989L24.4907 33.0842L24.4907 33.0529L24.4258 33.0843L24.2497 33.5369L24.1578 33.499L24.1311 33.5908L24.0661 33.5641L24.0662 33.6223L24.0394 33.6223C24.0349 33.6492 23.9725 33.7612 23.8496 33.9585L23.7959 33.9317L23.7583 34.2138L23.6196 34.2857C23.5279 34.3351 23.4698 34.3912 23.4431 34.4562L23.3918 34.5883L23.4501 34.6666L23.3002 34.7206L23.2335 34.9893L23.1239 35.0477L23.1553 35.1014C23.0502 35.1799 22.9653 35.2316 22.9004 35.2586L22.8423 35.3572L22.7885 35.2856L22.6971 35.5141L22.6187 35.5143L22.5074 35.895L22.3911 35.9355L22.378 36.1326L22.1877 36.1329L21.9981 36.5653L21.9065 36.6304L21.8281 36.6305L21.8014 36.7559L21.3808 36.9134L20.942 36.9276L20.7496 35.6809L20.8277 35.5173L20.8476 35.3874C20.8521 35.3516 20.9033 35.2194 21.0037 34.9931L20.9789 34.9014C21.0569 34.7222 21.1083 34.6146 21.1351 34.5788L21.0835 34.5542L21.2061 34.2316L21.2126 34.1062C21.217 34.0727 21.2505 33.992 21.3107 33.8643C21.2745 33.6539 21.2407 33.5331 21.2049 33.504L21.2585 33.4121L21.4286 33.4365C21.5292 33.302 21.5917 33.2302 21.6186 33.2212L21.6564 33.1025L21.6833 33.1025L21.5913 32.966L21.669 32.6167L21.7228 32.6434C21.7741 32.5068 21.8075 32.4396 21.821 32.4395L21.7938 32.2694L21.9768 31.9288L21.9767 31.837L21.9363 31.7565L22.2039 31.1807L22.5122 30.7593C22.6172 30.6673 22.7066 30.5642 22.7803 30.4499L23.0107 30.3577L23.3192 30.037L23.6121 29.8597L23.789 29.8593L23.9345 29.8188L24.1382 29.8184L24.2297 29.6682L24.42 29.6814L24.6103 29.681L24.6102 29.6273C24.6617 29.6317 24.7177 29.6539 24.7805 29.6941L24.9841 29.6132L25.1341 29.6532L25.1744 29.6017L25.3312 29.6529L25.6981 29.5606ZM24.0074 30.6L23.844 30.6272L23.6402 30.6141L23.5755 30.7306L23.5756 30.8291C23.5041 30.865 23.428 30.8965 23.3452 30.9213L23.2271 31.217C23.1671 31.479 23.1314 31.6134 23.118 31.6179L23.0509 31.6181L22.9595 31.8354L22.915 32.019C22.9016 32.075 22.857 32.1221 22.7831 32.1558L22.7186 32.3865L22.6137 32.5837C22.5758 32.6576 22.5558 32.736 22.5559 32.8189L22.556 32.8726L22.4887 32.819L22.4889 32.9242L22.4508 32.9243L22.4643 32.9892L22.4108 33.1012L22.333 33.4484L22.197 33.7307L22.1708 34.1315L22.1306 34.1897L22.1059 34.1898L22.0793 34.3085L22.1308 34.3621L22.0664 34.604L22.0395 34.6041L22.0665 34.6824L21.968 34.6825L21.9822 35.1683L22.0408 35.3965L22.0677 35.3965L22.2108 35.2597L22.5904 34.7217L23.2717 33.8206L23.4751 33.6053L23.9261 32.8702L24.3974 32.2381L24.4374 32.1015L24.3455 31.983L24.5151 31.6872L24.5528 31.4654C24.5572 31.4431 24.5952 31.3848 24.6644 31.2929L24.677 30.769L24.5001 30.7559L24.3546 30.7561L24.164 30.6266L24.1261 30.6915L24.0074 30.6Z" fill="#441700"/>
<path fill-rule="evenodd" clip-rule="evenodd" d="M33.6052 39.1849L33.6508 39.0307L33.9583 38.2108L34.0362 37.9286L34.1278 37.8367C34.2238 37.644 34.2863 37.5453 34.3176 37.5408L34.3438 37.1087L34.4087 37.0817L34.4084 36.9183L34.462 36.8667L34.4619 36.7995C34.5578 36.5844 34.6203 36.4567 34.6516 36.4119L34.5841 36.2352C34.6509 36.0268 34.7022 35.8902 34.7424 35.8297L34.8006 35.8296L34.7734 35.6192L34.7999 35.4557L34.7414 35.2521L34.9425 35.0413L34.9411 34.1816L34.9158 33.7876L34.94 33.5726L34.6968 32.7402L34.6701 32.8388L34.5783 32.8121L34.3101 33.0812L34.2183 33.0813L34.1469 33.2001L34.0931 33.2002L34.0932 33.2651L33.9769 33.2922L33.8788 33.5341C33.738 33.662 33.6597 33.736 33.6396 33.7584C33.6195 33.7808 33.5972 33.8592 33.5706 33.9936L33.4006 34.061L33.3157 34.1642C33.2889 34.1955 33.224 34.2427 33.1189 34.3033L33.0922 34.422L32.9424 34.4939L32.8777 34.6373L32.6875 34.7048L32.5625 34.9401C32.5491 34.9625 32.4798 35.0141 32.3523 35.0971L32.2743 35.2562C32.1423 35.3348 32.0305 35.4245 31.9344 35.5255L31.8672 35.4987L31.816 35.651L31.751 35.6511L31.6975 35.743L31.5072 35.7434L31.4805 35.8666C31.3597 35.9339 31.2882 35.9811 31.2658 36.0124L31.2255 35.9856L31.1473 36.0776C31.06 36.0911 30.9884 36.1226 30.9303 36.1764L30.8653 36.1049L30.7669 36.2036L30.6237 36.2285L30.4332 36.1056L30.3145 36.1059L30.2293 36.0143L30.2549 35.2597L30.2262 34.1896L30.2259 34.0397C30.34 33.9566 30.407 33.8759 30.4293 33.7953L30.4021 33.6386C30.402 33.5692 30.4333 33.4975 30.4936 33.4213L30.466 33.0296L30.591 32.8189L30.5636 32.4787C30.5635 32.3981 30.5902 32.3196 30.6415 32.2412L30.5893 31.7823L30.6407 31.7419L30.6157 31.5405L30.3983 31.3819C30.32 31.4447 30.2396 31.5635 30.1571 31.7428L29.8931 31.8552C29.8641 31.8686 29.8082 31.9269 29.73 32.0256C29.6427 32.0392 29.5711 32.0706 29.5152 32.1177L29.2706 31.7846L29.2971 31.5674L29.3354 31.6658L29.4337 31.5671L29.3621 31.5673L29.4873 31.4753C29.5341 31.3834 29.5877 31.3139 29.6436 31.2668C29.7018 31.2175 29.8226 31.1769 30.0106 31.1408L30.0373 31.0422L30.0376 31.2594L30.102 30.9503L30.7975 30.4633L31.3743 30.0101L31.6428 29.9112L32.0476 29.6687L32.1931 29.6685L32.2984 29.7198C32.3275 29.7331 32.3993 29.8091 32.507 29.95L32.2657 30.2504L32.2928 30.3421L32.2258 30.4609L32.1952 30.8953L32.0775 31.4462L32.1044 31.4708L32.0508 31.5896L31.986 31.6165L32.0265 31.7396L31.96 32.1673L31.8104 32.3579L31.7723 33.6632L31.813 33.9183L31.7483 34.0371L31.8656 34.5876L31.9641 34.5875L32.2323 34.2781L32.2724 34.1862L32.391 34.1547L32.5407 33.9709L32.6324 33.9438L32.7777 33.7913L32.9409 33.6612L33.1177 33.6072L33.4505 33.1745L33.7859 32.9322L34.1188 32.504L34.1904 32.5039L34.8207 31.8939L34.9369 31.7347L34.9773 31.8018L34.9765 31.316L35.003 31.1055L35.0745 31.0337L35.0342 31.0338L35.0541 30.9017C35.0675 30.8502 35.0875 30.8076 35.1121 30.7785L35.2171 30.6462L35.3156 30.6461L35.481 30.4757C35.51 30.4443 35.5503 30.4196 35.6018 30.3993C35.651 30.3791 35.7069 30.3589 35.7673 30.3364L35.9464 30.3361L36.0381 30.2845L36.1033 30.4545C36.2308 30.3849 36.3203 30.3444 36.3718 30.3354L36.4432 30.2121L36.5618 30.147L36.5617 30.0664L36.6804 30.1468L36.7389 30.2833C36.6251 30.5185 36.5672 30.6798 36.5629 30.7627C36.6233 30.8006 36.6973 30.8341 36.7802 30.8608L36.7803 30.9392L36.655 31.0043C36.5904 31.1678 36.5368 31.2687 36.4988 31.3135L36.524 31.609L36.4727 31.7322L36.4998 31.8643L36.4465 32.133L36.348 32.16L36.2835 32.3773L36.3487 32.5675C36.1433 32.9081 36.0429 33.1187 36.0431 33.1971L36.0432 33.2889L35.9896 33.3606C35.9385 33.5935 35.8984 33.7123 35.8715 33.7213L35.8717 33.8131L35.8986 33.8399L35.7354 33.9655L35.7093 34.4178L35.7745 34.5946L35.7101 34.9148L35.6186 35.0918L35.6189 35.2105L35.4695 35.5779L35.4023 35.5467L35.351 35.6699L35.3311 35.7819C35.3266 35.8132 35.2931 35.8782 35.2262 35.9791L35.2801 36.0976L35.2266 36.2477L35.1617 36.2344L35.2536 36.3394L35.227 36.4649L35.2272 36.5835L35.084 36.6218L35.1109 36.6755C35.0239 36.81 34.9592 36.9758 34.9215 37.1728L34.8679 37.2267L34.8302 37.4685C34.7118 37.5874 34.6537 37.6815 34.6538 37.7509L34.6789 38.0195L34.6141 38.0913L34.5358 38.0914L34.5631 38.3869L34.4111 38.5058L34.4382 38.6244C34.3153 38.7947 34.2551 38.9291 34.2553 39.0299L34.2554 39.0971L34.2172 39.1851L33.6052 39.1849Z" fill="#441700"/>
<path fill-rule="evenodd" clip-rule="evenodd" d="M41.5606 29.921L41.8942 29.9204L42.1115 30.0186C42.1634 30.2491 42.2487 30.3653 42.3673 30.3651C42.4121 30.3651 42.4321 30.3202 42.432 30.2329C42.5684 30.1342 42.6937 30.0825 42.8056 30.0823C42.8773 30.0822 42.9355 30.1067 42.9848 30.1536C43.0319 30.2028 43.0589 30.2498 43.0635 30.299L43.1162 31.0467L43.0784 31.1968C43.0472 31.2976 43.025 31.405 43.0118 31.5193C42.9986 31.6312 42.9785 31.7208 42.9496 31.788C42.9228 31.853 42.9005 31.8955 42.8893 31.9112L42.3575 32.4763L42.4253 32.8635L42.2869 33.0943L42.2223 33.3027L41.8089 33.7757L41.6061 34.2888C41.4854 34.4256 41.311 34.5311 41.0827 34.612L40.9916 34.9838L40.6114 35.2285L40.2785 35.6365L39.6748 36.0898L39.498 36.1349L38.8161 36.6868L38.6255 36.5102C38.4776 36.3963 38.3745 36.3002 38.3139 36.2197C38.2555 36.1392 38.2263 36.0654 38.2262 36.0005C38.2261 35.9646 38.2395 35.9333 38.2641 35.9086L38.3303 35.3443L38.0474 34.8859C38.0205 34.8456 38.007 34.8098 38.007 34.7807C38.0069 34.727 38.0336 34.6687 38.085 34.6037L38.0849 34.5768L38.1967 34.4714L38.0708 34.1448L38.1099 33.4619L38.1097 33.285L38.2081 33.2311C38.1587 33.1439 38.1361 33.041 38.1359 32.9245C38.1358 32.8574 38.1626 32.7902 38.2207 32.7207L38.3371 32.7204L38.2339 32.6288L38.3121 32.4832L38.448 32.1292L38.6446 31.8871L38.7047 31.7034L38.8991 31.4344C38.9169 31.3717 38.9347 31.3179 38.9525 31.2687L38.9525 31.2821C38.9524 31.2127 38.968 31.1567 39.0015 31.1119C39.0328 31.0693 39.0841 30.9864 39.1556 30.8698L39.4754 30.7036L39.5021 30.6118C39.7212 30.4368 39.936 30.3289 40.1508 30.2905L40.5895 30.2047L40.8847 30.034L41.1019 30.0448L41.5606 29.921ZM41.1551 31.0948L41.1284 31.1486C41.05 31.1487 40.994 31.1488 40.9582 31.1511C40.9246 31.1534 40.8732 31.1826 40.8084 31.2409L40.6179 31.1629L39.8977 31.5626C39.7188 31.6637 39.5646 31.8296 39.4396 32.0582C39.3124 32.289 39.25 32.4771 39.2503 32.6271C39.2504 32.7189 39.2685 32.7995 39.3089 32.8688L39.3358 32.8688C39.3359 32.9695 39.3609 33.1531 39.4151 33.4194L39.2521 33.6771L39.3755 33.8605L39.311 34.089C39.311 34.1203 39.329 34.174 39.3627 34.2501C39.3987 34.3261 39.4145 34.3843 39.4123 34.4201C39.4101 34.4582 39.4483 34.5343 39.5224 34.6528L39.5092 34.7916C39.5097 35.0312 39.568 35.152 39.6867 35.1518C39.7829 35.1516 39.9127 35.0842 40.0736 34.9474C40.1115 34.8331 40.1897 34.7725 40.3017 34.7634L40.3685 34.5596C40.4423 34.5505 40.4781 34.5168 40.478 34.4541L40.4779 34.4094C40.5003 34.3959 40.5249 34.3824 40.5517 34.3689C40.5763 34.3555 40.592 34.3465 40.5965 34.342C40.6499 34.1718 40.7526 33.9791 40.9045 33.7661L40.9493 33.7907L40.9313 33.7392L41.1324 33.5083L41.3884 32.6616L41.4263 32.5832L41.5113 32.5584L41.5178 32.4061L41.5176 32.2875C41.522 32.2628 41.5554 32.1822 41.6156 32.0455L41.2099 31.7238L41.5231 31.6002L41.4777 31.2398L41.5357 31.1076L41.4507 31.1481L41.1551 31.0948Z" fill="#441700"/>
<path fill-rule="evenodd" clip-rule="evenodd" d="M54.757 34.4301L54.6206 34.5087L54.5802 34.4572L54.5804 34.5759L54.5535 34.5491C54.5112 34.6768 54.4777 34.7485 54.4531 34.7664C54.4285 34.7821 54.3994 34.7911 54.3636 34.7912L54.3121 34.7913L54.3122 34.8182C54.3123 34.8629 54.2809 34.8831 54.2205 34.8832L54.2474 34.91L54.2206 34.937L54.1937 34.9101L54.1938 34.9616C54.1602 34.9617 54.1289 34.9774 54.1065 35.0065C54.082 35.0335 54.0708 35.0536 54.0708 35.0603L54.0709 35.1544L53.9791 35.1277L54.0038 35.1791L53.8539 35.251L53.454 35.7061L53.4271 35.6793C53.4272 35.7488 53.3981 35.7891 53.3355 35.7982C53.28 36.1206 53.1908 36.282 53.0676 36.2822L52.7474 36.2245C52.6645 36.2112 52.6041 36.2024 52.5705 36.198C52.5346 36.1935 52.436 36.1333 52.2747 36.0149C52.2254 36.0239 52.1583 36.0576 52.0711 36.1137C52.0106 36.0758 51.9411 36.011 51.867 35.9238L51.8939 35.9237L51.8938 35.8319L51.9654 35.8005L51.8935 35.6819L52.097 35.5361L51.828 35.3462L51.801 35.2231C51.8703 35.1827 51.9061 35.1536 51.906 35.1312C51.906 35.1267 51.8319 35.006 51.6815 34.7711C51.5425 34.6437 51.4528 34.5409 51.4124 34.4626L51.4392 34.4626L51.4121 34.3373L51.5036 34.1535L51.5034 34.0304L51.5168 34.0304C51.5258 34.0303 51.5302 34.0259 51.5302 34.0169C51.5302 34.008 51.4987 33.9229 51.438 33.7596L51.4626 33.7596L51.3841 33.6679C51.4377 33.5984 51.4622 33.5223 51.4621 33.4394C51.4618 33.3073 51.372 33.1105 51.1924 32.8489L51.1137 32.634C51.0952 32.2692 51.0411 32.0566 50.9492 31.9896C50.7882 32.113 50.7078 32.2206 50.7079 32.3124L50.7192 32.3638C50.7193 32.4399 50.6634 32.4759 50.5493 32.4761L50.491 32.4762C50.4263 32.6039 50.3459 32.7249 50.2543 32.837L50.2814 32.9556L50.1562 33.0543C50.1541 33.1193 50.1363 33.182 50.105 33.2425C50.0738 33.3007 50.0403 33.35 50.0001 33.3882C49.9621 33.4285 49.9107 33.5092 49.8505 33.6325L49.8236 33.6056L49.8237 33.684L49.7588 33.7244L49.7053 33.8431C49.6225 33.8858 49.5823 33.9329 49.5824 33.9799C49.5824 33.9978 49.5914 34.0247 49.6072 34.0582L49.5825 34.0583L49.5826 34.112L49.5423 34.1121L49.4643 34.3271L49.3256 34.3945L49.3662 34.5445C49.3105 34.6968 49.1988 34.8739 49.0335 35.0689L49.0337 35.2144C49.0029 35.5033 48.9584 35.6869 48.9026 35.7654L48.8757 35.7654C48.8803 35.8259 48.8379 35.9021 48.7485 35.9918C48.6591 36.0815 48.5876 36.1443 48.5361 36.1824C48.4825 36.2206 48.4086 36.2386 48.3124 36.2388L48.2541 36.2389C48.2452 36.2299 48.2273 36.2255 48.2004 36.2255C48.1802 36.2256 48.1042 36.2794 47.9723 36.3894L47.9255 36.4745C47.9143 36.5014 47.9009 36.5148 47.8897 36.5171C47.8785 36.5194 47.8628 36.5216 47.8405 36.5217C47.7934 36.5217 47.7666 36.5173 47.7621 36.5084L47.6117 36.2915L47.4214 36.2671L47.3562 36.1083C47.3851 35.9918 47.4408 35.8686 47.519 35.7409L47.492 35.6491C47.5278 35.6356 47.5434 35.6199 47.5434 35.5976C47.5433 35.5796 47.5366 35.5662 47.5187 35.5573L47.5698 35.3535L47.5698 35.3154L47.5316 35.2617L47.5561 35.1901L47.5965 35.2303C47.6097 35.1295 47.6589 35.0668 47.7462 35.0465L47.8131 34.921L47.8646 34.894C47.9136 34.7775 47.9516 34.7036 47.9828 34.6789L47.9556 34.4416C47.9555 34.3633 47.9799 34.2692 48.0267 34.1594L48.067 34.1594L48.067 34.128L48.0266 34.1012L48.1846 33.5099L48.2761 33.3396L48.2757 33.0978L48.1166 32.9996L48.0648 32.8407C48.0155 32.7804 47.993 32.7311 47.993 32.6908L48.0239 32.449C48.0235 32.2654 47.9831 32.1625 47.9002 32.1403C47.8466 32.1784 47.7996 32.2031 47.7548 32.2122L47.7549 32.239L47.6566 32.3578L47.5133 32.3581L47.4866 32.4499L47.4149 32.45C47.3546 32.524 47.2899 32.6361 47.2252 32.7862C47.1606 32.9385 47.1115 33.0416 47.0802 33.0999C46.9506 33.2053 46.8477 33.3017 46.774 33.3936L46.7741 33.4608C46.651 33.4611 46.5705 33.5328 46.5305 33.6762L46.5058 33.6381L46.5059 33.7031L46.4141 33.7032C46.3919 33.804 46.3517 33.8914 46.2914 33.9653C46.2333 34.0415 46.1708 34.1155 46.106 34.1895C46.1061 34.2365 46.077 34.2679 46.021 34.2815C46.0033 34.3688 45.943 34.4495 45.8379 34.5236L45.7731 34.6087C45.7507 34.6312 45.7307 34.6984 45.713 34.8059L45.6213 34.8597L45.6214 34.8978C45.5609 34.9113 45.5296 34.9383 45.5297 34.9763L45.4715 34.9764C45.4716 35.0772 45.4494 35.1332 45.4046 35.1422C45.3017 35.2028 45.219 35.2791 45.161 35.3687C45.1007 35.4584 45.0717 35.5122 45.0717 35.5301L45.0718 35.6017C44.9713 35.7317 44.9223 35.9042 44.9227 36.1124L44.8958 36.1125L44.9228 36.1796L44.8315 36.4484C44.9568 36.39 45.0373 36.363 45.0731 36.3629C45.1336 36.3628 45.165 36.403 45.1651 36.4859L45.1003 36.5397L45.1003 36.5666L45.0223 36.7302C44.8724 36.8446 44.7696 36.941 44.7138 37.0262L44.7138 37.0643L44.6423 37.0912C44.5709 37.266 44.5062 37.4094 44.446 37.5236L44.1642 37.6697L44.0788 37.4862C44.0518 37.4281 43.9778 37.3274 43.8544 37.1844C43.908 37.1485 43.9371 37.1193 43.946 37.0924C43.9236 37.0567 43.8742 37.0187 43.7958 36.974L43.704 36.9741C43.6033 36.9743 43.5361 36.9632 43.5002 36.9387C43.4644 36.9141 43.4441 36.8537 43.435 36.7574L43.4596 36.7328C43.4349 36.7059 43.4214 36.6769 43.4214 36.6478C43.4214 36.6298 43.4258 36.6164 43.4347 36.6074L43.4345 36.4888L43.4592 36.5156L43.4591 36.4238C43.5597 36.3878 43.6111 36.3251 43.611 36.2333C43.64 36.2108 43.6713 36.1615 43.7025 36.0831L43.6486 35.9914C43.7851 35.9374 43.8521 35.8478 43.8519 35.7224C43.9749 35.6461 44.0351 35.5094 44.0348 35.3079L44.0346 35.2363L44.133 35.1712L44.0612 35.0773L44.1327 34.9786L44.061 34.9542L44.0609 34.8623L44.1836 34.6181L44.1321 34.6182L44.132 34.5667L44.0066 34.502L44.0063 34.3766L44.1576 33.8256L44.1036 33.6802C44.1081 33.678 44.1259 33.622 44.1571 33.5167L44.1705 33.5167C44.2175 33.5166 44.2466 33.4964 44.2577 33.4583C44.2689 33.418 44.2777 33.3374 44.2797 33.2142C44.284 33.0933 44.2905 32.9926 44.2994 32.9142L44.2209 32.8472L44.299 32.697L44.2986 32.5135L44.3387 32.388C44.2513 32.3546 44.2065 32.2875 44.2063 32.1912L44.2195 32.0927L44.0558 31.9363L43.6685 31.9101L43.6412 31.6683L43.818 31.5964L43.7867 31.6681L43.8449 31.6411C43.8448 31.5583 43.885 31.5045 43.9633 31.4775C43.9944 31.3588 44.0727 31.2915 44.2025 31.2711C44.33 31.2507 44.3948 31.1656 44.3946 31.0178L44.4349 31.0177L44.553 30.684L44.6045 30.6839L44.6044 30.5921L44.6312 30.592C44.669 30.442 44.7628 30.3142 44.9126 30.2043C45.0602 30.0943 45.1966 30.0224 45.3175 29.9864C45.4876 29.9637 45.6262 29.8739 45.7312 29.717L45.9217 29.86L45.8815 29.8869C46.0786 29.9381 46.3025 29.9713 46.5511 29.9843L46.5511 30.0112C46.4996 30.0247 46.4482 30.0404 46.3967 30.0607C46.3475 30.0809 46.296 30.1056 46.2468 30.1348C46.1954 30.1662 46.1641 30.2021 46.1508 30.2402L46.0995 30.3858L45.9495 30.4107L45.9498 30.5898L45.9744 30.5898C45.9611 30.6413 45.9454 30.6727 45.9231 30.6816L45.8562 30.872C45.7579 30.9841 45.7066 31.0872 45.7068 31.179L45.7339 31.311C45.7339 31.3401 45.725 31.3558 45.7071 31.3559L45.6421 31.356L45.6422 31.3963L45.6153 31.3963L45.6424 31.5149C45.5887 31.5262 45.5641 31.5688 45.5643 31.6382L45.5778 31.6785C45.5779 31.7344 45.5265 31.8196 45.426 31.934C45.4261 32.0123 45.3881 32.0527 45.3075 32.0528L45.1577 32.1896L45.2296 32.335L45.1853 32.5769L45.1856 32.7672C45.1588 32.7851 45.1185 32.8031 45.067 32.8211L45.0404 32.9779C45.0406 33.0473 45.0116 33.1078 44.949 33.1549L44.9762 33.3451L44.8914 33.5557L44.7743 34.4335C44.7878 34.5208 44.8282 34.5655 44.8931 34.5654C44.9334 34.5385 44.9714 34.5071 45.0116 34.4667C45.0496 34.4264 45.0921 34.3815 45.1345 34.3299C45.1792 34.2761 45.215 34.2313 45.244 34.191C45.2708 34.1506 45.3334 34.1013 45.4296 34.0406L45.5277 33.8502L45.6464 33.8499C45.6732 33.7962 45.6843 33.7491 45.6842 33.7044C45.7379 33.6528 45.7646 33.5878 45.7645 33.5139C45.939 33.4756 46.0531 33.3769 46.1043 33.2178L46.1423 33.2178C46.1868 33.061 46.2762 32.9489 46.4127 32.8837C46.4686 32.8836 46.5111 32.8634 46.5357 32.8208C46.5625 32.7805 46.6228 32.7065 46.7189 32.6011L46.7188 32.5093L46.7456 32.5093L46.7455 32.4242C46.9467 32.2627 47.0585 32.1819 47.0787 32.1863L47.0786 32.1147L47.1053 32.0229L47.1769 32.0227C47.1567 31.9914 47.1455 31.9713 47.1455 31.9579C47.1454 31.9041 47.1856 31.8459 47.2683 31.7808L47.4407 31.7806C47.4516 31.6059 47.5879 31.4422 47.8451 31.2941L47.872 31.3209L47.8719 31.2537L47.8986 31.1753L47.9367 31.2021C47.9678 31.07 47.9991 30.9983 48.0326 30.9825C48.0639 30.9668 48.093 30.9601 48.1132 30.96C48.1266 30.96 48.149 30.9667 48.1804 30.9845C48.1891 30.8703 48.2249 30.8143 48.2898 30.8142C48.3256 30.8141 48.3772 30.8409 48.4489 30.8923L48.5004 30.8922C48.6571 30.892 48.7513 30.9724 48.7829 31.1357C48.9754 31.1444 49.1009 31.2001 49.157 31.3052C49.2154 31.4104 49.2424 31.4865 49.2425 31.5335C49.2426 31.6051 49.2136 31.6634 49.151 31.7105L49.1198 31.8046C49.1199 31.874 49.1469 31.9456 49.2053 32.0194L49.2167 32.1827L49.1921 32.1828C49.1744 32.2791 49.1208 32.3777 49.0292 32.4786L49.0943 32.5703L49.0678 32.8143L49.1217 32.9307C49.122 33.0762 49.1624 33.1478 49.2452 33.1476C49.3124 33.1475 49.3504 33.1071 49.3637 33.0288L49.4351 32.9055C49.6005 32.7373 49.7122 32.605 49.7703 32.5042L49.9135 32.4771L50.0116 32.262L50.1301 32.1812C50.2174 32.1385 50.2665 32.0713 50.2798 31.9795C50.3805 31.9569 50.4789 31.8739 50.5749 31.7282C50.6709 31.5848 50.7559 31.5107 50.8298 31.5061L50.87 31.4658C50.9079 31.3694 50.9346 31.3202 50.9481 31.3157L50.9884 31.329C51.0041 31.329 51.013 31.3155 51.013 31.2887L51.1382 31.2235C51.2613 31.2233 51.3418 31.1493 51.3796 31.0059C51.4848 30.9923 51.5542 30.9609 51.5899 30.9138L51.6615 30.8868L51.7399 30.9136C51.8944 30.9133 51.9975 30.9848 52.0492 31.1302L52.1947 31.1031L52.3855 31.3848L52.3857 31.5281C52.4825 31.8123 52.5456 32.0383 52.5749 32.2039L52.6287 32.2038C52.62 32.3494 52.5799 32.477 52.5107 32.5913L52.6027 32.7098L52.5113 32.9249C52.5563 33.0883 52.5767 33.227 52.5769 33.3457C52.5771 33.4845 52.5571 33.5786 52.5124 33.6279L52.54 34.0286L52.578 34.0285L52.5268 34.192L52.4552 34.219L52.4554 34.2974C52.4557 34.481 52.4962 34.6331 52.5793 34.7561C52.6069 35.2016 52.6923 35.4253 52.8379 35.4251C52.8849 35.425 53.01 35.3039 53.2111 35.0617L53.3745 35.0369L53.4257 34.8845L53.5442 34.7925L53.5173 34.7545L53.8526 34.4584L54.0425 34.2163L54.094 34.2162L54.2458 33.9585C54.2705 33.9853 54.2974 33.9987 54.3242 33.9987C54.3936 33.9986 54.4607 33.9268 54.5276 33.7812L54.5522 33.7811C54.5701 33.7811 54.5791 33.7766 54.5791 33.7677L54.579 33.7542L54.8482 34.0358L54.757 34.4301Z" fill="#441700"/>
<path fill-rule="evenodd" clip-rule="evenodd" d="M59.1589 26.8732L59.1186 26.8733L58.8777 27.3931L58.8508 27.3663C58.8508 27.4133 58.8285 27.4559 58.786 27.4918L58.7861 27.5164C58.6901 27.671 58.5694 27.7809 58.424 27.8528L58.3724 27.8261L58.3725 27.8775C58.2023 27.8577 58.0702 27.8198 57.9761 27.7708C57.882 27.7217 57.8124 27.6389 57.7652 27.5226C57.7202 27.4063 57.673 27.2855 57.6303 27.1579C57.695 27.066 57.7509 27.0122 57.7934 26.9942L57.8468 26.8173L58.0616 26.6982L58.1798 26.4428L58.3967 26.3238L58.3968 26.3641L58.5133 26.4154C58.5446 26.3974 58.5647 26.384 58.5759 26.3727C58.5871 26.3615 58.6027 26.3481 58.6229 26.3324C58.643 26.3189 58.6945 26.3009 58.7773 26.2806C58.8601 26.2603 58.9227 26.2378 58.9674 26.2109L59.039 26.1727L59.0905 26.1726L59.1893 26.3224L59.1896 26.5329L59.2168 26.7231L59.1589 26.8732ZM58.2139 30.7121L58.187 30.7122L58.1361 31.0525L58.1877 31.0927L58.0963 31.3347L58.0694 31.2899L58.0695 31.3885C58.0698 31.581 57.9896 31.7647 57.8287 31.9396L57.8801 31.9395L57.8804 32.0582L57.8557 32.0582L57.8817 32.8238L57.8303 32.9157L57.8574 33.041L57.7597 33.5203L57.7911 33.5203C57.7912 33.6076 57.7713 33.733 57.7268 33.8942L57.6689 34.0712L57.5897 34.9445C57.5742 35.0318 57.5654 35.0811 57.5654 35.0945C57.5655 35.1728 57.5992 35.2131 57.6708 35.213C57.7536 35.2129 57.8454 35.1791 57.946 35.114L58.3709 34.8245C58.4893 34.6787 58.5743 34.607 58.6257 34.6069L58.666 34.6068C58.7399 34.5731 58.8092 34.5125 58.8762 34.4296C58.941 34.3466 58.9901 34.2995 59.0259 34.2861C59.0907 34.1673 59.151 34.109 59.2025 34.1089C59.207 34.1089 59.2249 34.1133 59.2563 34.12C59.2854 34.1289 59.366 34.1444 59.4981 34.1666L59.5499 34.3501C59.55 34.4508 59.5167 34.5651 59.4475 34.695C59.3761 34.8228 59.3203 34.9303 59.2802 35.0155C59.2378 35.1006 59.1461 35.1702 59.0007 35.2241L59.0007 35.2689L58.9089 35.2422L58.909 35.334L58.8508 35.3341C58.8376 35.4528 58.7772 35.5201 58.6676 35.5381L58.6676 35.5784L58.4908 35.5787L58.4908 35.6055L58.4259 35.6057L58.247 35.7224L58.1955 35.7225L58.1039 35.848L57.8353 35.8888C57.8086 35.9403 57.7683 35.9672 57.7101 35.9673L57.377 36.2097L57.377 36.2634L57.2136 36.2368L57.2584 36.3017L57.0414 36.3558L57.0414 36.3871L56.9496 36.3872L56.9498 36.479L56.8514 36.5464L56.8267 36.5464L56.8268 36.571C56.7689 36.7323 56.6884 36.8153 56.5832 36.8155L56.4913 36.7888C56.4396 36.6276 56.3498 36.4644 56.2219 36.3034C56.2574 36.1645 56.2752 36.0615 56.2751 35.9944L56.2209 35.7258L56.2206 35.5825C56.2204 35.4459 56.2336 35.3071 56.2602 35.1615L56.298 34.9913L56.298 34.9578L56.2867 34.9578C56.2778 34.9578 56.2733 34.9556 56.2733 34.9466C56.2733 34.9376 56.2933 34.866 56.3334 34.7361C56.3757 34.6039 56.3956 34.4337 56.3952 34.2233C56.3951 34.1718 56.3772 34.1405 56.3368 34.1316L56.4216 33.9546L56.4203 33.162L56.5251 32.9313C56.5608 32.8618 56.5941 32.723 56.6296 32.5192C56.6855 32.4832 56.719 32.4496 56.728 32.4205L56.6741 32.3422L56.7276 32.21C56.658 32.0736 56.575 32.0066 56.4832 32.0067L56.1765 32.0072C56.1408 32.0431 56.1229 32.0812 56.123 32.126L56.0782 32.126C56.056 32.2447 56.0002 32.3165 55.9062 32.3435C55.8862 32.4554 55.8214 32.525 55.7185 32.5453L55.6001 32.7358L55.5733 32.7358C55.5421 32.8321 55.4885 32.8815 55.4101 32.8816C55.3228 32.8818 55.251 32.817 55.1971 32.6917C55.1409 32.5642 55.1139 32.4948 55.1139 32.4814C55.1139 32.4635 55.1228 32.4456 55.1407 32.4231C55.1829 32.2305 55.3192 32.0714 55.5451 31.9434L55.545 31.8896C55.6411 31.7932 55.7395 31.7214 55.8401 31.6742L55.7819 31.6743C55.9699 31.6337 56.0794 31.5372 56.1128 31.3805C56.1438 31.2259 56.2601 31.1474 56.4571 31.147L56.5355 31.1738L56.6988 31.0951L56.6003 31.0954L56.7502 30.9966L56.7905 31.0234L56.9089 30.8777L56.9403 30.9045C56.9938 30.7768 57.1146 30.7139 57.3027 30.7136C57.3452 30.7135 57.3675 30.6955 57.3675 30.662L57.3674 30.5948L57.4189 30.5947L57.3942 30.5701L57.6089 30.4175C57.678 30.2943 57.7899 30.2336 57.9444 30.2334C58.0406 30.2333 58.1235 30.26 58.1952 30.3113C58.2692 30.3649 58.3051 30.4163 58.3052 30.4701C58.3053 30.526 58.2742 30.6068 58.2139 30.7121Z" fill="#441700"/>
</svg>
