<svg width="163" height="58" viewBox="0 0 163 58" fill="none" xmlns="http://www.w3.org/2000/svg">
<path d="M161.953 26.5692C155.772 26.5692 149.799 26.5516 143.772 26.5516C143.772 27.9368 143.706 29.0883 143.786 30.3941C143.922 32.6 144.169 34.797 145.052 36.8616C145.894 38.8292 147.315 39.9807 149.547 40.3424C153.258 40.9468 155.944 40.3557 158.402 37.4175C159.262 36.3896 160.087 35.2734 160.74 34.0823C161.075 33.4691 161.199 33.3852 162.046 33.5705C161.653 35.0176 160.956 36.3014 160.06 37.4837C157.334 41.1057 153.562 42.235 149.234 41.988C146.574 41.8336 144.103 41.0615 141.95 39.4513C139.003 37.2455 137.411 34.2367 136.939 30.6324C136.555 27.6766 136.74 24.7472 137.931 21.9767C139.758 17.715 143.04 15.2842 147.606 14.6004C149.786 14.2739 151.978 14.3048 154.109 14.918C158.102 16.0695 160.418 18.8312 161.384 22.784C161.657 23.9134 161.754 25.2678 161.953 26.5648V26.5692ZM154.855 25.5722C154.855 24.9546 154.877 24.3722 154.855 23.7943C154.771 21.7958 154.594 19.8106 153.765 17.9533C153.218 16.7312 152.45 15.6768 151.052 15.4033C149.018 15.0019 147.249 15.5268 146.027 17.2827C144.293 19.7709 144.015 22.6561 143.825 25.5766H154.855V25.5722Z" fill="white" stroke="white" stroke-width="0.5" stroke-miterlimit="10"/>
<path d="M105.312 15.7163C103.807 15.7163 102.537 15.7163 101.143 15.7163C100.49 15.7163 100.45 15.6633 100.578 14.9619H110.164V15.7163C109.101 15.7163 108.872 15.7163 107.844 15.6854C107.412 15.6721 107.231 16.0207 107.05 16.4354C101.875 28.5542 90.4443 54.2256 90.0914 54.9006C89.5708 55.8977 88.3708 56.5682 87.2635 56.7712C86.5047 56.9123 85.7062 56.855 84.9871 56.6829C83.6768 56.3697 82.7018 55.6109 82.3621 54.2256C81.868 52.2271 82.9754 50.2904 84.8944 49.7875C86.9414 49.2537 88.8738 50.3522 89.4517 52.3727C89.4782 52.4654 89.4517 52.3816 89.5046 52.5624C90.1752 51.0007 90.8634 49.6949 91.5031 48.2081C92.306 46.3332 92.9413 44.4847 93.7266 42.5965C93.8104 42.398 93.9736 42.0583 93.881 41.8686C89.6943 33.2923 85.4856 24.7249 81.2945 16.1486C81.1269 15.8089 80.9284 15.6898 80.5578 15.7074C79.9313 15.7383 79.3049 15.7074 78.6828 15.7207C78.3608 15.7251 78.127 15.6986 78.127 15.2795C78.127 14.8648 78.3519 14.8339 78.6784 14.8339C82.3798 14.8383 86.0768 14.8339 89.7781 14.8339C90.6561 14.8339 91.5296 14.8472 92.4075 14.8295C92.7648 14.8207 92.8751 14.953 92.8707 15.2971C92.8707 15.6324 92.7251 15.7207 92.4163 15.7207C91.0222 15.7118 89.6282 15.7207 88.115 15.7207C91.1943 22.0249 94.203 28.1924 97.3044 34.5408C100.022 28.2013 102.612 22.0426 105.32 15.7207L105.312 15.7163Z" fill="white" stroke="white" stroke-width="0.5" stroke-miterlimit="10"/>
<path d="M65.7257 35.8946C65.5712 36.3225 65.386 37.1166 65.2007 37.5313C64.0889 40.0107 62.3375 41.2371 59.5979 41.7842C59.0552 41.8945 58.4949 41.9518 57.9391 41.9695C56.6862 42.0092 55.4377 41.9298 54.2289 41.5504C51.7627 40.7695 50.0378 39.2254 49.451 36.649C48.9172 34.2976 49.279 32.0873 50.876 30.1859C51.8377 29.0389 53.0951 28.3021 54.4715 27.7639C55.945 27.186 57.4847 26.8683 59.0596 26.7492C59.8978 26.6875 60.7405 26.6566 61.5787 26.6434C62.8448 26.6257 64.111 26.6389 65.3815 26.6345C65.7345 26.6345 65.7389 26.6345 65.7345 26.2816C65.7301 25.1037 65.7609 23.9214 65.7124 22.7479C65.6462 21.1994 65.4962 19.6553 64.9183 18.1994C64.5345 17.2377 63.9566 16.4965 63.0169 15.9716C62.4434 15.6495 61.7684 15.5304 61.1155 15.4951C58.8743 15.3672 56.8891 15.7289 54.9038 16.7612C54.8288 16.8009 54.723 16.8539 54.6083 16.9068C54.9833 16.9421 55.2921 16.9024 55.6097 16.973C57.0744 17.2906 58.1994 18.0671 58.5346 19.5891C58.7817 20.7185 58.5038 22.2714 57.3126 23.1052C55.9406 24.0669 53.7083 24.2037 52.3363 23.0126C51.6613 22.4258 51.326 21.6847 51.2642 20.8111C51.1231 18.7906 52.1245 17.3921 53.77 16.4083C54.9171 15.7245 56.1435 15.1863 57.4582 14.8907C59.4082 14.4584 61.3758 14.326 63.3654 14.4628C64.4463 14.5378 65.5227 14.6613 66.5374 15.0319C68.8535 15.8745 70.4726 17.4186 71.2182 19.8141C71.624 21.1155 71.8093 22.4479 71.8093 23.8111C71.8093 28.5448 71.8093 33.2741 71.8093 38.0078C71.8093 38.6387 71.849 39.2651 72.1755 39.8342C72.3476 40.1342 72.5902 40.3416 72.9255 40.421C73.6666 40.5974 74.3549 40.4783 75.0078 40.068C75.8328 39.5475 76.521 38.9078 76.9489 38.0078C77.0768 37.7431 77.1518 37.7475 77.3327 37.9901C77.6592 38.4225 77.6548 38.4225 77.3548 38.8945C76.1901 40.743 74.4828 41.6915 72.3476 41.9342C71.9946 41.9739 71.6284 41.9342 71.2711 41.9342C70.9005 41.9342 70.5299 41.9783 70.1682 41.9253C69.1094 41.7798 68.0727 41.5459 67.2477 40.7915C66.3212 39.9445 65.8051 38.9034 65.7609 37.6416C65.7433 37.1034 65.7345 36.5608 65.7212 36.0225C65.7212 35.9387 65.7124 35.8549 65.7124 35.7711C65.6992 35.7711 65.7301 35.9078 65.7168 35.9078L65.7257 35.8946ZM65.783 29.9389C65.783 29.9389 65.7565 29.9389 65.7433 29.9389C65.7433 29.1845 65.7433 28.4345 65.7433 27.6801C65.7433 27.4992 65.708 27.4066 65.4962 27.411C64.2124 27.433 62.9287 27.411 61.6449 27.4683C59.8052 27.5566 58.3582 28.4345 57.3347 29.93C56.2318 31.5403 55.7994 33.3491 56.02 35.299C56.1259 36.2431 56.32 37.1652 56.7259 38.0343C57.5332 39.7416 58.8435 40.421 60.6875 40.0416C62.1478 39.7416 63.2286 38.8548 64.0492 37.6637C64.9757 36.3181 65.4654 34.7961 65.6109 33.177C65.7036 32.1006 65.7256 31.0197 65.783 29.9433V29.9389Z" fill="white" stroke="white" stroke-width="0.5" stroke-miterlimit="10"/>
<path d="M6.53919 3.14721C6.53919 16.0204 6.59654 28.3996 6.59654 41.2287H9.72882C9.88764 41.961 9.85676 42.0051 9.18177 42.0051C6.6583 42.0051 4.13924 42.0051 1.61577 42.0051C0.958436 42.0051 0.909908 41.9389 1.09079 41.2331H4.46571C4.46571 28.1746 4.78776 15.1734 4.78776 2.11488C3.42897 2.11488 2.48928 2.11929 1.12167 2.11929V1.32519C1.25402 1.31637 4.27159 1.31637 4.38188 1.31637C7.72151 1.32519 7.79651 1.33402 11.1361 1.33402C11.4494 1.33402 11.5244 1.49725 11.6126 1.73107C14.0214 8.22944 16.4301 14.7278 18.8389 21.2262C20.3036 25.179 21.3447 28.4481 22.8138 32.3965C22.8623 32.5333 22.902 32.648 22.9947 32.873C23.2594 32.1274 30.1725 11.4014 33.6268 1.49284C33.7327 1.18843 33.8915 1.22814 34.2974 1.23255C37.4032 1.26343 41.3737 1.3252 44.4795 1.33843C44.6956 1.33843 44.9074 1.33843 45.1589 1.33843V2.06194H41.4222V41.2198H45.1633V41.9654H30.9136V41.2375H35.1885C35.1885 28.3201 35.3826 15.491 35.3826 2.51193C35.1356 3.20015 34.9062 3.84866 34.69 4.4663C30.3357 16.991 26.3034 29.4539 21.9447 41.9742C21.8432 42.2654 21.3182 42.5742 20.8241 42.583C20.3521 42.5919 20.2374 42.3536 20.1095 42.0051C17.8419 35.7935 15.5699 29.5819 13.2979 23.3703C10.8494 16.6734 9.04501 10.0162 6.59654 3.31927C6.5436 3.16927 6.62742 3.38103 6.53036 3.1428L6.53919 3.14721Z" fill="white" stroke="white" stroke-width="0.5" stroke-miterlimit="10"/>
<path d="M127.754 16.4216C128.349 15.7951 128.918 15.2393 129.536 14.5996C129.633 14.4981 129.748 14.3922 129.871 14.3525C130.057 14.2952 130.22 14.3349 130.22 14.5952C130.22 16.9907 130.22 19.3862 130.215 21.7817C130.215 21.8215 130.198 21.8656 130.185 21.9229H129.721C129.571 21.3715 129.443 20.82 129.271 20.2818C128.751 18.6671 127.917 17.2598 126.532 16.2319C125.442 15.4245 124.198 15.0099 122.852 14.9657C122.102 14.9437 121.33 14.9834 120.598 15.1422C118.485 15.6142 117.302 17.2951 117.395 19.4612C117.457 20.9215 118.211 21.9715 119.358 22.7082C120.505 23.4449 121.736 24.067 122.967 24.6714C124.551 25.4523 126.188 26.1272 127.648 27.1419C129.117 28.1566 130.365 29.3874 130.948 31.0992C131.892 33.8829 131.724 36.5785 129.924 39.0137C128.905 40.3901 127.493 41.2239 125.852 41.643C123.752 42.1769 121.652 42.1636 119.592 41.4489C118.414 41.0386 117.36 40.399 116.486 39.446C116.111 39.874 115.78 40.2534 115.414 40.6681C115.123 40.9989 114.854 41.3475 114.541 41.6519C114.426 41.7622 114.223 41.7798 114.055 41.8372C114.02 41.7092 113.95 41.5857 113.95 41.4578C113.945 39.1505 113.945 36.8432 113.95 34.5314C113.95 34.4212 113.958 34.3153 113.967 34.2138C114.426 34.1123 114.43 34.1168 114.545 34.5359C114.991 36.1726 115.56 37.2799 116.716 38.5549C117.973 39.9401 119.632 40.7916 121.485 41.0078C122.751 41.1533 124.048 41.1931 125.274 40.796C127.427 40.099 128.667 38.5946 128.764 36.3314C128.843 34.4785 128.071 33.1109 126.624 32.0609C125.38 31.1565 123.982 30.5433 122.588 29.9213C121.057 29.2375 119.508 28.5757 118.105 27.636C116.879 26.8155 115.802 25.8405 115.176 24.4905C113.38 20.6127 114.558 15.7598 119.672 14.4363C121.966 13.8452 123.933 13.7746 125.993 15.0407C126.439 15.3143 127.304 16.0731 127.749 16.4128L127.754 16.4216Z" fill="white" stroke="white" stroke-width="0.5" stroke-miterlimit="10"/>
<path d="M84.7182 38.4491C84.8594 38.4491 84.8594 38.2285 84.7182 38.2285C84.577 38.2285 84.577 38.4491 84.7182 38.4491Z" fill="#1D1D1B"/>
</svg>
