<svg width="512" height="511" viewBox="0 0 512 511" fill="none" xmlns="http://www.w3.org/2000/svg">
<path d="M242.399 292.5C247.799 287.1 257.1 287.1 262.5 292.5L339.5 369.5C353.7 383.7 372.6 391.5 392.6 391.5H407.7L310.6 488.6C280.3 518.1 231.099 518.1 200.799 488.6L103.299 391.2H112.6C132.6 391.2 151.499 383.4 165.699 369.2L242.399 292.5ZM262.5 218.899C256.1 224.399 247.899 224.499 242.399 218.899L165.699 142.199C151.499 127.099 132.6 120.199 112.6 120.199H103.299L200.699 22.7595C231.099 -7.5865 280.3 -7.5865 310.6 22.7595L407.799 119.9H392.6C372.6 119.9 353.7 127.699 339.5 141.899L262.5 218.899ZM112.6 142.699C126.4 142.699 139.099 148.3 149.699 158.1L226.399 234.799C233.599 241.099 242.999 245.6 252.499 245.6C261.899 245.6 271.3 241.099 278.5 234.799L355.5 157.799C365.3 148.099 378.8 142.499 392.6 142.499H430.299L488.6 200.799C518.9 231.099 518.9 280.3 488.6 310.6L430.299 368.9H392.6C378.8 368.9 365.3 363.3 355.5 353.5L278.5 276.5C264.6 262.6 240.299 262.6 226.399 276.6L149.699 353.2C139.099 363 126.4 368.6 112.6 368.6H80.7795L22.7595 310.6C-7.5865 280.3 -7.5865 231.099 22.7595 200.799L80.7795 142.699H112.6Z" fill="white"/>
</svg>
