<svg width="24" height="24" viewBox="0 0 24 24" fill="none" xmlns="http://www.w3.org/2000/svg">
<path d="M3.0617 7.2447C3.10847 6.22271 3.26849 5.56357 3.4849 5.00408L3.48781 4.99635C3.70226 4.42701 4.03821 3.91125 4.47227 3.48495L4.47836 3.47897L4.48434 3.47288C4.91099 3.03826 5.42694 2.70265 5.99578 2.48876L6.00559 2.48501C6.56381 2.26792 7.22165 2.1085 8.2445 2.06173M3.0617 7.2447C3.01253 8.33665 3 8.67514 3 11.5063C3 14.3382 3.01184 14.6759 3.06167 15.7681M3.0617 7.2447L3.0617 7.52014M3.4887 18.0168C3.70258 18.5857 4.0382 19.1016 4.47282 19.5282L4.4789 19.5342L4.48487 19.5403C4.91119 19.9744 5.42697 20.3103 5.99631 20.5248L6.00481 20.528C6.56354 20.7447 7.2217 20.9042 8.2445 20.9509M3.4887 18.0168L3.48495 18.007C3.26786 17.4488 3.10843 16.7909 3.06167 15.7681M3.4887 18.0168L3.47588 17.9493M3.06167 15.7681L3.07842 15.8563M3.06167 15.7681L3.06167 15.492M3.47588 17.9493L3.07842 15.8563M3.47588 17.9493C3.30707 17.5033 3.13325 16.8811 3.07842 15.8563M3.47588 17.9493C3.4818 17.9649 3.48771 17.9804 3.49362 17.9956C3.70769 18.5727 4.04689 19.0952 4.48682 19.5257C4.91712 19.9655 5.43947 20.3047 6.01639 20.5187C6.47938 20.6991 7.13176 20.8875 8.24434 20.9385C9.36713 20.9896 9.71402 21.0001 12.5063 21.0001C15.2985 21.0001 15.6457 20.9896 16.7685 20.9385C17.8825 20.8875 18.5341 20.698 18.9954 20.519C19.5727 20.305 20.0953 19.9658 20.5257 19.5257C20.9655 19.0954 21.3046 18.5731 21.5187 17.9962C21.699 17.5332 21.8875 16.8808 21.9385 15.7682C21.9896 14.6455 22 14.2979 22 11.5063C22 8.71478 21.9896 8.3669 21.9385 7.24411C21.8871 6.12433 21.6959 5.47175 21.5162 5.00998C21.2811 4.40329 20.9831 3.94443 20.525 3.48633C20.0678 3.03005 19.6102 2.73185 19.0031 2.49661C18.5396 2.31543 17.8866 2.12537 16.7685 2.07413C16.6712 2.0697 16.5798 2.06558 16.4921 2.06175M3.07842 15.8563C3.07687 15.8274 3.07542 15.7981 3.07406 15.7685C3.06964 15.6712 3.06551 15.5797 3.06167 15.492M8.2445 2.06173C9.33671 2.0119 9.67508 2.00006 12.5063 2.00006C15.3374 2.00006 15.6757 2.01258 16.7676 2.06175M8.2445 2.06173L8.52065 2.06173M16.7676 2.06175L16.4921 2.06175M16.7676 2.06175C17.7898 2.1085 18.449 2.2685 19.0085 2.48493L19.0162 2.48787C19.5856 2.70232 20.1013 3.03827 20.5276 3.47233L20.5336 3.47836L20.5396 3.48428C20.9737 3.91062 21.3096 4.42652 21.5239 4.99602L21.5276 5.00565C21.7447 5.56387 21.9041 6.22171 21.9509 7.24456M8.52065 2.06173L16.4921 2.06175M8.52065 2.06173C9.44551 2.02129 9.95669 2.01259 12.5063 2.01259C15.0561 2.01259 15.5671 2.0213 16.4921 2.06175M8.52065 2.06173C8.43287 2.06557 8.34137 2.0697 8.24405 2.07413C7.13007 2.12518 6.47846 2.3147 6.01711 2.49364C5.4377 2.70843 4.91331 3.04942 4.48195 3.49193C4.02813 3.94762 3.73108 4.40428 3.49658 5.00946C3.31539 5.47287 3.1253 6.1262 3.07405 7.2444C3.06964 7.34141 3.06552 7.43263 3.0617 7.52014M21.9509 15.7681C21.9041 16.7909 21.7447 17.4491 21.528 18.0078L21.5247 18.0163C21.3103 18.5856 20.9743 19.1014 20.5403 19.5277L20.5342 19.5337L20.5282 19.5398C20.1015 19.9744 19.5856 20.31 19.0168 20.5239L19.0069 20.5276C18.4487 20.7447 17.7909 20.9042 16.768 20.9509M3.06167 15.492C3.02123 14.5671 3.01253 14.0559 3.01253 11.5063C3.01253 8.95597 3.02123 8.4455 3.0617 7.52014M3.06167 15.492L3.0617 7.52014M10.8155 15.5882C11.3516 15.8102 11.9261 15.9245 12.5063 15.9245C13.678 15.9245 14.8018 15.459 15.6304 14.6304C16.4589 13.8019 16.9244 12.6781 16.9244 11.5063C16.9244 10.3346 16.4589 9.21078 15.6304 8.38221C14.8018 7.55365 13.678 7.08817 12.5063 7.08817C11.9261 7.08817 11.3515 7.20245 10.8155 7.42448C10.2795 7.64651 9.79242 7.97195 9.38216 8.38221C8.9719 8.79248 8.64646 9.27953 8.42442 9.81557C8.20239 10.3516 8.08811 10.9261 8.08811 11.5063C8.08811 12.0865 8.20239 12.661 8.42442 13.1971C8.64646 13.7331 8.9719 14.2202 9.38216 14.6304C9.79242 15.0407 10.2795 15.3661 10.8155 15.5882ZM9.37232 8.37237C10.2035 7.54119 11.3308 7.07424 12.5063 7.07424C13.6817 7.07424 14.809 7.54119 15.6402 8.37237C16.4714 9.20355 16.9383 10.3309 16.9383 11.5063C16.9383 12.6818 16.4714 13.8091 15.6402 14.6403C14.809 15.4715 13.6817 15.9384 12.5063 15.9384C11.3308 15.9384 10.2035 15.4715 9.37232 14.6403C8.54114 13.8091 8.07419 12.6818 8.07419 11.5063C8.07419 10.3309 8.54114 9.20355 9.37232 8.37237ZM19.434 6.04235C19.434 6.37879 19.3004 6.70145 19.0625 6.93935C18.8246 7.17725 18.5019 7.3109 18.1655 7.3109C17.829 7.3109 17.5064 7.17725 17.2685 6.93935C17.0306 6.70145 16.8969 6.37879 16.8969 6.04235C16.8969 5.70592 17.0306 5.38326 17.2685 5.14536C17.5064 4.90746 17.829 4.77381 18.1655 4.77381C18.5019 4.77381 18.8246 4.90746 19.0625 5.14536C19.3004 5.38326 19.434 5.70592 19.434 6.04235Z" stroke="white" stroke-width="2.07951" stroke-linejoin="round"/>
</svg>
