<svg width="24" height="24" viewBox="0 0 24 24" fill="none" xmlns="http://www.w3.org/2000/svg">
<path d="M16.8217 5.13447C16.0886 4.294 15.6479 3.19811 15.6479 2.00006H14.7293M16.8217 5.13447C17.4898 5.90069 18.3944 6.45795 19.4245 6.67614C19.7446 6.7458 20.0786 6.78299 20.4266 6.78299V10.2192C18.645 10.2192 16.9932 9.64807 15.6477 8.68217V15.6708C15.6477 19.1628 12.8082 22.0001 9.32386 22.0001C7.50043 22.0001 5.85334 21.2199 4.69806 19.9801C3.64486 18.8471 2.99994 17.3332 2.99994 15.6708C2.99994 12.2299 5.75592 9.42515 9.17073 9.35085M16.8217 5.13447C16.8039 5.12283 16.7861 5.11107 16.7684 5.0992M6.9855 17.3518C6.64217 16.8781 6.43802 16.2977 6.43802 15.6662C6.43802 14.0734 7.73249 12.7778 9.32394 12.7778C9.62087 12.7778 9.9085 12.8289 10.1776 12.9125V9.40198C9.89921 9.36479 9.61622 9.34155 9.32394 9.34155C9.27287 9.34155 8.86177 9.3689 8.81073 9.3689M14.7244 2.00006H12.2097L12.2051 15.7776C12.1494 17.3193 10.8781 18.5591 9.32386 18.5591C8.35878 18.5591 7.50971 18.0808 6.98079 17.3564" stroke="white" stroke-width="2.07951" stroke-linejoin="round"/>
</svg>
