<svg width="65" height="37" viewBox="0 0 65 37" fill="none" xmlns="http://www.w3.org/2000/svg">
<path d="M13.6756 0.85994C12.7679 1.42332 12.3344 2.25275 12.1583 3.77076L12.0093 5.03837H9.66551C7.34887 5.03837 7.30822 5.03837 6.98308 5.42961C6.54955 5.91474 6.53601 6.58767 6.95598 7.04151L7.26758 7.3858H15.5046H23.728L24.0531 6.99456C24.4596 6.54073 24.4866 5.99299 24.1344 5.4922L23.877 5.11662L18.9863 5.06967L14.0956 5.02272V4.50628C14.0956 3.70816 14.353 3.01958 14.6781 2.92568C14.8407 2.87873 22.1429 2.86308 30.8947 2.87873L46.8132 2.92568L46.8538 3.47342C46.8809 3.92725 44.9165 26.3531 44.6455 28.6379L44.5643 29.2952L35.4738 29.2639L26.3833 29.2169L26.2343 28.497C25.733 26.2279 24.0531 24.6473 21.9532 24.4908C20.2056 24.3499 18.8237 24.9759 17.5232 26.5095C16.8864 27.2607 16.1277 28.6848 16.1277 29.123C16.1277 29.2482 15.491 29.2952 14.0956 29.2952C12.3344 29.2952 12.0499 29.2639 11.9686 29.0448C11.9009 28.81 12.3886 22.5659 12.5376 21.6738C12.6054 21.3452 12.6595 21.3295 15.193 21.2826C17.7264 21.2357 17.7806 21.22 18.038 20.8601C18.3767 20.3906 18.3631 19.7333 18.0244 19.3108L17.7399 18.9665H9.16425H0.588588L0.304087 19.3264C-0.183628 19.9211 -0.0752471 20.7036 0.561493 21.0792C0.873089 21.2669 1.79433 21.3139 5.76379 21.3139H10.6003L10.519 21.7364C10.4784 21.9868 10.3158 23.7083 10.1532 25.5862C9.82809 29.2639 9.85518 29.749 10.4648 30.6254C11.0203 31.4548 11.6435 31.6426 13.8517 31.6426H15.8568L15.9381 32.0651C16.2632 33.7709 17.2522 35.242 18.5257 35.9619C19.9888 36.7913 21.9803 36.6505 23.5383 35.6019C24.3647 35.0386 25.5298 33.5362 25.8956 32.519L26.2072 31.6426H37.5466H48.886L49.035 32.3781C49.3872 34.0213 50.593 35.5706 51.9342 36.1653C53.4515 36.807 55.443 36.5096 56.8249 35.4141C57.6919 34.7256 58.5996 33.4892 58.9519 32.5033L59.2635 31.6426H60.6182C61.6614 31.6426 62.122 31.5644 62.5285 31.3453C63.1516 31.001 63.8697 30.1872 64.0729 29.5769C64.2896 28.9196 65.0754 20.0932 64.9941 19.2795C64.818 17.5893 64.4793 16.9633 61.8917 13.6143C58.4777 9.1855 58.0848 8.73166 57.1229 8.21523L56.2965 7.77704L52.4761 7.73009L48.6421 7.68314V7.33885C48.6421 7.15106 48.7098 6.14949 48.8047 5.11662C48.886 4.08375 48.9131 2.97263 48.8589 2.64399C48.7505 1.93976 48.0731 1.00079 47.4635 0.719093C47.0977 0.5313 44.0901 0.5 30.6508 0.5H14.2717L13.6756 0.85994ZM56.3236 10.3436C56.7436 10.5627 57.5971 11.5642 59.7105 14.2716C61.255 16.2747 62.5962 18.0588 62.691 18.2466C63.0297 18.9352 63.0297 19.968 62.6504 24.2247C62.1762 29.5299 62.2846 29.2952 60.5776 29.2952H59.3854L59.2906 28.6379C59.2364 28.2779 59.0332 27.6363 58.8435 27.2294C57.5565 24.5064 54.305 23.63 51.7987 25.3358C50.7149 26.0714 49.4821 27.7772 49.2518 28.8726C49.1569 29.2952 49.1569 29.2952 47.8699 29.2952H46.5829L46.6642 28.544C46.7183 28.1371 47.0841 24.0682 47.4906 19.5142C47.897 14.9445 48.2763 10.9539 48.317 10.6253L48.3983 10.0462H52.0697C55.3888 10.0462 55.8088 10.0775 56.3236 10.3436ZM22.888 27.1042C25.164 28.4344 24.7305 32.3938 22.1565 33.8335C21.4926 34.2091 20.2462 34.2874 19.5824 33.99C18.6341 33.5675 17.9025 32.2686 17.8889 31.001C17.8889 29.2326 18.8508 27.6833 20.3953 26.9947C21.0591 26.6973 22.3055 26.7443 22.888 27.1042ZM55.9578 27.1355C57.1907 27.8711 57.719 29.5143 57.2449 31.1888C56.9468 32.206 56.0527 33.364 55.1856 33.8335C54.4541 34.2248 53.2348 34.2874 52.5574 33.9431C52.0019 33.6614 51.2839 32.832 51.0942 32.2216C50.9046 31.6426 50.9046 30.4063 51.1078 29.749C51.46 28.5127 52.5032 27.292 53.4651 26.9477C54.2373 26.6817 55.3211 26.7756 55.9578 27.1355Z" fill="#000000"/>
<path d="M50.2678 12.4717C49.9968 12.8473 49.5227 18.4499 49.7259 18.7316C49.8749 18.935 50.7149 18.9663 55.1585 18.9663C59.2905 18.9663 60.4285 18.9194 60.4285 18.7629C60.4285 18.669 59.4531 17.3075 58.2473 15.7582C55.4836 12.1588 55.6056 12.237 52.6251 12.237C50.8368 12.237 50.4033 12.284 50.2678 12.4717Z" fill="#000000"/>
<path d="M2.91881 10.046C2.58012 10.4842 2.60721 11.2354 2.973 11.6579L3.27105 12.0022H12.0093H20.7611L21.0862 11.564C21.4791 11.0319 21.4926 10.6876 21.1269 10.1399L20.8559 9.73301H12.0093C3.31169 9.73301 3.16267 9.73301 2.91881 10.046Z" fill="#000000"/>
<path d="M5.19478 14.4282C4.55804 14.7255 4.43611 15.6489 4.95092 16.2279L5.27607 16.6191H15.2471H25.2182L25.5434 16.2279C25.9769 15.7428 25.9769 15.1481 25.5434 14.6629L25.2182 14.2717L15.3555 14.2874C9.93646 14.2874 5.35735 14.35 5.19478 14.4282Z" fill="#000000"/>
</svg>
