<svg width="39" height="49" viewBox="0 0 39 49" fill="none" xmlns="http://www.w3.org/2000/svg">
<g clip-path="url(#clip0_4813_527)">
<path fill-rule="evenodd" clip-rule="evenodd" d="M17.4678 0.0570243C12.3326 0.43783 7.36127 1.56339 2.38184 3.4724C0.810161 4.07497 0.561433 4.23909 0.253779 4.87632L0 5.40199L0.0367732 13.4461C0.0764705 22.1283 0.0831161 22.267 0.59156 25.0847C1.92018 32.4482 5.73794 39.2752 11.1765 44.0132C12.3136 45.0038 14.2534 46.4092 15.5627 47.191C16.861 47.9663 18.9128 48.9393 19.3656 48.9945C19.833 49.0514 20.7615 48.6709 22.5628 47.6842C31.2815 42.9087 37.3107 33.8275 38.682 23.4054C38.9546 21.333 39 19.7965 39 12.6303V5.37796L38.7563 4.86435C38.5351 4.39803 38.4514 4.31856 37.8481 4.00105C36.0273 3.04314 31.1751 1.56713 27.3589 0.810305C24.1499 0.173938 20.0757 -0.136394 17.4678 0.0570243ZM23.4933 4.05936C26.958 4.49206 30.6247 5.35699 33.9492 6.52593L35.4113 7.03993V14.0737C35.4113 21.6589 35.3983 21.9366 34.9231 24.5109C33.5871 31.748 29.6731 38.1516 24.0249 42.3415C22.9722 43.1224 21.2236 44.2006 20.2485 44.6701L19.5058 45.0277L18.7631 44.6701C17.8915 44.2505 16.1284 43.1789 15.2242 42.5194C9.42562 38.2897 5.44331 31.8495 4.08855 24.5109C3.61334 21.9368 3.60031 21.6586 3.60031 14.0783V7.04931L4.3535 6.77106C8.34591 5.29628 13.0967 4.23909 17.3349 3.88231C18.2999 3.80102 22.3598 3.91774 23.4933 4.05936ZM27.7465 14.6686C27.5095 14.7456 26.2932 16.0007 22.5861 19.9938L17.7357 25.2184L15.5416 22.8689C13.2865 20.4542 13.0914 20.2934 12.417 20.2934C11.4976 20.2934 10.6448 21.2149 10.6448 22.2085C10.6448 22.961 10.7508 23.103 13.7344 26.3476C15.3193 28.0713 16.7499 29.5501 16.9135 29.6339C17.3621 29.864 17.776 29.9069 18.2429 29.7718C18.6349 29.6584 19.0485 29.2356 24.2236 23.6576C27.2814 20.3618 29.8461 17.5219 29.9231 17.3467C30.267 16.5634 30.1465 15.7055 29.6114 15.1272C29.1277 14.6045 28.454 14.4389 27.7465 14.6686Z" fill="#4D0120"/>
</g>
<defs>
<clipPath id="clip0_4813_527">
<rect width="39" height="49" fill="white"/>
</clipPath>
</defs>
</svg>
