<svg width="40" height="40" viewBox="0 0 40 40" fill="none" xmlns="http://www.w3.org/2000/svg">
<path d="M18.9625 22.9086C19.3849 22.4857 20.1124 22.4857 20.5349 22.9086L26.5584 28.9392C27.6693 30.0514 29.1478 30.6623 30.7124 30.6623H31.8936L24.2976 38.2672C21.9273 40.5776 18.0785 40.5776 15.7082 38.2672L8.08094 30.6388H8.80846C10.373 30.6388 11.8515 30.0279 12.9624 28.9157L18.9625 22.9086ZM20.5349 17.1442C20.0342 17.575 19.3927 17.5828 18.9625 17.1442L12.9624 11.1371C11.8515 9.95445 10.373 9.41404 8.80846 9.41404H8.08094L15.7004 1.78253C18.0785 -0.594176 21.9273 -0.594176 24.2976 1.78253L31.9014 9.39054H30.7124C29.1478 9.39054 27.6693 10.0014 26.5584 11.1136L20.5349 17.1442ZM8.80846 11.1762C9.88801 11.1762 10.8815 11.6148 11.7107 12.3824L17.7108 18.3895C18.2741 18.8829 19.0094 19.2354 19.7526 19.2354C20.4879 19.2354 21.2233 18.8829 21.7865 18.3895L27.8101 12.3589C28.5767 11.5992 29.6328 11.1606 30.7124 11.1606H33.6616L38.2223 15.7266C40.5926 18.0997 40.5926 21.9531 38.2223 24.3262L33.6616 28.8922H30.7124C29.6328 28.8922 28.5767 28.4537 27.8101 27.6861L21.7865 21.6555C20.6991 20.5668 18.7982 20.5668 17.7108 21.6633L11.7107 27.6626C10.8815 28.4302 9.88801 28.8688 8.80846 28.8688H6.31924L1.78044 24.3262C-0.593478 21.9531 -0.593478 18.0997 1.78044 15.7266L6.31924 11.1762H8.80846Z" fill="#000000"/>
</svg>
