<svg width="33" height="44" viewBox="0 0 33 44" fill="none" xmlns="http://www.w3.org/2000/svg">
<g clip-path="url(#clip0_4813_520)">
<path fill-rule="evenodd" clip-rule="evenodd" d="M15.3932 0.022372C9.87641 0.720921 5.82265 5.01062 5.46529 10.5281L5.40817 11.4097H6.68482H7.96139L8.01332 10.5711C8.14288 8.48057 8.99279 6.60083 10.4944 5.08348C11.6133 3.95286 12.8605 3.22765 14.4419 2.7881C15.3887 2.52488 17.611 2.52488 18.5578 2.7881C20.1392 3.22765 21.3864 3.95286 22.5052 5.08348C24.0069 6.60083 24.8568 8.48057 24.9863 10.5711L25.0383 11.4097H26.3151H27.592L27.5356 10.5412C27.2025 5.40424 23.5605 1.1818 18.5974 0.178408C17.9789 0.0533384 15.9348 -0.046184 15.3932 0.022372ZM2.90202 14.1229C1.45571 14.5164 0.370079 15.6704 0.0694945 17.1337C0.00667055 17.4392 -0.0126536 20.2188 0.00786208 25.9991C0.0407212 35.2731 0.00982022 34.7125 0.584429 36.459C1.73177 39.9465 4.59903 42.6566 8.16033 43.6196C9.56246 43.9988 10.1625 44.0237 17.0532 43.9884C24.1518 43.9521 23.8507 43.9728 25.5406 43.4051C28.7461 42.3284 31.3497 39.6977 32.4152 36.459C32.9886 34.7161 32.9581 35.2706 32.9918 26.0009C33.0128 20.1989 32.9938 17.4434 32.9305 17.1355C32.6257 15.6515 31.5371 14.5071 30.0612 14.1186C29.35 13.9314 3.59061 13.9355 2.90202 14.1229ZM10.0302 22.0462C11.4511 22.4435 12.4381 23.5559 12.6154 24.9599C12.6597 25.3117 12.6341 25.4634 12.478 25.772C12.2051 26.3119 11.9068 26.5058 11.3496 26.5058C10.6402 26.5058 10.2512 26.1201 10.027 25.1941C9.91191 24.7187 9.49904 24.4842 8.77793 24.4848C7.67706 24.4854 7.26581 25.3495 8.10261 25.9035C8.21166 25.9758 8.76422 26.205 9.33049 26.4129C10.7359 26.9291 11.3146 27.2582 11.8567 27.85C12.4473 28.4946 12.6767 29.0911 12.6764 29.9814C12.6761 30.7835 12.5085 31.3728 12.1264 31.916C10.2036 34.6487 5.25153 33.4101 5.22548 30.1901C5.21986 29.4961 5.35896 29.2164 5.85594 28.9223C6.21841 28.7079 6.83056 28.7145 7.12672 28.9362C7.44739 29.1761 7.73172 29.6336 7.73172 29.9096C7.73172 30.2828 8.0918 30.6447 8.58103 30.7633C9.43962 30.9714 10.1153 30.6495 10.1153 30.0324C10.1153 29.5789 9.8393 29.3744 8.60955 28.9167C6.60267 28.1699 5.91655 27.6827 5.41123 26.6457C5.15977 26.1294 5.13584 26.0108 5.14112 25.3034C5.14921 24.2116 5.36713 23.6753 6.10655 22.9283C6.52631 22.504 6.79293 22.314 7.16536 22.1736C8.13982 21.8064 9.03059 21.7668 10.0302 22.0462ZM18.1147 22.0465C18.3708 22.1187 18.7319 22.2559 18.9172 22.3514C19.4262 22.6138 20.1327 23.3351 20.3791 23.8438C20.6362 24.3751 20.7646 25.1775 20.656 25.5751C20.4765 26.232 19.8343 26.6353 19.1691 26.5092C18.7154 26.4232 18.2391 25.9073 18.1583 25.4144C18.0721 24.8891 17.997 24.7813 17.6072 24.6238C16.8451 24.3157 15.9106 24.5332 15.7826 25.0486C15.64 25.6229 15.9668 25.8939 17.4362 26.4198C18.7492 26.8897 19.4078 27.265 19.9414 27.8474C20.5998 28.566 20.7833 29.1012 20.7347 30.1616C20.6883 31.1768 20.5068 31.622 19.8596 32.3076C17.7977 34.4919 13.6351 33.287 13.3003 30.4089C13.2029 29.5718 13.5432 28.9918 14.2466 28.7955C14.9605 28.5963 15.8188 29.2187 15.8188 29.9357C15.8188 30.2847 16.1913 30.6477 16.6681 30.7633C17.5267 30.9714 18.2024 30.6495 18.2024 30.0324C18.2024 29.5789 17.9264 29.3744 16.6966 28.9167C15.2656 28.3842 14.6858 28.077 14.1557 27.5705C12.9513 26.4195 12.8676 24.3988 13.9709 23.1081C14.913 22.006 16.5146 21.5957 18.1147 22.0465ZM23.5646 22.0635C23.7383 22.1576 23.9385 22.3749 24.0527 22.5931C24.2461 22.9625 24.2464 22.9701 24.2464 26.9064V30.8497H25.5885C27.1595 30.8497 27.3906 30.9253 27.7197 31.5469C28.0438 32.159 27.8869 32.7505 27.2784 33.2099C27.0576 33.3767 26.9128 33.3886 24.8575 33.4108C22.4083 33.4372 22.2643 33.4094 21.8858 32.8369L21.6926 32.5446L21.6929 27.6758C21.6932 22.9693 21.6989 22.7977 21.8624 22.5267C22.2166 21.9397 22.9618 21.7368 23.5646 22.0635Z" fill="#4D0120"/>
</g>
<defs>
<clipPath id="clip0_4813_520">
<rect width="33" height="44" fill="white"/>
</clipPath>
</defs>
</svg>
