<svg width="16" height="16" viewBox="0 0 16 16" fill="none" xmlns="http://www.w3.org/2000/svg">
<path d="M14.1891 5.51452L10.2219 4.93796L8.44844 1.34264C8.4 1.24421 8.32031 1.16452 8.22187 1.11608C7.975 0.994207 7.675 1.09577 7.55156 1.34264L5.77812 4.93796L1.81094 5.51452C1.70156 5.53015 1.60156 5.58171 1.525 5.65983C1.43244 5.75497 1.38143 5.88296 1.38319 6.01568C1.38495 6.1484 1.43933 6.27499 1.53437 6.36765L4.40469 9.16608L3.72656 13.1176C3.71066 13.2096 3.72083 13.3041 3.75592 13.3905C3.79102 13.477 3.84963 13.5518 3.92511 13.6067C4.00059 13.6615 4.08992 13.6941 4.18297 13.7007C4.27602 13.7073 4.36907 13.6878 4.45156 13.6442L8 11.7786L11.5484 13.6442C11.6453 13.6958 11.7578 13.713 11.8656 13.6942C12.1375 13.6473 12.3203 13.3895 12.2734 13.1176L11.5953 9.16608L14.4656 6.36765C14.5437 6.29108 14.5953 6.19108 14.6109 6.08171C14.6531 5.80827 14.4625 5.55515 14.1891 5.51452Z" fill="#FEA92E"/>
</svg>
