<svg width="42" height="40" viewBox="0 0 42 40" fill="none" xmlns="http://www.w3.org/2000/svg">
<path d="M21.042 1.50879L21.043 1.50977C21.0509 1.51366 21.0586 1.51852 21.0645 1.52441L21.0781 1.54395L21.0791 1.54492L26.707 12.9248C26.9258 13.3671 27.3486 13.6743 27.8369 13.7451L40.4229 15.5684V15.5693C40.4532 15.5739 40.4739 15.5876 40.4873 15.6055C40.4939 15.6144 40.4975 15.623 40.499 15.6289V15.6514L40.4961 15.668C40.4944 15.6799 40.4883 15.6955 40.4717 15.7119L31.3652 24.5674C31.0106 24.9122 30.8487 25.41 30.9326 25.8975L33.085 38.4043V38.4062C33.0896 38.4335 33.0775 38.4661 33.0488 38.4844L33.0146 38.4971H33.0127C33.0033 38.4987 32.9931 38.4995 32.9834 38.498L32.9658 38.4922L32.958 38.4883L21.6963 32.584C21.3146 32.3839 20.8685 32.3587 20.4707 32.5088L20.3037 32.584L9.04199 38.4883L9.03906 38.4902C9.02598 38.4971 9.00969 38.5011 8.99219 38.5L8.94727 38.4834L8.91992 38.4492V38.4482L8.91504 38.4062L8.91602 38.4043L11.0674 25.8975C11.1513 25.41 10.9894 24.9122 10.6348 24.5674L1.52539 15.71C1.51715 15.7019 1.5111 15.6925 1.50684 15.6826L1.5 15.6514C1.49977 15.6318 1.50692 15.6124 1.52051 15.5967C1.5286 15.5884 1.5367 15.5823 1.54492 15.5781L1.56934 15.5703L1.57324 15.5693L14.1641 13.7451C14.6522 13.6742 15.0743 13.367 15.293 12.9248L20.917 1.55176L20.918 1.55273C20.929 1.53074 20.9463 1.51485 20.9727 1.50586C20.9859 1.5014 20.9984 1.49924 21.0098 1.5L21.042 1.50879Z" stroke="#C2854E" stroke-width="3" stroke-linejoin="round"/>
</svg>
