<svg width="16" height="16" viewBox="0 0 16 16" fill="none" xmlns="http://www.w3.org/2000/svg">
<g clip-path="url(#clip0_512_3165)">
<g clip-path="url(#clip1_512_3165)">
<path d="M14.1891 5.45007L10.2219 4.8735L8.44847 1.27819C8.40003 1.17975 8.32034 1.10007 8.2219 1.05163C7.97503 0.929754 7.67503 1.03132 7.55159 1.27819L5.77815 4.8735L1.81097 5.45007C1.70159 5.46569 1.60159 5.51725 1.52503 5.59538C1.43247 5.69051 1.38146 5.8185 1.38322 5.95123C1.38498 6.08395 1.43936 6.21054 1.5344 6.30319L4.40472 9.10163L3.72659 13.0532C3.71069 13.1451 3.72086 13.2397 3.75595 13.3261C3.79105 13.4125 3.84966 13.4874 3.92514 13.5422C4.00062 13.597 4.08995 13.6296 4.183 13.6362C4.27605 13.6429 4.3691 13.6233 4.45159 13.5798L8.00003 11.7141L11.5485 13.5798C11.6453 13.6313 11.7578 13.6485 11.8657 13.6298C12.1375 13.5829 12.3203 13.3251 12.2735 13.0532L11.5953 9.10163L14.4657 6.30319C14.5438 6.22663 14.5953 6.12663 14.611 6.01725C14.6532 5.74382 14.4625 5.49069 14.1891 5.45007ZM10.3875 8.70788L10.9516 11.9938L8.00003 10.4438L5.04847 11.9954L5.61253 8.70944L3.22503 6.38132L6.52503 5.90163L8.00003 2.91257L9.47503 5.90163L12.775 6.38132L10.3875 8.70788Z" fill="#FEA92E"/>
</g>
</g>
<defs>
<clipPath id="clip0_512_3165">
<rect width="16" height="16" fill="white"/>
</clipPath>
<clipPath id="clip1_512_3165">
<rect width="16" height="16" fill="white"/>
</clipPath>
</defs>
</svg>
