<svg width="14" height="13" viewBox="0 0 14 13" fill="none" xmlns="http://www.w3.org/2000/svg">
<path d="M4.426 3.89218L6.23179 0.246052C6.26647 0.172703 6.32066 0.110752 6.38819 0.0672512C6.45573 0.0237507 6.53389 0.000449367 6.61378 0C6.76509 0 6.9164 0.0817366 6.99825 0.246052L8.80404 3.89218L12.8538 4.47866C12.9548 4.49483 13.0472 4.546 13.1154 4.62352C13.1836 4.70104 13.2235 4.80017 13.2284 4.9042C13.2341 4.97345 13.2245 5.04314 13.2002 5.10806C13.1758 5.17299 13.1374 5.23148 13.0878 5.27917L10.1749 8.10709L10.8612 12.0928C10.9257 12.4661 10.5635 12.7585 10.2444 12.5916L6.61378 10.6906L2.98485 12.5916C2.94689 12.6117 2.9062 12.6259 2.86413 12.6338C2.58136 12.6843 2.31181 12.4197 2.36803 12.0928L3.0543 8.10709L0.142223 5.27917C0.0969506 5.23552 0.0609654 5.18285 0.0365011 5.12444C0.0120369 5.06602 -0.00038414 5.0031 9.05128e-06 4.93959C5.20568e-05 4.84979 0.0243684 4.76174 0.0702891 4.68511C0.102865 4.62955 0.147266 4.58216 0.200215 4.54643C0.253164 4.5107 0.31331 4.48754 0.376214 4.47866L4.426 3.89218ZM6.61378 9.71317C6.68052 9.71289 6.74634 9.72908 6.8056 9.76036L9.85328 11.3563L9.27946 8.02198C9.26591 7.9453 9.27104 7.8664 9.2944 7.7922C9.31775 7.71801 9.35862 7.65079 9.41341 7.59645L11.817 5.26232L8.46669 4.77696C8.39732 4.76628 8.33152 4.73862 8.27492 4.69636C8.21833 4.65409 8.17264 4.59848 8.14175 4.53427L6.61461 1.45188L6.61378 1.45441V9.71233V9.71317Z" fill="#C2854E"/>
</svg>
