<svg width="16" height="16" viewBox="0 0 16 16" fill="none" xmlns="http://www.w3.org/2000/svg">
<g clip-path="url(#clip0_4864_135)">
<path d="M5.426 4.88949L7.23179 1.24337C7.26647 1.17002 7.32066 1.10807 7.38819 1.06457C7.45573 1.02107 7.53389 0.997764 7.61378 0.997314C7.76509 0.997314 7.9164 1.07905 7.99825 1.24337L9.80404 4.88949L13.8538 5.47597C13.9548 5.49215 14.0472 5.54331 14.1154 5.62083C14.1836 5.69835 14.2235 5.79749 14.2284 5.90151C14.2341 5.97076 14.2245 6.04045 14.2002 6.10538C14.1758 6.1703 14.1374 6.22879 14.0878 6.27649L11.1749 9.1044L11.8612 13.0901C11.9257 13.4634 11.5635 13.7558 11.2444 13.589L7.61378 11.688L3.98485 13.589C3.94689 13.609 3.9062 13.6232 3.86413 13.6311C3.58136 13.6817 3.31181 13.4171 3.36803 13.0901L4.0543 9.1044L1.14222 6.27649C1.09695 6.23284 1.06097 6.18017 1.0365 6.12175C1.01204 6.06333 0.999616 6.00041 1.00001 5.9369C1.00005 5.84711 1.02437 5.75906 1.07029 5.68242C1.10286 5.62687 1.14727 5.57947 1.20021 5.54374C1.25316 5.50801 1.31331 5.48485 1.37621 5.47597L5.426 4.88949ZM7.61378 10.7105C7.68052 10.7102 7.74634 10.7264 7.8056 10.7577L10.8533 12.3536L10.2795 9.0193C10.2659 8.94261 10.271 8.86371 10.2944 8.78952C10.3178 8.71532 10.3586 8.64811 10.4134 8.59376L12.817 6.25963L9.46669 5.77427C9.39732 5.76359 9.33152 5.73594 9.27492 5.69367C9.21833 5.65141 9.17264 5.59579 9.14175 5.53159L7.61461 2.44919L7.61378 2.45172V10.7096V10.7105Z" fill="#FEA92E"/>
</g>
<defs>
<clipPath id="clip0_4864_135">
<rect width="16" height="16" fill="white" transform="translate(0 -0.00268555)"/>
</clipPath>
</defs>
</svg>
