<svg width="105" height="95" viewBox="0 0 105 95" fill="none" xmlns="http://www.w3.org/2000/svg">
<path d="M61.9996 71.6668H42.6664M100.666 52.3336C88.7906 46.4032 71.5357 42.667 52.333 42.667C33.1303 42.667 15.8754 46.4032 4 52.3336M28.1665 62.0002C24.3209 62.0002 20.6328 63.5279 17.9135 66.2471C15.1943 68.9664 13.6666 72.6545 13.6666 76.5001C13.6666 80.3457 15.1943 84.0338 17.9135 86.7531C20.6328 89.4723 24.3209 91 28.1665 91C32.0121 91 35.7002 89.4723 38.4195 86.7531C41.1387 84.0338 42.6664 80.3457 42.6664 76.5001C42.6664 72.6545 41.1387 68.9664 38.4195 66.2471C35.7002 63.5279 32.0121 62.0002 28.1665 62.0002ZM76.4995 62.0002C72.6539 62.0002 68.9658 63.5279 66.2465 66.2471C63.5272 68.9664 61.9996 72.6545 61.9996 76.5001C61.9996 80.3457 63.5272 84.0338 66.2465 86.7531C68.9658 89.4723 72.6539 91 76.4995 91C80.3451 91 84.0332 89.4723 86.7525 86.7531C89.4717 84.0338 90.9994 80.3457 90.9994 76.5001C90.9994 72.6545 89.4717 68.9664 86.7525 66.2471C84.0332 63.5279 80.3451 62.0002 76.4995 62.0002Z" stroke="black" stroke-width="7.24995" stroke-linecap="round" stroke-linejoin="round"/>
<path d="M86.1662 45.0837L81.0525 12.2752C80.0134 5.58595 72.7441 1.96097 66.8765 5.20411L63.904 6.84744C60.363 8.80924 56.3813 9.83851 52.3331 9.83851C48.2849 9.83851 44.3032 8.80924 40.7622 6.84744L37.7897 5.20411C31.9221 1.96581 24.6528 5.59078 23.6136 12.2752L18.5 45.0837" stroke="black" stroke-width="7.24995" stroke-linecap="round" stroke-linejoin="round"/>
</svg>
