<svg width="105" height="95" viewBox="0 0 105 95" fill="none" xmlns="http://www.w3.org/2000/svg">
<path d="M61.9996 71.667H42.6664M100.666 52.3338C88.7906 46.4033 71.5357 42.6672 52.333 42.6672C33.1303 42.6672 15.8754 46.4033 4 52.3338M28.1665 62.0004C24.3209 62.0004 20.6328 63.5281 17.9135 66.2473C15.1943 68.9666 13.6666 72.6547 13.6666 76.5003C13.6666 80.3459 15.1943 84.034 17.9135 86.7533C20.6328 89.4725 24.3209 91.0002 28.1665 91.0002C32.0121 91.0002 35.7002 89.4725 38.4195 86.7533C41.1387 84.034 42.6664 80.3459 42.6664 76.5003C42.6664 72.6547 41.1387 68.9666 38.4195 66.2473C35.7002 63.5281 32.0121 62.0004 28.1665 62.0004ZM76.4995 62.0004C72.6539 62.0004 68.9658 63.5281 66.2465 66.2473C63.5272 68.9666 61.9996 72.6547 61.9996 76.5003C61.9996 80.3459 63.5272 84.034 66.2465 86.7533C68.9658 89.4725 72.6539 91.0002 76.4995 91.0002C80.3451 91.0002 84.0332 89.4725 86.7525 86.7533C89.4717 84.034 90.9994 80.3459 90.9994 76.5003C90.9994 72.6547 89.4717 68.9666 86.7525 66.2473C84.0332 63.5281 80.3451 62.0004 76.4995 62.0004Z" stroke="#697A8D" stroke-width="7.24995" stroke-linecap="round" stroke-linejoin="round"/>
<path d="M86.1662 45.0838L81.0525 12.2754C80.0134 5.58613 72.7441 1.96115 66.8765 5.2043L63.904 6.84762C60.363 8.80942 56.3813 9.83869 52.3331 9.83869C48.2849 9.83869 44.3032 8.80942 40.7622 6.84762L37.7897 5.2043C31.9221 1.96599 24.6528 5.59096 23.6136 12.2754L18.5 45.0838" stroke="#697A8D" stroke-width="7.24995" stroke-linecap="round" stroke-linejoin="round"/>
</svg>
