<svg width="20" height="26" viewBox="0 0 20 26" fill="none" xmlns="http://www.w3.org/2000/svg">
<path fill-rule="evenodd" clip-rule="evenodd" d="M10 3.71428C9.03558 3.71428 8.11065 4.10561 7.4287 4.80217C6.74675 5.49874 6.36364 6.44348 6.36364 7.42857V9.28572H13.6364V7.42857C13.6364 6.44348 13.2532 5.49874 12.5713 4.80217C11.8893 4.10561 10.9644 3.71428 10 3.71428ZM2.72727 7.42857V9.28572C2.00396 9.28572 1.31026 9.57922 0.7988 10.1016C0.287337 10.624 0 11.3326 0 12.0714V23.2143C0 23.9531 0.287337 24.6616 0.7988 25.1841C1.31026 25.7065 2.00396 26 2.72727 26H17.2727C17.996 26 18.6897 25.7065 19.2012 25.1841C19.7127 24.6616 20 23.9531 20 23.2143V12.0714C20 11.3326 19.7127 10.624 19.2012 10.1016C18.6897 9.57922 17.996 9.28572 17.2727 9.28572V7.42857C17.2727 5.45839 16.5065 3.5689 15.1426 2.17578C13.7787 0.782653 11.9288 0 10 0C8.07115 0 6.22131 0.782653 4.85741 2.17578C3.4935 3.5689 2.72727 5.45839 2.72727 7.42857ZM10 19.9643C10.2985 19.9643 10.594 19.9042 10.8697 19.7876C11.1455 19.6709 11.396 19.4999 11.6071 19.2843C11.8181 19.0688 11.9855 18.8129 12.0997 18.5312C12.2139 18.2496 12.2727 17.9477 12.2727 17.6428C12.2727 17.338 12.2139 17.0361 12.0997 16.7545C11.9855 16.4728 11.8181 16.2169 11.6071 16.0013C11.396 15.7858 11.1455 15.6148 10.8697 15.4981C10.594 15.3815 10.2985 15.3214 10 15.3214C9.39724 15.3214 8.81916 15.566 8.39294 16.0013C7.96672 16.4367 7.72727 17.0272 7.72727 17.6428C7.72727 18.2585 7.96672 18.849 8.39294 19.2843C8.81916 19.7197 9.39724 19.9643 10 19.9643Z" fill="#848489"/>
</svg>
