<svg width="20" height="27" viewBox="0 0 20 27" fill="none" xmlns="http://www.w3.org/2000/svg">
<path fill-rule="evenodd" clip-rule="evenodd" d="M10 4.66106C9.03558 4.66106 8.11065 5.05239 7.4287 5.74895C6.74675 6.44552 6.36364 7.39026 6.36364 8.37535V10.2325H13.6364V8.37535C13.6364 7.39026 13.2532 6.44552 12.5713 5.74895C11.8893 5.05239 10.9644 4.66106 10 4.66106ZM2.72727 8.37535V10.2325C2.00396 10.2325 1.31026 10.526 0.7988 11.0484C0.287337 11.5708 0 12.2794 0 13.0182V24.1611C0 24.8999 0.287337 25.6084 0.7988 26.1309C1.31026 26.6533 2.00396 26.9468 2.72727 26.9468H17.2727C17.996 26.9468 18.6897 26.6533 19.2012 26.1309C19.7127 25.6084 20 24.8999 20 24.1611V13.0182C20 12.2794 19.7127 11.5708 19.2012 11.0484C18.6897 10.526 17.996 10.2325 17.2727 10.2325V8.37535C17.2727 6.40517 16.5065 4.51568 15.1426 3.12256C13.7787 1.72943 11.9288 0.946777 10 0.946777C8.07115 0.946777 6.22131 1.72943 4.85741 3.12256C3.4935 4.51568 2.72727 6.40517 2.72727 8.37535ZM10 20.9111C10.2985 20.9111 10.594 20.851 10.8697 20.7344C11.1455 20.6177 11.396 20.4467 11.6071 20.2311C11.8181 20.0156 11.9855 19.7597 12.0997 19.478C12.2139 19.1964 12.2727 18.8945 12.2727 18.5896C12.2727 18.2848 12.2139 17.9829 12.0997 17.7013C11.9855 17.4196 11.8181 17.1637 11.6071 16.9481C11.396 16.7326 11.1455 16.5616 10.8697 16.4449C10.594 16.3283 10.2985 16.2682 10 16.2682C9.39724 16.2682 8.81916 16.5128 8.39294 16.9481C7.96672 17.3835 7.72727 17.974 7.72727 18.5896C7.72727 19.2053 7.96672 19.7958 8.39294 20.2311C8.81916 20.6665 9.39724 20.9111 10 20.9111Z" fill="black"/>
</svg>
