<svg width="14" height="15" viewBox="0 0 14 15" fill="none" xmlns="http://www.w3.org/2000/svg">
<path fill-rule="evenodd" clip-rule="evenodd" d="M2 1.94678C1.44772 1.94678 1 2.39449 1 2.94678V6.8815L3.23231 5.33227L5.65205 8.81893L12.9979 2.88127C12.9641 2.35952 12.5303 1.94678 12 1.94678H2ZM1 12.9468V7.37747L4.10757 11.8552L5.02771 13.1811L6.28282 12.1666L13 6.73705V12.9468C13 13.4991 12.5523 13.9468 12 13.9468H2C1.44772 13.9468 1 13.4991 1 12.9468ZM14 12.9468V10V5.92874V4V2.94678C14 1.84221 13.1046 0.946777 12 0.946777H2C0.89543 0.946777 0 1.84221 0 2.94678V12.9468C0 14.0513 0.89543 14.9468 2 14.9468H12C13.1046 14.9468 14 14.0513 14 12.9468Z" fill="#666666"/>
</svg>
