<?xml version="1.0" encoding="UTF-8"?>
<svg id="Camada_2" data-name="Camada 2" xmlns="http://www.w3.org/2000/svg" viewBox="0 0 436.06 436.06">
  <defs>
    <style>
      .cls-1 {
        fill: #fff;
        stroke-width: .5px;
      }

      .cls-1, .cls-2 {
        stroke: #fff;
        stroke-miterlimit: 10;
      }

      .cls-2 {
        fill: #e22e5a;
      }
    </style>
  </defs>
  <g id="Camada_1-2" data-name="Camada 1">
    <g id="Camada_1-2" data-name="Camada 1-2">
      <circle class="cls-2" cx="218.03" cy="218.03" r="217.53"/>
      <path class="cls-1" d="m129.03,117.11c0,69.26.31,135.86.31,204.88h16.85c.85,3.94.69,4.18-2.94,4.18h-40.71c-3.54,0-3.8-.36-2.82-4.15h18.16c0-70.26,1.73-140.2,1.73-210.46-7.31,0-12.37.02-19.72.02v-4.27c.71-.05,16.95-.05,17.54-.05,17.97.05,18.37.09,36.34.09,1.69,0,2.09.88,2.56,2.14,12.96,34.96,25.92,69.92,38.88,104.89,7.88,21.27,13.48,38.85,21.39,60.1.26.74.47,1.35.97,2.56,1.42-4.01,38.62-115.52,57.2-168.83.57-1.64,1.42-1.42,3.61-1.4,16.71.17,38.07.5,54.78.57h3.66v3.89h-20.1v210.67h20.13v4.01h-76.67v-3.92h23c0-69.5,1.04-138.52,1.04-208.35-1.33,3.7-2.56,7.19-3.73,10.51-23.43,67.38-45.12,134.44-68.57,201.8-.55,1.57-3.37,3.23-6.03,3.28-2.54.05-3.16-1.23-3.85-3.11-12.2-33.42-24.42-66.84-36.65-100.26-13.17-36.03-22.88-71.85-36.05-107.88-.28-.81.17.33-.36-.95l.05.02Z"/>
    </g>
  </g>
</svg>