<svg width="45" height="40" viewBox="0 0 45 40" fill="none" xmlns="http://www.w3.org/2000/svg">
<path d="M18 27L24 29C24 29 39 26 41 26C43 26 43 28 41 30C39 32 32 38 26 38C20 38 16 35 12 35C8 35 2 35 2 35" stroke="black" stroke-width="4" stroke-linecap="round" stroke-linejoin="round"/>
<path d="M2 23C4 21 8 18 12 18C16 18 25.5 22 27 24C28.5 26 24 29 24 29" stroke="black" stroke-width="4" stroke-linecap="round" stroke-linejoin="round"/>
<path d="M14 12V4C14 2.89543 14.8954 2 16 2H40C41.1046 2 42 2.89543 42 4V20" stroke="black" stroke-width="4" stroke-linecap="round" stroke-linejoin="round"/>
<path d="M33 2H23V11H33V2Z" fill="#441700" stroke="black" stroke-width="4" stroke-linecap="round" stroke-linejoin="round"/>
</svg>
