<svg width="28" height="27" viewBox="0 0 28 27" fill="none" xmlns="http://www.w3.org/2000/svg">
<path d="M20.4166 19.3333C19.128 19.3333 18.0833 20.378 18.0833 21.6667C18.0833 22.9553 19.128 24 20.4166 24C21.7053 24 22.75 22.9553 22.75 21.6667C22.75 20.378 21.7053 19.3333 20.4166 19.3333ZM20.4166 19.3333H9.17847C8.59788 19.3333 8.10564 18.9064 8.02353 18.3317L7.66663 15.8333M2.91663 3H5.83329L6.16663 5.33333M6.16663 5.33333H6.41663H25.0833L21.5833 15.8333H8.16663H7.66663M6.16663 5.33333L7.66663 15.8333M13.4166 21.6667C13.4166 22.9553 12.372 24 11.0833 24C9.79463 24 8.74996 22.9553 8.74996 21.6667C8.74996 20.378 9.79463 19.3333 11.0833 19.3333C12.372 19.3333 13.4166 20.378 13.4166 21.6667Z" stroke="#6B4020" stroke-linecap="round" stroke-linejoin="round"/>
</svg>
