<svg width="48" height="43" viewBox="0 0 48 43" fill="none" xmlns="http://www.w3.org/2000/svg">
<path d="M24 12.9552V23.6361M24 30.0447H24.0217M17.1684 40H30.8316C32.29 40 33.0194 40 33.6722 39.7909C34.2499 39.6059 34.7817 39.3032 35.2329 38.9024C35.7432 38.4498 36.1077 37.8271 36.8369 36.5821L43.6685 24.9179C44.3979 23.6727 44.7624 23.0502 44.9052 22.3882C45.0316 21.8027 45.0316 21.1973 44.9052 20.6117C44.7624 19.9497 44.3979 19.3272 43.6685 18.0821L36.8369 6.4179C36.1077 5.17276 35.7432 4.55017 35.2329 4.09738C34.7817 3.69676 34.2499 3.39413 33.6722 3.20911C33.0194 3 32.29 3 30.8316 3H17.1684C15.7099 3 14.9806 3 14.3277 3.20911C13.7501 3.39413 13.2183 3.69676 12.767 4.09738C12.2568 4.55017 11.8922 5.17276 11.1629 6.4179L4.33135 18.0821C3.60208 19.3272 3.23743 19.9497 3.09471 20.6117C2.96843 21.1973 2.96843 21.8027 3.09471 22.3882C3.23743 23.0502 3.60208 23.6727 4.33135 24.9179L11.1629 36.5821C11.8922 37.8271 12.2568 38.4498 12.767 38.9024C13.2183 39.3032 13.7501 39.6059 14.3277 39.7909C14.9806 40 15.7099 40 17.1684 40Z" stroke="#8592A3" stroke-width="5" stroke-linecap="round" stroke-linejoin="round"/>
</svg>
