<svg width="49" height="44" viewBox="0 0 49 44" fill="none" xmlns="http://www.w3.org/2000/svg">
<path fill-rule="evenodd" clip-rule="evenodd" d="M37 6H7C6.44772 6 6 6.44772 6 7V10H14H38V7C38 6.44772 37.5523 6 37 6ZM7 44H11H37H44C46.7614 44 49 41.7614 49 39V15C49 12.2386 46.7614 10 44 10V7C44 3.13401 40.866 0 37 0H7C3.13401 0 0 3.13401 0 7V37C0 40.866 3.13401 44 7 44ZM44 15H6V38H44V15Z" fill="#8592A3"/>
<mask id="path-2-outside-1_965_5168" maskUnits="userSpaceOnUse" x="34" y="22" width="6" height="10" fill="black">
<rect fill="white" x="34" y="22" width="6" height="10"/>
<path d="M35 22H39V32H35V22Z"/>
</mask>
<path d="M35 22H39V32H35V22Z" fill="#8592A3"/>
<path d="M38 22V32H40V22H38ZM36 32V22H34V32H36Z" fill="#C3C6D2" mask="url(#path-2-outside-1_965_5168)"/>
</svg>
