<svg width="19" height="20" viewBox="0 0 19 20" fill="none" xmlns="http://www.w3.org/2000/svg">
<path fill-rule="evenodd" clip-rule="evenodd" d="M18.1627 1.33475C17.0464 0.221098 15.2365 0.221099 14.1201 1.33475L9.47635 5.96736L4.87987 1.38194C3.76353 0.268289 1.95359 0.268289 0.837254 1.38194C-0.279083 2.49559 -0.279082 4.30118 0.837255 5.41483L5.43373 10.0002L0.837253 14.5857C-0.279084 15.6993 -0.279084 17.5049 0.837253 18.6186C1.95359 19.7322 3.76353 19.7322 4.87987 18.6186L9.47635 14.0331L14.1201 18.6657C15.2365 19.7794 17.0464 19.7794 18.1627 18.6657C19.2791 17.5521 19.2791 15.7465 18.1627 14.6329L13.519 10.0002L18.1627 5.36764C19.2791 4.25399 19.2791 2.4484 18.1627 1.33475Z" fill="#FF5A00"/>
</svg>
