<svg width="115" height="42" viewBox="0 0 115 42" fill="none" xmlns="http://www.w3.org/2000/svg">
<path d="M113.57 19.0045C109.245 19.0045 105.067 18.992 100.851 18.992C100.851 19.989 100.804 20.8186 100.86 21.7587C100.955 23.3468 101.129 24.9295 101.746 26.4161C102.336 27.8324 103.329 28.662 104.891 28.922C107.486 29.3573 109.366 28.9318 111.085 26.8158C111.686 26.0761 112.263 25.2722 112.721 24.415C112.956 23.9734 113.042 23.9129 113.634 24.0464C113.36 25.088 112.872 26.0129 112.245 26.8639C110.338 29.4721 107.699 30.2848 104.672 30.1077C102.81 29.9964 101.082 29.44 99.5763 28.281C97.5146 26.6921 96.401 24.5254 96.0698 21.9305C95.8019 19.8021 95.9319 17.6923 96.7642 15.6974C98.0425 12.629 100.338 10.878 103.533 10.3857C105.057 10.1507 106.591 10.173 108.082 10.6145C110.875 11.4442 112.495 13.4328 113.171 16.2787C113.362 17.0923 113.43 18.0671 113.57 19.0009V19.0045ZM108.604 18.2896C108.604 17.8446 108.619 17.4253 108.604 17.0096C108.545 15.5701 108.422 14.1405 107.842 12.8035C107.459 11.9231 106.922 11.1646 105.943 10.967C104.52 10.6777 103.283 11.056 102.428 12.321C101.215 14.112 101.021 16.1897 100.887 18.2932H108.604V18.2896Z" fill="black" stroke="black" stroke-width="1.5"/>
<mask id="mask0_17_62" style="mask-type:luminance" maskUnits="userSpaceOnUse" x="89" y="3" width="26" height="34">
<path d="M90.0977 4.54102H114V35.9893H90.0977V4.54102Z" fill="white" stroke="white" stroke-width="1.5"/>
</mask>
<g mask="url(#mask0_17_62)">
<path d="M113.57 19.0045C109.245 19.0045 105.067 18.992 100.851 18.992C100.851 19.989 100.804 20.8186 100.86 21.7587C100.955 23.3468 101.129 24.9295 101.746 26.4161C102.336 27.8324 103.329 28.662 104.891 28.922C107.486 29.3573 109.366 28.9318 111.085 26.8158C111.686 26.0761 112.263 25.2722 112.721 24.415C112.956 23.9734 113.042 23.9129 113.634 24.0464C113.36 25.088 112.872 26.0129 112.245 26.8639C110.338 29.4721 107.699 30.2848 104.672 30.1077C102.81 29.9964 101.082 29.44 99.5763 28.281C97.5146 26.6921 96.401 24.5254 96.0698 21.9305C95.8019 19.8021 95.9319 17.6923 96.7642 15.6974C98.0425 12.629 100.338 10.878 103.533 10.3857C105.057 10.1507 106.591 10.173 108.082 10.6145C110.875 11.4442 112.495 13.4328 113.171 16.2787C113.362 17.0923 113.43 18.0671 113.57 19.0009V19.0045ZM108.604 18.2896C108.604 17.8446 108.619 17.4253 108.604 17.0096C108.545 15.5701 108.422 14.1405 107.842 12.8035C107.459 11.9231 106.922 11.1646 105.943 10.967C104.52 10.6777 103.283 11.056 102.428 12.321C101.215 14.112 101.021 16.1897 100.887 18.2932H108.604V18.2896Z" stroke="black" stroke-width="1.5" stroke-miterlimit="10"/>
</g>
<path d="M73.9456 11.1898C72.8925 11.1898 72.0041 11.1898 71.0284 11.1898C70.5718 11.1898 70.5442 11.1515 70.6341 10.6468H77.3398V11.1898C76.5965 11.1898 76.4354 11.1898 75.717 11.1676C75.4143 11.1578 75.2879 11.4088 75.1615 11.7079C71.5412 20.4343 63.5447 38.9198 63.2972 39.4059C62.9331 40.1242 62.0937 40.6067 61.3192 40.7527C60.7887 40.8551 60.2296 40.8132 59.7267 40.6895C58.8098 40.4643 58.1279 39.9177 57.8903 38.9198C57.5449 37.4813 58.3193 36.0864 59.6617 35.7241C61.094 35.3395 62.4462 36.1309 62.8503 37.5854C62.869 37.6522 62.8503 37.5926 62.8868 37.7225C63.356 36.5982 63.8376 35.6573 64.2853 34.5873C64.847 33.2369 65.2912 31.9061 65.8405 30.5459C65.8992 30.4035 66.0132 30.1587 65.9491 30.0216C63.0195 23.8464 60.0756 17.6766 57.1434 11.5014C57.0268 11.2566 56.8879 11.1711 56.628 11.1836C56.19 11.2058 55.752 11.1836 55.3167 11.1934C55.0915 11.196 54.9277 11.1774 54.9277 10.8756C54.9277 10.5765 55.0853 10.5542 55.3132 10.5542C57.9027 10.5578 60.4887 10.5542 63.0782 10.5542C63.6925 10.5542 64.304 10.564 64.9182 10.5516C65.1675 10.5453 65.2449 10.6406 65.2423 10.888C65.2423 11.1293 65.1399 11.1934 64.9245 11.1934C63.9488 11.1871 62.9732 11.1934 61.9148 11.1934C64.069 15.7324 66.1743 20.1735 68.3436 24.7455C70.2451 20.1806 72.0566 15.7458 73.9518 11.1934L73.9456 11.1898Z" fill="black" stroke="black" stroke-width="1.5"/>
<mask id="mask1_17_62" style="mask-type:luminance" maskUnits="userSpaceOnUse" x="48" y="4" width="36" height="38">
<path d="M49.0786 4.7688H83.0337V41.0196H49.0786V4.7688Z" fill="white" stroke="white" stroke-width="1.5"/>
</mask>
<g mask="url(#mask1_17_62)">
<path d="M73.9456 11.1896C72.8925 11.1896 72.0041 11.1896 71.0284 11.1896C70.5718 11.1896 70.5442 11.1513 70.6341 10.6466H77.3398V11.1896C76.5965 11.1896 76.4354 11.1896 75.717 11.1673C75.4143 11.1575 75.2879 11.4086 75.1615 11.7077C71.5412 20.4341 63.5447 38.9196 63.2972 39.4056C62.9331 40.124 62.0937 40.6065 61.3192 40.7525C60.7887 40.8548 60.2296 40.813 59.7267 40.6893C58.8098 40.4641 58.1279 39.9175 57.8903 38.9196C57.5449 37.4811 58.3193 36.0861 59.6617 35.7238C61.094 35.3393 62.4462 36.1307 62.8503 37.5852C62.869 37.652 62.8503 37.5923 62.8868 37.7223C63.356 36.598 63.8376 35.6571 64.2853 34.5871C64.847 33.2367 65.2912 31.9059 65.8405 30.5457C65.8992 30.4032 66.0131 30.1584 65.9491 30.0213C63.0195 23.8462 60.0756 17.6763 57.1434 11.5011C57.0268 11.2563 56.8879 11.1709 56.628 11.1833C56.19 11.2056 55.752 11.1833 55.3167 11.1931C55.0915 11.1958 54.9277 11.1771 54.9277 10.8753C54.9277 10.5762 55.0853 10.554 55.3132 10.554C57.9027 10.5575 60.4887 10.554 63.0782 10.554C63.6924 10.554 64.304 10.5638 64.9182 10.5513C65.1675 10.5451 65.2449 10.6403 65.2423 10.8878C65.2423 11.129 65.1399 11.1931 64.9245 11.1931C63.9488 11.1869 62.9732 11.1931 61.9148 11.1931C64.069 15.7322 66.1743 20.1733 68.3436 24.7452C70.2451 20.1804 72.0566 15.7455 73.9518 11.1931L73.9456 11.1896Z" stroke="black" stroke-width="1.5" stroke-miterlimit="10"/>
</g>
<path d="M46.2558 25.72C46.1472 26.0289 46.0181 26.6004 45.8881 26.8986C45.111 28.6843 43.8852 29.5674 41.9687 29.9617C41.5895 30.041 41.1969 30.0819 40.8088 30.0953C39.9319 30.1238 39.0587 30.0659 38.213 29.7935C36.4878 29.2309 35.2807 28.1191 34.8704 26.2639C34.4974 24.5708 34.7502 22.9792 35.8674 21.6101C36.5404 20.784 37.4198 20.2534 38.383 19.8653C39.413 19.4496 40.4901 19.2208 41.5921 19.1354C42.1788 19.0909 42.7681 19.0686 43.3547 19.0588C44.2404 19.0463 45.1261 19.0553 46.0145 19.0526C46.262 19.0526 46.2647 19.0526 46.262 18.798C46.2585 17.9496 46.2807 17.0986 46.246 16.2539C46.1997 15.1385 46.0955 14.0266 45.6905 12.978C45.4226 12.2854 45.0184 11.7522 44.3606 11.3739C43.9591 11.1424 43.4873 11.0561 43.0307 11.0312C41.4631 10.9386 40.0735 11.1994 38.6848 11.9427C38.6323 11.9712 38.5584 12.0095 38.4783 12.0477C38.7409 12.0727 38.9563 12.0442 39.1788 12.0949C40.2034 12.3237 40.9904 12.8827 41.2254 13.9794C41.3981 14.7922 41.2031 15.9102 40.3699 16.5111C39.4103 17.2037 37.8489 17.3016 36.8893 16.4444C36.4166 16.0215 36.1825 15.4883 36.1389 14.8589C36.0401 13.4044 36.7406 12.3967 37.8916 11.689C38.6946 11.1958 39.5527 10.8086 40.4723 10.5959C41.836 10.2843 43.2123 10.1891 44.6045 10.2879C45.3603 10.3413 46.1134 10.4303 46.8237 10.6973C48.4438 11.3044 49.5762 12.4163 50.0978 14.1415C50.3818 15.0779 50.5117 16.0375 50.5117 17.0194C50.5117 20.4279 50.5117 23.8337 50.5117 27.2422C50.5117 27.6962 50.5393 28.1476 50.7681 28.557C50.8883 28.7734 51.0574 28.9229 51.2924 28.9799C51.8105 29.1072 52.2921 29.0208 52.7488 28.7253C53.3265 28.3505 53.8081 27.8903 54.1072 27.2422C54.1962 27.0517 54.2487 27.0544 54.3751 27.2298C54.6039 27.5405 54.6012 27.5405 54.3911 27.8805C53.5766 29.2113 52.382 29.895 50.8883 30.0695C50.6408 30.0979 50.3853 30.0695 50.1352 30.0695C49.8761 30.0695 49.6162 30.1015 49.3634 30.0632C48.6228 29.9582 47.8973 29.7899 47.3204 29.2469C46.6724 28.6372 46.311 27.8867 46.2807 26.9787C46.2682 26.5906 46.262 26.1998 46.2522 25.8126C46.2522 25.7521 46.246 25.6915 46.246 25.6319C46.2371 25.6319 46.2585 25.7298 46.2496 25.7298L46.2558 25.72ZM46.2958 21.432C46.2958 21.432 46.2771 21.432 46.2682 21.432C46.2682 20.8881 46.2682 20.3487 46.2682 19.8057C46.2682 19.6748 46.2433 19.6081 46.0955 19.6116C45.1974 19.6276 44.2992 19.6116 43.401 19.6526C42.1138 19.7167 41.1016 20.3487 40.3859 21.4258C39.6141 22.5848 39.3115 23.8872 39.4655 25.2919C39.5403 25.9711 39.6756 26.6351 39.9595 27.2609C40.5248 28.4903 41.4408 28.9799 42.7316 28.7066C43.7526 28.4903 44.5084 27.852 45.0825 26.9948C45.7306 26.0254 46.0733 24.9296 46.1757 23.7634C46.2406 22.9881 46.2558 22.2101 46.2958 21.4347V21.432Z" fill="black" stroke="black" stroke-width="1.5" stroke-miterlimit="10"/>
<path d="M4.84707 2.13906C4.84707 11.4085 4.88713 20.3228 4.88713 29.5611H7.07875C7.19003 30.0881 7.16777 30.1201 6.69598 30.1201C4.93075 30.1201 3.16819 30.1201 1.40296 30.1201C0.942741 30.1201 0.908914 30.0729 1.03621 29.5637H3.39697C3.39697 20.1608 3.62218 10.7987 3.62218 1.39576C2.67147 1.39576 2.01452 1.39843 1.05757 1.39843V0.826936C1.15015 0.820704 3.26077 0.820704 3.33822 0.820704C5.67405 0.826936 5.72657 0.833167 8.06329 0.833167C8.28228 0.833167 8.3348 0.950671 8.39622 1.11891C10.0813 5.79859 11.7664 10.4783 13.4516 15.1571C14.4762 18.0039 15.2043 20.3575 16.2325 23.2007C16.2663 23.2995 16.2939 23.3823 16.3589 23.5443C16.544 23.0076 21.3804 8.0828 23.7972 0.948C23.8711 0.728126 23.9824 0.757502 24.2655 0.760172C26.4384 0.782427 29.2167 0.826936 31.3887 0.836728C31.54 0.836728 31.6887 0.836728 31.864 0.836728V1.35748H29.2505V29.5548H31.8676V30.0916H21.8985V29.5673H24.8895C24.8895 20.2658 25.0248 11.0275 25.0248 1.68151C24.8521 2.17734 24.6919 2.64379 24.5405 3.08888C21.4943 12.1073 18.6734 21.0821 15.6245 30.0979C15.5533 30.3079 15.1865 30.5296 14.8402 30.5358C14.51 30.5429 14.4299 30.3711 14.3408 30.1201C12.7545 25.6469 11.1647 21.1747 9.57571 16.7015C7.86211 11.8794 6.59984 7.0849 4.88713 2.2628C4.85063 2.15508 4.90938 2.30731 4.84084 2.1355L4.84707 2.13906Z" fill="black" stroke="black" stroke-width="1.5"/>
<mask id="mask2_17_62" style="mask-type:luminance" maskUnits="userSpaceOnUse" x="-1" y="-1" width="40" height="39">
<path d="M0 0H37.684V36.4449H0V0Z" fill="white" stroke="white" stroke-width="1.5"/>
</mask>
<g mask="url(#mask2_17_62)">
<path d="M4.84707 2.13918C4.84707 11.4086 4.88713 20.3229 4.88713 29.5612H7.07876C7.19003 30.0882 7.16777 30.1202 6.69598 30.1202C4.93075 30.1202 3.16819 30.1202 1.40296 30.1202C0.942741 30.1202 0.908914 30.0731 1.03621 29.5639H3.39697C3.39697 20.1609 3.62218 10.7989 3.62218 1.39588C2.67147 1.39588 2.01452 1.39855 1.05757 1.39855V0.827058C1.15015 0.820826 3.26077 0.820826 3.33822 0.820826C5.67405 0.827058 5.72657 0.833289 8.0633 0.833289C8.28228 0.833289 8.3348 0.950793 8.39622 1.11904C10.0813 5.79872 11.7664 10.4784 13.4516 15.1572C14.4762 18.004 15.2043 20.3576 16.2325 23.2009C16.2663 23.2997 16.2939 23.3825 16.3589 23.5445C16.544 23.0077 21.3804 8.08292 23.7972 0.948122C23.8711 0.728247 23.9824 0.757624 24.2655 0.760294C26.4384 0.782548 29.2167 0.827058 31.3887 0.836849C31.54 0.836849 31.6887 0.836849 31.8641 0.836849V1.35761H29.2505V29.555H31.8676V30.0917H21.8985V29.5674H24.8895C24.8895 20.2659 25 2.5 25 2.5C25 2.5 24.6577 2.71567 24.5405 3.08901C23 8 18.6734 21.0822 15.6245 30.098C15.5533 30.3081 15.1865 30.5297 14.8402 30.5359C14.51 30.5431 14.4299 30.3713 14.3408 30.1202C12.7545 25.6471 11.1647 21.1748 9.57571 16.7016C7.86211 11.8795 6.59984 7.08503 4.88713 2.26292C4.85063 2.15521 4.90939 2.30743 4.84084 2.13562L4.84707 2.13918Z" stroke="black" stroke-width="1.5" stroke-miterlimit="10"/>
</g>
<path d="M89.6445 11.6979C90.0611 11.2465 90.4599 10.8468 90.8917 10.3857C90.9593 10.3127 91.0394 10.2371 91.1258 10.2077C91.2557 10.1667 91.3697 10.1952 91.3697 10.3831C91.3697 12.1073 91.3697 13.8325 91.3661 15.5577C91.3661 15.5862 91.3546 15.6182 91.3457 15.6592H91.0216C90.9157 15.2621 90.8267 14.8651 90.7065 14.4779C90.3424 13.3153 89.7585 12.3014 88.7899 11.5617C88.028 10.9804 87.1574 10.6813 86.2164 10.6492C85.6912 10.6341 85.1509 10.6626 84.639 10.7765C83.1604 11.1166 82.3335 12.3272 82.3976 13.8868C82.4412 14.9381 82.9691 15.6948 83.772 16.2253C84.5741 16.7559 85.4349 17.2036 86.2957 17.6389C87.4039 18.2006 88.5496 18.6867 89.5706 19.4175C90.5979 20.1483 91.4721 21.035 91.8789 22.267C92.5394 24.2717 92.4219 26.2122 91.1632 27.9659C90.4501 28.9576 89.4629 29.5575 88.3146 29.8593C86.8458 30.2439 85.3761 30.2341 83.9349 29.7196C83.1106 29.424 82.3735 28.9638 81.762 28.2775C81.5003 28.5855 81.2688 28.8588 81.0124 29.1579C80.8086 29.3955 80.6208 29.6466 80.4018 29.8655C80.3208 29.9457 80.1792 29.9581 80.0617 29.9991C80.0377 29.9074 79.9878 29.8184 79.9878 29.7258C79.9852 28.0647 79.9852 26.4036 79.9878 24.739C79.9878 24.6589 79.9941 24.5832 80.0003 24.5102C80.3208 24.4372 80.3243 24.4399 80.4044 24.7417C80.716 25.9203 81.1148 26.7179 81.9231 27.6356C82.8026 28.6335 83.9634 29.2469 85.2595 29.4027C86.1443 29.5068 87.0523 29.5353 87.9105 29.2495C89.4166 28.7475 90.2837 27.6641 90.3513 26.0351C90.4074 24.7007 89.8671 23.7162 88.8549 22.9595C87.9843 22.3088 87.006 21.8673 86.0304 21.4186C84.9604 20.9264 83.8761 20.4501 82.8952 19.7736C82.037 19.1825 81.2839 18.4801 80.846 17.5081C79.5899 14.7156 80.4133 11.2216 83.9901 10.2682C85.596 9.84271 86.9722 9.79197 88.4134 10.7035C88.7259 10.9002 89.3294 11.4468 89.6419 11.6916L89.6445 11.6979Z" fill="black" stroke="black" stroke-width="1.5" stroke-miterlimit="10"/>
</svg>
