<svg width="44" height="32" viewBox="0 0 44 32" fill="none" xmlns="http://www.w3.org/2000/svg">
<path d="M28 16.2002C28 17.7915 27.3679 19.3176 26.2426 20.4428C25.1174 21.5681 23.5913 22.2002 22 22.2002C20.4087 22.2002 18.8826 21.5681 17.7574 20.4428C16.6321 19.3176 16 17.7915 16 16.2002C16 14.6089 16.6321 13.0828 17.7574 11.9576C18.8826 10.8323 20.4087 10.2002 22 10.2002C23.5913 10.2002 25.1174 10.8323 26.2426 11.9576C27.3679 13.0828 28 14.6089 28 16.2002Z" stroke="black" stroke-width="3.525" stroke-linecap="round" stroke-linejoin="round"/>
<path d="M2 16.2002C5.2 8.0062 12.672 2.2002 22 2.2002C31.328 2.2002 38.8 8.0062 42 16.2002C38.8 24.3942 31.328 30.2002 22 30.2002C12.672 30.2002 5.2 24.3942 2 16.2002Z" stroke="black" stroke-width="3.525" stroke-linecap="round" stroke-linejoin="round"/>
</svg>
