<svg width="77" height="93" viewBox="0 0 77 93" fill="none" xmlns="http://www.w3.org/2000/svg">
<path fill-rule="evenodd" clip-rule="evenodd" d="M17 14H14C6.26801 14 0 20.268 0 28V79C0 86.732 6.26801 93 14 93H50C57.732 93 64 86.732 64 79V78H57V79C57 82.866 53.866 86 50 86H14C10.134 86 7 82.866 7 79V28C7 24.134 10.134 21 14 21H17V14Z" fill="black"/>
<path fill-rule="evenodd" clip-rule="evenodd" d="M28 7H63C66.866 7 70 10.134 70 14V47.0962V47.6026H70.0354C70.2781 49.3205 71.7368 50.641 73.5 50.641C75.2632 50.641 76.7219 49.3205 76.9646 47.6026H77V47.0962V14C77 6.26801 70.732 0 63 0H28C20.268 0 14 6.26802 14 14V65C14 72.732 20.268 79 28 79H63C70.732 79 77 72.732 77 65V64.8205H76.9646C76.9879 64.6551 77 64.486 77 64.3141C77 62.3563 75.433 60.7692 73.5 60.7692C71.567 60.7692 70 62.3563 70 64.3141C70 64.486 70.0121 64.6551 70.0354 64.8205H70V65C70 68.866 66.866 72 63 72H28C24.134 72 21 68.866 21 65V14C21 10.134 24.134 7 28 7Z" fill="black"/>
<rect x="29" y="19" width="33" height="8" rx="4" fill="black"/>
<rect x="29" y="34" width="33" height="8" rx="4" fill="black"/>
<rect x="29" y="48" width="19" height="8" rx="4" fill="black"/>
</svg>
