<svg width="18" height="19" viewBox="0 0 18 19" fill="none" xmlns="http://www.w3.org/2000/svg">
<path fill-rule="evenodd" clip-rule="evenodd" d="M18 4.00024H0V7.00024C0.530433 7.00024 1.03914 7.21096 1.41421 7.58603C1.78929 7.9611 2 8.46981 2 9.00024V13.0002C2 15.8282 2 17.2432 2.879 18.1212C3.757 19.0002 5.172 19.0002 8 19.0002H10C12.829 19.0002 14.243 19.0002 15.121 18.1212C16.001 17.2432 16.001 15.8282 16.001 13.0002V9.00024C16.001 8.46981 16.2117 7.9611 16.5868 7.58603C16.9619 7.21096 17.4706 7.00024 18.001 7.00024L18 4.00024ZM7.5 9.00024C7.5 8.73503 7.39464 8.48067 7.20711 8.29314C7.01957 8.1056 6.76522 8.00024 6.5 8.00024C6.23478 8.00024 5.98043 8.1056 5.79289 8.29314C5.60536 8.48067 5.5 8.73503 5.5 9.00024V14.0002C5.5 14.2655 5.60536 14.5198 5.79289 14.7074C5.98043 14.8949 6.23478 15.0002 6.5 15.0002C6.76522 15.0002 7.01957 14.8949 7.20711 14.7074C7.39464 14.5198 7.5 14.2655 7.5 14.0002V9.00024ZM12.5 9.00024C12.5 8.73503 12.3946 8.48067 12.2071 8.29314C12.0196 8.1056 11.7652 8.00024 11.5 8.00024C11.2348 8.00024 10.9804 8.1056 10.7929 8.29314C10.6054 8.48067 10.5 8.73503 10.5 9.00024V14.0002C10.5 14.2655 10.6054 14.5198 10.7929 14.7074C10.9804 14.8949 11.2348 15.0002 11.5 15.0002C11.7652 15.0002 12.0196 14.8949 12.2071 14.7074C12.3946 14.5198 12.5 14.2655 12.5 14.0002V9.00024Z" fill="#697A8D"/>
<path d="M7.06799 1.37017C7.18199 1.26417 7.43299 1.17017 7.78299 1.10317C8.18466 1.03174 8.59203 0.997267 8.99999 1.00017C9.43999 1.00017 9.86799 1.03617 10.217 1.10317C10.567 1.17017 10.817 1.26417 10.932 1.37117" fill="#697A8D"/>
<path d="M7.06799 1.37017C7.18199 1.26417 7.43299 1.17017 7.78299 1.10317C8.18466 1.03174 8.59203 0.997267 8.99999 1.00017C9.43999 1.00017 9.86799 1.03617 10.217 1.10317C10.567 1.17017 10.817 1.26417 10.932 1.37117" stroke="#697A8D" stroke-width="2" stroke-linecap="round"/>
</svg>
