<svg width="24" height="24" viewBox="0 0 24 24" fill="none" xmlns="http://www.w3.org/2000/svg">
<g id="la:shipping-fast">
<path id="Vector" d="M1 4V5.45455H14.0625V16.3636H9.83025C9.52363 15.1135 8.46075 14.1818 7.1875 14.1818C5.91425 14.1818 4.85138 15.1135 4.54475 16.3636H3.75V12.7273H2.375V17.8182H4.54475C4.85138 19.0684 5.91425 20 7.1875 20C8.46075 20 9.52363 19.0684 9.83025 17.8182H15.5448C15.8514 19.0684 16.9143 20 18.1875 20C19.4608 20 20.5236 19.0684 20.8302 17.8182H23V11.8865L22.9567 11.7724L21.5817 7.40873L21.4325 6.90909H15.4375V4H1ZM1.6875 6.90909V8.36364H7.875V6.90909H1.6875ZM15.4375 8.36364H20.4432L21.625 12.0909V16.3636H20.8302C20.5236 15.1135 19.4608 14.1818 18.1875 14.1818C16.9143 14.1818 15.8514 15.1135 15.5448 16.3636H15.4375V8.36364ZM2.375 9.81818V11.2727H6.5V9.81818H2.375ZM7.1875 15.6364C7.95544 15.6364 8.5625 16.2785 8.5625 17.0909C8.5625 17.9033 7.95544 18.5455 7.1875 18.5455C6.41956 18.5455 5.8125 17.9033 5.8125 17.0909C5.8125 16.2785 6.41956 15.6364 7.1875 15.6364ZM18.1875 15.6364C18.9554 15.6364 19.5625 16.2785 19.5625 17.0909C19.5625 17.9033 18.9554 18.5455 18.1875 18.5455C17.4196 18.5455 16.8125 17.9033 16.8125 17.0909C16.8125 16.2785 17.4196 15.6364 18.1875 15.6364Z" fill="#212429"/>
</g>
</svg>
