<svg width="16" height="16" viewBox="0 0 16 16" fill="none" xmlns="http://www.w3.org/2000/svg">
<g clip-path="url(#clip0_627_187)">
<path d="M5.426 4.89218L7.23179 1.24605C7.26647 1.1727 7.32066 1.11075 7.38819 1.06725C7.45573 1.02375 7.53389 1.00045 7.61378 1C7.76509 1 7.9164 1.08174 7.99825 1.24605L9.80404 4.89218L13.8538 5.47866C13.9548 5.49483 14.0472 5.546 14.1154 5.62352C14.1836 5.70104 14.2235 5.80017 14.2284 5.9042C14.2341 5.97345 14.2245 6.04314 14.2002 6.10806C14.1758 6.17299 14.1374 6.23148 14.0878 6.27917L11.1749 9.10709L11.8612 13.0928C11.9257 13.4661 11.5635 13.7585 11.2444 13.5916L7.61378 11.6906L3.98485 13.5916C3.94689 13.6117 3.9062 13.6259 3.86413 13.6338C3.58136 13.6843 3.31181 13.4197 3.36803 13.0928L4.0543 9.10709L1.14222 6.27917C1.09695 6.23552 1.06097 6.18285 1.0365 6.12444C1.01204 6.06602 0.999616 6.0031 1.00001 5.93959C1.00005 5.84979 1.02437 5.76174 1.07029 5.68511C1.10286 5.62955 1.14727 5.58216 1.20021 5.54643C1.25316 5.5107 1.31331 5.48754 1.37621 5.47866L5.426 4.89218ZM7.61378 10.7132C7.68052 10.7129 7.74634 10.7291 7.8056 10.7604L10.8533 12.3563L10.2795 9.02198C10.2659 8.9453 10.271 8.8664 10.2944 8.7922C10.3178 8.71801 10.3586 8.65079 10.4134 8.59645L12.817 6.26232L9.46669 5.77696C9.39732 5.76628 9.33152 5.73862 9.27492 5.69636C9.21833 5.65409 9.17264 5.59848 9.14175 5.53427L7.61461 2.45188L7.61378 2.45441V10.7123V10.7132Z" fill="#471703"/>
</g>
<defs>
<clipPath id="clip0_627_187">
<rect width="16" height="16" fill="white"/>
</clipPath>
</defs>
</svg>
