<svg width="22" height="25" viewBox="0 0 22 25" fill="none" xmlns="http://www.w3.org/2000/svg">
<path d="M21.9773 23.7564L20.8458 5.72274C20.8231 5.41828 20.5786 5.17822 20.2772 5.17822H15.4727C15.4727 5.17822 15.484 5.14894 15.484 5.13138C15.4897 2.57856 13.4713 0.5 10.9922 0.5C8.51316 0.5 6.50037 2.57856 6.50037 5.13138V5.17822H1.70719C1.40584 5.17822 1.16135 5.41828 1.13861 5.72274L0.00143155 23.8735C-0.00994045 24.0374 0.0469185 24.1955 0.154946 24.3126C0.262986 24.4297 0.410816 24.5 0.570016 24.5H21.4201C21.4201 24.5 21.4258 24.5 21.4314 24.5C21.7442 24.5 22 24.2365 22 23.9145C22 23.8618 21.9944 23.8091 21.9773 23.7564ZM7.63754 5.13138C7.63754 3.22262 9.14427 1.67102 10.9922 1.67102C12.8401 1.67102 14.3469 3.22262 14.3469 5.13138C14.3469 5.14894 14.3526 5.16065 14.3582 5.17822H7.63185V5.13138H7.63754ZM1.17841 23.3289L2.23598 6.34924H6.49468V7.67248C6.22176 7.8657 6.02844 8.17017 6.02844 8.53904C6.02844 9.12455 6.49468 9.60466 7.06327 9.60466C7.63185 9.60466 8.09809 9.12455 8.09809 8.53904C8.09809 8.17017 7.90477 7.8657 7.63185 7.67248V6.34924H14.3469V7.67248C14.074 7.8657 13.8806 8.17017 13.8806 8.53904C13.8806 9.12455 14.3412 9.60466 14.9155 9.60466C15.4897 9.60466 15.9503 9.12455 15.9503 8.53904C15.9503 8.17017 15.757 7.8657 15.484 7.67248V6.34924H19.7484L20.806 23.3289H1.17841Z" fill="black"/>
</svg>
