<svg width="23" height="25" viewBox="0 0 23 25" fill="none" xmlns="http://www.w3.org/2000/svg">
<path d="M22.8425 23.5444L21.711 5.5107C21.6883 5.20624 21.4438 4.96618 21.1424 4.96618H16.3379C16.3379 4.96618 16.3492 4.9369 16.3492 4.91934C16.3549 2.36652 14.3365 0.287964 11.8574 0.287964C9.37839 0.287964 7.3656 2.36652 7.3656 4.91934V4.96618H2.57242C2.27107 4.96618 2.02658 5.20624 2.00384 5.5107L0.866666 23.6615C0.855294 23.8254 0.912153 23.9835 1.02018 24.1006C1.12822 24.2177 1.27605 24.288 1.43525 24.288H22.2853C22.2853 24.288 22.291 24.288 22.2966 24.288C22.6094 24.288 22.8652 24.0245 22.8652 23.7025C22.8652 23.6498 22.8596 23.5971 22.8425 23.5444ZM8.50277 4.91934C8.50277 3.01058 10.0095 1.45898 11.8574 1.45898C13.7053 1.45898 15.2121 3.01058 15.2121 4.91934C15.2121 4.9369 15.2178 4.94861 15.2234 4.96618H8.49708V4.91934H8.50277ZM2.04364 23.1169L3.10121 6.1372H7.35991V7.46044C7.08699 7.65366 6.89367 7.95813 6.89367 8.327C6.89367 8.91251 7.35991 9.39262 7.9285 9.39262C8.49708 9.39262 8.96332 8.91251 8.96332 8.327C8.96332 7.95813 8.77 7.65366 8.49708 7.46044V6.1372H15.2121V7.46044C14.9392 7.65366 14.7458 7.95813 14.7458 8.327C14.7458 8.91251 15.2064 9.39262 15.7807 9.39262C16.3549 9.39262 16.8155 8.91251 16.8155 8.327C16.8155 7.95813 16.6222 7.65366 16.3492 7.46044V6.1372H20.6136L21.6712 23.1169H2.04364Z" fill="white"/>
</svg>
