<svg width="27" height="27" viewBox="0 0 27 27" fill="none" xmlns="http://www.w3.org/2000/svg">
<path d="M18.0817 22.805C18.0817 24.2778 19.2128 25.4717 20.608 25.4717C22.0033 25.4717 23.1343 24.2778 23.1343 22.805C23.1343 21.3323 22.0033 20.1383 20.608 20.1383H8.44039C7.81177 20.1383 7.27882 19.6504 7.18992 18.9936M21.8712 16.1383H6.8035L4.81854 1.47168H1.66064M10.5027 4.13835H25.6606L23.1343 12.1383M13.0291 22.805C13.0291 24.2778 11.898 25.4717 10.5027 25.4717C9.1075 25.4717 7.97643 24.2778 7.97643 22.805C7.97643 21.3323 9.1075 20.1383 10.5027 20.1383C11.898 20.1383 13.0291 21.3323 13.0291 22.805Z" stroke="#441700" stroke-width="1.5" stroke-linecap="round" stroke-linejoin="round"/>
</svg>
