<svg width="20" height="21" viewBox="0 0 20 21" fill="none" xmlns="http://www.w3.org/2000/svg">
<path d="M13.3536 17.5C13.3536 18.6046 14.2054 19.5 15.2561 19.5C16.3068 19.5 17.1585 18.6046 17.1585 17.5C17.1585 16.3954 16.3068 15.5 15.2561 15.5H6.09327C5.61989 15.5 5.21856 15.1341 5.15161 14.6414M16.2073 12.5H4.86062L3.36584 1.5H0.987793M7.64633 3.5H19.061L17.1585 9.5M9.54877 17.5C9.54877 18.6046 8.69702 19.5 7.64633 19.5C6.59564 19.5 5.74389 18.6046 5.74389 17.5C5.74389 16.3954 6.59564 15.5 7.64633 15.5C8.69702 15.5 9.54877 16.3954 9.54877 17.5Z" stroke="#471703" stroke-width="1.5" stroke-linecap="round" stroke-linejoin="round"/>
</svg>
