<svg width="81" height="82" viewBox="0 0 81 82" fill="none" xmlns="http://www.w3.org/2000/svg">
<path fill-rule="evenodd" clip-rule="evenodd" d="M30.884 0.550541C30.627 0.982541 30.105 3.22554 29.723 5.53454C29.104 9.27954 28.475 10.0455 23.905 12.6275C18.85 15.4835 18.716 15.5025 14.002 13.9945C11.374 13.1545 9.068 12.6625 8.877 12.9015C8.686 13.1405 6.611 16.7115 4.265 20.8365L0 28.3365L3.77 31.5945C7.347 34.6865 7.54 35.1605 7.54 40.8365C7.54 46.5125 7.347 46.9865 3.77 50.0785L0 53.3365L4.265 60.8365C6.611 64.9615 8.686 68.5325 8.877 68.7715C9.068 69.0105 11.38 68.5165 14.017 67.6735C18.737 66.1645 18.884 66.1835 23.748 68.9595C28.165 71.4795 28.798 72.2825 29.741 76.5565L30.794 81.3365H40.187H49.58L50.633 76.5565C51.576 72.2825 52.209 71.4795 56.626 68.9595C61.49 66.1835 61.637 66.1645 66.357 67.6735C68.994 68.5165 71.306 69.0105 71.497 68.7715C71.688 68.5325 73.763 64.9615 76.109 60.8365L80.374 53.3365L76.604 50.0785C73.027 46.9865 72.834 46.5125 72.834 40.8365C72.834 35.1605 73.027 34.6865 76.604 31.5945L80.374 28.3365L76.109 20.8365C73.763 16.7115 71.688 13.1405 71.497 12.9015C71.306 12.6625 68.994 13.1565 66.357 13.9995C61.637 15.5085 61.49 15.4895 56.626 12.7135C52.208 10.1935 51.576 9.39154 50.636 5.11654L49.584 0.336541L40.467 0.0505409C35.453 -0.107459 31.14 0.117541 30.884 0.550541ZM48.667 26.1235C56.669 30.6555 59.501 41.1935 54.9 49.3165C50.368 57.3185 39.83 60.1505 31.707 55.5495C20.201 49.0325 20.59 31.3215 32.367 25.5185C37.131 23.1705 43.896 23.4215 48.667 26.1235Z" fill="#6B4020"/>
</svg>
