<svg width="26" height="25" viewBox="0 0 26 25" fill="none" xmlns="http://www.w3.org/2000/svg">
<path d="M8.22992 3.09805C5.57168 3.09805 3.41394 5.50052 3.41394 8.44648C3.41394 8.78616 3.66419 9.06408 3.97006 9.06408C4.27593 9.06408 4.52617 8.78616 4.52617 8.44648C4.52617 6.17988 6.18896 4.33325 8.22992 4.33325C8.53578 4.33325 8.78604 4.05533 8.78604 3.71565C8.78604 3.37597 8.53578 3.09805 8.22992 3.09805ZM25.8421 8.32914C25.8421 3.89476 22.5944 0.287964 18.6015 0.287964C16.6106 0.287964 14.7531 1.17731 13.4074 2.72749C12.056 1.18349 10.2041 0.29414 8.21879 0.29414C4.22587 0.29414 0.978149 3.90093 0.978149 8.33531C0.978149 10.3858 1.67329 12.3374 2.94125 13.8381C2.96349 13.869 2.98573 13.8937 3.01354 13.9246L3.08583 14.0049L3.1192 14.042L12.2785 23.7815C12.5677 24.1027 12.9736 24.288 13.4074 24.288C13.8411 24.288 14.2472 24.1027 14.5529 23.763C14.8421 23.4604 22.0606 15.8577 23.7122 14.0296C23.7234 14.0172 23.7289 14.0111 23.74 13.9987L23.7289 14.0111C23.7289 14.0111 23.7734 13.9678 23.7901 13.9431C25.1192 12.43 25.8477 10.4413 25.8477 8.32914H25.8421ZM22.9614 13.1094C22.9504 13.1156 22.9448 13.1279 22.9336 13.1403C21.3042 14.9498 13.7633 22.8922 13.7633 22.8922C13.6632 23.0034 13.5353 23.0589 13.4018 23.0589C13.2683 23.0589 13.1405 23.0034 13.0403 22.8922L3.90333 13.1711C3.90333 13.1711 3.88108 13.1464 3.86439 13.1279L3.7921 13.0476C2.73548 11.8248 2.08482 10.1634 2.08482 8.33531C2.09038 4.5803 4.83205 1.52934 8.21879 1.52934C10.4043 1.52934 12.3229 2.8016 13.4074 4.71617C14.4918 2.79543 16.4104 1.51699 18.6015 1.51699C21.9883 1.51699 24.7299 4.56177 24.7299 8.32296C24.7299 10.1881 24.0571 11.8742 22.9614 13.1032V13.1094Z" fill="#EFC2B0"/>
</svg>
