<svg width="21" height="21" viewBox="0 0 21 21" fill="none" xmlns="http://www.w3.org/2000/svg">
<path d="M6.12344 2.45882C3.87881 2.45882 2.0568 4.56098 2.0568 7.13869C2.0568 7.43591 2.26811 7.67909 2.52639 7.67909C2.78467 7.67909 2.99598 7.43591 2.99598 7.13869C2.99598 5.15542 4.40005 3.53962 6.12344 3.53962C6.38172 3.53962 6.59303 3.29644 6.59303 2.99922C6.59303 2.702 6.38172 2.45882 6.12344 2.45882ZM20.9953 7.03602C20.9953 3.15594 18.2529 0 14.8813 0C13.2001 0 11.6317 0.778177 10.4953 2.13458C9.35424 0.783584 7.79048 0.00540401 6.11405 0.00540401C2.7424 0.00540401 0 3.16134 0 7.04142C0 8.83559 0.586985 10.5432 1.65765 11.8564C1.67644 11.8834 1.69521 11.905 1.7187 11.932L1.77974 12.0023L1.80792 12.0348L9.5421 20.5568C9.78627 20.8379 10.129 21 10.4953 21C10.8616 21 11.2044 20.8379 11.4626 20.5406C11.7068 20.2759 17.8022 13.6235 19.1968 12.0239C19.2062 12.0131 19.2109 12.0077 19.2202 11.9969L19.2109 12.0077C19.2109 12.0077 19.2485 11.9698 19.2625 11.9482C20.3849 10.6243 21 8.88416 21 7.03602H20.9953ZM18.5629 11.2187C18.5535 11.2242 18.5488 11.2349 18.5394 11.2458C17.1635 12.8291 10.7959 19.7787 10.7959 19.7787C10.7113 19.876 10.6034 19.9245 10.4906 19.9245C10.3779 19.9245 10.2699 19.876 10.1854 19.7787L2.47004 11.2727C2.47004 11.2727 2.45125 11.2511 2.43716 11.2349L2.37612 11.1647C1.48391 10.0947 0.934479 8.64099 0.934479 7.04142C0.939175 3.75579 3.25426 1.0862 6.11405 1.0862C7.95953 1.0862 9.57961 2.19943 10.4953 3.87467C11.411 2.19403 13.0311 1.0754 14.8813 1.0754C17.7411 1.0754 20.0561 3.73957 20.0561 7.03061C20.0561 8.66261 19.488 10.1379 18.5629 11.2133V11.2187Z" fill="black"/>
</svg>
