<svg width="20" height="18" viewBox="0 0 20 18" fill="none" xmlns="http://www.w3.org/2000/svg">
<path d="M11.45 8.55L13.5 6.5M8 10C8 10.5304 8.21071 11.0391 8.58579 11.4142C8.96086 11.7893 9.46957 12 10 12C10.5304 12 11.0391 11.7893 11.4142 11.4142C11.7893 11.0391 12 10.5304 12 10C12 9.46957 11.7893 8.96086 11.4142 8.58579C11.0391 8.21071 10.5304 8 10 8C9.46957 8 8.96086 8.21071 8.58579 8.58579C8.21071 8.96086 8 9.46957 8 10Z" stroke="#471703" stroke-linecap="round" stroke-linejoin="round"/>
<path d="M4.4 16.9999C2.93815 15.838 1.87391 14.2501 1.35478 12.4564C0.835644 10.6626 0.887321 8.75179 1.50265 6.98872C2.11797 5.22564 3.26647 3.69762 4.78899 2.61641C6.3115 1.5352 8.13263 0.954346 10 0.954346C11.8674 0.954346 13.6885 1.5352 15.211 2.61641C16.7335 3.69762 17.882 5.22564 18.4974 6.98872C19.1127 8.75179 19.1644 10.6626 18.6452 12.4564C18.1261 14.2501 17.0619 15.838 15.6 16.9999H4.4Z" stroke="#471703" stroke-linecap="round" stroke-linejoin="round"/>
</svg>
