<svg width="22" height="24" viewBox="0 0 22 24" fill="none" xmlns="http://www.w3.org/2000/svg">
<path d="M8.02829 17.3805C5.78448 17.3805 3.88547 16.5318 2.33128 14.8345C0.777095 13.1372 0 11.0891 0 8.69024C0 6.29137 0.777935 4.24328 2.3338 2.54597C3.88967 0.848656 5.77228 0 7.98161 0C10.1909 0 12.0684 0.848656 13.6139 2.54597C15.1594 4.24328 15.9321 6.29307 15.9321 8.69533C15.9321 9.66506 15.7869 10.6025 15.4965 11.5078C15.206 12.413 14.7704 13.2617 14.1895 14.0537L21.7199 22.2008C21.9066 22.3945 22 22.6409 22 22.9401C22 23.2394 21.9066 23.4908 21.7199 23.6945C21.5332 23.8982 21.3027 24 21.0285 24C20.7542 24 20.5283 23.8982 20.3508 23.6945L12.8515 15.5134C12.2291 16.1018 11.5035 16.5601 10.6745 16.8883C9.8456 17.2164 8.96351 17.3805 8.02829 17.3805ZM7.99717 15.3437C9.6827 15.3437 11.1154 14.6931 12.2953 13.3918C13.4751 12.0905 14.0651 10.5233 14.0651 8.69024C14.0651 6.85714 13.4751 5.28996 12.2953 3.98868C11.1154 2.68741 9.6827 2.03678 7.99717 2.03678C6.29437 2.03678 4.84697 2.68741 3.65499 3.98868C2.46302 5.28996 1.86704 6.85714 1.86704 8.69024C1.86704 10.5233 2.46302 12.0905 3.65499 13.3918C4.84697 14.6931 6.29437 15.3437 7.99717 15.3437Z" fill="#FF509B" fill-opacity="0.5"/>
</svg>
