<svg width="22" height="22" viewBox="0 0 22 22" fill="none" xmlns="http://www.w3.org/2000/svg">
<path d="M21.1464 21.8536C21.3417 22.0488 21.6583 22.0488 21.8536 21.8536C22.0488 21.6583 22.0488 21.3417 21.8536 21.1464L21.1464 21.8536ZM19.0294 9.76471H18.5294C18.5294 14.6053 14.6053 18.5294 9.76471 18.5294V19.0294V19.5294C15.1576 19.5294 19.5294 15.1576 19.5294 9.76471H19.0294ZM9.76471 19.0294V18.5294C4.92409 18.5294 1 14.6053 1 9.76471H0.5H0C0 15.1576 4.37181 19.5294 9.76471 19.5294V19.0294ZM0.5 9.76471H1C1 4.92409 4.92409 1 9.76471 1V0.5V0C4.37181 0 0 4.37181 0 9.76471H0.5ZM9.76471 0.5V1C14.6053 1 18.5294 4.92409 18.5294 9.76471H19.0294H19.5294C19.5294 4.37181 15.1576 0 9.76471 0V0.5ZM21.5 21.5L21.8536 21.1464L16.6807 15.9736L16.3271 16.3271L15.9736 16.6807L21.1464 21.8536L21.5 21.5Z" fill="#282828"/>
</svg>
