<svg width="24" height="25" viewBox="0 0 24 25" fill="none" xmlns="http://www.w3.org/2000/svg">
<path d="M22.1464 23.3536C22.3417 23.5488 22.6583 23.5488 22.8536 23.3536C23.0488 23.1583 23.0488 22.8417 22.8536 22.6464L22.1464 23.3536ZM19.5294 11.2647C19.5294 16.1053 15.6053 20.0294 10.7647 20.0294V21.0294C16.1576 21.0294 20.5294 16.6576 20.5294 11.2647H19.5294ZM10.7647 20.0294C5.92409 20.0294 2 16.1053 2 11.2647H1C1 16.6576 5.37181 21.0294 10.7647 21.0294V20.0294ZM2 11.2647C2 6.42409 5.92409 2.5 10.7647 2.5V1.5C5.37181 1.5 1 5.87181 1 11.2647H2ZM10.7647 2.5C15.6053 2.5 19.5294 6.42409 19.5294 11.2647H20.5294C20.5294 5.87181 16.1576 1.5 10.7647 1.5V2.5ZM22.8536 22.6464L17.6807 17.4736L16.9736 18.1807L22.1464 23.3536L22.8536 22.6464Z" fill="#6B4020"/>
</svg>
