<svg width="19" height="19" viewBox="0 0 19 19" fill="none" xmlns="http://www.w3.org/2000/svg">
<path d="M17.6464 18.3536C17.8417 18.5488 18.1583 18.5488 18.3536 18.3536C18.5488 18.1583 18.5488 17.8417 18.3536 17.6464L17.6464 18.3536ZM15.5 8.5C15.5 12.366 12.366 15.5 8.5 15.5V16.5C12.9183 16.5 16.5 12.9183 16.5 8.5H15.5ZM8.5 15.5C4.63401 15.5 1.5 12.366 1.5 8.5H0.5C0.5 12.9183 4.08172 16.5 8.5 16.5V15.5ZM1.5 8.5C1.5 4.63401 4.63401 1.5 8.5 1.5V0.5C4.08172 0.5 0.5 4.08172 0.5 8.5H1.5ZM8.5 1.5C12.366 1.5 15.5 4.63401 15.5 8.5H16.5C16.5 4.08172 12.9183 0.5 8.5 0.5V1.5ZM18.3536 17.6464L14.166 13.4589L13.4589 14.166L17.6464 18.3536L18.3536 17.6464Z" fill="#000000"/>
</svg>
