<svg width="12" height="13" viewBox="0 0 12 13" fill="none" xmlns="http://www.w3.org/2000/svg">
<path d="M7.66229 9.56909V9.57007C7.81439 9.72622 7.98878 9.85863 8.17889 9.96265L8.37518 10.0574C8.38315 10.0607 8.3916 10.0629 8.3996 10.0662L6.87714 11.6267C6.64169 11.8671 6.3254 11.9997 5.99823 11.9998C5.7117 11.9998 5.43303 11.8984 5.21014 11.7117L5.11835 11.6267L3.633 10.1052L3.75214 10.0623C4.01921 9.949 4.2613 9.78347 4.46405 9.57495L4.46307 9.57397L6.06561 7.93335L7.66229 9.56909Z" fill="white" stroke="white"/>
<path d="M5.99628 1C6.11809 1.00003 6.23914 1.01854 6.35565 1.05469L6.47089 1.09668C6.58383 1.14458 6.68946 1.20943 6.78436 1.28906L6.87616 1.37402L8.3996 2.93262L8.37714 2.94141C8.11028 3.05456 7.86874 3.22039 7.6662 3.42871L6.06854 5.0625L4.46503 3.42188H4.46405C4.31203 3.26583 4.13843 3.13331 3.94843 3.0293L3.75311 2.93457C3.71406 2.91803 3.67381 2.9048 3.63397 2.89062L5.11639 1.37402C5.20371 1.2847 5.3027 1.20934 5.41034 1.15039L5.52167 1.09668C5.63464 1.04882 5.75338 1.01808 5.87421 1.00586L5.99628 1Z" fill="white" stroke="white"/>
<mask id="path-3-inside-1_4864_981" fill="white">
<path d="M11.4659 5.12396L10.0847 3.64932C10.0535 3.66291 10.0202 3.67007 9.9866 3.67042H9.35852C9.03169 3.6713 8.71839 3.80988 8.48674 4.05603L6.68691 5.97635C6.52482 6.14909 6.30516 6.24611 6.07614 6.24611C5.84711 6.24611 5.62745 6.14909 5.46536 5.97635L3.65869 4.04872C3.4271 3.80242 3.1138 3.66369 2.78691 3.66271H2.01588C1.98411 3.66195 1.9527 3.65522 1.92311 3.64282L0.533134 5.12396C0.191735 5.48922 0 5.98416 0 6.50017C0 7.01618 0.191735 7.51112 0.533134 7.87638L1.92007 9.35711C1.9496 9.34449 1.98104 9.33775 2.01284 9.33722H2.78691C3.11379 9.33619 3.42708 9.19747 3.65869 8.95121L5.46498 7.02277C5.79156 6.6745 6.36071 6.6745 6.68691 7.02277L8.48674 8.9439C8.71839 9.19005 9.03169 9.32863 9.35852 9.32951H9.9866C10.0203 9.32976 10.0536 9.33692 10.0847 9.35061L11.4659 7.87597C11.6352 7.69527 11.7696 7.48072 11.8612 7.24459C11.9528 7.00846 12 6.75536 12 6.49976C12 6.24416 11.9528 5.99107 11.8612 5.75493C11.7696 5.5188 11.6352 5.30425 11.4659 5.12355"/>
</mask>
<path d="M11.4659 5.12396L10.0847 3.64932C10.0535 3.66291 10.0202 3.67007 9.9866 3.67042H9.35852C9.03169 3.6713 8.71839 3.80988 8.48674 4.05603L6.68691 5.97635C6.52482 6.14909 6.30516 6.24611 6.07614 6.24611C5.84711 6.24611 5.62745 6.14909 5.46536 5.97635L3.65869 4.04872C3.4271 3.80242 3.1138 3.66369 2.78691 3.66271H2.01588C1.98411 3.66195 1.9527 3.65522 1.92311 3.64282L0.533134 5.12396C0.191735 5.48922 0 5.98416 0 6.50017C0 7.01618 0.191735 7.51112 0.533134 7.87638L1.92007 9.35711C1.9496 9.34449 1.98104 9.33775 2.01284 9.33722H2.78691C3.11379 9.33619 3.42708 9.19747 3.65869 8.95121L5.46498 7.02277C5.79156 6.6745 6.36071 6.6745 6.68691 7.02277L8.48674 8.9439C8.71839 9.19005 9.03169 9.32863 9.35852 9.32951H9.9866C10.0203 9.32976 10.0536 9.33692 10.0847 9.35061L11.4659 7.87597C11.6352 7.69527 11.7696 7.48072 11.8612 7.24459C11.9528 7.00846 12 6.75536 12 6.49976C12 6.24416 11.9528 5.99107 11.8612 5.75493C11.7696 5.5188 11.6352 5.30425 11.4659 5.12355" fill="white"/>
<path d="M10.0847 3.64932L10.8145 2.9657L10.3319 2.4504L9.68474 2.73278L10.0847 3.64932ZM9.9866 3.67042V4.67048L9.99703 4.67037L9.9866 3.67042ZM9.35852 3.67042V2.67042L9.35585 2.67043L9.35852 3.67042ZM8.48674 4.05603L7.7585 3.37071L7.75711 3.37219L8.48674 4.05603ZM6.68691 5.97635L7.41614 6.66063L7.41654 6.6602L6.68691 5.97635ZM5.46536 5.97635L4.73573 6.6602L4.73614 6.66063L5.46536 5.97635ZM3.65869 4.04872L4.38832 3.36488L4.38723 3.36372L3.65869 4.04872ZM2.78691 3.66271L2.78991 2.66271H2.78691V3.66271ZM2.01588 3.66271L1.99185 4.66242L2.00386 4.66271H2.01588V3.66271ZM1.92311 3.64282L2.30943 2.72046L1.66904 2.45224L1.19393 2.95851L1.92311 3.64282ZM0.533134 5.12396L-0.196056 4.43964L-0.197434 4.44112L0.533134 5.12396ZM0 6.50017H-1H0ZM0.533134 7.87638L-0.197435 8.55922L-0.196709 8.55999L0.533134 7.87638ZM1.92007 9.35711L1.19023 10.0407L1.66907 10.5519L2.31315 10.2766L1.92007 9.35711ZM2.01284 9.33722V8.33722H2.00456L1.99628 8.33736L2.01284 9.33722ZM2.78691 9.33722V10.3372L2.79005 10.3372L2.78691 9.33722ZM3.65869 8.95121L4.38714 9.6363L4.38853 9.63482L3.65869 8.95121ZM5.46498 7.02277L4.73553 6.33873L4.73514 6.33915L5.46498 7.02277ZM6.68691 7.02277L5.95707 7.70638L5.95714 7.70646L6.68691 7.02277ZM8.48674 8.9439L7.75697 9.62759L7.7585 9.62922L8.48674 8.9439ZM9.35852 9.32951L9.35585 10.3295H9.35852V9.32951ZM9.9866 9.32951L9.99406 8.32951H9.9866V9.32951ZM10.0847 9.35061L9.68208 10.266L10.3304 10.5511L10.8145 10.0342L10.0847 9.35061ZM11.4659 7.87597L10.7362 7.19222L10.7361 7.19236L11.4659 7.87597ZM12.1958 4.44034L10.8145 2.9657L9.35484 4.33293L10.7361 5.80757L12.1958 4.44034ZM9.68474 2.73278C9.77526 2.69328 9.87434 2.67154 9.97617 2.67048L9.99703 4.67037C10.1662 4.66861 10.3318 4.63254 10.4846 4.56586L9.68474 2.73278ZM9.9866 2.67042H9.35852V4.67042H9.9866V2.67042ZM9.35585 2.67043C8.74377 2.67206 8.17123 2.93213 7.7585 3.37071L9.21498 4.74135C9.26555 4.68762 9.3196 4.67053 9.36119 4.67042L9.35585 2.67043ZM7.75711 3.37219L5.95729 5.29251L7.41654 6.6602L9.21637 4.73988L7.75711 3.37219ZM5.95769 5.29208C5.97731 5.27117 6.01839 5.24611 6.07614 5.24611V7.24611C6.59193 7.24611 7.07234 7.02701 7.41614 6.66063L5.95769 5.29208ZM6.07614 5.24611C6.13388 5.24611 6.17496 5.27117 6.19458 5.29208L4.73614 6.66063C5.07994 7.02701 5.56035 7.24611 6.07614 7.24611V5.24611ZM6.19499 5.29251L4.38832 3.36488L2.92906 4.73257L4.73573 6.6602L6.19499 5.29251ZM4.38723 3.36372C3.97463 2.9249 3.40209 2.66455 2.78991 2.66272L2.78391 4.66271C2.82551 4.66283 2.87958 4.67994 2.93015 4.73373L4.38723 3.36372ZM2.78691 2.66271H2.01588V4.66271H2.78691V2.66271ZM2.03991 2.663C2.13383 2.66526 2.22522 2.68518 2.30943 2.72046L1.5368 4.56519C1.68019 4.62525 1.83438 4.65864 1.99185 4.66242L2.03991 2.663ZM1.19393 2.95851L-0.196055 4.43965L1.26232 5.80827L2.6523 4.32713L1.19393 2.95851ZM-0.197434 4.44112C-0.718009 4.99808 -1 5.73962 -1 6.50017H1C1 6.2287 1.10148 5.98036 1.2637 5.8068L-0.197434 4.44112ZM-1 6.50017C-1 7.26072 -0.718009 8.00225 -0.197434 8.55922L1.2637 7.19354C1.10148 7.01997 1 6.77164 1 6.50017H-1ZM-0.196709 8.55999L1.19023 10.0407L2.64992 8.67349L1.26298 7.19276L-0.196709 8.55999ZM2.31315 10.2766C2.22472 10.3144 2.12839 10.3354 2.0294 10.3371L1.99628 8.33736C1.83369 8.34005 1.67447 8.37456 1.527 8.4376L2.31315 10.2766ZM2.01284 10.3372H2.78691V8.33722H2.01284V10.3372ZM2.79005 10.3372C3.40212 10.3353 3.97455 10.075 4.38714 9.6363L2.93024 8.26611C2.87961 8.31994 2.82546 8.33709 2.78377 8.33722L2.79005 10.3372ZM4.38853 9.63482L6.19482 7.70638L4.73514 6.33915L2.92885 8.26759L4.38853 9.63482ZM6.19442 7.7068C6.15534 7.74848 6.10845 7.76157 6.07609 7.76157C6.04372 7.76157 5.99648 7.74846 5.95707 7.70638L7.41676 6.33915C6.6952 5.5688 5.45694 5.56943 4.73553 6.33873L6.19442 7.7068ZM5.95714 7.70646L7.75697 9.62759L9.21651 8.26021L7.41669 6.33908L5.95714 7.70646ZM7.7585 9.62922C8.17123 10.0678 8.74377 10.3279 9.35585 10.3295L9.36119 8.32951C9.3196 8.3294 9.26555 8.31231 9.21498 8.25858L7.7585 9.62922ZM9.35852 10.3295H9.9866V8.32951H9.35852V10.3295ZM9.97913 10.3295C9.8753 10.3287 9.77426 10.3065 9.68208 10.266L10.4873 8.43524C10.3329 8.36732 10.1652 8.33081 9.99406 8.32953L9.97913 10.3295ZM10.8145 10.0342L12.1958 8.55959L10.7361 7.19236L9.35484 8.667L10.8145 10.0342ZM12.1956 8.55972C12.4545 8.28349 12.6566 7.95902 12.7935 7.60638L10.9289 6.8828C10.8825 7.00243 10.816 7.10705 10.7362 7.19222L12.1956 8.55972ZM12.7935 7.60638C12.9303 7.25381 13 6.87796 13 6.49976H11C11 6.63277 10.9754 6.7631 10.9289 6.8828L12.7935 7.60638ZM13 6.49976C13 6.12157 12.9303 5.74572 12.7935 5.39314L10.9289 6.11672C10.9754 6.23642 11 6.36676 11 6.49976H13ZM12.7935 5.39314C12.6566 5.0405 12.4545 4.71603 12.1956 4.4398L10.7362 5.8073C10.816 5.89248 10.8825 5.9971 10.9289 6.11672L12.7935 5.39314Z" fill="white" mask="url(#path-3-inside-1_4864_981)"/>
</svg>
