<svg width="25" height="24" viewBox="0 0 25 24" fill="none" xmlns="http://www.w3.org/2000/svg">
<mask id="path-1-inside-1_818_2339" fill="white">
<path d="M18.9341 18.4539C18.4899 18.4556 18.0498 18.367 17.6392 18.1934C17.2286 18.0198 16.8557 17.7646 16.5419 17.4425L13.0865 13.9007C12.9643 13.781 12.8017 13.7142 12.6326 13.7142C12.4635 13.7142 12.3009 13.781 12.1787 13.9007L8.71161 17.4522C8.39806 17.7748 8.02522 18.0305 7.61463 18.2046C7.20404 18.3788 6.76383 18.4678 6.31945 18.4666H5.64297L10.0215 22.9518C10.6782 23.623 11.5681 24 12.4958 24C13.4235 24 14.3133 23.623 14.97 22.9518L19.3573 18.4569L18.9341 18.4539Z"/>
<path d="M6.32054 5.52907C6.76517 5.52786 7.20562 5.61684 7.61643 5.79088C8.02725 5.96491 8.40028 6.22055 8.71397 6.54302L12.1829 10.0937C12.3035 10.2167 12.4668 10.2858 12.6371 10.2858C12.8073 10.2858 12.9706 10.2167 13.0912 10.0937L16.5477 6.55646C16.8612 6.2336 17.2341 5.97765 17.645 5.80346C18.0559 5.62927 18.4964 5.54033 18.9412 5.54177H19.3573L14.9677 1.04963C14.6426 0.716865 14.2567 0.452894 13.8319 0.272795C13.4072 0.0926967 12.9519 0 12.4921 0C12.0323 0 11.5771 0.0926967 11.1523 0.272795C10.7275 0.452894 10.3416 0.716865 10.0166 1.04963L5.64297 5.52907H6.32054Z"/>
<path d="M23.432 9.24784L20.6695 6.29854C20.6072 6.32573 20.5406 6.34005 20.4733 6.34075H19.2172C18.5635 6.3425 17.9369 6.61966 17.4736 7.11197L13.8739 10.9526C13.5497 11.2981 13.1104 11.4922 12.6523 11.4922C12.1943 11.4922 11.755 11.2981 11.4308 10.9526L7.81742 7.09736C7.35425 6.60475 6.72763 6.32729 6.07385 6.32533H4.53179C4.46824 6.3238 4.40543 6.31034 4.34625 6.28555L1.56628 9.24784C0.883473 9.97837 0.5 10.9683 0.5 12.0003C0.5 13.0323 0.883473 14.0222 1.56628 14.7527L4.34017 17.7142C4.39922 17.689 4.4621 17.6755 4.52571 17.6744H6.07385C6.72762 17.6724 7.3542 17.3949 7.81742 16.9024L11.43 13.0455C12.0832 12.349 13.2215 12.349 13.8739 13.0455L17.4736 16.8878C17.9369 17.3801 18.5635 17.6572 19.2172 17.659H20.4733C20.5406 17.6595 20.6072 17.6738 20.6695 17.7012L23.432 14.7519C23.7706 14.3905 24.0393 13.9614 24.2225 13.4891C24.4058 13.0169 24.5002 12.5107 24.5002 11.9995C24.5002 11.4883 24.4058 10.9821 24.2225 10.5098C24.0393 10.0375 23.7706 9.60925 23.432 9.24784Z"/>
</mask>
<path d="M18.9341 18.4539C18.4899 18.4556 18.0498 18.367 17.6392 18.1934C17.2286 18.0198 16.8557 17.7646 16.5419 17.4425L13.0865 13.9007C12.9643 13.781 12.8017 13.7142 12.6326 13.7142C12.4635 13.7142 12.3009 13.781 12.1787 13.9007L8.71161 17.4522C8.39806 17.7748 8.02522 18.0305 7.61463 18.2046C7.20404 18.3788 6.76383 18.4678 6.31945 18.4666H5.64297L10.0215 22.9518C10.6782 23.623 11.5681 24 12.4958 24C13.4235 24 14.3133 23.623 14.97 22.9518L19.3573 18.4569L18.9341 18.4539Z" fill="black"/>
<path d="M6.32054 5.52907C6.76517 5.52786 7.20562 5.61684 7.61643 5.79088C8.02725 5.96491 8.40028 6.22055 8.71397 6.54302L12.1829 10.0937C12.3035 10.2167 12.4668 10.2858 12.6371 10.2858C12.8073 10.2858 12.9706 10.2167 13.0912 10.0937L16.5477 6.55646C16.8612 6.2336 17.2341 5.97765 17.645 5.80346C18.0559 5.62927 18.4964 5.54033 18.9412 5.54177H19.3573L14.9677 1.04963C14.6426 0.716865 14.2567 0.452894 13.8319 0.272795C13.4072 0.0926967 12.9519 0 12.4921 0C12.0323 0 11.5771 0.0926967 11.1523 0.272795C10.7275 0.452894 10.3416 0.716865 10.0166 1.04963L5.64297 5.52907H6.32054Z" fill="black"/>
<path d="M23.432 9.24784L20.6695 6.29854C20.6072 6.32573 20.5406 6.34005 20.4733 6.34075H19.2172C18.5635 6.3425 17.9369 6.61966 17.4736 7.11197L13.8739 10.9526C13.5497 11.2981 13.1104 11.4922 12.6523 11.4922C12.1943 11.4922 11.755 11.2981 11.4308 10.9526L7.81742 7.09736C7.35425 6.60475 6.72763 6.32729 6.07385 6.32533H4.53179C4.46824 6.3238 4.40543 6.31034 4.34625 6.28555L1.56628 9.24784C0.883473 9.97837 0.5 10.9683 0.5 12.0003C0.5 13.0323 0.883473 14.0222 1.56628 14.7527L4.34017 17.7142C4.39922 17.689 4.4621 17.6755 4.52571 17.6744H6.07385C6.72762 17.6724 7.3542 17.3949 7.81742 16.9024L11.43 13.0455C12.0832 12.349 13.2215 12.349 13.8739 13.0455L17.4736 16.8878C17.9369 17.3801 18.5635 17.6572 19.2172 17.659H20.4733C20.5406 17.6595 20.6072 17.6738 20.6695 17.7012L23.432 14.7519C23.7706 14.3905 24.0393 13.9614 24.2225 13.4891C24.4058 13.0169 24.5002 12.5107 24.5002 11.9995C24.5002 11.4883 24.4058 10.9821 24.2225 10.5098C24.0393 10.0375 23.7706 9.60925 23.432 9.24784Z" fill="black"/>
<path d="M18.9341 18.4539C18.4899 18.4556 18.0498 18.367 17.6392 18.1934C17.2286 18.0198 16.8557 17.7646 16.5419 17.4425L13.0865 13.9007C12.9643 13.781 12.8017 13.7142 12.6326 13.7142C12.4635 13.7142 12.3009 13.781 12.1787 13.9007L8.71161 17.4522C8.39806 17.7748 8.02522 18.0305 7.61463 18.2046C7.20404 18.3788 6.76383 18.4678 6.31945 18.4666H5.64297L10.0215 22.9518C10.6782 23.623 11.5681 24 12.4958 24C13.4235 24 14.3133 23.623 14.97 22.9518L19.3573 18.4569L18.9341 18.4539Z" stroke="black" stroke-width="2" mask="url(#path-1-inside-1_818_2339)"/>
<path d="M6.32054 5.52907C6.76517 5.52786 7.20562 5.61684 7.61643 5.79088C8.02725 5.96491 8.40028 6.22055 8.71397 6.54302L12.1829 10.0937C12.3035 10.2167 12.4668 10.2858 12.6371 10.2858C12.8073 10.2858 12.9706 10.2167 13.0912 10.0937L16.5477 6.55646C16.8612 6.2336 17.2341 5.97765 17.645 5.80346C18.0559 5.62927 18.4964 5.54033 18.9412 5.54177H19.3573L14.9677 1.04963C14.6426 0.716865 14.2567 0.452894 13.8319 0.272795C13.4072 0.0926967 12.9519 0 12.4921 0C12.0323 0 11.5771 0.0926967 11.1523 0.272795C10.7275 0.452894 10.3416 0.716865 10.0166 1.04963L5.64297 5.52907H6.32054Z" stroke="black" stroke-width="2" mask="url(#path-1-inside-1_818_2339)"/>
<path d="M23.432 9.24784L20.6695 6.29854C20.6072 6.32573 20.5406 6.34005 20.4733 6.34075H19.2172C18.5635 6.3425 17.9369 6.61966 17.4736 7.11197L13.8739 10.9526C13.5497 11.2981 13.1104 11.4922 12.6523 11.4922C12.1943 11.4922 11.755 11.2981 11.4308 10.9526L7.81742 7.09736C7.35425 6.60475 6.72763 6.32729 6.07385 6.32533H4.53179C4.46824 6.3238 4.40543 6.31034 4.34625 6.28555L1.56628 9.24784C0.883473 9.97837 0.5 10.9683 0.5 12.0003C0.5 13.0323 0.883473 14.0222 1.56628 14.7527L4.34017 17.7142C4.39922 17.689 4.4621 17.6755 4.52571 17.6744H6.07385C6.72762 17.6724 7.3542 17.3949 7.81742 16.9024L11.43 13.0455C12.0832 12.349 13.2215 12.349 13.8739 13.0455L17.4736 16.8878C17.9369 17.3801 18.5635 17.6572 19.2172 17.659H20.4733C20.5406 17.6595 20.6072 17.6738 20.6695 17.7012L23.432 14.7519C23.7706 14.3905 24.0393 13.9614 24.2225 13.4891C24.4058 13.0169 24.5002 12.5107 24.5002 11.9995C24.5002 11.4883 24.4058 10.9821 24.2225 10.5098C24.0393 10.0375 23.7706 9.60925 23.432 9.24784Z" stroke="black" stroke-width="2" mask="url(#path-1-inside-1_818_2339)"/>
</svg>
