<svg width="33" height="22" viewBox="0 0 33 22" fill="none" xmlns="http://www.w3.org/2000/svg">
<path d="M32.8988 10.9205C32.8988 16.7432 28.6035 21.5319 23.2713 21.5319C17.9885 21.5319 13.6438 16.7432 13.6438 10.9205C13.6438 5.09778 17.9392 0.309021 23.2219 0.309021C28.6035 0.309021 32.8988 5.09778 32.8988 10.9205Z" fill="white"/>
<path d="M20.0133 10.975C20.0133 10.2131 19.9145 9.45126 19.8158 8.74383H13.8912C13.9405 8.36291 14.0393 8.0364 14.138 7.60106H19.4208C19.3221 7.22013 19.174 6.83921 19.0258 6.45829H14.533C14.6811 6.07736 14.8786 5.75086 15.0761 5.31551H18.4827C18.2853 4.93459 18.0384 4.55367 17.7422 4.17274H15.866C16.1623 3.79182 16.4585 3.46531 16.8535 3.08439C15.1748 1.34302 12.9037 0.309082 10.3858 0.309082C5.15234 0.472335 0.807617 5.09784 0.807617 10.9205C0.807617 16.7432 5.10297 21.532 10.4351 21.532C12.9531 21.532 15.1748 20.4436 16.9028 18.7567C17.2485 18.4302 17.5447 18.0493 17.8903 17.6139H15.9154C15.6686 17.2874 15.4217 16.9065 15.2242 16.5256H18.5815C18.779 16.1991 18.9765 15.8181 19.1246 15.3828H14.6317C14.4836 15.0563 14.3355 14.6754 14.2368 14.24H19.5196C19.8158 13.2605 20.0133 12.1721 20.0133 10.975Z" fill="white"/>
<path d="M13.8425 13.6405L13.9906 12.661C13.9412 12.661 13.8425 12.7154 13.7437 12.7154C13.3981 12.7154 13.3488 12.4977 13.3981 12.3889L13.6944 10.4299H14.2375L14.3856 9.34152H13.8919L13.9906 8.68851H12.9538C12.9538 8.68851 12.3613 12.3889 12.3613 12.8243C12.3613 13.4773 12.7069 13.8038 13.2007 13.8038C13.4969 13.8038 13.7437 13.6949 13.8425 13.6405Z" fill="#996557"/>
<path d="M14.1875 11.8453C14.1875 13.4234 15.1749 13.8043 15.9649 13.8043C16.7055 13.8043 17.0511 13.6411 17.0511 13.6411L17.2486 12.5527C17.2486 12.5527 16.7055 12.8248 16.1624 12.8248C15.0268 12.8248 15.2243 11.8997 15.2243 11.8997H17.2979C17.2979 11.8997 17.446 11.1923 17.446 10.8657C17.446 10.1583 17.1004 9.23322 15.9649 9.23322C14.9775 9.1788 14.1875 10.4304 14.1875 11.8453ZM15.9649 10.2127C16.508 10.2127 16.4092 10.9202 16.4092 10.9746H15.2737C15.3231 10.9202 15.4218 10.2127 15.9649 10.2127Z" fill="#996557"/>
<path d="M22.4314 13.6417L22.6289 12.3901C22.6289 12.3901 22.1352 12.6622 21.7402 12.6622C21.049 12.6622 20.7034 12.0636 20.7034 11.3561C20.7034 9.99568 21.2958 9.28825 22.0364 9.28825C22.5301 9.28825 22.9745 9.61476 22.9745 9.61476L23.1226 8.41757C23.1226 8.41757 22.5301 8.14548 21.9377 8.14548C20.7527 8.14548 19.6172 9.28825 19.6172 11.4105C19.6172 12.8254 20.2097 13.7505 21.4439 13.7505C21.8883 13.8049 22.4314 13.6417 22.4314 13.6417Z" fill="#996557"/>
<path d="M8.26339 9.17972C7.57219 9.17972 7.0291 9.39739 7.0291 9.39739L6.88098 10.3769C6.88098 10.3769 7.32533 10.1592 8.01653 10.1592C8.36214 10.1592 8.65837 10.2137 8.65837 10.5402C8.65837 10.7578 8.609 10.8123 8.609 10.8123H8.16465C7.27596 10.8123 6.33789 11.1932 6.33789 12.4992C6.33789 13.5331 6.93035 13.7508 7.32533 13.7508C8.01653 13.7508 8.36214 13.261 8.41151 13.261L8.36214 13.6964H9.20146L9.59643 10.5946C9.59643 9.23414 8.609 9.17972 8.26339 9.17972ZM8.46088 11.6829C8.46088 11.8462 8.36214 12.7713 7.76968 12.7713C7.47344 12.7713 7.3747 12.4992 7.3747 12.3359C7.3747 12.0639 7.52282 11.6829 8.31277 11.6829C8.41151 11.6829 8.46088 11.6829 8.46088 11.6829Z" fill="#996557"/>
<path d="M10.5829 13.7493C10.8298 13.7493 12.1135 13.8037 12.1135 12.28C12.1135 10.8651 10.8792 11.1372 10.8792 10.593C10.8792 10.3209 11.0766 10.2121 11.4223 10.2121C11.5704 10.2121 12.1135 10.2665 12.1135 10.2665L12.2616 9.23258C12.2616 9.23258 11.916 9.12375 11.2741 9.12375C10.5336 9.12375 9.74361 9.45025 9.74361 10.593C9.74361 11.8991 11.0273 11.7902 11.0273 12.28C11.0273 12.6065 10.6817 12.6609 10.4348 12.6609C9.99047 12.6609 9.49675 12.4976 9.49675 12.4976L9.34863 13.5316C9.44738 13.6404 9.74361 13.7493 10.5829 13.7493Z" fill="#996557"/>
<path d="M30.9247 8.3092L30.7272 9.8329C30.7272 9.8329 30.3322 9.28872 29.7397 9.28872C28.8017 9.28872 28.0117 10.5403 28.0117 12.0096C28.0117 12.9347 28.4067 13.8598 29.2954 13.8598C29.8879 13.8598 30.2828 13.4245 30.2828 13.4245L30.2335 13.8054H31.2703L32.0108 8.41804L30.9247 8.3092ZM30.4309 11.2478C30.4309 11.8464 30.1841 12.6626 29.5916 12.6626C29.246 12.6626 29.0485 12.3361 29.0485 11.7375C29.0485 10.8124 29.3941 10.2682 29.8879 10.2682C30.2335 10.3227 30.4309 10.5947 30.4309 11.2478Z" fill="#996557"/>
<path d="M2.68373 13.6966L3.27619 9.66965L3.37493 13.6966H4.06614L5.39918 9.66965L4.85609 13.6966H5.94227L6.78159 8.3092H5.10295L4.06614 11.6287L4.01677 8.3092H2.53561L1.69629 13.6966H2.68373Z" fill="#996557"/>
<path d="M18.4832 13.6953C18.7794 11.8451 18.8288 10.3214 19.5694 10.5935C19.6681 9.88607 19.8163 9.55956 19.915 9.28748H19.7175C19.2732 9.28748 18.8782 9.94049 18.8782 9.94049L18.9769 9.34189H17.9895L17.3477 13.6953H18.4832Z" fill="#996557"/>
<path d="M24.8025 9.17972C24.1112 9.17972 23.5682 9.39739 23.5682 9.39739L23.42 10.3769C23.42 10.3769 23.8644 10.1592 24.5556 10.1592C24.9012 10.1592 25.1974 10.2137 25.1974 10.5402C25.1974 10.7578 25.1481 10.8123 25.1481 10.8123H24.7037C23.815 10.8123 22.877 11.1932 22.877 12.4992C22.877 13.5331 23.4694 13.7508 23.8644 13.7508C24.5556 13.7508 24.9012 13.261 24.9506 13.261L24.9012 13.6964H25.8393L26.2342 10.5946C26.2342 9.23414 25.1481 9.17972 24.8025 9.17972ZM25.0493 11.6829C25.0493 11.8462 24.9506 12.7713 24.3581 12.7713C24.0619 12.7713 23.9631 12.4992 23.9631 12.3359C23.9631 12.0639 24.1112 11.6829 24.9012 11.6829C24.9999 11.6829 24.9999 11.6829 25.0493 11.6829Z" fill="#996557"/>
<path d="M27.0242 13.6953C27.3205 11.8451 27.3698 10.3214 28.1104 10.5935C28.2091 9.88607 28.3573 9.55956 28.456 9.28748H28.2585C27.8142 9.28748 27.4192 9.94049 27.4192 9.94049L27.5179 9.34189H26.5305L25.8887 13.6953H27.0242Z" fill="#996557"/>
</svg>
