<svg width="68" height="22" viewBox="0 0 68 22" fill="none" xmlns="http://www.w3.org/2000/svg">
<path d="M60.6429 0.309082H47.8228C48.5696 4.96443 52.677 9.34595 57.1578 9.34595H67.3642C67.4886 8.93518 67.4886 8.25056 67.4886 7.83979C67.4886 3.73213 64.3769 0.309082 60.6429 0.309082Z" fill="white"/>
<path d="M48.9429 10.1683V21.5328H55.1662V15.5083H60.6428C63.63 15.5083 66.2439 13.1806 67.1151 10.1683H48.9429Z" fill="white"/>
<path d="M27.0368 0.309021V21.395H32.5134C32.5134 21.395 33.8825 21.395 34.6293 19.8889C38.3633 11.8105 39.4836 9.34588 39.4836 9.34588H40.2304V21.395H46.4537V0.309021H40.9772C40.9772 0.309021 39.608 0.445951 38.8612 1.81517C35.7495 8.7982 34.007 12.3582 34.007 12.3582H33.2602V0.309021H27.0368Z" fill="white"/>
<path d="M0.898926 21.5321V0.446106H7.1223C7.1223 0.446106 8.86486 0.446102 9.8606 3.45839C12.3499 11.3999 12.5989 12.4952 12.5989 12.4952C12.5989 12.4952 13.0967 10.5783 15.3372 3.45839C16.3329 0.446102 18.0755 0.446106 18.0755 0.446106H24.2988V21.5321H18.0755V10.1676H17.3286L13.8436 21.5321H11.1053L7.6202 10.1676H6.87339V21.5321H0.898926Z" fill="white"/>
</svg>
