<svg width="63" height="22" viewBox="0 0 63 22" fill="none" xmlns="http://www.w3.org/2000/svg">
<path d="M58.86 0.309082H54.99C53.82 0.309082 52.92 0.704417 52.38 1.98926L45 20.4712H50.22C50.22 20.4712 51.12 18.0003 51.3 17.4073C51.84 17.4073 56.97 17.4073 57.69 17.4073C57.87 18.0992 58.32 20.3723 58.32 20.3723H63L58.86 0.309082ZM52.74 13.2563C53.19 12.0703 54.72 7.62278 54.72 7.62278C54.72 7.72161 55.17 6.43677 55.35 5.74494L55.71 7.52394C55.71 7.52394 56.7 12.3668 56.88 13.3551H52.74V13.2563Z" fill="white"/>
<path d="M44.3675 14.4579C44.3675 18.7026 40.9337 21.5323 35.6024 21.5323C33.3434 21.5323 31.1747 21.027 30 20.4206L30.7229 15.7717L31.3554 16.0749C32.9819 16.8834 34.0663 17.1866 36.0542 17.1866C37.5 17.1866 39.0361 16.5802 39.0361 15.1654C39.0361 14.2558 38.4036 13.6494 36.4157 12.6388C34.5181 11.6281 31.9879 10.0111 31.9879 7.08031C31.9879 3.03779 35.512 0.309082 40.4819 0.309082C42.3795 0.309082 44.006 0.713334 45 1.21865L44.2771 5.66542L43.9157 5.26117C43.012 4.85692 41.8373 4.45267 40.1205 4.45267C38.2229 4.55373 37.3193 5.4633 37.3193 6.2718C37.3193 7.18137 38.4036 7.88881 40.1205 8.79838C43.012 10.3143 44.3675 12.0324 44.3675 14.4579Z" fill="white"/>
<path d="M0 0.705778L0.0923077 0.309082H8.03077C9.13846 0.309082 9.96923 0.705778 10.2462 1.99504L12 10.9207C10.2462 6.16035 6.18462 2.29256 0 0.705778Z" fill="white"/>
<path d="M23 0.407916L15.0102 20.4712H9.59184L5 3.66943C8.30612 5.9426 11.0612 9.50062 12.0714 11.9715L12.6224 14.047L17.5816 0.309082H23V0.407916Z" fill="white"/>
<path d="M25.1111 0.309082H30L26.8889 20.4712H22L25.1111 0.309082Z" fill="white"/>
</svg>
