<svg width="22" height="14" viewBox="0 0 22 14" fill="none" xmlns="http://www.w3.org/2000/svg">
<path d="M13.8354 1.89044H8.14741V12.1095H13.8354V1.89044Z" fill="#FF5A00"/>
<path d="M8.52607 6.99999C8.52607 4.92378 9.50212 3.08105 10.9998 1.89044C9.89759 1.02379 8.50713 0.5 6.99046 0.5C3.39758 0.5 0.490479 3.40711 0.490479 6.99999C0.490479 10.5929 3.39758 13.5 6.99046 13.5C8.50713 13.5 9.89759 12.9762 10.9998 12.1095C9.50002 10.9357 8.52607 9.07619 8.52607 6.99999Z" fill="#EB001B"/>
<path d="M21.5095 6.99999C21.5095 10.5929 18.6024 13.5 15.0095 13.5C13.4929 13.5 12.1021 12.9762 10.9998 12.1095C12.5165 10.9168 13.4739 9.07619 13.4739 6.99999C13.4739 4.92378 12.4976 3.08105 10.9998 1.89044C12.1 1.02379 13.4908 0.5 15.0074 0.5C18.6024 0.5 21.5095 3.42605 21.5095 6.99999Z" fill="#F79E1B"/>
</svg>
