<svg width="32" height="22" viewBox="0 0 32 22" fill="none" xmlns="http://www.w3.org/2000/svg">
<path fill-rule="evenodd" clip-rule="evenodd" d="M4.71094 0.109375C3.45191 0.109375 2.26636 0.702152 1.51094 1.70937C0.991649 2.40176 0.710938 3.24389 0.710938 4.10938V7.10938V17.6094C0.710938 18.4749 0.991649 19.317 1.51094 20.0094C2.26635 21.0166 3.45191 21.6094 4.71094 21.6094H26.7967C27.9674 21.6094 29.0902 21.1443 29.918 20.3165C30.7459 19.4887 31.2109 18.3659 31.2109 17.1952V7.10938V4.52359C31.2109 3.35287 30.7459 2.23009 29.918 1.40227C29.0902 0.574443 27.9674 0.109375 26.7967 0.109375H4.71094ZM3.11094 2.90937C3.48865 2.40576 4.08142 2.10938 4.71094 2.10938H26.7967C27.437 2.10938 28.0511 2.36373 28.5038 2.81648C28.9566 3.26923 29.2109 3.8833 29.2109 4.52359V6.10938H15.9609H2.71094V4.10938C2.71094 3.67663 2.85129 3.25557 3.11094 2.90937ZM15.9609 8.10938H29.2109V17.1952C29.2109 17.8354 28.9566 18.4495 28.5038 18.9023C28.0511 19.355 27.437 19.6094 26.7967 19.6094H4.71094C4.08142 19.6094 3.48865 19.313 3.11094 18.8094C2.85129 18.4632 2.71094 18.0421 2.71094 17.6094V8.10938H15.9609ZM21.7109 14.1094C21.1587 14.1094 20.7109 14.5571 20.7109 15.1094C20.7109 15.6617 21.1587 16.1094 21.7109 16.1094H24.7109C25.2632 16.1094 25.7109 15.6617 25.7109 15.1094C25.7109 14.5571 25.2632 14.1094 24.7109 14.1094H21.7109Z" fill="#5585E7"/>
</svg>
