<svg width="14" height="14" viewBox="0 0 14 14" fill="none" xmlns="http://www.w3.org/2000/svg">
<g clip-path="url(#clip0_924_8475)">
<path d="M3.08162 10.7099C3.35177 10.7106 3.61938 10.6577 3.86899 10.5544C4.1186 10.4511 4.34526 10.2993 4.53587 10.1079L6.63587 8.00787C6.71014 7.93677 6.80898 7.89709 6.91179 7.89709C7.0146 7.89709 7.11344 7.93677 7.1877 8.00787L9.29529 10.1155C9.48588 10.3069 9.71253 10.4587 9.96214 10.562C10.2118 10.6654 10.4794 10.7182 10.7495 10.7175H11.1637L8.5037 13.3775C8.10477 13.7761 7.56386 14.0001 6.99987 14.0001C6.43588 14.0001 5.89497 13.7761 5.49604 13.3775L2.82904 10.7099H3.08162ZM10.7495 3.28229C10.4794 3.28158 10.2118 3.33442 9.96216 3.43774C9.71255 3.54107 9.4859 3.69284 9.29529 3.88429L7.1877 5.99245C7.11444 6.06548 7.01522 6.10648 6.91179 6.10648C6.80835 6.10648 6.70913 6.06548 6.63587 5.99245L4.53587 3.89245C4.34531 3.7009 4.11867 3.54903 3.86906 3.4456C3.61945 3.34217 3.35181 3.28924 3.08162 3.28987H2.82845L5.49604 0.62287C5.89489 0.224051 6.43583 0 6.99987 0C7.56391 0 8.10485 0.224051 8.5037 0.62287L11.1631 3.28229H10.7495ZM0.62287 5.49604L2.2107 3.90762H3.08104C3.46237 3.90862 3.82792 4.05995 4.09837 4.32879L6.19837 6.42879C6.38754 6.6174 6.64378 6.72332 6.91091 6.72332C7.17805 6.72332 7.43428 6.6174 7.62345 6.42879L9.73162 4.3212C10.0019 4.0521 10.3675 3.90054 10.749 3.89945H11.7797L13.3763 5.49604C13.7751 5.89489 13.9992 6.43583 13.9992 6.99987C13.9992 7.56391 13.7751 8.10485 13.3763 8.5037L11.7803 10.0997H10.749C10.3676 10.0988 10.002 9.94742 9.73162 9.67853L7.62404 7.57095C7.43197 7.38766 7.17669 7.2854 6.9112 7.2854C6.64572 7.2854 6.39043 7.38766 6.19837 7.57095L4.09837 9.67095C3.82792 9.93979 3.46237 10.0911 3.08104 10.0921H2.21129L0.62287 8.5037C0.224051 8.10485 0 7.56391 0 6.99987C0 6.43583 0.224051 5.89489 0.62287 5.49604Z" fill="#00BBA5"/>
</g>
<defs>
<clipPath id="clip0_924_8475">
<rect width="14" height="14" fill="white"/>
</clipPath>
</defs>
</svg>
