<svg width="24" height="25" viewBox="0 0 24 25" fill="none" xmlns="http://www.w3.org/2000/svg">
<path d="M14.8536 19.5C14.8536 20.6046 15.7054 21.5 16.7561 21.5C17.8068 21.5 18.6585 20.6046 18.6585 19.5C18.6585 18.3954 17.8068 17.5 16.7561 17.5H7.59327C7.11989 17.5 6.71856 17.1341 6.65161 16.6414M17.7073 14.5H6.36062L4.86584 3.5H2.48779M9.14633 5.5H20.561L18.6585 11.5M11.0488 19.5C11.0488 20.6046 10.197 21.5 9.14633 21.5C8.09564 21.5 7.24389 20.6046 7.24389 19.5C7.24389 18.3954 8.09564 17.5 9.14633 17.5C10.197 17.5 11.0488 18.3954 11.0488 19.5Z" stroke="white" stroke-width="1.5" stroke-linecap="round" stroke-linejoin="round"/>
</svg>
