<svg width="16" height="15" viewBox="0 0 16 15" fill="none" xmlns="http://www.w3.org/2000/svg">
<path d="M13.3463 2.66183C13.0237 2.32852 12.6407 2.06411 12.2192 1.88372C11.7976 1.70332 11.3458 1.61047 10.8895 1.61047C10.4332 1.61047 9.98134 1.70332 9.55979 1.88372C9.13823 2.06411 8.75523 2.32852 8.43264 2.66183L7.76317 3.35325L7.09369 2.66183C6.4421 1.98888 5.55835 1.61082 4.63685 1.61082C3.71536 1.61082 2.83161 1.98888 2.18001 2.66183C1.52842 3.33478 1.16235 4.2475 1.16235 5.19919C1.16235 6.15089 1.52842 7.06361 2.18001 7.73656L2.84948 8.42797L7.76317 13.5027L12.6769 8.42797L13.3463 7.73656C13.6691 7.4034 13.9251 7.00784 14.0997 6.57247C14.2744 6.1371 14.3643 5.67046 14.3643 5.19919C14.3643 4.72793 14.2744 4.26129 14.0997 3.82592C13.9251 3.39055 13.6691 2.99499 13.3463 2.66183V2.66183Z" stroke="#212429" stroke-width="1.5" stroke-linecap="round" stroke-linejoin="round"/>
</svg>
