<svg width="24" height="15" viewBox="0 0 24 15" fill="none" xmlns="http://www.w3.org/2000/svg">
<path d="M8.33334 14.0001C8.86378 14.0001 9.37248 13.7947 9.74756 13.429C10.1226 13.0633 10.3333 12.5673 10.3333 12.0501C10.3333 11.5329 10.1226 11.0369 9.74756 10.6712C9.37248 10.3055 8.86378 10.1001 8.33334 10.1001C7.80291 10.1001 7.2942 10.3055 6.91913 10.6712C6.54406 11.0369 6.33334 11.5329 6.33334 12.0501C6.33334 12.5673 6.54406 13.0633 6.91913 13.429C7.2942 13.7947 7.80291 14.0001 8.33334 14.0001V14.0001ZM18.3333 14.0001C18.8638 14.0001 19.3725 13.7947 19.7476 13.429C20.1226 13.0633 20.3333 12.5673 20.3333 12.0501C20.3333 11.5329 20.1226 11.0369 19.7476 10.6712C19.3725 10.3055 18.8638 10.1001 18.3333 10.1001C17.8029 10.1001 17.2942 10.3055 16.9191 10.6712C16.5441 11.0369 16.3333 11.5329 16.3333 12.0501C16.3333 12.5673 16.5441 13.0633 16.9191 13.429C17.2942 13.7947 17.8029 14.0001 18.3333 14.0001V14.0001Z" stroke="#212429" stroke-width="1.5" stroke-miterlimit="1.5" stroke-linecap="round" stroke-linejoin="round"/>
<path d="M5.65 12.05H3.6C3.52121 12.05 3.44319 12.0344 3.37039 12.0041C3.29759 11.9738 3.23145 11.9294 3.17574 11.8735C3.12002 11.8175 3.07582 11.7511 3.04567 11.6779C3.01552 11.6048 3 11.5264 3 11.4473V6.525M10.05 12.05H15V1.60273C15 1.44287 14.9368 1.28957 14.8243 1.17653C14.7117 1.0635 14.5591 1 14.4 1H1L10.05 12.05Z" stroke="#212429" stroke-width="1.5" stroke-linecap="round"/>
<path d="M2.33334 4.25H6.33334" stroke="#212429" stroke-width="1.5" stroke-linecap="round" stroke-linejoin="round"/>
<path d="M15 12.05H16M15 4.25H20.61C20.726 4.25003 20.8395 4.28283 20.9367 4.34443C21.034 4.40603 21.1108 4.49379 21.158 4.5971L22.948 8.5244C22.9821 8.59897 22.9998 8.67968 23 8.76132V11.465C23 11.5418 22.9845 11.6179 22.9543 11.6889C22.9242 11.7598 22.88 11.8243 22.8243 11.8787C22.7685 11.933 22.7024 11.9761 22.6296 12.0055C22.5568 12.0349 22.4788 12.05 22.4 12.05H20.5L15 4.25Z" stroke="#212429" stroke-width="1.5" stroke-linecap="round"/>
</svg>
