<svg width="36" height="22" viewBox="0 0 36 22" fill="none" xmlns="http://www.w3.org/2000/svg">
<path d="M13 21C13.7956 21 14.5587 20.6839 15.1213 20.1213C15.6839 19.5587 16 18.7956 16 18C16 17.2044 15.6839 16.4413 15.1213 15.8787C14.5587 15.3161 13.7956 15 13 15C12.2044 15 11.4413 15.3161 10.8787 15.8787C10.3161 16.4413 10 17.2044 10 18C10 18.7956 10.3161 19.5587 10.8787 20.1213C11.4413 20.6839 12.2044 21 13 21V21ZM28 21C28.7956 21 29.5587 20.6839 30.1213 20.1213C30.6839 19.5587 31 18.7956 31 18C31 17.2044 30.6839 16.4413 30.1213 15.8787C29.5587 15.3161 28.7956 15 28 15C27.2044 15 26.4413 15.3161 25.8787 15.8787C25.3161 16.4413 25 17.2044 25 18C25 18.7956 25.3161 19.5587 25.8787 20.1213C26.4413 20.6839 27.2044 21 28 21V21Z" stroke="#212429" stroke-width="1.5" stroke-miterlimit="1.5" stroke-linecap="round" stroke-linejoin="round"/>
<path d="M8.975 18H5.9C5.78181 18 5.66478 17.976 5.55558 17.9294C5.44639 17.8828 5.34718 17.8145 5.2636 17.7284C5.18003 17.6423 5.11374 17.5401 5.06851 17.4276C5.02328 17.3151 5 17.1945 5 17.0727V9.5M15.575 18H23V1.92727C23 1.68134 22.9052 1.44549 22.7364 1.27159C22.5676 1.09769 22.3387 1 22.1 1H2L15.575 18Z" stroke="#212429" stroke-width="1.5" stroke-linecap="round"/>
<path d="M4 6H10" stroke="#212429" stroke-width="1.5" stroke-linecap="round" stroke-linejoin="round"/>
<path d="M23 18H24.5M23 6H31.415C31.589 6.00004 31.7592 6.0505 31.9051 6.14528C32.051 6.24005 32.1663 6.37507 32.237 6.534L34.922 12.576C34.9732 12.6907 34.9997 12.8149 35 12.9405V17.1C35 17.2182 34.9767 17.3352 34.9315 17.4444C34.8863 17.5536 34.82 17.6528 34.7364 17.7364C34.6528 17.82 34.5536 17.8863 34.4444 17.9315C34.3352 17.9767 34.2182 18 34.1 18H31.25L23 6Z" stroke="#212429" stroke-width="1.5" stroke-linecap="round"/>
</svg>
