<svg width="14" height="13" viewBox="0 0 14 13" fill="none" xmlns="http://www.w3.org/2000/svg">
<path d="M13.1891 4.45005L9.2219 3.87349L7.44847 0.278177C7.40003 0.179739 7.32034 0.100052 7.2219 0.0516141C6.97503 -0.0702609 6.67503 0.0313016 6.55159 0.278177L4.77815 3.87349L0.810967 4.45005C0.701592 4.46568 0.601592 4.51724 0.525029 4.59536C0.432469 4.6905 0.381465 4.81849 0.383223 4.95121C0.384981 5.08393 0.439357 5.21053 0.534404 5.30318L3.40472 8.10161L2.72659 12.0532C2.71069 12.1451 2.72086 12.2396 2.75595 12.3261C2.79105 12.4125 2.84966 12.4874 2.92514 12.5422C3.00062 12.597 3.08995 12.6296 3.183 12.6362C3.27605 12.6429 3.3691 12.6233 3.45159 12.5797L7.00003 10.7141L10.5485 12.5797C10.6453 12.6313 10.7578 12.6485 10.8657 12.6297C11.1375 12.5829 11.3203 12.3251 11.2735 12.0532L10.5953 8.10161L13.4657 5.30318C13.5438 5.22661 13.5953 5.12661 13.611 5.01724C13.6532 4.7438 13.4625 4.49068 13.1891 4.45005ZM9.38753 7.70786L9.95159 10.9938L7.00003 9.4438L4.04847 10.9954L4.61253 7.70943L2.22503 5.3813L5.52503 4.90161L7.00003 1.91255L8.47503 4.90161L11.775 5.3813L9.38753 7.70786Z" fill="#471703"/>
</svg>
