<svg width="14" height="13" viewBox="0 0 14 13" fill="none" xmlns="http://www.w3.org/2000/svg">
<path d="M8.88977 4.39763L8.77346 4.16183L7.00049 0.567459C6.99979 0.56771 6.99937 0.568001 6.99926 0.568091C6.99926 0.568095 6.99925 0.568094 6.99925 0.568097C6.99923 0.568114 6.99923 0.568119 6.99924 0.56811L8.88977 4.39763ZM8.88977 4.39763L9.14996 4.43545L13.1156 5.01178L13.1891 4.51721M8.88977 4.39763L7.44844 0.345331L9.22187 3.94064L13.1891 4.51721M13.1891 4.51721L13.1177 5.00829L13.1172 5.01144L13.4656 5.37033C13.5437 5.29377 13.5953 5.19377 13.6109 5.08439C13.6531 4.81096 13.4625 4.55783 13.1891 4.51721ZM13.1157 5.01322L13.1161 5.01281L13.1162 5.01192L13.1156 5.01179L0.883238 5.01195L0.883384 5.01229L0.883416 5.01232L3.75373 7.81076L3.94194 7.99426L3.89748 8.25334L3.21951 12.204L6.76732 10.3387L7 10.2164L7.23268 10.3387L10.7805 12.204L10.1025 8.25334L10.0581 7.99426L10.2463 7.81076L13.1157 5.01322ZM13.1157 5.01322L13.116 5.01368L13.116 5.01355L13.1157 5.01322ZM10.8656 12.6969C10.7578 12.7156 10.6453 12.6985 10.5484 12.6469L7 10.7813L3.45156 12.6469C3.36907 12.6904 3.27602 12.71 3.18297 12.7034C3.08992 12.6968 3.00059 12.6642 2.92511 12.6094C2.84963 12.5545 2.79102 12.4797 2.75592 12.3932C2.72083 12.3068 2.71066 12.2123 2.72656 12.1203L3.40469 8.16877L0.534374 5.37033C0.439327 5.27768 0.38495 5.15109 0.383192 5.01836C0.381434 4.88564 0.432439 4.75765 0.524999 4.66252L10.8656 12.6969ZM10.8656 12.6969C11.1375 12.65 11.3203 12.3922 11.2734 12.1203L10.8656 12.6969ZM10.781 12.2043C10.781 12.2042 10.781 12.2041 10.781 12.2041M10.781 12.2043L10.7808 12.2041C10.7809 12.2041 10.7809 12.2041 10.781 12.2041M10.781 12.2043L10.7809 12.2042M10.781 12.2043L10.7809 12.2042M10.781 12.2041C10.7813 12.204 10.7814 12.204 10.7814 12.204C10.7814 12.204 10.7812 12.2041 10.7809 12.2042M10.781 12.2041C10.781 12.204 10.781 12.204 10.7811 12.204C10.7811 12.2038 10.7811 12.2039 10.781 12.2041C10.7809 12.2041 10.7809 12.2042 10.7809 12.2042M10.7809 12.2042L10.7809 12.2042M10.7809 12.2042C10.7809 12.2042 10.7809 12.2043 10.7809 12.2043C10.7808 12.2043 10.7807 12.2044 10.7807 12.2044C10.7807 12.2044 10.7808 12.2043 10.7809 12.2042M6.99885 0.568802L6.99998 0.566518L6.55156 0.345331L6.99877 0.568937L6.99885 0.568802ZM0.881779 5.01216L0.882105 5.01248L0.881647 5.01218L0.881779 5.01216Z" stroke="#471703"/>
</svg>
